<?xml version="1.0" standalone="no"?>
<!DOCTYPE svg PUBLIC "-//W3C//DTD SVG 20010904//EN"
 "http://www.w3.org/TR/2001/REC-SVG-20010904/DTD/svg10.dtd">
<svg version="1.0" xmlns="http://www.w3.org/2000/svg"
 width="1280.000000pt" height="640.000000pt" viewBox="0 0 1280.000000 640.000000"
 preserveAspectRatio="xMidYMid meet">
<metadata>
Created by potrace 1.15, written by Peter Selinger 2001-2017
</metadata>
<g transform="translate(0.000000,640.000000) scale(0.100000,-0.100000)"
fill="#000000" stroke="none">
<path d="M1010 4711 c-5 -11 -10 -46 -10 -78 0 -50 -5 -65 -30 -100 -37 -50
-109 -98 -173 -114 -71 -17 -176 -6 -316 35 -110 32 -293 60 -306 47 -3 -2 -5
-27 -5 -54 0 -44 4 -54 46 -100 26 -29 50 -62 55 -75 5 -13 9 -77 9 -143 0
-106 2 -121 20 -139 32 -32 64 -40 154 -40 74 0 87 -3 130 -30 47 -30 142
-123 214 -209 33 -39 37 -51 40 -112 4 -60 -2 -89 -38 -207 -67 -219 -58 -203
-125 -239 -47 -25 -61 -38 -65 -60 l-5 -28 -115 -2 c-63 -1 -127 -4 -141 -7
-67 -13 -170 -145 -276 -352 -40 -78 -73 -149 -73 -158 0 -42 102 -46 179 -6
56 28 133 132 156 210 l11 35 144 3 c199 4 318 -22 338 -76 6 -15 13 -90 16
-167 3 -77 15 -202 25 -277 18 -123 19 -142 6 -190 -31 -116 -29 -112 -68
-123 -69 -19 -137 -106 -137 -174 0 -70 99 -105 294 -103 85 1 134 6 143 14
13 10 14 35 8 155 l-7 143 58 147 c51 128 66 155 110 201 38 40 57 52 80 52
50 -1 94 -52 94 -110 0 -19 9 -75 20 -124 25 -112 25 -159 0 -214 l-19 -42
-56 27 -55 27 -27 -27 c-24 -24 -28 -36 -31 -103 -5 -91 6 -117 59 -138 55
-22 765 -11 792 12 9 9 25 40 34 71 46 159 -60 538 -214 769 -48 70 -71 116
-83 165 -15 55 -33 87 -98 175 -45 59 -110 136 -146 172 -74 73 -80 84 -101
229 -13 89 -24 124 -75 230 -103 221 -111 259 -108 541 3 207 2 217 -21 270
-29 67 -29 96 0 151 32 64 31 189 -1 224 -29 31 -40 32 -40 4 0 -11 -9 -34
-21 -50 -12 -17 -24 -42 -28 -57 -5 -19 -15 -28 -34 -30 -23 -3 -29 3 -48 47
-22 52 -87 121 -114 121 -8 0 -19 -9 -25 -19z"/>
<path d="M5300 4711 c-5 -11 -10 -46 -10 -79 0 -49 -5 -65 -27 -93 -64 -83
-142 -118 -278 -126 -75 -5 -88 -2 -215 42 -145 50 -259 67 -298 46 -40 -21
-24 -82 43 -166 50 -63 50 -62 55 -225 l5 -155 120 -6 c77 -3 133 -11 155 -21
19 -9 87 -68 150 -132 l115 -116 3 -89 c4 -98 -4 -138 -66 -310 -40 -112 -37
-109 -152 -176 l-75 -45 -100 0 c-120 0 -145 -13 -219 -111 -87 -116 -221
-370 -214 -406 5 -29 51 -39 116 -25 80 17 102 36 122 107 9 33 22 71 29 83
29 53 205 101 326 88 69 -7 203 -42 222 -58 9 -7 13 -46 13 -132 0 -85 8 -162
25 -260 28 -156 30 -201 14 -278 -17 -79 -35 -108 -66 -108 -26 0 -92 -58
-128 -114 -15 -22 -15 -27 -1 -54 17 -33 91 -84 155 -107 46 -16 120 -19 218
-9 l61 7 4 171 4 171 44 110 c50 122 111 222 151 244 24 13 31 13 68 -4 48
-21 108 -83 117 -120 3 -14 4 -73 2 -133 -4 -79 -11 -122 -27 -165 l-23 -59
-29 28 -29 28 -61 -30 c-86 -41 -111 -73 -107 -138 3 -47 5 -51 27 -48 14 1
36 -9 57 -28 l35 -30 389 0 390 0 0 25 c0 13 11 41 25 61 21 32 25 48 25 116
0 194 -103 493 -234 677 -29 41 -56 97 -76 156 -40 120 -70 166 -194 295 -116
120 -127 142 -151 295 -14 88 -22 110 -68 190 l-52 90 3 101 c2 78 -3 128 -24
225 -23 109 -27 154 -31 377 l-5 253 26 39 26 40 -43 45 c-24 25 -53 45 -64
45 -34 0 -56 -35 -57 -92 -1 -47 -4 -53 -23 -56 -33 -5 -70 40 -83 101 -12 58
-21 67 -67 67 -22 0 -36 -6 -43 -19z"/>
<path d="M9636 4684 c-3 -26 -6 -65 -6 -87 0 -52 -43 -93 -155 -147 -119 -58
-158 -61 -291 -17 -153 51 -218 65 -304 69 l-75 3 -3 -53 c-3 -47 0 -57 27
-88 19 -21 31 -46 31 -63 0 -16 9 -58 20 -93 12 -34 23 -95 27 -135 8 -100 22
-112 145 -123 100 -9 145 -25 261 -92 114 -66 107 -44 101 -322 l-6 -241 -30
-63 c-22 -47 -42 -72 -81 -101 -89 -66 -105 -71 -225 -71 l-109 0 -47 -41
c-55 -49 -69 -74 -87 -153 -11 -51 -22 -69 -82 -133 -68 -74 -122 -167 -115
-201 3 -14 16 -17 85 -20 105 -4 122 10 160 128 24 72 33 87 62 104 57 33 138
46 287 46 158 0 161 -1 187 -76 27 -74 49 -275 51 -444 1 -148 -1 -172 -22
-230 -12 -36 -33 -81 -46 -100 -13 -19 -27 -49 -31 -66 -3 -17 -17 -42 -31
-54 -13 -13 -24 -27 -24 -30 0 -17 88 -92 120 -101 20 -6 108 -9 203 -7 l168
3 -57 81 -56 82 18 28 c10 16 37 53 59 83 l40 55 -3 115 c-1 64 0 125 3 137 5
21 151 124 176 124 17 0 81 -38 91 -54 4 -6 8 -105 8 -220 l0 -209 -25 23
c-24 23 -25 23 -69 6 -58 -22 -67 -34 -73 -103 -7 -72 14 -129 52 -143 16 -6
169 -10 379 -10 l352 0 52 51 52 51 0 89 c0 81 -4 100 -50 226 -28 76 -66 194
-86 263 -40 139 -59 174 -183 340 -49 66 -105 155 -131 210 -32 68 -62 113
-106 160 -75 80 -75 80 -135 256 -67 198 -79 278 -79 515 0 185 -2 204 -29
310 -18 71 -32 156 -36 225 l-7 111 31 35 c46 53 42 84 -20 153 l-52 56 -28
-27 c-16 -15 -29 -37 -29 -48 0 -29 -36 -86 -54 -86 -26 0 -108 88 -115 123
-5 22 -13 33 -27 35 -18 3 -22 -4 -28 -44z"/>
<path d="M12278 4429 c-10 -5 -25 -34 -33 -64 -9 -29 -22 -59 -30 -65 -8 -7
-15 -27 -15 -44 0 -26 -14 -45 -94 -121 -51 -49 -101 -102 -111 -117 -10 -17
-20 -62 -25 -120 -9 -107 -41 -211 -107 -341 -49 -98 -94 -148 -222 -247 -78
-60 -276 -263 -315 -322 -10 -15 -35 -96 -57 -180 -22 -84 -49 -186 -60 -227
-10 -41 -19 -94 -19 -119 0 -29 -8 -57 -22 -81 l-23 -36 -12 68 c-7 37 -31
109 -54 160 -41 90 -42 95 -50 237 -15 276 -11 375 16 488 53 217 16 346 -106
373 -58 13 -139 2 -139 -18 0 -9 16 -50 35 -93 l35 -78 -10 -183 c-5 -101 -16
-220 -25 -264 -23 -122 -36 -385 -26 -522 12 -154 33 -209 107 -284 54 -54 56
-60 80 -157 16 -71 41 -137 84 -221 33 -67 60 -132 60 -146 l0 -25 415 0 415
0 0 63 0 62 -82 78 c-45 43 -74 75 -64 71 33 -13 45 19 39 97 -5 63 -4 71 21
104 30 39 92 75 130 75 18 0 30 -9 40 -29 17 -32 36 -135 36 -194 0 -21 14
-72 30 -114 20 -51 30 -92 30 -129 0 -51 2 -56 33 -74 46 -28 78 -25 136 15
28 19 62 35 76 35 24 0 25 2 25 70 0 80 -17 124 -52 136 -13 4 -56 7 -96 6
-55 0 -74 3 -79 14 -3 8 0 57 6 109 19 164 83 307 251 565 105 161 132 217
160 325 26 100 25 161 -1 222 -60 137 -79 214 -79 318 0 122 3 126 133 180 73
31 87 41 87 60 0 12 11 39 25 59 30 45 31 61 5 104 -22 36 -20 35 -104 50 -61
12 -179 79 -190 108 -3 9 -6 34 -6 57 0 77 -134 318 -176 317 -5 0 -17 -5 -26
-11z"/>
<path d="M7962 4358 c-6 -17 -28 -36 -61 -52 -46 -24 -51 -30 -51 -59 0 -28
-14 -46 -112 -140 l-113 -108 3 -90 c2 -84 0 -95 -39 -195 -41 -105 -151 -287
-200 -330 -13 -12 -51 -37 -84 -57 -33 -20 -72 -48 -88 -62 -29 -27 -143 -197
-177 -266 -46 -90 -183 -476 -189 -534 -6 -57 -33 -115 -52 -115 -5 0 -9 17
-9 38 0 53 -16 104 -64 201 l-41 86 0 275 c0 256 2 283 24 383 22 96 24 114
13 165 -7 31 -24 82 -39 112 l-28 55 -97 3 -98 3 0 -31 c0 -17 12 -54 28 -83
27 -51 27 -55 25 -217 -1 -110 -9 -208 -23 -295 -12 -74 -23 -208 -27 -310 -9
-282 14 -393 105 -498 54 -62 64 -82 96 -196 15 -51 47 -134 72 -184 25 -49
49 -108 53 -131 l7 -41 417 -3 417 -2 0 62 0 63 -82 79 c-46 43 -77 75 -70 71
22 -12 61 22 71 62 5 21 12 65 16 98 12 116 11 115 59 115 55 0 78 -18 105
-80 19 -43 21 -62 15 -119 -5 -59 -3 -75 20 -134 15 -36 31 -89 35 -118 10
-64 35 -90 94 -96 116 -13 231 140 171 226 -23 33 -74 51 -143 51 -69 0 -71 3
-71 94 0 57 3 67 41 117 56 74 74 113 88 189 26 142 37 160 164 278 65 61 78
95 121 307 33 160 33 176 -5 255 -63 134 -76 262 -38 367 18 49 38 73 125 158
115 110 122 126 81 186 -17 26 -31 35 -57 37 -64 5 -77 11 -129 64 -33 34 -70
89 -103 153 -33 66 -70 121 -108 160 l-57 60 -11 -27z"/>
<path d="M3669 4344 c-8 -16 -32 -38 -53 -49 -27 -14 -42 -30 -50 -55 -11 -34
-23 -44 -121 -102 l-45 -27 0 -58 c0 -38 -11 -87 -30 -143 -24 -66 -30 -101
-30 -164 l0 -79 -60 -59 c-33 -32 -81 -90 -105 -128 -46 -70 -78 -100 -199
-185 -123 -87 -190 -198 -310 -512 -46 -120 -100 -253 -120 -295 -20 -42 -36
-89 -36 -104 0 -37 -14 -21 -34 40 -10 28 -20 111 -26 200 -5 92 -17 182 -30
231 -27 105 -27 140 3 260 19 76 27 139 32 262 7 179 -1 230 -41 269 -23 23
-29 25 -131 22 -102 -3 -108 -4 -111 -25 -2 -12 11 -53 27 -92 37 -84 38 -100
4 -266 -25 -124 -26 -148 -30 -520 -3 -214 -2 -409 2 -433 5 -37 21 -58 103
-148 149 -160 183 -226 219 -416 l17 -88 438 0 438 0 6 26 c8 31 -1 91 -17
110 -7 8 -42 31 -78 51 -81 45 -111 70 -111 97 0 11 22 51 49 90 26 39 58 90
70 113 22 45 63 79 81 68 5 -3 10 -25 10 -49 0 -58 32 -177 70 -261 18 -39 34
-94 37 -125 6 -70 19 -96 54 -111 39 -16 124 -7 149 16 12 11 20 31 20 50 0
22 9 40 30 60 l30 29 -30 31 c-18 19 -30 41 -30 58 0 26 -2 27 -49 27 -29 0
-53 5 -58 13 -17 27 -4 152 26 237 16 47 37 123 46 170 10 47 25 101 35 120
10 19 58 73 107 120 54 51 107 115 136 160 l46 76 -2 184 -3 185 -48 65 c-27
36 -52 75 -57 88 -10 26 19 179 45 233 9 20 59 75 111 123 98 90 106 105 86
159 -16 42 -39 57 -87 57 -40 0 -51 6 -94 46 -28 26 -69 76 -91 113 -23 36
-70 98 -104 136 -34 39 -69 83 -77 99 l-15 29 -14 -29z"/>
</g>
</svg>
