<svg xmlns="http://www.w3.org/2000/svg" width="441" height="340" fill="none" viewBox="0 0 441 340">
  <path fill="#3D5A80" d="M256.985 339.663c-100.001 0-181.067-8.253-181.067-18.432 0-3.2 8.012-6.21 22.107-8.833 3.772 6.738 11.068 11.526 24.196 11.526.929 0 1.892-.024 2.879-.073 13.38-.666 20.39-7.581 23.633-17.397 2.528-.192 5.108-.378 7.738-.556a74.88 74.88 0 0 0 5.162 4.16c15.059 11.077 34.512 16.695 57.819 16.695h102.524c3.021.49 6.062.695 9.079.695.537 0 1.072-.008 1.606-.019a72.125 72.125 0 0 0 8.15-.676h51.781c18.701 0 28.419-5.951 33.463-12.134 7.749 2.053 11.997 4.282 11.997 6.612 0 10.179-81.067 18.432-181.067 18.432Z"/>
  <path fill="#9E9E9E" d="M392.593 323.847H219.451c-48.217 0-73.514-24.48-83.575-55.614-10.556-32.672 16.242-82.57 16.242-82.57s64.696 2.392 114.788 6.096c39.621 2.928 49.629 7.053 64.25 20.517 23.053 21.234 22.622 52.977 22.622 52.977s27.195-.182 52.141 6.703c29.41 8.118 35.565 51.891-13.326 51.891Z"/>
  <path fill="#92A2B8" d="M392.591 323.851H219.454c-48.222 0-73.519-24.483-83.576-55.615-8.83-27.324 8.473-66.703 14.366-78.861 1.155-2.376 1.875-3.713 1.875-3.713s56.537 2.092 104.834 5.392c3.364.224 6.693.464 9.956.704 39.619 2.93 49.626 7.056 64.247 20.522 23.051 21.235 22.622 52.97 22.622 52.97s12.384-.081 28.109 1.991c7.572.988 15.922 2.477 24.032 4.716 29.41 8.117 35.565 51.894-13.328 51.894Z"/>
  <path fill="#6C7887" d="M293.95 307.692c-8.858-1.403-20.114-3.866-30.56-8.143a31.825 31.825 0 0 0 7.129-1.784c1.573-.607 3.125-1.357 4.646-2.428.718-.529 1.296-1.05 1.949-1.58.313-.266.644-.516.939-.802l.873-.874c1.201-1.131 2.218-2.418 3.249-3.688l1.404-2c.46-.672.844-1.385 1.268-2.077 1.608-2.812 2.876-5.78 3.844-8.826.5-1.519.882-3.071 1.231-4.63.158-.786.321-1.567.44-2.367.048-.286.093-.575.132-.866l.413-.24c.088-.051.174-.103.259-.154a68.432 68.432 0 0 0-2.416 16.23c-.137 5.75.464 11.62 2.269 17.262a41.598 41.598 0 0 0 2.931 6.967Zm-55.901-74.506c.305-.793.595-1.57.862-2.327 2.91-1.252 5.781-2.608 8.631-4.009 1.986-1.014 3.975-2.02 5.914-3.135a73.48 73.48 0 0 0 3.486-2.02c-4.838 3.85-11.556 7.643-18.893 11.491Z"/>
  <path fill="#686868" d="M318.155 323.851h-98.701c-48.222 0-73.519-24.483-83.576-55.615-8.83-27.324 8.473-66.703 14.366-78.861 43.85 5.167 88.622 22.789 90.206 31.801.61 3.48-.647 7.455-2.406 12.012-19.271 10.109-42.817 20.587-47.758 33.471-6.89 17.972 7.703 30.529 23.661 33.421 14.353 2.609 26.452-1.039 36.815-7.02 22.949 14.883 59.451 16.424 59.451 16.424l7.942 14.367Z"/>
  <path fill="#fff" d="M392.591 323.851h-14.315c6.045-8.99 13.254-27.171 3.611-56.61 7.573.988 15.922 2.477 24.032 4.716 29.41 8.117 35.565 51.894-13.328 51.894Z"/>
  <path fill="#D6DCE4" d="M403.829 319.989a27.047 27.047 0 0 0 2.331-3.246 31.404 31.404 0 0 0 1.982-3.949 31.757 31.757 0 0 0 1.93-17.198c-.971-5.778-3.634-11.204-7.318-15.602-1.837-2.211-3.907-4.187-6.109-5.957l-1.68-1.287c-.27-.192-.542-.381-.815-.569.577.114 1.157.232 1.735.353 7.751 5.88 16.375 14.443 17.722 29.327.226 2.504 2.314 4.004 4.416 4.004 1.335 0 2.676-.604 3.551-1.94 1.519-2.32 2.892-5.256 3.726-8.92.311 1.465.469 2.927.469 4.354 0 .843-.054 1.674-.166 2.488-1.274 9.405-9.183 15.828-21.774 18.142Z"/>
  <path fill="#293241" d="M408.774 312.819c.602.097 1.358.186 2.053.211a21.68 21.68 0 0 0 2.118-.008 18.106 18.106 0 0 0 4.08-.705c.658-.173 1.274-.44 1.891-.682.3-.136.589-.299.883-.443.299-.135.577-.305.847-.488 1.126-.647 2.057-1.552 2.947-2.445l.118-.119a2.92 2.92 0 1 1 3.812 4.402c-1.443 1.074-2.945 2.071-4.605 2.713a9.465 9.465 0 0 1-1.236.467c-.42.13-.834.275-1.254.387-.85.194-1.692.394-2.545.483a22.07 22.07 0 0 1-5.043.062 24.606 24.606 0 0 1-2.452-.383 19.59 19.59 0 0 1-2.447-.668 1.451 1.451 0 0 1 .701-2.806l.132.022Zm4.713-22.486c1.346-.1 2.59-.113 3.893-.073 1.29.044 2.588.152 3.896.335 1.308.194 2.623.477 3.948.868 1.322.413 2.649.961 3.957 1.704l.02.012a2.924 2.924 0 1 1-3.365 4.744 14.574 14.574 0 0 0-2.52-1.746 24.35 24.35 0 0 0-3.058-1.343 34.192 34.192 0 0 0-6.771-1.595l-.073-.008a1.456 1.456 0 0 1 .073-2.898Z"/>
  <path fill="#fff" d="M318.155 323.851h-98.701c-48.222 0-73.519-24.483-83.576-55.615-8.83-27.324 8.473-66.703 14.366-78.861 43.85 5.167 88.625 22.788 90.204 31.798 2.051 11.709-17.009 29.019-5.064 55.18 13.956 30.565 74.827 33.131 74.827 33.131l7.944 14.367Z"/>
  <path fill="#595969" d="M293.95 307.692c-8.856-1.401-20.113-3.864-30.562-8.143h.002c10.447 4.277 21.702 6.74 30.56 8.143Z"/>
  <path fill="#D6DCE4" d="M306.275 320.94h-86.823c-35.346 0-56.157-13.227-68.39-29.332a81.61 81.61 0 0 0 .038-2.579c0-1.587-.042-3.194-.122-4.813-.197-4.069-.624-8.211-1.185-12.317-.683-5.065-1.576-10.057-2.492-14.745a33.288 33.288 0 0 0-.85-3.444 27.77 27.77 0 0 0-1.793-4.511c.689.005 1.38.008 2.07.008 3.65 0 7.293-.072 10.928-.192h.007a1.422 1.422 0 0 0 1.364-1.575l36.796-4.7a1.416 1.416 0 0 0 1.739 1.179l.012-.003c8.479-2.067 16.972-4.303 25.356-7.055 2.096-.677 4.181-1.415 6.265-2.148 2.066-.791 4.144-1.547 6.192-2.397 1.181-.468 2.355-.954 3.523-1.456a90.519 90.519 0 0 1-.866 2.328c-19.272 10.108-42.817 20.587-47.759 33.471-6.889 17.972 7.703 30.529 23.662 33.421 3.217.586 6.324.856 9.32.856 7.872 0 15.002-1.865 21.498-4.792a24.722 24.722 0 0 0 6.176 2.634c2.631.742 5.323 1.065 7.993 1.065a33.986 33.986 0 0 0 4.454-.294c10.448 4.279 21.706 6.741 30.562 8.143.215.4.437.797.667 1.192 1.523 2.581 3.366 5.001 5.504 7.129 1.858 1.875 3.942 3.518 6.154 4.927Z"/>
  <path fill="#3A3A3A" d="M153.857 188.637c-4.359 8.693-24.235 50.789-15.215 78.704 7.902 24.451 28.335 53.599 80.811 53.599h173.14c19.05 0 31.391-7.138 33.01-19.094 1.376-10.159-5.899-23.069-20.457-27.087-24.249-6.692-51.082-6.602-51.351-6.599l-2.964.018.041-2.965c.003-.302.097-30.734-21.687-50.798-14.061-12.952-23.425-16.869-62.493-19.758-44.767-3.309-101.902-5.597-112.835-6.02Zm238.736 138.116h-173.14c-23.308 0-42.76-5.618-57.82-16.696-13.316-9.795-22.911-23.566-28.522-40.929-10.815-33.467 15.327-82.758 16.445-84.841l.857-1.597 1.813.068c.646.022 65.322 2.438 114.895 6.102 40.522 2.995 51.004 7.464 66.003 21.279 19.869 18.301 22.996 43.664 23.476 52.235 7.679.149 29.466 1.088 50.092 6.781 15.787 4.357 26.624 19.06 24.672 33.471-.767 5.66-5.829 24.127-38.771 24.127Z"/>
  <path fill="#293241" d="M153.857 188.637c-4.359 8.693-24.235 50.789-15.215 78.704 7.902 24.451 28.335 53.599 80.811 53.599h173.14c19.05 0 31.391-7.138 33.01-19.094 1.376-10.159-5.899-23.069-20.457-27.087-24.249-6.692-51.082-6.602-51.351-6.599l-2.964.018.041-2.965c.003-.302.097-30.734-21.687-50.798-14.061-12.952-23.425-16.869-62.493-19.758-44.767-3.309-101.902-5.597-112.835-6.02Zm238.736 138.116h-173.14c-23.308 0-42.76-5.618-57.82-16.696-13.316-9.795-22.911-23.566-28.522-40.929-10.815-33.467 15.327-82.758 16.445-84.841l.857-1.597 1.813.068c.646.022 65.322 2.438 114.895 6.102 40.522 2.995 51.004 7.464 66.003 21.279 19.869 18.301 22.996 43.664 23.476 52.235 7.679.149 29.466 1.088 50.092 6.781 15.787 4.357 26.624 19.06 24.672 33.471-.767 5.66-5.829 24.127-38.771 24.127Z"/>
  <path fill="#92A2B8" d="M437.714 131.363c-.057.443-.122.893-.189 1.33a39.052 39.052 0 0 1-.749 3.654c-6.852 26.379-39.292 23.182-39.909-6.003-.437-20.768-10.037-27.374-19.047-26.11a17.195 17.195 0 0 0-4.106 1.127c-2.979 1.228-5.712 3.292-7.782 5.907-1.745 2.21-3.016 4.826-3.577 7.683-1.045 5.421-.616 10.848.85 16.278 3.089 11.438 10.814 22.883 19.171 34.242 2.392 3.255 4.832 6.488 7.231 9.73 2.725 3.67 4.891 7.412 6.54 11.205 2.813 6.46 4.142 13.024 4.157 19.411a46.443 46.443 0 0 1-2.878 16.176c-9.04 24.577-38.516 41.341-74.836 28.552l3.852-31.852c7.173 4.819 14.411 6.57 20.82 6.322.749-.02 1.489-.079 2.217-.159h.006c.256-.03.51-.058.75-.101 9.57-1.294 16.801-6.985 18.407-12.9 5.094-18.647-20.886-50.563-29.156-68.498-15.398-33.413-2.659-64.655 24.715-75.43 3.728-1.469 7.732-2.559 11.969-3.222a61.58 61.58 0 0 1 7.064-.69 55.228 55.228 0 0 1 5.16.015c36.464 1.796 52.228 39.401 49.32 63.333Z"/>
  <path fill="#6C7887" d="M359.9 257.601a82.623 82.623 0 0 0-3-14.513 77.813 77.813 0 0 0-2.806-7.748c4.942 3.131 11.28 5.072 17.784 5.072 9.399.002 19.145-4.05 25.548-14.419-5.645 15.345-19.256 27.645-37.526 31.608Z"/>
  <path fill="#D9A6CF" d="M373.481 156.708c-3.829-5.965-7.077-11.944-9.171-17.925 2.096 5.979 5.344 11.96 9.171 17.925Zm-11.654-29.811c-.142-2.65.017-5.299.527-7.946.561-2.857 1.832-5.472 3.577-7.682.389-.493.802-.965 1.236-1.416a19.43 19.43 0 0 0-1.233 1.419c-1.748 2.21-3.017 4.824-3.573 7.682a32.434 32.434 0 0 0-.534 7.943Z"/>
  <path fill="#6C7887" d="M382.375 169.469c-7.853-5.867-25.682-21.084-31.306-41.878-4.25-15.715 5.464-27.602 16.931-32.896a2.71 2.71 0 0 0-.006.199c0 .201.023.373.076.51a.559.559 0 0 0 .191.264c.022.017.061.025.112.025.301 0 1.038-.26 1.77-.521.731-.26 1.459-.52 1.737-.52.03 0 .056.003.075.011.027.01.041.027.041.053v.005a22.83 22.83 0 0 0 .377 5.963 28.64 28.64 0 0 0 1.341 4.676c-2.423.997-4.678 2.542-6.547 4.493-.433.451-.846.923-1.236 1.416-1.744 2.21-3.015 4.825-3.576 7.682a32.655 32.655 0 0 0-.528 7.946c.148 2.776.626 5.555 1.378 8.334a51.412 51.412 0 0 0 1.104 3.551l.002.001c2.094 5.981 5.341 11.96 9.171 17.924 2.737 4.265 5.769 8.52 8.893 12.762Z"/>
  <path fill="#D9A6CF" d="M416.735 154.326Z"/>
  <path fill="#6C7887" d="M415.619 154.29a17.914 17.914 0 0 1-3.518-.577c-3.145-.845-6.109-2.563-8.574-5.13 3.369 3.51 7.674 5.429 12.092 5.707Zm-20.624-36.9-.002-.003.002.003Zm-.003-.01c-.68-2.184-1.521-4.066-2.485-5.67.966 1.604 1.805 3.486 2.485 5.67Z"/>
  <path fill="#686868" d="M368.26 95.664c.159.116 1.025-.189 1.885-.492.937-.334 1.865-.666 1.851-.451-.107 1.8-.247 5.424 1.717 10.64.021-.011.035-.012.056-.017.261-.115.516-.213.78-.299.229-.086.459-.157.69-.229.182-.055.371-.112.561-.163.17-.045.346-.092.522-.132.496-.121.997-.213 1.5-.283 9.011-1.265 18.609 5.335 19.043 26.107.618 29.183 33.058 32.384 39.914 6.003.302-1.171.543-2.39.748-3.655-4.911 5.321-17.793 15.276-27.295 7.956-13.367-10.304-2.031-33.688-19.4-46.19-5.525-3.973-14.624-3.556-22.832.235-.032.47.039.811.26.97Z"/>
  <path fill="#fff" d="M373.713 105.361a16.888 16.888 0 0 1 4.109-1.123c9.011-1.265 18.609 5.335 19.043 26.107.618 29.183 33.058 32.384 39.914 6.003.302-1.171.543-2.39.748-3.655.059-.438.124-.886.183-1.333 2.911-23.928-12.851-61.537-49.317-63.326a54.143 54.143 0 0 0-5.161-.02 62.913 62.913 0 0 0-7.062.692c-2.039 1.865-6.775 8.542-7.29 14.722-.032.379.788.056 1.608-.265.839-.327 1.676-.656 1.602-.238-.493 2.78-5.26 11.702-3.83 12.743.158.114 1.024-.191 1.883-.496.938-.332 1.867-.664 1.854-.451-.103 1.8-.249 5.421 1.716 10.64Z"/>
  <path fill="#D9A6CF" d="M379.935 104.088c-.705 0-1.41.051-2.113.15-.503.069-1.004.162-1.5.282-.17.038-.346.086-.522.132-.189.051-.379.108-.561.164a18.077 18.077 0 0 0-1.47.527l.21-.089.26-.1.166-.06.144-.049c.229-.086.459-.158.69-.229.182-.056.372-.113.561-.164.17-.044.346-.092.522-.132.496-.12.997-.213 1.5-.282.703-.099 1.408-.15 2.113-.15Z"/>
  <path fill="#6C7887" d="M374.239 105.154c.051-.019.102-.038.153-.055a.04.04 0 0 1 .013-.005l-.166.06Z"/>
  <path fill="#595969" d="m373.744 105.35.235-.096-.21.089c-.01.002-.017.003-.025.007Zm.648-.251c1.12-.41 2.267-.704 3.43-.862-.503.07-1.004.162-1.5.283-.176.04-.352.088-.522.132-.189.051-.379.108-.561.164-.231.071-.461.143-.69.229l-.144.049a.04.04 0 0 0-.013.005Zm-2.02-4.415a22.911 22.911 0 0 1-.376-5.963v-.005c0-.026-.014-.043-.041-.053.03.01.044.029.042.058-.069 1.2-.157 3.21.375 5.963Zm-4.302-5.281a1.43 1.43 0 0 1-.076-.51c0-.063.001-.13.006-.2-.019.29.002.53.07.71Z"/>
  <path fill="#D6DCE4" d="M416.735 154.326c-9.876 0-19.536-8.186-19.87-23.981-.299-14.311-4.948-21.895-10.757-24.815-1.967-.989-4.064-1.441-6.172-1.441-.706 0-1.411.05-2.114.149-1.163.157-2.31.451-3.43.861l-.153.056-.26.1-.235.095c-.01.002-.019.006-.031.011a28.85 28.85 0 0 1-1.341-4.677 22.855 22.855 0 0 1-.375-5.963c.002-.03-.012-.048-.042-.058a.211.211 0 0 0-.077-.01c-.278 0-1.002.258-1.733.519-.731.259-1.468.518-1.77.518-.053 0-.091-.008-.115-.026a.554.554 0 0 1-.19-.26c-.069-.18-.089-.421-.069-.71 4.275-1.975 8.792-3.035 12.92-3.035 3.797 0 7.264.896 9.911 2.8 17.37 12.502 6.033 35.886 19.4 46.19 2.398 1.846 5.007 2.594 7.652 2.594 7.84-.001 15.97-6.571 19.644-10.55a40.752 40.752 0 0 1-.749 3.655c-3.144 12.102-11.672 17.978-20.044 17.978Z"/>
  <path fill="#293241" d="M347.122 261.845c-8.281 0-16.885-1.526-25.493-4.557a2.907 2.907 0 0 1 1.932-5.483c25.828 9.099 51.389 2.952 65.117-15.662 12.167-16.499 11.633-37.653-1.396-55.204-.904-1.217-1.812-2.436-2.723-3.654-14.23-19.065-28.946-38.78-25.052-58.883 1.964-10.146 11.973-18.014 21.89-17.161 4.174.356 17.837 3.502 18.376 29.046.3 14.243 8.389 20.23 15.223 21.031 7.183.842 15.847-3.687 18.968-15.703 3.174-12.225.065-32.429-12.019-47.393-6.741-8.348-18.899-18.126-38.593-17.3-17.575.737-32.394 8.92-40.661 22.448-9.016 14.756-9.222 33.991-.564 52.774 2.296 4.981 6.109 11.256 10.149 17.899 10.846 17.838 23.139 38.057 19.177 52.576-1.519 5.561-6.888 10.664-14.014 13.321-10.387 3.869-22.275 2.11-32.617-4.827a2.906 2.906 0 1 1 3.238-4.827c8.769 5.882 18.736 7.417 27.348 4.206 5.321-1.983 9.417-5.674 10.436-9.405 3.305-12.104-8.806-32.02-18.536-48.024-4.128-6.789-8.027-13.202-10.463-18.486-9.481-20.575-9.158-41.802.885-58.237 9.295-15.212 25.834-24.407 45.379-25.227 22.121-.93 35.778 10.069 43.36 19.456 11.92 14.762 17.317 36.353 13.121 52.508-3.999 15.401-15.569 21.147-25.27 20.015-9.878-1.157-20.004-9.855-20.359-26.682-.294-13.967-5.177-22.705-13.059-23.378-6.963-.595-14.288 5.237-15.689 12.475-3.403 17.581 10.531 36.248 24.005 54.301.913 1.222 1.825 2.446 2.731 3.666 14.391 19.384 14.942 43.767 1.406 62.12-7.14 9.683-17.29 16.593-29.353 19.982-5.391 1.514-11.057 2.269-16.88 2.269Z"/>
  <path fill="#92A2B8" d="M399.763 319.999c-8.457 7.39-23.981 1.286-35.521-3.975-.116.065-.232.138-.347.203-12.37 7.187-34.163 11.41-49.41 5.566-34.234-13.124-21.939-61.812-14.301-69.763l4.549-42.184 1.345-12.507c54.313 16.22 51.362 69.568 51.362 69.568s1.141-.291 3.126-.517c5.631-.66 18.043-.872 30.478 7.187 5.791 3.758 9.809 8.016 12.433 12.427v.008c7.95 13.341 3.133 28.013-3.714 33.987Z"/>
  <path fill="#6C7887" d="M331.04 321.634c-4.761 0-9.499-.574-13.889-1.986-4.836-1.591-9.33-4.214-12.801-7.808-3.49-3.588-5.984-8.087-7.53-12.964-1.54-4.884-2.245-10.108-2.318-15.377-.078-5.275.465-10.606 1.495-15.836.31-1.519.656-3.033 1.056-4.528a60.936 60.936 0 0 0 4.883-4.391c3.75-3.81 6.945-8.233 9.285-13.111.29-.612.596-1.215.868-1.834l.717-1.9c.158-.434.328-.863.486-1.296a106.045 106.045 0 0 1-.55 5.788c-.742 6.046-11.076 20.144-12.361 27.637-5.684 33.125 18.948 39.091 34.745 39.091 2.986 0 5.653-.213 7.744-.497 16.415-2.222 29.461-18.53 29.461-18.53s.034.412.137 1.122c-.545 4.883-2.317 9.638-4.29 13.639a62.785 62.785 0 0 1-2.53 4.617c-.066-.03-.133-.06-.2-.092a2.983 2.983 0 0 0-1.21-.257c-.503 0-1.013.128-1.472.398l-.008.005c-4.43 2.609-9.449 4.481-14.559 5.835-5.127 1.331-10.415 2.127-15.679 2.257-.494.011-.986.018-1.48.018Z"/>
  <path fill="#E8E8E8" d="M399.764 319.999c-8.458 7.39-23.981 1.285-35.521-3.975-.116.065-.232.138-.348.203 2.979-4.433 7.63-12.536 8.575-21.024.399 2.769 1.867 10.102 6.562 15.196 7.52 8.138 29.83-.574 24.445-24.388.183.305.356.617.531.924.335.616.654 1.234.937 1.859.146.305.276.611.415.923l.006.014c.124.307.248.618.364.923.124.313.232.618.342.931v.014c.109.306.203.619.298.924.094.305.181.602.261.907.008.016.008.036.014.051.081.298.154.603.226.909.059.247.109.494.16.742.08.37.145.74.204 1.11.043.262.087.517.116.779 1.293 9.686-2.609 18.632-7.587 22.978Z"/>
  <path fill="#fff" d="M399.763 319.999c-8.458 7.39-23.981 1.285-35.521-3.975-.116.065-.232.138-.348.203 4.309-6.417 12.114-20.485 7.15-32.324-4.694-11.184-8.4-14.621-10.479-17.513 5.631-.661 18.044-.872 30.478 7.187 23.341 15.129 17.826 38.471 8.72 46.422Z"/>
  <path fill="#C5C5D6" d="M368.178 308.854c1.975-4.004 3.746-8.763 4.291-13.651v.007c-.545 4.886-2.316 9.641-4.291 13.644Z"/>
  <path fill="#D6DCE4" d="M389.356 320.512a24.02 24.02 0 0 1-2.229-.108c-2.395-.229-4.837-.748-7.261-1.444-4.792-1.375-9.514-3.356-14.218-5.49a62.376 62.376 0 0 0 2.53-4.617c1.975-4.002 3.747-8.758 4.292-13.644.4 2.773 1.87 10.099 6.562 15.19 1.838 1.991 4.563 2.973 7.55 2.973 7.398 0 16.408-6.022 17.594-17.683.058.289.114.579.163.869a25.945 25.945 0 0 1-1.573 14.019 25.252 25.252 0 0 1-1.581 3.155 20.765 20.765 0 0 1-2.033 2.778l-.571.613-.597.564a9.831 9.831 0 0 1-1.224.939c-.856.559-1.808.987-2.837 1.29-1.415.415-2.964.596-4.567.596Z"/>
  <path fill="#293241" d="M301.232 253.039c-.691.898-1.291 2.055-1.827 3.224a36.593 36.593 0 0 0-1.398 3.68c-.836 2.512-1.478 5.108-2.01 7.72-1.03 5.231-1.573 10.562-1.495 15.837.073 5.268.778 10.493 2.318 15.377 1.546 4.876 4.04 9.376 7.53 12.964 3.471 3.594 7.965 6.217 12.801 7.807 4.845 1.559 10.115 2.096 15.369 1.969 5.264-.13 10.552-.926 15.679-2.258 5.11-1.354 10.13-3.225 14.559-5.834l.008-.005a2.94 2.94 0 0 1 2.682-.141c4.769 2.168 9.557 4.188 14.418 5.581 2.424.696 4.867 1.216 7.261 1.445 2.39.224 4.735.116 6.796-.488a10.714 10.714 0 0 0 2.837-1.29 9.928 9.928 0 0 0 1.224-.939l.597-.564.571-.614a20.82 20.82 0 0 0 2.033-2.777 25.265 25.265 0 0 0 1.581-3.156 25.941 25.941 0 0 0 1.573-14.018c-.797-4.699-2.942-9.127-6.06-12.854-3.096-3.737-7.124-6.839-11.462-9.27a43.262 43.262 0 0 0-14.02-4.851 44.713 44.713 0 0 0-7.433-.576 40.947 40.947 0 0 0-3.712.189c-.613.057-1.221.132-1.822.222l-.887.146c-.276.05-.611.121-.788.161l-.009.003a2.937 2.937 0 0 1-3.604-2.981c.034-.785.027-1.771.003-2.674a65.227 65.227 0 0 0-.138-2.782 75.885 75.885 0 0 0-.616-5.571 76.876 76.876 0 0 0-2.453-10.945c-2.176-7.149-5.425-13.963-9.79-19.973-4.345-6.02-9.793-11.209-15.99-15.327-6.193-4.135-13.113-7.182-20.315-9.348l-.012-.003a2.91 2.91 0 0 1-1.946-3.621 2.905 2.905 0 0 1 3.621-1.946c7.668 2.303 15.131 5.578 21.874 10.078 6.745 4.48 12.729 10.177 17.478 16.759 4.773 6.573 8.299 13.984 10.642 21.693a82.536 82.536 0 0 1 2.641 11.78c.295 1.991.519 3.995.664 6.011.072 1.007.124 2.019.153 3.036a45.683 45.683 0 0 1-.012 3.154l-3.614-2.979c.47-.113.785-.173 1.161-.243l1.074-.176a39.214 39.214 0 0 1 2.125-.261 46.862 46.862 0 0 1 4.231-.216c2.817-.019 5.631.2 8.41.653a48.997 48.997 0 0 1 15.898 5.502c1.23.687 2.442 1.41 3.6 2.202.577.401 1.162.788 1.734 1.198l1.679 1.287c2.203 1.77 4.273 3.747 6.11 5.957 3.684 4.398 6.347 9.824 7.318 15.603a31.748 31.748 0 0 1-1.931 17.198 31.25 31.25 0 0 1-1.981 3.948 26.631 26.631 0 0 1-2.663 3.631l-.785.84-.848.803a15.622 15.622 0 0 1-1.926 1.479 16.421 16.421 0 0 1-4.373 1.997c-3.039.885-6.093.965-8.972.701-2.887-.275-5.652-.879-8.322-1.641-5.342-1.535-10.352-3.666-15.233-5.882l2.688-.147c-5.09 2.991-10.518 4.986-16.057 6.461-5.548 1.439-11.241 2.3-17.007 2.445-5.755.133-11.624-.429-17.301-2.25a41.318 41.318 0 0 1-8.131-3.651c-2.567-1.535-4.986-3.372-7.108-5.515-2.139-2.128-3.982-4.547-5.504-7.129-1.514-2.592-2.697-5.345-3.599-8.159-1.805-5.642-2.406-11.512-2.269-17.262a68.404 68.404 0 0 1 2.614-16.931c.78-2.745 1.74-5.44 2.933-8.059a40.587 40.587 0 0 1 2.034-3.845c.765-1.255 1.609-2.48 2.804-3.603a1.456 1.456 0 0 1 2.15 1.946l-.053.068Z"/>
  <path fill="#92A2B8" d="M311.739 235.438c-1.543 6.967-4.689 12.644-8.214 17.131-7.115 9.057-15.751 13.22-15.751 13.22s-1.165 17.369-14.09 27.036c-6.996 5.229-27.569 8.061-35.349-8.173-3.939-8.222-4.71-25.214 2.572-38.672 4.662-8.615 12.625-15.779 25.172-18.267l-6.554-33.371c39.541-8.434 57.85 15.637 52.214 41.096Z"/>
  <path fill="#6C7887" d="M289.501 261.423c-1.041-.225-1.897-.761-2.752-1.519-1.354-1.201-2.703-2.961-4.767-4.946 2.848-3.184 11.088-5.054 19.488-10.347 2.31-1.457 4.643-3.9 6.615-6.821l-.116.426c-.183.558-.41 1.103-.612 1.654l-.618 1.653c-.237.538-.509 1.063-.76 1.595-2.037 4.245-4.838 8.144-8.182 11.545a54.628 54.628 0 0 1-5.387 4.725 59.297 59.297 0 0 1-2.909 2.035Z"/>
  <path fill="#E8E8E8" d="M296.39 259.922a.5.5 0 0 1-.081.073c-.246.204-.486.407-.726.596-.311.254-.61.494-.915.726-.276.22-.553.423-.821.626-.269.204-.531.393-.792.574-.219.16-.429.305-.632.451-.036.029-.081.051-.118.08l-.711.479c-2.296 1.526-3.822 2.26-3.822 2.26s-1.163 17.368-14.091 27.041c-6.991 5.224-27.564 8.059-35.347-8.176-.073-.145-.138-.298-.203-.45a8.18 8.18 0 0 1-.203-.466 22.98 22.98 0 0 1-.815-2.245l-.218-.712a32.874 32.874 0 0 1-.356-1.388c-.079-.328-.152-.661-.226-.995a2.756 2.756 0 0 1-.065-.335c-.071-.334-.13-.675-.195-1.025v-.022c-.073-.421-.146-.85-.204-1.286.139.334.283.655.429.966 7.783 16.236 28.356 13.401 35.353 8.169 12.921-9.665 8.264-23.922 9.419-28.254.16-.595.472-1.134.937-1.642 5.399 5.189 5.893 8.837 14.403 4.955Z"/>
  <path fill="#fff" d="M296.397 259.921c-4.721 3.987-8.623 5.868-8.623 5.868s-1.165 17.369-14.09 27.036c-6.996 5.229-27.569 8.061-35.349-8.173-3.939-8.222-4.71-25.214 2.572-38.672 8.181-3.441 23.239-3.759 36.682 5.412 9.966 6.796 8.426 13.272 18.808 8.529Z"/>
  <path fill="#C5C5D6" d="M289.498 261.425c-1.039-.227-1.895-.763-2.749-1.521.855.758 1.712 1.294 2.752 1.519-.001.002-.001.002-.003.002Z"/>
  <path fill="#D6DCE4" d="M259.113 293.977c-2.244 0-4.47-.276-6.566-.885a18.112 18.112 0 0 1-6.821-3.581c-.974-.828-1.835-1.78-2.618-2.8-.779-1.026-1.421-2.166-2.007-3.34a6.211 6.211 0 0 1-.065-.143c4.522 4.179 10.404 5.73 15.946 5.73 6.004 0 11.608-1.821 14.649-4.095 12.921-9.665 8.264-23.922 9.419-28.253.161-.596.472-1.135.938-1.643 2.062 1.981 3.409 3.74 4.762 4.938.853.758 1.709 1.294 2.748 1.521l-.02.014a55.71 55.71 0 0 1-1.508.931c-.491.286-1.047.599-1.457.804a2.977 2.977 0 0 0-1.635 2.395l-.002.028-.001.005c-.023.249-.059.624-.105.952-.04.338-.091.681-.15 1.026-.1.688-.247 1.381-.382 2.069-.31 1.374-.646 2.749-1.09 4.085a39.642 39.642 0 0 1-3.342 7.687c-.364.589-.691 1.206-1.082 1.773l-1.187 1.694c-.869 1.056-1.713 2.143-2.71 3.071l-.72.728c-.243.236-.52.437-.777.657-.516.415-1.06.905-1.551 1.265-.939.664-2.107 1.255-3.338 1.724-2.48.942-5.213 1.471-7.922 1.608-.469.024-.938.035-1.406.035Z"/>
  <path fill="#293241" d="M258.919 191.5c5.108-1.089 10.351-1.748 15.658-1.761l1.99.007 1.995.111c1.33.041 2.66.246 3.988.384 2.649.413 5.306.906 7.884 1.772 5.174 1.617 10.101 4.347 14.178 8.097 4.05 3.78 7.147 8.577 8.956 13.783a39.305 39.305 0 0 1 1.909 16.166c-.039.676-.12 1.348-.218 2.017-.099.669-.159 1.346-.302 2.006l-.385 1.987-.53 1.963-.537 1.959c-.21.643-.466 1.271-.699 1.908l-.717 1.9c-.272.618-.578 1.222-.867 1.834-2.341 4.878-5.536 9.301-9.286 13.111a59.83 59.83 0 0 1-6.019 5.28 62.486 62.486 0 0 1-3.287 2.299c-.564.366-1.139.715-1.722 1.063-.602.348-1.146.663-1.869 1.023l1.637-2.423v.01c-.042.499-.083.874-.138 1.29-.05.408-.108.809-.175 1.206-.119.801-.283 1.581-.44 2.367-.35 1.559-.731 3.111-1.232 4.63a45.512 45.512 0 0 1-3.843 8.827c-.424.691-.809 1.404-1.268 2.076l-1.405 2.001c-1.031 1.269-2.048 2.556-3.249 3.687l-.872.874c-.296.286-.626.536-.939.803-.653.529-1.232 1.05-1.95 1.579-1.52 1.071-3.073 1.821-4.646 2.428-3.147 1.191-6.39 1.837-9.682 2.026-3.288.182-6.64-.094-9.896-1.013-3.254-.889-6.4-2.469-9.069-4.677-1.333-1.108-2.519-2.379-3.578-3.734-1.055-1.363-1.917-2.843-2.684-4.352-1.479-3.146-2.261-6.335-2.738-9.519a52.018 52.018 0 0 1-.513-9.562c.291-6.352 1.621-12.673 4.179-18.569a41.688 41.688 0 0 1 4.884-8.319c1.981-2.554 4.265-4.893 6.853-6.826 2.576-1.942 5.402-3.54 8.375-4.675a39.868 39.868 0 0 1 9.149-2.257 1.457 1.457 0 0 1 .607 2.839l-.043.013c-2.795.856-5.499 1.855-8.027 3.165l-1.864 1.02-1.776 1.148c-1.148.809-2.284 1.632-3.313 2.576-4.19 3.689-7.373 8.4-9.484 13.596-2.15 5.185-3.253 10.854-3.41 16.515-.095 2.83.032 5.669.44 8.434.391 2.759 1.104 5.464 2.172 7.777.587 1.174 1.228 2.314 2.007 3.34.783 1.02 1.644 1.972 2.618 2.8a18.12 18.12 0 0 0 6.821 3.581c2.533.736 5.258.987 7.972.85 2.709-.137 5.442-.666 7.922-1.608 1.231-.469 2.399-1.06 3.338-1.724.491-.361 1.035-.85 1.551-1.265.257-.221.534-.421.777-.657l.72-.728c.998-.928 1.841-2.015 2.71-3.071l1.187-1.694c.391-.567.718-1.184 1.082-1.773 1.378-2.411 2.49-5.001 3.342-7.687.445-1.337.78-2.711 1.09-4.085.135-.688.282-1.381.383-2.069.058-.345.109-.688.149-1.027.046-.327.083-.702.105-.951l.001-.005.002-.029a2.975 2.975 0 0 1 1.635-2.394c.41-.205.966-.518 1.457-.804.504-.302 1.01-.61 1.508-.931a58.18 58.18 0 0 0 2.933-2.051 54.626 54.626 0 0 0 5.386-4.726c3.345-3.4 6.146-7.299 8.183-11.544.251-.533.523-1.057.759-1.596l.618-1.652c.202-.551.429-1.096.612-1.654l.461-1.703.467-1.701.334-1.739c.13-.577.176-1.165.263-1.748.088-.583.158-1.166.19-1.753a33.477 33.477 0 0 0-1.607-13.77 28.579 28.579 0 0 0-7.421-11.434c-3.385-3.102-7.505-5.415-11.989-6.816-2.222-.755-4.564-1.181-6.91-1.553-1.186-.117-2.362-.306-3.565-.341l-1.794-.102-1.806-.003c-4.818.009-9.674.612-14.461 1.633a2.907 2.907 0 0 1-1.214-5.686h.002Z"/>
  <path fill="#92A2B8" d="M291.28 160.483c1.535 56.357-63.744 71.906-94.156 82.091l-39.37 5.029c-20.676-1.434-56.019-1.368-81.854-15.98-6.24-3.527-11.924-7.909-16.718-13.375a57.084 57.084 0 0 1-8.756-13.423c-1.611-3.443-2.959-7.175-4.005-11.23a72.234 72.234 0 0 1-1.06-4.755c-.904-4.781-1.41-9.972-1.469-15.595-.05-4.873 1.528-21.768 4.482-38.505 1.004-5.699 2.168-11.381 3.483-16.561-11.152-30.69-19.135-70.119-10.19-85.199 5.816-9.805 25.79-3.26 57.454 17.546 19.238-11.58 47.11-15.674 51.4-16.205 4.284-.564 32.291-3.608 53.817 2.765C229.755 8.99 247.443-2.366 255.536 5.663c12.449 12.347 14.632 52.517 11.553 85.025 10.132 18.438 19.972 44.956 21.55 51.296 1.646 6.612 2.491 12.768 2.641 18.499Z"/>
  <path fill="#BBC5D3" d="M100.134 58.467C78.155 44.024 61.808 36.453 51.919 36.453c-4.357 0-7.46 1.47-9.238 4.47-.37.622-.712 1.29-1.026 1.995.398-2.396 1.024-4.694 1.928-6.735.123-.321.286-.604.441-.893l.23-.434c.077-.15.154-.299.227-.388.152-.205.272-.443.45-.613l.239-.283c.085-.087.183-.16.271-.244.719-.646 1.639-1.11 2.784-1.367.81-.186 1.693-.267 2.621-.267 1.707 0 3.564.275 5.387.676 2.844.64 5.709 1.63 8.535 2.756 5.66 2.279 11.185 5.164 16.603 8.235 5.418 3.09 10.73 6.421 15.975 9.866l1.68 1.104 1.761-1.036c3.718-2.191 7.657-4.085 11.708-5.764 4.055-1.677 8.251-3.078 12.486-4.354a169.489 169.489 0 0 1 12.887-3.292 171.784 171.784 0 0 1 13.066-2.315c4.331-.532 8.797-.866 13.224-1.052a174.29 174.29 0 0 1 7.455-.16c1.953 0 3.902.033 5.848.103 4.421.17 8.833.47 13.182 1.074 4.344.605 8.632 1.447 12.784 2.633l1.953.557 1.342-1.484c4.209-4.652 8.513-9.212 12.98-13.566 4.472-4.335 9.093-8.519 13.999-12.15 2.454-1.801 4.978-3.48 7.571-4.817 2.57-1.308 5.293-2.345 7.659-2.414.089-.003.176-.004.264-.004 1.066 0 1.992.217 2.79.63.108.06.22.107.327.17l.303.215c.216.12.394.322.593.483.095.068.207.194.318.318l.333.364c.223.241.453.473.652.754 1.417 1.785 2.62 3.896 3.619 6.162a18.863 18.863 0 0 0-1.579-1.781c-1.7-1.688-3.826-2.519-6.355-2.519-9.513 0-24.766 11.747-44.845 33.94-10.549-3.122-22.657-3.984-32.766-3.984-10.515 0-18.866.932-21.051 1.22-4.288.53-32.162 4.625-51.4 16.205Z"/>
  <path fill="#fff" d="M291.279 160.483c1.535 56.357-63.744 71.906-94.155 82.091l-39.371 5.029c-20.676-1.434-56.019-1.368-81.854-15.98-6.24-3.527-11.924-7.909-16.717-13.375a57.081 57.081 0 0 1-8.757-13.423c-1.61-3.443-2.959-7.175-4.005-11.23 53.488 35.238 85.906 12.228 97.422-21.382 4.449-12.974 16.126-15.658 21.26-16.314 5.133-.655 17.11-.992 24.67 10.448 19.872 30.057 57.826 44.162 101.507-5.864Z"/>
  <path fill="#D6DCE4" d="M159.028 247.44a1.42 1.42 0 0 0-1.176-1.247c-4.356-.735-8.718-1.238-13.063-1.703l-3.649-.377a19.862 19.862 0 0 0-1.258-1.241c-5.178-4.687-12.061-6.083-18.426-6.083-6.799 0-13.007 1.595-15.908 2.472-.799-.178-1.597-.361-2.393-.55-5.032-8.092-10.88-11.387-15.919-11.387-2.213 0-4.27.635-6.033 1.782l-.01.007c-.002.001-.004.001-.006.004-.537.35-1.047.747-1.525 1.189-6.708-3.491-12.84-7.979-17.806-13.537l-.224-.25c.483.286.968.566 1.456.842 11.604 6.564 38.402 8.827 64.301 8.827 17.999 0 35.56-1.092 47.299-2.592 26.18-3.343 86.17-18.569 108.506-36.944l-.961 2c-1.961 3.653-4.181 7.201-6.915 10.377l-.99 1.215c-.334.404-.712.771-1.064 1.157l-2.153 2.296-2.303 2.163c-.386.357-.764.726-1.156 1.077l-1.219 1.013c-3.184 2.776-6.702 5.187-10.259 7.521-1.824 1.109-3.618 2.259-5.506 3.274-1.849 1.073-3.762 2.044-5.671 3.024-7.675 3.853-15.707 7.047-23.818 10.127-8.104 3.11-16.377 5.903-24.504 9.338a1.42 1.42 0 0 0-.852 1.507l-36.795 4.699Z"/>
  <path fill="#293241" d="M86.897 108.611c-1.735-2.07 5.275-23.461 24.108-19.815 6.785 1.314 8.208 7.583 3.335 9.583-4.644 1.903-6.941 1.14-14.058 4.714-4.028 2.023-11.65 7.589-13.385 5.518ZM230.77 90.235c1.159-2.44-11.003-21.382-28.315-13.118-6.236 2.976-6.038 9.401-.818 10.112 4.973.677 7.003-.64 14.791 1.03 4.406.945 13.182 4.415 14.342 1.976Z"/>
  <path fill="#EE6C4D" d="M72.753 78.124c-7.579 10.48-11.437 24.281-12.413 22.851a4.788 4.788 0 0 1-.295-.497c-2.21-4.077-7.128-20.728-9.026-35.88-.3-2.445-.51-4.61-.623-6.529-.313-5.176.001-8.56.63-10.78.787-2.714 3.184-3.818 5.505-3.233 6.17 1.565 24.255 10.438 30.584 16.79 1.128 1.13-6.775 6.798-14.362 17.278Z"/>
  <path fill="#CC5F45" d="M72.753 78.124c-7.579 10.48-11.437 24.281-12.413 22.851a4.788 4.788 0 0 1-.295-.497c.949-8.197 4.942-19.86 8.062-28.323 4.268-11.558-4.582-19.199-11.64-20.927-2.42-.595-4.682 3.546-6.072 6.841-.312-5.176.002-8.56.632-10.78.786-2.714 3.183-3.818 5.504-3.233 6.17 1.565 24.256 10.438 30.584 16.79 1.128 1.13-6.775 6.798-14.362 17.278Z"/>
  <path fill="#293241" d="M54.297 64.19c1.4 11.202 4.33 22.442 6.49 29.091 2.112-4.786 5.139-11.345 9.295-17.09 4.077-5.636 8.285-9.97 11.07-12.836.596-.615 1.23-1.267 1.763-1.837-7.115-5.75-22.18-12.99-27.195-14.257-.773-.196-1.28.124-1.519.945-.601 2.109-1.076 6.6.096 15.984Zm6.208 40.189a3.512 3.512 0 0 1-2.894-1.544c-2.484-3.642-7.892-22.038-9.865-37.826-1.067-8.539-1.03-14.63.109-18.624 1.236-4.283 5.224-6.601 9.483-5.526 6.56 1.66 25.166 10.68 32.119 17.656.739.742 2.178 2.81-.39 6.006-.74.92-1.816 2.029-3.179 3.433-2.81 2.894-6.659 6.858-10.456 12.106-4.17 5.763-7.209 12.698-9.22 17.287-2.227 5.081-2.977 6.792-5.39 7.018a3.38 3.38 0 0 1-.317.014Z"/>
  <path fill="#EE6C4D" d="M237.102 57.132c9.97 8.238 17.173 20.627 17.757 18.998a4.49 4.49 0 0 0 .161-.556c1.115-4.501 1.69-21.855-.281-36.997-.325-2.442-.668-4.59-1.038-6.475-.999-5.09-2.154-8.286-3.321-10.276-1.442-2.43-4.04-2.895-6.141-1.747-5.578 3.067-20.852 16.2-25.38 23.942-.809 1.376 8.265 4.874 18.243 13.111Z"/>
  <path fill="#CC5F45" d="M237.102 57.132c9.97 8.238 17.173 20.627 17.757 18.998a4.49 4.49 0 0 0 .161-.556c-2.978-7.696-9.775-17.981-14.923-25.387-7.034-10.115-.389-19.734 6.008-23.182 2.192-1.183 5.422 2.257 7.596 5.097-.999-5.09-2.154-8.286-3.321-10.276-1.442-2.43-4.04-2.895-6.141-1.747-5.578 3.067-20.852 16.2-25.38 23.942-.809 1.376 8.265 4.874 18.243 13.111Z"/>
  <path fill="#293241" d="M223.092 43.613c.661.418 1.438.89 2.168 1.334 3.416 2.075 8.579 5.212 13.941 9.642 5.468 4.517 10.047 10.105 13.293 14.206.418-6.979.429-18.595-1.031-29.788-1.224-9.378-2.813-13.606-3.93-15.503-.432-.73-1.009-.907-1.703-.526-4.535 2.488-17.295 13.28-22.738 20.635ZM254.55 79.59c-1.956 0-3.203-1.584-6.286-5.499-3.1-3.935-7.785-9.883-13.269-14.413-4.993-4.126-9.716-6.995-13.163-9.09-1.672-1.015-2.994-1.819-3.941-2.523-3.289-2.448-2.413-4.812-1.884-5.715 4.976-8.5 20.716-21.907 26.647-25.161 3.856-2.114 8.297-.871 10.564 2.957 2.112 3.586 3.679 9.473 4.791 18.005 2.059 15.777 1.449 34.94-.04 39.09a3.503 3.503 0 0 1-2.725 2.289c-.243.04-.473.06-.694.06Z"/>
  <path fill="#293241" d="M196.674 241.234c8.127-3.435 16.4-6.228 24.504-9.338 8.111-3.081 16.143-6.274 23.819-10.127 1.908-.981 3.821-1.951 5.67-3.024 1.888-1.015 3.682-2.166 5.506-3.275 3.557-2.334 7.075-4.744 10.259-7.52l1.219-1.013c.392-.352.77-.72 1.157-1.078l2.302-2.162 2.153-2.296c.352-.386.731-.753 1.064-1.157l.99-1.215c2.735-3.176 4.954-6.724 6.915-10.377l1.349-2.806c.11-.235.229-.466.334-.704l.273-.728.55-1.455.551-1.454c.089-.243.189-.483.27-.729l.21-.75.842-2.997.213-.75.146-.766.288-1.531c.174-1.027.429-2.037.54-3.073l.31-3.113.159-1.557.022-1.57.051-3.139a12.53 12.53 0 0 0-.045-1.573l-.103-1.573-.202-3.148c-.127-1.047-.291-2.091-.434-3.136l-.449-3.137-.669-3.109-.666-3.111-.404-1.453-.468-1.507c-1.319-4.057-2.832-8.139-4.387-12.181a364.794 364.794 0 0 0-4.899-12.061c-3.406-7.978-7.064-15.854-11.181-23.394l-.446-.819.084-.926c1.147-12.46 1.513-25.025.925-37.498-.315-6.231-.857-12.447-1.818-18.556-.956-6.095-2.305-12.144-4.506-17.67-1.098-2.754-2.477-5.334-4.161-7.453-.199-.282-.429-.514-.652-.755l-.333-.364c-.112-.124-.223-.25-.318-.318-.199-.16-.377-.364-.593-.483l-.303-.214c-.107-.064-.219-.11-.328-.17-.862-.447-1.874-.664-3.053-.626-2.366.068-5.09 1.106-7.659 2.413-2.593 1.336-5.118 3.016-7.571 4.818-4.906 3.63-9.527 7.814-13.999 12.15-4.467 4.353-8.771 8.914-12.98 13.566l-1.342 1.484-1.953-.558c-4.152-1.185-8.44-2.027-12.784-2.633-4.349-.603-8.761-.904-13.182-1.074a169.708 169.708 0 0 0-13.303.057c-4.427.186-8.893.52-13.225 1.052a171.76 171.76 0 0 0-13.065 2.315 169.368 169.368 0 0 0-12.887 3.292c-4.235 1.276-8.431 2.678-12.486 4.354-4.051 1.68-7.99 3.573-11.708 5.764l-1.76 1.036-1.682-1.104c-5.245-3.445-10.556-6.775-15.974-9.865-5.418-3.072-10.943-5.957-16.603-8.236C61.94 34 59.077 33.01 56.233 32.37c-2.814-.62-5.708-.936-8.008-.408-1.145.257-2.065.72-2.784 1.366-.088.084-.186.157-.271.245l-.24.282c-.177.17-.297.409-.45.614a2.41 2.41 0 0 0-.225.387l-.23.434c-.156.29-.32.572-.442.893-1.094 2.47-1.78 5.313-2.148 8.251-.74 5.898-.525 12.088.083 18.228.606 6.154 1.645 12.304 2.908 18.413 2.57 12.215 6.083 24.283 10.326 36.052l.322.893-.232.917c-2.104 8.324-3.642 16.875-4.94 25.45a376.81 376.81 0 0 0-1.705 12.905c-.49 4.303-.927 8.636-1.177 12.889a52.694 52.694 0 0 0-.102 3.081c.011 1.063.04 2.123.083 3.182.09 2.118.25 4.228.49 6.326.478 4.191 1.278 8.332 2.462 12.341 2.347 8.02 6.34 15.493 11.902 21.658 5.534 6.193 12.514 11.058 20.126 14.693 7.631 3.636 15.847 6.129 24.224 7.942 8.388 1.825 16.969 2.868 25.595 3.741l12.988 1.345c4.345.465 8.707.967 13.063 1.703a1.421 1.421 0 0 1-.189 2.822h-.006c-8.737.289-17.521.295-26.332-.291-8.804-.586-17.62-1.746-26.341-3.602-8.712-1.868-17.362-4.458-25.55-8.34-8.166-3.878-15.849-9.173-22.007-16.038-6.19-6.827-10.654-15.169-13.229-23.927-1.303-4.379-2.174-8.861-2.697-13.358a94.84 94.84 0 0 1-.536-6.754c-.049-1.127-.08-2.251-.094-3.376-.002-1.213.038-2.36.103-3.477.256-4.482.69-8.858 1.181-13.246a383.41 383.41 0 0 1 1.707-13.118c1.304-8.723 2.844-17.421 5.01-26.067l.09 1.81c-4.364-12.035-7.97-24.323-10.638-36.875-1.311-6.281-2.4-12.625-3.048-19.07-.642-6.44-.918-12.984-.1-19.662.422-3.332 1.177-6.724 2.64-10.048.164-.418.388-.827.605-1.236l.327-.612a5.34 5.34 0 0 1 .374-.636c.3-.441.574-.896.947-1.301l.536-.615c.188-.195.397-.376.598-.562 1.63-1.481 3.666-2.409 5.604-2.841 1.952-.447 3.837-.498 5.627-.383a34 34 0 0 1 5.185.764c3.334.745 6.47 1.834 9.522 3.041 6.09 2.44 11.813 5.428 17.407 8.582 5.583 3.17 11.006 6.557 16.348 10.05l-3.442-.069c8.139-4.813 16.841-8.183 25.666-10.825a175.41 175.41 0 0 1 13.364-3.443c4.499-.974 8.988-1.813 13.618-2.423 4.638-.56 9.193-.885 13.793-1.068a175.39 175.39 0 0 1 13.799-.025c9.205.343 18.473 1.419 27.558 4.032l-3.296.925c4.292-4.72 8.692-9.362 13.299-13.831 4.622-4.459 9.411-8.787 14.691-12.678 2.65-1.933 5.412-3.773 8.45-5.332a33.985 33.985 0 0 1 4.822-2.04c1.702-.561 3.537-.984 5.534-1.042 1.981-.069 4.179.317 6.124 1.339.24.129.486.251.718.392l.672.461c.461.297.839.666 1.239 1.019.215.18.367.35.521.52l.469.51c.313.34.632.68.895 1.042 2.25 2.847 3.83 5.937 5.075 9.055 2.467 6.255 3.843 12.657 4.839 19.049.99 6.398 1.53 12.812 1.839 19.22.572 12.816.166 25.616-1.036 38.357l-.361-1.744c4.249 7.828 7.946 15.85 11.391 23.968a368.911 368.911 0 0 1 4.946 12.265c1.576 4.124 3.095 8.251 4.471 12.518l.502 1.627.469 1.708.704 3.307.699 3.306.476 3.359c.151 1.122.321 2.239.453 3.362l.215 3.402.105 1.7c.042.566.068 1.133.042 1.705l-.062 3.419-.031 1.71-.174 1.708-.351 3.414c-.128 1.136-.403 2.257-.6 3.385l-.324 1.69-.167.844-.234.829-.94 3.318-.237.828c-.091.273-.2.538-.3.808l-.614 1.613-.615 1.611-.308.806c-.116.262-.246.518-.368.778l-1.5 3.105c-2.172 4.037-4.646 7.938-7.629 11.395l-1.086 1.324c-.366.439-.774.836-1.159 1.255l-2.342 2.482-2.485 2.326c-.416.383-.824.779-1.247 1.154l-1.304 1.083c-3.426 2.965-7.15 5.506-10.906 7.956-1.917 1.16-3.811 2.364-5.779 3.419-1.939 1.115-3.928 2.121-5.914 3.135-3.996 1.964-8.033 3.837-12.155 5.466-2.048.85-4.126 1.606-6.192 2.397-2.084.733-4.169 1.472-6.265 2.148-8.384 2.752-16.877 4.988-25.357 7.055l-.011.003a1.418 1.418 0 0 1-.888-2.685Z"/>
  <path fill="#E8E8E8" d="M190.204 175.267s1.667 13.005-10.056 13.804c-8.302.57-10.879-5.995-11.071-6.526-.059.563-.903 7.567-9.082 9.101-11.551 2.172-13.207-10.834-13.207-10.834l19.459-19.613.197-.026 23.76 14.094Z"/>
  <path fill="#fff" d="M190.098 175.369s-2.529 10.38-11.657 9.204c-10.39-1.338-10.689-13.489-10.689-13.489l-.372.047s2.717 11.847-7.018 15.716c-8.551 3.397-13.573-6.033-13.573-6.033s-5.315-21.9 18.771-24.976c24.085-3.076 24.538 19.531 24.538 19.531Z"/>
  <path fill="#C5C5D6" d="M156.7 187.585c-3.987.002-6.899-2.707-8.499-4.699l.003-.002c1.6 1.992 4.506 4.7 8.494 4.7 1.136 0 2.36-.219 3.664-.737 7.182-2.854 7.587-10.05 7.306-13.628h.001c.282 3.58-.124 10.777-7.309 13.629-1.302.518-2.526.737-3.66.737Zm24.942-3.085c4.201-.803 6.497-4.347 7.6-6.777l.004-.001c-1.102 2.431-3.4 5.979-7.604 6.778Zm-9.956-3.284c-2.39-2.543-3.332-5.911-3.7-8.051l.003-.002c.368 2.14 1.309 5.509 3.697 8.053Z"/>
  <path fill="#D6DCE4" d="M156.698 187.583c-3.988 0-6.894-2.707-8.494-4.699 1.721-.061 3.551-.429 5.496-1.202 5.261-2.091 8.367-5.214 10.167-8.47a12.097 12.097 0 0 0 3.801.006c.281 3.579-.124 10.775-7.306 13.628-1.304.518-2.528.737-3.664.737Zm23.163-2.918c-.453 0-.925-.03-1.417-.094-3.029-.389-5.201-1.697-6.758-3.356-2.388-2.544-3.329-5.912-3.697-8.052a12.346 12.346 0 0 0 3.402-1.166c2.548 2.817 6.387 5.189 12.167 5.936.806.103 1.58.152 2.325.152 1.196 0 2.313-.127 3.359-.362-1.103 2.429-3.399 5.974-7.6 6.776-.002 0-.002.002-.002.002h-.003a9.56 9.56 0 0 1-1.776.164Z"/>
  <path fill="#293241" d="M148.245 180.037c.364.425.83.973 1.284 1.42.448.477.936.901 1.417 1.311.976.802 2.012 1.446 3.056 1.825 1.04.404 2.081.522 3.13.469.529-.117 1.058-.121 1.59-.349.264-.102.537-.153.803-.266l.791-.376c2.115-1.003 3.573-2.73 4.468-4.985.446-1.121.723-2.377.874-3.672.089-.646.116-1.307.141-1.973.014-.645.008-1.376-.029-1.942l-.009-.146a1.652 1.652 0 0 1 3.227-.592c.268.866.424 1.592.551 2.402.131.791.196 1.594.218 2.407.029 1.619-.094 3.294-.594 4.943-.863 3.3-3.343 6.516-6.539 8.037l-1.182.576c-.402.18-.846.296-1.274.431-.837.308-1.789.378-2.696.505-1.878.099-3.775-.335-5.406-1.115-1.631-.799-2.991-1.918-4.093-3.168a16.69 16.69 0 0 1-1.48-1.975 14.6 14.6 0 0 1-1.162-2.215 1.65 1.65 0 0 1 2.773-1.718l.141.166Z"/>
  <path fill="#293241" d="M191.703 175.759c-.14.909-.317 1.643-.577 2.435a16.782 16.782 0 0 1-.946 2.28c-.758 1.482-1.798 2.902-3.182 4.081-1.386 1.16-3.116 2.05-4.961 2.419-.91.103-1.849.27-2.737.179-.448-.025-.908-.028-1.341-.101l-1.289-.269c-3.472-.682-6.67-3.183-8.322-6.166-.895-1.475-1.427-3.067-1.801-4.643a17.94 17.94 0 0 1-.384-2.387 16.164 16.164 0 0 1-.062-2.462 1.654 1.654 0 0 1 3.275-.228l.025.147c.106.556.28 1.266.454 1.887.19.639.379 1.273.626 1.878.468 1.216 1.044 2.364 1.755 3.34 1.425 1.964 3.265 3.276 5.562 3.724l.86.169c.286.043.562.025.844.057.572.092 1.086-.038 1.628-.054 1.028-.208 2.007-.58 2.916-1.228.918-.628 1.762-1.507 2.509-2.525.363-.516.732-1.049 1.048-1.621.331-.545.645-1.191.892-1.693l.095-.194a1.649 1.649 0 0 1 3.113.975Z"/>
  <path fill="#293241" d="M178.897 163.295c.356 2.838-3.032 5.81-6.216 7.941-3.33 2.229-7.314 2.73-11.094 1.395-3.613-1.276-7.631-3.319-7.987-6.157-1.077-8.562 24.219-11.742 25.297-3.179Z"/>
  <path fill="#8080B9" d="M165.523 165.673c-.48 0-.96-.053-1.43-.159-1.41-.323-2.968-.861-3.071-1.679-.193-1.532 3.594-2.598 6.57-2.598 1.824 0 3.343.399 3.46 1.338.102.818-1.274 1.725-2.561 2.386a6.52 6.52 0 0 1-2.968.712Z"/>
  <path fill="#3A3A3A" d="M132.6 160.049c1.441 11.287-6.111 21.551-16.869 22.925-10.759 1.375-20.65-6.662-22.09-17.949-1.443-11.289 6.11-21.553 16.869-22.928 10.758-1.374 20.649 6.663 22.09 17.952Z"/>
  <path fill="#fff" d="M124.484 165.896c.61 4.776-2.585 9.12-7.139 9.703-4.554.582-8.739-2.82-9.349-7.598-.61-4.776 2.587-9.12 7.139-9.701 4.554-.582 8.739 2.818 9.349 7.596Zm-13.69-11.596c.351 2.753-1.492 5.259-4.117 5.594-2.625.336-5.038-1.627-5.389-4.38-.353-2.754 1.49-5.259 4.115-5.595 2.626-.335 5.038 1.626 5.391 4.381Z"/>
  <path fill="#3A3A3A" d="M237.866 146.602c1.441 11.289-6.111 21.553-16.869 22.928-10.758 1.374-20.649-6.663-22.09-17.952-1.443-11.287 6.111-21.551 16.869-22.925 10.758-1.375 20.649 6.662 22.09 17.949Z"/>
  <path fill="#fff" d="M229.75 152.449c.61 4.778-2.585 9.122-7.139 9.703-4.553.582-8.739-2.819-9.349-7.596-.61-4.778 2.587-9.122 7.139-9.704 4.554-.581 8.739 2.821 9.349 7.597Zm-13.69-11.594c.352 2.754-1.492 5.258-4.116 5.593-2.625.335-5.039-1.625-5.39-4.379-.353-2.755 1.49-5.259 4.115-5.594 2.625-.336 5.039 1.625 5.391 4.38Z"/>
  <path fill="#293241" d="M60.321 185.786a46.578 46.578 0 0 0-1.679-.629c-.57-.216-1.155-.41-1.743-.599a29.994 29.994 0 0 0-1.77-.542c-.597-.158-1.178-.36-1.778-.514-2.392-.625-4.79-1.221-7.226-1.651-4.861-.882-9.78-1.503-14.732-1.627-.746-.043-1.493-.032-2.24-.021-.491.006-.982.014-1.472.006l-1.859.002c-.62.006-1.237.07-1.855.102a229.19 229.19 0 0 1-3.715.214l-3.701.42c-2.484.198-4.904.804-7.372 1.171l-.923.154-.91.216-1.821.432c-1.214.294-2.436.564-3.66.837l-.096.023a1.453 1.453 0 0 1-1.734-1.101 1.459 1.459 0 0 1 .964-1.696c1.222-.402 2.447-.807 3.68-1.188l1.848-.58.926-.291.941-.229a177.73 177.73 0 0 1 3.778-.886c.633-.132 1.258-.31 1.899-.407l1.918-.308 3.843-.606a249.82 249.82 0 0 1 3.879-.349c.647-.048 1.293-.126 1.943-.148l1.948-.048c1.3-.017 2.6-.097 3.9-.033l3.899.16c1.298.081 2.592.239 3.886.372 1.298.107 2.578.362 3.865.555 1.288.19 2.56.483 3.83.769 5.094 1.18 10.01 2.81 14.697 5.451a1.451 1.451 0 0 1-1.256 2.611l-.102-.042Zm5.774 18.816a91.12 91.12 0 0 0-6.518.361c-2.181.197-4.353.448-6.51.777-4.31.672-8.577 1.571-12.688 2.93-2.056.675-4.081 1.435-6.04 2.334-.992.427-1.94.934-2.91 1.403-.938.526-1.9 1.015-2.803 1.6-3.698 2.207-7.045 4.957-10.038 8.098l-.02.023a1.455 1.455 0 0 1-2.057.049 1.462 1.462 0 0 1-.152-1.937c2.82-3.685 6.26-6.948 10.144-9.54a46.132 46.132 0 0 1 6.06-3.482 51.526 51.526 0 0 1 6.45-2.643 62.216 62.216 0 0 1 13.52-2.976c4.597-.481 9.162-.537 13.818.107a1.455 1.455 0 0 1-.173 2.895l-.083.001Zm207.835-48.496c3.874-3.734 8.222-6.547 12.856-8.97 1.158-.596 2.315-1.198 3.513-1.707 1.198-.508 2.372-1.08 3.602-1.509 1.218-.455 2.432-.931 3.668-1.335l3.734-1.136c1.241-.389 2.52-.639 3.782-.949l1.898-.443c.634-.143 1.28-.229 1.917-.345 1.28-.221 2.561-.437 3.843-.635l3.871-.382 1.935-.184c.643-.068 1.293-.052 1.94-.083 1.293-.042 2.587-.077 3.88-.092l.968-.016.969.05 1.935.097c1.289.058 2.576.143 3.861.225a1.451 1.451 0 0 1-.037 2.9l-.104.003c-1.254.043-2.504.089-3.753.11l-1.872.038-.934.021-.933.082c-2.482.265-4.976.286-7.43.72l-3.687.524c-1.216.254-2.433.493-3.65.726-.607.124-1.22.22-1.821.369l-1.8.464c-1.193.332-2.412.567-3.589.949-4.762 1.363-9.367 3.201-13.851 5.276-2.248 1.03-4.421 2.209-6.579 3.415-.542.298-1.053.64-1.592.945-.537.307-1.061.631-1.576.969-.521.331-1.039.664-1.537 1.019-.5.338-1.025.702-1.466 1.031l-.088.065a1.453 1.453 0 0 1-1.873-2.212Zm.128 19.07c4.344-1.794 8.775-2.887 13.346-3.578a62.165 62.165 0 0 1 13.835-.516c2.315.149 4.623.475 6.906.936a46.231 46.231 0 0 1 6.742 1.847c4.411 1.532 8.559 3.826 12.215 6.685a1.453 1.453 0 0 1-1.657 2.385l-.032-.019c-3.686-2.288-7.617-4.111-11.751-5.318-1.02-.337-2.075-.569-3.114-.842-1.057-.21-2.102-.463-3.17-.628-2.121-.378-4.272-.604-6.432-.74-4.322-.282-8.678-.08-13.017.352-2.171.224-4.336.528-6.497.885a91.331 91.331 0 0 0-6.4 1.289l-.08.019a1.454 1.454 0 0 1-.894-2.757Z"/>
  <path fill="#92A2B8" d="M125.1 323.85c-47.744 2.369-25.441-53.594-25.1-54.452l.007-.007s-2.26-.355-5.428-1.642c-6.003-2.443-15.269-8.205-18.625-21.191-4.601-17.789 14.751-29.293 27.868-6.737 0 0 37.432-13.755 43.479 17.333.915 4.687 1.808 9.679 2.492 14.745.56 4.105.988 8.248 1.185 12.317.988 20.217-3.677 38.53-25.878 39.634Z"/>
  <path fill="#6C7887" d="M122.221 323.923c-22.192 0-27.724-13.685-27.72-27.344.004-13.394 5.335-26.765 5.5-27.181l.006-.007s3.91.938 11.353 1.051a60.28 60.28 0 0 0 3.131.084c2.597 0 4.33-.183 5.113-.288l.409-.025c-1.138.848-16.132 12.55-9.322 30.208 2.199 5.702 8.426 8.921 15.361 8.921 10.592 0 22.835-7.502 24.926-25.126.08 1.619.123 3.225.123 4.812 0 .866-.011 1.726-.038 2.579-.086 2.827-.321 5.574-.742 8.196-2.128 13.227-8.984 23.239-25.221 24.047a58.12 58.12 0 0 1-2.879.073Zm-22.214-54.532s-2.26-.355-5.427-1.642l.01.003c3.163 1.282 5.417 1.639 5.417 1.639Z"/>
  <path fill="#fff" d="M149.793 271.899c-5.196-2.145-12.346-3.692-21.429-2.507-18.393 2.39-28.357 0-28.357 0s-18.923-2.995-24.052-22.834c-.954-3.684-.88-7.099-.037-9.998 3.183-11.097 17.506-14.621 27.904 3.262 0 0 32.623-11.99 41.873 11.708a32.06 32.06 0 0 1 1.607 5.625c.915 4.687 1.808 9.679 2.491 14.744Z"/>
  <path fill="#D6DCE4" d="M145.695 251.529c-7.66-7.348-18.248-9.705-25.804-9.705-4.1 0-7.308.693-8.67 1.661-1.81 1.285.342 3.618-.72 4.984-.067.086-.168.124-.3.124-1.306 0-5.614-3.805-8.407-3.998a6.898 6.898 0 0 0-.476-.015c-1.324 0-2.563.378-3.617.754-1.052.378-1.92.757-2.496.757-.362 0-.61-.148-.721-.536-.582-2.056 3.786-10.196-5.704-13.269a6.79 6.79 0 0 0-2.104-.317c-3.462 0-7.476 2.23-10.758 4.59 1.598-5.572 6.007-9.236 11.317-9.236 5.264 0 11.41 3.595 16.587 12.498 0 0 8.254-3.033 17.633-3.033 9.271 0 19.642 2.961 24.24 14.741Z"/>
  <path fill="#293241" d="M87.244 230.234c-1.13 0-2.176.217-3.108.6-4.154 1.707-7.328 7.406-5.364 14.998 4.57 17.671 21 20.574 21.697 20.688a2.916 2.916 0 0 1 2.231 3.96c-.113.278-11.138 28.037-1.072 42.186 4.304 6.047 12.15 8.836 23.328 8.278 7.683-.383 13.272-2.933 17.083-7.8 9.371-11.965 6.211-35.911 2.412-55.439-1.377-7.078-4.655-12.123-9.741-14.996-11.771-6.649-29.709-.224-29.889-.157a2.911 2.911 0 0 1-3.513-1.268c-4.752-8.175-9.954-11.05-14.064-11.05Zm34.977 96.592c-11.724.002-20.237-3.626-25.336-10.799-9.794-13.781-3.529-36.343-.715-44.608-6.136-1.916-18.796-7.775-23.026-24.132-2.47-9.544 1.225-18.725 8.782-21.83 6.258-2.572 15.469-.932 23.173 10.897 5.727-1.695 20.955-5.197 32.45 1.282 6.646 3.747 10.889 10.124 12.608 18.959 4.287 22.028 7.218 46.396-3.542 60.134-4.843 6.185-12.034 9.557-21.372 10.021a61.103 61.103 0 0 1-3.022.076Z"/>
  <path fill="#293241" d="M100.667 266.559c.672.208 1.56.42 2.369.598.832.178 1.674.346 2.525.486 1.7.287 3.42.513 5.154.678 1.733.148 3.478.277 5.229.305 1.751.053 3.505.018 5.265-.041h.031a1.454 1.454 0 0 1 .294 2.889c-1.799.306-3.607.589-5.43.781-1.821.218-3.654.334-5.496.425a77.18 77.18 0 0 1-5.55.025 60.469 60.469 0 0 1-2.801-.154c-.958-.081-1.836-.157-2.91-.329a2.915 2.915 0 1 1 .918-5.757c.132.023.276.058.402.094Zm273.112 27.648a34.393 34.393 0 0 1-.493 4.098 43.464 43.464 0 0 1-.887 3.983 39.952 39.952 0 0 1-2.972 7.685c-1.237 2.495-2.902 4.81-4.81 6.931l-1.498 1.548c-.54.473-1.101.927-1.656 1.393l-.84.69-.908.597-1.832 1.19a2.913 2.913 0 1 1-2.953-5.014l.281-.15 1.533-.812.774-.402.72-.494 1.446-.993 1.337-1.152c1.731-1.6 3.342-3.416 4.622-5.501a35.888 35.888 0 0 0 3.296-6.627 39.868 39.868 0 0 0 1.153-3.573c.337-1.195.607-2.469.788-3.621l.013-.088a1.453 1.453 0 0 1 1.66-1.21 1.461 1.461 0 0 1 1.226 1.522Zm-22.525-24.888a.783.783 0 0 0-.132.089c-.048.036-.086.074-.075.059l-.016-.005c.002-.018.014-.048.022-.072l.085-.197.209-.413c.148-.279.315-.553.485-.832.359-.544.751-1.084 1.242-1.602a6.938 6.938 0 0 1 1.948-1.495c.461-.208 1.06-.431 1.886-.399.402.014.86.118 1.26.308.212.089.38.207.56.326.157.1.489.421.626.621.078.108.149.22.216.334.063.11.097.194.143.294.095.208.133.354.182.521.085.313.118.572.137.812.035.473.021.864-.021 1.238-.082.739-.208 1.39-.394 2.021-.355 1.261-.821 2.404-1.488 3.532a1.492 1.492 0 0 1-2.776-.785l.001-.083c.02-1.156.148-2.327.234-3.413.03-.541.084-1.072.072-1.525-.008-.221-.013-.429-.035-.55.003-.114-.112-.157.157.27.048.085.275.294.31.31.052.043.106.059.174.099.134.06.294.09.399.093.229-.003.237-.052.156-.017-.191.033-.577.283-.971.553-.392.284-.818.615-1.249.966l-1.735 1.36a1.451 1.451 0 0 1-2.014-.404 1.45 1.45 0 0 1 .402-2.014Zm-80.344 10.218c.243 1.908.279 3.687.165 5.559-.129 1.854-.416 3.736-1.031 5.607-.601 1.866-1.554 3.737-2.989 5.366a13.143 13.143 0 0 1-2.491 2.146c-.93.615-1.945 1.073-2.979 1.448l-.026.009a2.917 2.917 0 1 1-1.54-5.607c1.264-.241 2.417-.745 3.434-1.587 1.006-.85 1.877-2.015 2.536-3.381.675-1.355 1.149-2.89 1.484-4.474.327-1.57.519-3.277.542-4.835v-.086a1.455 1.455 0 0 1 1.473-1.435 1.455 1.455 0 0 1 1.422 1.27Zm-22.073-2.316a31.726 31.726 0 0 0 .019 5.175c.146 1.719.435 3.407.917 4.969.476 1.56 1.161 2.996 2.052 4.107.45.551.938 1.031 1.469 1.419a7.735 7.735 0 0 0 1.716.897 2.915 2.915 0 1 1-2.409 5.295l-.03-.018a13.31 13.31 0 0 1-2.86-2.067 13.162 13.162 0 0 1-2.114-2.699c-1.139-1.928-1.743-3.974-2.075-5.962-.33-1.996-.39-3.961-.298-5.888.1-1.942.325-3.788.75-5.731a1.453 1.453 0 0 1 2.868.429l-.005.074Zm139.351 36.621c1.33.367 2.871.61 4.306.698 1.454.087 2.888.014 4.237-.229a11.397 11.397 0 0 0 3.631-1.381c1.069-.632 1.869-1.547 2.591-2.485l.105-.138a2.92 2.92 0 1 1 4.362 3.858c-1.403 1.384-2.997 2.604-4.805 3.325a16.205 16.205 0 0 1-5.44 1.159 21.897 21.897 0 0 1-5.204-.514c-1.686-.379-3.238-.859-4.865-1.595a1.453 1.453 0 0 1 .985-2.725l.097.027Zm3.394-20.489a26.055 26.055 0 0 1 4.468-.991c1.515-.197 3.079-.275 4.699-.114 1.615.152 3.31.56 4.939 1.417.808.435 1.587.985 2.292 1.643a11.396 11.396 0 0 1 1.805 2.254l.04.066a2.921 2.921 0 1 1-5.203 2.604 6.032 6.032 0 0 0-.63-1.211 5.773 5.773 0 0 0-.988-1.034c-.788-.625-1.829-1.127-3.003-1.445-1.169-.329-2.455-.497-3.764-.551a23.072 23.072 0 0 0-3.932.178l-.091.011a1.453 1.453 0 0 1-.632-2.827Z"/>
  <path fill="#BBC5D3" d="M329.644 305.528c-10.674 0-18.264-8.537-20.032-17.281-.938-4.639.059-6.443 1.978-6.443 2.255 0 5.785 2.492 8.949 5.809 8.438 8.849 28.348 12.231 17.029 16.421-2.785 1.031-5.437 1.495-7.924 1.494Zm-31.146-77.361c-.715 0-1.138-.526-.941-1.697 1.71-10.176-1.16-18.041-.597-18.041.561 0 6.497 3.078 7.266 9.875.643 5.673-3.71 9.864-5.728 9.863Z"/>
  <path fill="#3A3A3A" d="M97.813 133.054c-5.838 0-11.923.422-18.016 1.277-4.606.645-8.844 1.746-12.595 3.27-4.558 1.848-7.845 5.954-8.579 10.714l-.031.241a28.23 28.23 0 0 1-.107.712c-1.722 10.976-2.45 31.136 12.022 42.819 5.837 4.711 15.226 6.2 27.903 4.422 6.596-.927 13.903-2.735 21.719-5.379 10.536-3.562 17.056-14.184 15.503-25.255l-2.403-17.134a15.453 15.453 0 0 0-11.065-12.708c-6.937-1.974-15.35-2.979-24.35-2.979ZM88.83 201.59c-8.963 0-16.024-2.045-21.061-6.111-16.178-13.059-15.46-34.982-13.591-46.886.04-.256.07-.447.086-.567.011-.093.028-.221.047-.348.97-6.297 5.28-11.696 11.251-14.118 4.084-1.658 8.669-2.852 13.63-3.547 16.066-2.254 32.165-1.589 44.165 1.825a19.819 19.819 0 0 1 14.189 16.296l2.404 17.134c1.845 13.146-5.906 25.761-18.426 29.993-8.07 2.73-15.644 4.602-22.508 5.565-3.63.51-7.026.764-10.186.764Z"/>
  <path fill="#68D8FF" d="M284.554 143.85c.2 9.031-1.664 18.915-7.938 27.834-11.558 16.432-37.752 18.944-58.639 17.957-14.44-.682-26.716-10.013-31.589-23.115a35.705 35.705 0 0 1-1.898-7.506l-2.794-19.915a34.675 34.675 0 0 0-19.065-2.729 34.666 34.666 0 0 0-17.577 7.869l2.793 19.915c.365 2.611.437 5.199.24 7.74-1.081 13.937-10.314 26.286-24.01 30.915-19.808 6.695-45.683 11.489-61.315-1.13-8.488-6.853-12.999-15.838-15.29-24.575-3.21-12.281-2.039-24.067-1.352-28.746l-.001-.005c.2-1.357.36-2.112.36-2.112s-9.885-8.554-.242-14.624c16.296-10.248 71.486-18.831 97.213 1.205a34.644 34.644 0 0 1 36.643-5.14c19.222-26.342 74.644-33.276 93.131-27.907 10.945 3.18 3.791 14.125 3.791 14.125s.362.681.928 1.93v.005c1.948 4.311 6.322 15.32 6.611 28.009Z"/>
  <path fill="#4CA9FC" d="m47.47 177.11 100.616-5.21c-1.08 13.937-10.313 26.286-24.01 30.915-19.808 6.695-45.683 11.489-61.315-1.13-8.488-6.853-12.998-15.838-15.29-24.575Zm237.083-33.26c.2 9.031-1.663 18.916-7.938 27.834-11.557 16.432-37.752 18.944-58.639 17.958-14.44-.682-26.715-10.014-31.588-23.115l98.165-22.677Z"/>
  <path fill="#69F1FF" d="M277.015 113.906s.362.681.928 1.93v.005l-77.35 16.55c-11.119 2.38-22.457 3.433-33.827 3.656a34.806 34.806 0 0 0-8.201 1.15c-10.991 2.916-22.182 5.021-33.528 5.793l-78.917 5.374-.001-.005c.2-1.357.36-2.112.36-2.112s-9.885-8.554-.242-14.624c16.296-10.248 71.486-18.831 97.213 1.205a34.644 34.644 0 0 1 36.643-5.14c19.222-26.342 74.644-33.276 93.131-27.907 10.945 3.181 3.791 14.125 3.791 14.125Z"/>
  <path fill="#68D8FF" d="M137.79 165.572c1.699 12.107-5.432 23.725-16.964 27.624-7.954 2.69-15.391 4.528-22.114 5.47-13.299 1.867-23.25.223-29.574-4.884-18.64-15.047-13.022-43.047-12.712-45.48.011-.099.027-.208.042-.319.861-5.592 4.674-10.279 9.913-12.403 3.28-1.332 7.618-2.638 13.114-3.408 13.473-1.891 29.991-2.013 43.266 1.763a17.621 17.621 0 0 1 12.625 14.502l2.404 17.135Z"/>
  <path fill="#293241" d="M249.724 111.035c-2.574 0-5.256.196-8.019.583-15.489 2.172-30.163 7.018-40.264 13.294a15.45 15.45 0 0 0-7.14 15.26l2.404 17.134c1.552 11.073 10.744 19.491 21.855 20.016 8.238.39 15.763.12 22.358-.806 12.676-1.778 21.293-5.791 25.608-11.929 10.7-15.212 4.452-34.393-.224-44.473-.132-.284-.23-.499-.289-.636l-.11-.254c-2.01-4.363-6.298-7.406-11.185-7.93a47.33 47.33 0 0 0-4.994-.259Zm-24.056 70.82c-2.374 0-4.813-.059-7.315-.177-13.202-.626-24.122-10.62-25.967-23.765l-2.404-17.134a19.813 19.813 0 0 1 9.157-19.57c10.598-6.586 25.89-11.655 41.959-13.909 4.959-.696 9.698-.811 14.084-.34 6.404.684 12.032 4.69 14.687 10.451.072.161.119.272.162.374.037.086.119.26.227.495 5.072 10.932 11.795 31.81-.165 48.816-5.038 7.162-14.649 11.786-28.569 13.739-4.846.68-10.158 1.02-15.856 1.02ZM97.813 133.054c-5.838 0-11.923.422-18.016 1.277-4.607.645-8.844 1.746-12.596 3.27-4.558 1.848-7.845 5.954-8.578 10.716l-.032.239a24.36 24.36 0 0 1-.106.712c-1.722 10.976-2.45 31.136 12.021 42.819 5.838 4.711 15.227 6.2 27.904 4.422 6.596-.927 13.903-2.735 21.719-5.379 10.535-3.562 17.056-14.183 15.502-25.255l-2.402-17.134a15.455 15.455 0 0 0-11.065-12.708c-6.937-1.973-15.35-2.979-24.351-2.979Zm-8.984 68.536c-8.962 0-16.023-2.045-21.06-6.111-16.178-13.059-15.46-34.982-13.591-46.886.04-.256.07-.446.086-.567.01-.092.028-.221.046-.348.97-6.297 5.28-11.696 11.252-14.117 4.083-1.659 8.669-2.852 13.63-3.548 16.068-2.253 32.164-1.588 44.165 1.825a19.819 19.819 0 0 1 14.189 16.296l2.404 17.134c1.845 13.147-5.906 25.761-18.426 29.994-8.07 2.729-15.644 4.601-22.508 5.564-3.63.51-7.026.764-10.187.764Zm9.268-78.659c-21.113 0-42.053 5.1-50.7 10.538-2.024 1.275-3.07 2.653-3.192 4.215-.222 2.825 2.599 5.952 3.704 6.919a2.19 2.19 0 0 1 .704 2.09c-.073.349-7.013 35.109 15.518 53.295 15.001 12.111 40.5 7.098 59.247.762 15.158-5.123 24.54-20.383 22.309-36.286l-2.793-19.915a2.179 2.179 0 0 1 .75-1.967 36.832 36.832 0 0 1 38.947-5.464 2.178 2.178 0 0 1 1.263 1.684l2.795 19.915c2.23 15.903 15.448 27.993 31.429 28.746 19.774.936 45.663-1.261 56.755-17.032 16.659-23.686.419-55.193.252-55.509a2.183 2.183 0 0 1 .102-2.204c.798-1.233 2.649-5.016 1.659-7.67-.547-1.468-1.932-2.505-4.231-3.174-17.472-5.075-72.165 1.616-90.76 27.098a2.18 2.18 0 0 1-2.658.702c-11.354-5.124-24.833-3.233-34.337 4.818a2.18 2.18 0 0 1-2.749.055c-10.916-8.5-27.518-11.616-44.014-11.616Zm-9.212 88.777c-10.226 0-19.952-2.239-27.493-8.326-22.437-18.113-18.407-49.747-17.27-56.387-1.584-1.659-4.586-5.398-4.265-9.632.228-2.997 1.984-5.549 5.219-7.584 9.123-5.737 27.66-10.192 46.125-11.087 12.855-.62 36.389.078 52.197 11.378 10.223-7.848 23.998-9.781 35.986-5.048 12.09-15.215 34.523-22.363 47.052-25.301 18-4.222 37.047-5.04 47.396-2.034 3.672 1.068 6.063 3.038 7.107 5.857 1.474 3.981-.386 8.402-1.452 10.432 2.922 6.073 15.502 35.377-1.089 58.963-12.229 17.389-39.663 19.861-60.525 18.879-18.072-.851-33.02-14.517-35.543-32.494l-2.623-18.699a32.45 32.45 0 0 0-16.774-2.09 32.44 32.44 0 0 0-15.55 6.624l2.623 18.7c2.521 17.977-8.089 35.229-25.232 41.02-10.764 3.64-23.682 6.829-35.89 6.829Z"/>
  <path fill="#293241" d="m135.387 148.437 2.404 17.134c1.698 12.108-5.433 23.726-16.965 27.625-6.775 2.289-13.173 3.966-19.074 4.994-1.03.179-2.043.336-3.04.476-8.648 1.214-15.884.942-21.624-.801-3.084-.935-5.74-2.295-7.95-4.083a7.594 7.594 0 0 1-.336-.281c-6.09-5.04-9.528-11.485-11.395-17.924-3.719-12.843-1.185-25.662-.98-27.275.01-.099.026-.208.042-.319.86-5.592 4.674-10.279 9.913-12.403 3.28-1.332 7.617-2.638 13.113-3.408 3.64-.51 7.502-.893 11.468-1.101 7.953-.425 16.307-.156 24.05 1.137a72.573 72.573 0 0 1 7.749 1.727 17.2 17.2 0 0 1 1.995.706 17.6 17.6 0 0 1 10.63 13.796Z"/>
  <path fill="#4D4D9D" d="M68.802 193.5c-6.09-5.039-9.528-11.484-11.395-17.924l33.556-44.506a131.4 131.4 0 0 1 6.906-.186c5.782 0 11.618.401 17.144 1.324L68.802 193.5Zm20.007 5.911c-4.417 0-8.329-.516-11.721-1.546l47.669-63.224a17.6 17.6 0 0 1 10.63 13.796l.608 4.334-34.243 45.418a92.06 92.06 0 0 1-3.04.477c-3.538.497-6.841.745-9.903.745Z"/>
  <path fill="#293241" d="M97.813 133.054c-5.838 0-11.923.422-18.016 1.277-4.606.645-8.844 1.746-12.595 3.27-4.558 1.848-7.845 5.954-8.579 10.714l-.031.241a28.23 28.23 0 0 1-.107.712c-1.722 10.976-2.45 31.136 12.023 42.819 5.836 4.711 15.225 6.2 27.902 4.422 6.596-.927 13.903-2.735 21.717-5.379 10.538-3.562 17.058-14.184 15.505-25.255l-2.403-17.134a15.453 15.453 0 0 0-11.065-12.708c-6.937-1.974-15.35-2.979-24.351-2.979Zm-8.984 68.536c-8.962 0-16.023-2.045-21.06-6.111-16.178-13.059-15.46-34.982-13.591-46.886.04-.256.07-.447.086-.567.01-.093.028-.221.047-.348.97-6.297 5.279-11.696 11.251-14.118 4.083-1.658 8.669-2.852 13.63-3.547 16.066-2.254 32.163-1.589 44.165 1.825a19.819 19.819 0 0 1 14.189 16.296l2.404 17.134c1.845 13.146-5.906 25.761-18.426 29.993-8.07 2.73-15.644 4.602-22.508 5.565-3.63.51-7.026.764-10.187.764Zm103.438-61.132 2.404 17.134c1.698 12.107 11.751 21.315 23.911 21.89 7.142.337 13.756.188 19.711-.448a92.062 92.062 0 0 0 3.054-.376c8.647-1.214 15.53-3.466 20.57-6.721 2.707-1.75 4.887-3.788 6.519-6.113.086-.121.167-.24.246-.364 4.468-6.522 6-13.662 6.022-20.367.041-13.371-5.922-24.998-6.562-26.492a9.273 9.273 0 0 0-.129-.295c-2.366-5.139-7.321-8.596-12.943-9.197-3.518-.378-8.049-.438-13.543.332-3.64.51-7.46 1.205-11.329 2.096-7.763 1.781-15.72 4.339-22.808 7.712a72.537 72.537 0 0 0-6.974 3.793c-.604.377-1.182.787-1.725 1.227a17.598 17.598 0 0 0-6.424 16.189Z"/>
  <path fill="#4D4D9D" d="m268.682 165.46-61.292-46.21c7.088-3.374 15.045-5.932 22.808-7.713l44.506 33.556c-.022 6.705-1.554 13.845-6.022 20.367Zm-30.389 13.574-45.418-34.242-.608-4.335a17.601 17.601 0 0 1 6.423-16.189l63.227 47.668c-5.04 3.256-11.923 5.507-20.57 6.721-.996.14-2.013.267-3.054.377Z"/>
  <path fill="#3A3A3A" d="m194.426 140.155 2.404 17.134c1.552 11.073 10.744 19.489 21.855 20.015 8.241.391 15.763.121 22.36-.805 12.676-1.778 21.291-5.792 25.606-11.929 10.7-15.212 4.453-34.393-.222-44.473-.132-.285-.232-.499-.291-.636l-.116-.268c-2.003-4.349-6.293-7.392-11.184-7.916-4.026-.432-8.402-.324-13.01.324-15.486 2.172-30.161 7.018-40.262 13.294a15.449 15.449 0 0 0-7.14 15.26Zm31.364 41.682c-2.372 0-4.811-.058-7.312-.176-13.202-.626-24.122-10.62-25.967-23.765l-2.404-17.134a19.814 19.814 0 0 1 9.159-19.57c10.597-6.586 25.89-11.655 41.957-13.909 4.962-.696 9.7-.811 14.081-.34 6.406.684 12.035 4.69 14.691 10.451l.163.377c.035.082.118.257.226.492 5.071 10.932 11.794 31.81-.165 48.815-5.039 7.163-14.65 11.787-28.57 13.739-4.846.68-10.159 1.02-15.859 1.02Z"/>
  <path fill="#293241" d="M249.724 111.035c-2.574 0-5.256.195-8.019.583-15.488 2.172-30.163 7.018-40.264 13.294a15.448 15.448 0 0 0-7.14 15.26l2.404 17.134c1.552 11.073 10.744 19.491 21.855 20.015 8.238.391 15.762.121 22.359-.805 12.676-1.778 21.292-5.792 25.607-11.929 10.7-15.212 4.452-34.393-.222-44.473-.132-.284-.232-.499-.291-.636l-.109-.254c-2.01-4.363-6.299-7.406-11.186-7.93a47.063 47.063 0 0 0-4.994-.259Zm-24.056 70.819a155.4 155.4 0 0 1-7.315-.176c-13.202-.624-24.122-10.62-25.967-23.765l-2.404-17.134a19.81 19.81 0 0 1 9.159-19.57c10.596-6.586 25.889-11.655 41.957-13.909 4.959-.696 9.699-.811 14.084-.34 6.405.684 12.032 4.69 14.687 10.451.072.161.12.272.163.374.036.085.119.26.227.495 5.071 10.932 11.794 31.81-.166 48.815-5.038 7.163-14.649 11.787-28.569 13.739-4.846.68-10.156 1.02-15.856 1.02ZM62.377 255.31l-8.55.642a7.253 7.253 0 0 0-6.693 6.692l-.642 8.55-.64-8.55a7.253 7.253 0 0 0-6.693-6.692l-8.55-.642 8.55-.64a7.257 7.257 0 0 0 6.692-6.693l.642-8.551.64 8.551a7.257 7.257 0 0 0 6.693 6.693l8.55.64ZM323.7 70.18l-9.795.735a8.309 8.309 0 0 0-7.665 7.665l-.734 9.794-.735-9.794a8.309 8.309 0 0 0-7.665-7.665l-9.794-.735 9.794-.734a8.308 8.308 0 0 0 7.665-7.665l.735-9.795.734 9.795a8.308 8.308 0 0 0 7.665 7.665l9.795.734ZM34.386 120.521l-5.28.395a4.48 4.48 0 0 0-4.131 4.131l-.396 5.28-.396-5.28a4.48 4.48 0 0 0-4.132-4.131l-5.278-.395 5.278-.396a4.481 4.481 0 0 0 4.132-4.133l.396-5.278.396 5.278a4.481 4.481 0 0 0 4.132 4.133l5.279.396Z"/>
</svg>
