<svg xmlns="http://www.w3.org/2000/svg" width="406" height="457" fill="none" viewBox="0 0 406 457">
  <path fill="#3D5A80" d="M164.54 457c-88.91 0-160.984-7.91-160.984-17.665 0-6.415 31.177-12.033 77.811-15.127.485.53.989 1.052 1.507 1.562 13.03 12.818 36.821 19.264 70.932 19.264 8.767 0 18.219-.426 28.342-1.278.203.104.408.202.613.292.721.319 1.442.648 2.169.881l1.091.379 1.092.307c2.912.797 5.819 1.202 8.7 1.419a68.73 68.73 0 0 0 5.021.178c1.192 0 2.38-.029 3.566-.079a88.648 88.648 0 0 0 16.855-2.374c2.781-.681 5.54-1.491 8.323-2.641.982-.436 1.959-.88 2.972-1.49 6.454.683 12.934 1.054 19.071 1.054 15.147 0 28.206-2.263 33.646-7.702 1.588-1.59 2.752-3.613 3.563-5.873 22.925 3.053 36.696 6.965 36.696 11.228 0 9.755-72.075 17.665-160.986 17.665Z"/>
  <path fill="#fff" d="M87.799 412.408c-14.622 7.944-32.067 8.968-47.152 3.334-15.096-5.635-27.601-17.831-33.603-32.781-3.798-9.48-4.948-19.956-3.488-30.065v-.009a57.762 57.762 0 0 1 2.03-9.007 56.539 56.539 0 0 1 3.072-7.819c2.948-6.098 7.152-11.829 13.057-15.143 7.016-3.925 16.09-3.867 23.058.154.87.502 1.701 1.063 2.494 1.682 5.547 4.291 9.074 11.162 9.171 18.198.116 7.972-3.788 15.346-6.552 22.816a50.137 50.137 0 0 0-1.527 4.871l-.01.02c-1.092 4.291-1.536 8.774-.56 12.853.444 1.856 1.178 3.633 2.27 5.267 1.199 1.787 2.755 3.257 4.533 4.425 3.122 2.07 6.92 3.219 10.669 3.548 5.895.502 11.79-.744 17.579-1.982 3.74 6.234 4.861 12.921 4.959 19.638Z"/>
  <path fill="#FF9331" d="M56.439 340.951c.116 7.973-3.789 15.346-6.553 22.817a50.05 50.05 0 0 0-1.527 4.871l-.01.019c-.086.174-.173.349-.25.522-.426.88-.832 1.739-1.247 2.59-2.059 4.252-4.262 8.689-8.099 11.452-6.523 4.727-16.159 2.996-22.315-2.203-6.146-5.2-9.403-13.057-11.393-20.855a76.821 76.821 0 0 1-1.489-7.268v-.01a57.724 57.724 0 0 1 2.03-9.006 56.49 56.49 0 0 1 3.073-7.819c2.368-4.91 5.557-9.577 9.79-12.941a25.105 25.105 0 0 1 3.266-2.202c7.016-3.925 16.09-3.867 23.059.153.87.503 1.7 1.064 2.493 1.683 5.547 4.291 9.075 11.161 9.172 18.197Z"/>
  <path fill="#FFD4AD" d="M46.845 343.307c-.203-3.426-.85-6.744-2.439-9.797-3.46-6.66-11.008-10.584-18.507-10.979a25.65 25.65 0 0 0-.678-.026 20.68 20.68 0 0 1 7.886-1.544c3.55 0 7.1.891 10.187 2.669a20.021 20.021 0 0 1 5.589 4.821c.616 3.714.434 7.554-.65 11.166a30.346 30.346 0 0 1-1.388 3.69Z"/>
  <path fill="#D6DCE4" d="M44.332 378.532a45.358 45.358 0 0 1-.739-.672c.232-.363.456-.733.674-1.105a25.9 25.9 0 0 0 .065 1.777Z"/>
  <path fill="#CC763E" d="M43.593 377.859c-2.02-1.877-3.82-3.912-4.88-6.438-2.203-5.257-.589-11.365 1.934-16.487 1.938-3.93 4.415-7.637 6.198-11.627.253 4.262-.181 8.686-.342 12.961-.092 2.393-.027 4.895.297 7.336-1.698 4.814-2.542 9.205-2.532 13.15-.219.372-.443.742-.675 1.105Z"/>
  <path fill="#FFD4AD" d="M46.8 363.604c-.323-2.441-.388-4.943-.297-7.336.161-4.275.595-8.699.343-12.961a30.362 30.362 0 0 0 1.387-3.69c1.084-3.612 1.266-7.452.65-11.166 2.837 3.532 4.533 7.988 4.6 12.539.081 5.647-2.112 11.072-4.433 16.819a177.868 177.868 0 0 0-1.939 4.936c-.107.288-.21.575-.31.859Z"/>
  <path fill="#D6DCE4" d="M60.438 416.312c-6.386 0-12.77-1.105-18.76-3.34-14.288-5.333-26.206-16.963-31.883-31.111-2.351-5.858-3.63-12.146-3.851-18.475.184.601.377 1.202.58 1.8 3.788 15.816 14.717 30.107 29.957 35.558 2.468.882 5.084 1.536 7.69 1.536.793 0 1.585-.06 2.37-.193 3.373-.57 6.63-2.686 7.81-5.895a7.99 7.99 0 0 0 .385-1.445c2.983 1.599 6.476 2.618 10.272 2.947 1.003.088 2.005.127 3.006.127.93 0 1.86-.034 2.784-.096.314 6.134 1.65 11.71 3.993 16.698a55.422 55.422 0 0 1-14.353 1.889Z"/>
  <path fill="#CC763E" d="M6.524 365.186c-.202-.598-.396-1.2-.58-1.801a56.81 56.81 0 0 1-.027-1.076c.176.963.379 1.922.607 2.877Z"/>
  <path fill="#293241" d="M33.107 320.961c-3.46 0-6.918.846-9.947 2.541-4.685 2.625-8.668 7.284-11.835 13.844-6.635 13.725-7.207 30.366-1.53 44.514 5.677 14.149 17.596 25.779 31.883 31.112 13.875 5.177 29.85 4.286 43.105-2.335-.26-5.688-1.38-10.382-3.468-14.516-5.104 1.068-10.713 2.056-16.307 1.573-7.544-.653-13.889-4.032-17.407-9.269-4.274-6.368-4.438-15.007-.49-25.68a179.11 179.11 0 0 1 1.938-4.936c2.322-5.746 4.515-11.171 4.433-16.819-.102-7.034-4.1-13.848-10.188-17.36-3.086-1.777-6.637-2.669-10.187-2.669Zm27.318 101.261c-7.086 0-14.168-1.225-20.816-3.708-15.821-5.903-29.02-18.781-35.306-34.45-6.287-15.666-5.654-34.094 1.694-49.293 3.704-7.671 8.506-13.2 14.272-16.432 7.92-4.432 18.116-4.367 25.98.166 7.857 4.532 13.018 13.323 13.15 22.4.1 6.841-2.423 13.083-4.863 19.121-.635 1.57-1.29 3.194-1.875 4.772-2.235 6.043-4.075 14.475-.148 20.328 2.477 3.686 7.34 6.182 13.007 6.673 5.508.478 11.2-.741 16.704-1.92a2.953 2.953 0 0 1 3.157 1.371c3.549 5.917 5.255 12.626 5.372 21.113a2.955 2.955 0 0 1-1.544 2.639c-8.798 4.784-18.796 7.22-28.784 7.22Z"/>
  <path fill="#fff" d="M283.169 431.891c-8.108 8.109-39.738 8.64-67.272 3.257l-3.082-120.803 53.644-7.354s1.316 28.906 3.413 63.803c.424 7.034.878 14.322 1.363 21.658 0 0 10.716 7.682 13.664 13.326.116.213.222.425.309.637 2.996 7.007 3.431 20.005-2.039 25.476Z"/>
  <path fill="#D6DCE4" d="M251.54 435.75c-4.515 0-9.323-.204-14.28-.619 1.308-3.053 1.758-6.002 2.043-8.909a56.8 56.8 0 0 0 .075-8.707c-.136-1.855-.327-3.691-.648-5.558 4.126-5.325 7.938-11.272 11.397-17.809 7.015-13.268 12.317-28.593 15.571-44.438.471 8.504 1.009 17.797 1.599 27.413a122.323 122.323 0 0 1-3.359 7.007 121.658 121.658 0 0 1-12.303 19.115c-3.064 3.906-6.561 8.244-5.983 13.173.697 5.925 7.182 9.558 13.134 10.002.571.042 1.141.063 1.713.063 7.673 0 15.301-3.758 19.896-9.921a23.841 23.841 0 0 0 3.16-5.762c1.66 6.607 1.125 15.393-2.474 18.997-3.912 3.912-15.263 5.953-29.541 5.953Z"/>
  <path fill="#293241" d="M218.789 432.686c27.471 5.008 55.639 3.763 62.292-2.889 4.227-4.234 4.227-15.618 1.408-22.22-1.525-3.576-8.77-9.7-12.98-12.719a2.96 2.96 0 0 1-1.227-2.21c-2.38-36.317-4.116-71.64-4.625-82.287l-47.815 6.554 2.947 115.771Zm32.831 8.996c-11.703 0-24.652-1.352-36.295-3.629a2.956 2.956 0 0 1-2.39-2.827l-3.076-120.808a2.963 2.963 0 0 1 2.557-3.008l53.644-7.352a2.961 2.961 0 0 1 3.358 2.797c.018.413 1.896 41.328 4.678 84.031 3.197 2.4 11.559 9.033 13.836 14.366 3.186 7.46 4.069 21.983-2.666 28.728-5.44 5.439-18.499 7.702-33.646 7.702Z"/>
  <path fill="#fff" d="M185.823 440.453c-1.035.096-2.059.193-3.074.281-2.909.251-5.74.463-8.504.646-4.079.261-8.012.456-11.791.571-6.417.202-12.408.192-18.013-.02-8.572-.309-16.227-1.082-23.02-2.27h-.02c-8.409-1.46-15.521-3.547-21.474-6.176-17.019-7.499-24.567-19.376-25.986-33.429-.33-3.15-.34-6.417-.078-9.76.107-1.382.26-2.706.463-3.991 4.871-31.941 36.85-36.115 72.773-85.751.57-.782 1.129-1.575 1.7-2.377 20.014-28.365 34.589-57.444 71.728-57.444 22.855 0 36.887 18.062 42.753 43.325 1.034 4.484 1.818 9.19 2.35 14.071.037.328.066.657.096.995 5.77 57.009-22.797 135.985-79.903 141.329Z"/>
  <path fill="#FF9331" d="M185.822 440.454c-1.035.095-2.059.192-3.074.28-3.845-2.204-7.132-5.181-8.716-9.26-3.316-8.552 2.221-17.935 8.475-24.652 13.424-14.399 31.583-24.944 40.628-42.425 5.635-10.901 7.093-23.399 10.253-35.256 3.162-11.858 8.804-24.064 19.571-29.959 5.17-2.831 9.064-2.716 12.67-1.053 6.193 57.086-22.374 136.951-79.807 142.325Z"/>
  <path fill="#D6DCE4" d="M167.765 438.786a18.62 18.62 0 0 0 1.586-1.358 17.173 17.173 0 0 0 3.392-4.589c.143.305.287.609.436.912.724 1.3 1.34 2.638 2.239 3.876l.456.679c-2.76.195-5.461.354-8.109.48Zm55.023-73.728c.225-3.87.572-7.732 1.062-11.582.087-.277.178-.552.269-.828a41.56 41.56 0 0 1 1.657 5.801 57.773 57.773 0 0 1-2.639 5.948c-.115.222-.231.44-.349.661Zm-17.9-53.423c-18.71 0-37.418-3.402-54.937-9.977.421-.588.843-1.179 1.266-1.779a581.514 581.514 0 0 0 5.671-8.208c6.173.527 12.728.796 19.577.796 5.79 0 11.797-.193 17.957-.585 24.581-1.569 47.645-6.111 64.595-12.468 1.591 5.433 2.774 11.368 3.525 17.718a11.234 11.234 0 0 0-2.008-.18c-2.246 0-4.716.665-7.574 2.23-4.62 2.53-8.295 6.221-11.238 10.548a12.994 12.994 0 0 0-5.286-1.123c-.83 0-1.674.079-2.526.243a153.548 153.548 0 0 1-18.612 2.432c-3.464.235-6.937.353-10.41.353Z"/>
  <path fill="#CC763E" d="M236.537 405.059c-.242-.433-.551-.778-.841-1.156-1.248-1.481-2.692-2.455-4.042-3.238-1.361-.779-2.68-1.375-3.885-1.951-1.188-.562-2.334-1.136-2.971-1.657l-.225-.182c-.071-.058-.089-.105-.143-.154l-.035-.032-.012-.029c-.123-.261-.299-.864-.431-1.426a40.04 40.04 0 0 1-.659-3.744c-.678-5.209-.866-10.615-.84-15.974.025-3.491.132-6.978.334-10.459.118-.22.234-.439.349-.661a57.756 57.756 0 0 0 2.639-5.947c1.956 9.196 1.41 19.476 1.41 28.292l-.003.047c-.092 1.625 1.238 2.659 2.591 2.659a2.49 2.49 0 0 0 2.108-1.136c7.639-11.413 12.316-24.847 14.807-38.431 1.758-9.615 2.67-18.201 2.874-27.767.119-5.589-3.186-10.311-7.841-12.384 2.943-4.326 6.618-8.018 11.238-10.547 2.858-1.566 5.328-2.23 7.574-2.23.689 0 1.356.061 2.008.18.372 3.16.638 6.422.795 9.778 1.459 31.223-7.425 70.746-26.799 98.149Zm-12.115-8.302-.019-.049a.15.15 0 0 1 .019.049Zm-.042-.083-.021-.019-.016-.015s.024.02.037.034Z"/>
  <path fill="#fff" d="M171.789 425.347c-.831 10.284-12.166 15.908-27.349 16.584-7.065.319-14.95-.424-23.02-2.27h-.02c-7.779-1.779-15.723-4.571-23.223-8.409v-50.813s13.705-24.518 40.744-13.578c22.035 9.336 14.38 35.921 14.38 35.921s10.477 2.368 15.696 10.543c1.971 3.113 3.189 7.055 2.792 12.022Z"/>
  <path fill="#fff" d="M144.414 382.338c-2.925-3.645-6.485-6.741-10.598-8.997-4.726-2.593-9.418-3.638-14.144-3.638-3.612 0-7.242.611-10.915 1.609 2.101-1.481 4.362-2.704 6.739-3.592a26.647 26.647 0 0 1 10.261-1.687c3.487.103 6.957.854 10.276 2.074 2.866 1.016 5.488 2.435 7.731 4.291a26.507 26.507 0 0 1 .65 9.94Z"/>
  <path fill="#293241" d="M220.527 243.69c-31.011 0-45.417 21.185-62.097 45.712-2.33 3.427-4.738 6.97-7.214 10.476-17.111 24.254-33.379 38.088-46.449 49.205-15.952 13.568-26.492 22.531-27.952 41.437-1.013 13.127 2.327 23.278 10.21 31.032 15.509 15.257 48.657 20.627 98.524 15.96 54.497-5.101 80.191-79.126 77.788-130.602-.862-18.466-5.043-34.108-12.089-45.238-7.556-11.931-17.892-17.982-30.721-17.982Zm-66.721 201.344c-34.112 0-57.902-6.446-70.932-19.264-9.075-8.927-13.098-20.94-11.96-35.706 1.65-21.362 13.55-31.482 30.02-45.49 12.817-10.899 28.767-24.464 45.448-48.107 2.445-3.464 4.839-6.986 7.155-10.392 16.891-24.84 32.847-48.301 66.99-48.301 14.78 0 27.132 7.169 35.72 20.734 7.595 11.994 12.091 28.635 13.001 48.125 1.379 29.547-5.769 62.261-19.121 87.515-15.521 29.352-38.26 46.843-64.027 49.256-11.624 1.087-22.397 1.63-32.294 1.63Z"/>
  <path fill="#fff" d="M232.964 436.241c-4.996 6.29-44.833 13.317-54.034 1.129-5.101-6.764-8.021-17.433-9.567-29.397-.715-5.558-1.129-11.385-1.343-17.232-.986-27.775 2.879-55.84 2.879-55.84l57.184 8.911c-3.324 5.537-5.411 12.573-6.63 19.754-2.755 16.052-1.207 32.79.464 34.945 2.377 3.082 9.82 4.05 12.207 8.631.037.056.066.115.095.173 2.282 4.725 3.74 22.633-1.255 28.926Z"/>
  <path fill="#293241" d="M172.633 335.142a622.719 622.719 0 0 0-1.812 32.63c-.284 10.871-.266 21.753.659 32.505.472 5.37 1.17 10.708 2.267 15.913 1.11 5.184 2.583 10.298 4.865 14.832.626 1.081 1.162 2.246 1.898 3.217l.517.76c.17.243.346.547.505.688.164.177.321.358.477.542.173.173.382.328.568.497l.284.253c.105.078.222.147.332.223l.661.453c.503.252.961.554 1.504.774.537.227 1.058.472 1.642.648l.852.292.89.238c4.788 1.246 10.115 1.425 15.352 1.164 5.255-.297 10.546-1.031 15.651-2.251 2.541-.616 5.051-1.366 7.336-2.309 1.103-.477 2.2-1.033 2.899-1.559l.248-.187c.077-.058.077-.094.128-.134.042-.06.076-.024.141-.154l.178-.287c.118-.196.257-.358.374-.573l.326-.71c.865-1.95 1.329-4.461 1.557-6.968.229-2.527.23-5.131.075-7.715-.156-2.57-.474-5.192-1.047-7.521-.161-.538-.315-1.121-.486-1.494-.072-.242-.18-.366-.263-.528-.063-.166-.225-.31-.332-.472-.509-.632-1.339-1.269-2.35-1.86-1.011-.595-2.183-1.148-3.445-1.762-1.265-.64-2.627-1.243-4.134-2.438l-.562-.482c-.186-.165-.379-.392-.562-.591-.182-.209-.355-.379-.59-.77a7.66 7.66 0 0 1-.297-.512l-.163-.373c-.42-1-.584-1.73-.769-2.5a45.562 45.562 0 0 1-.729-4.354c-.669-5.672-.831-11.248-.705-16.844.156-5.585.644-11.166 1.645-16.676.99-5.503 2.415-10.969 4.636-16.13a1.378 1.378 0 0 1 2.617.81l-.003.013c-2.09 10.596-2.939 21.324-3.014 32.076-.026 5.359.162 10.765.84 15.974.171 1.294.387 2.577.659 3.744.131.562.308 1.165.431 1.426l.039.097a.204.204 0 0 0-.032-.07c-.002-.011-.08-.074-.031-.032l.071.066c.054.049.071.096.143.154l.225.182c.637.522 1.782 1.095 2.97 1.657 1.206.576 2.525 1.172 3.886 1.952 1.35.782 2.794 1.756 4.042 3.237.298.389.619.742.862 1.196.256.433.526.882.674 1.295.392.88.588 1.624.821 2.398.767 2.988 1.112 5.831 1.324 8.723a56.926 56.926 0 0 1-.074 8.707c-.287 2.932-.742 5.907-2.078 8.989l-.541 1.152c-.209.386-.483.776-.731 1.159-.371.68-1.39 1.756-2.082 2.221-1.501 1.114-2.893 1.752-4.294 2.374-2.783 1.151-5.542 1.961-8.323 2.642a88.648 88.648 0 0 1-16.855 2.374c-2.844.123-5.705.112-8.587-.099-2.881-.217-5.788-.622-8.7-1.42l-1.092-.306-1.091-.379c-.727-.233-1.448-.562-2.169-.882-.722-.309-1.428-.747-2.133-1.134l-1.034-.71c-.17-.121-.343-.235-.51-.363l-.49-.424c-.322-.29-.653-.561-.959-.874l-.878-1.006c-.323-.35-.485-.648-.707-.966l-.632-.943c-.899-1.238-1.515-2.577-2.239-3.876-2.601-5.299-4.105-10.836-5.244-16.357-1.115-5.533-1.786-11.089-2.225-16.639-.852-11.101-.823-22.183-.216-33.206.627-11.03 1.788-21.978 3.68-32.884a1.749 1.749 0 0 1 2.02-1.421 1.748 1.748 0 0 1 1.442 1.855l-.003.043Z"/>
  <path fill="#293241" d="M96.97 379.767c1.014-1.78 2.124-3.296 3.357-4.813a39.943 39.943 0 0 1 4.007-4.213c2.878-2.613 6.194-4.815 9.853-6.333a30.44 30.44 0 0 1 11.612-2.332c3.98-.024 7.926.694 11.65 1.914 3.75 1.178 7.457 3.09 10.536 5.803 3.108 2.698 5.513 6.226 7.02 10.027 1.517 3.808 2.209 7.843 2.342 11.823a45.677 45.677 0 0 1-.195 5.957 46.385 46.385 0 0 1-.382 2.959c-.08.491-.167.984-.268 1.48-.103.512-.196.957-.353 1.555v.002l-2.191-3.703a24.29 24.29 0 0 1 1.53.415 34.52 34.52 0 0 1 4.135 1.564 31.488 31.488 0 0 1 5.162 2.916c3.258 2.289 6.216 5.376 8.003 9.202a20.96 20.96 0 0 1 1.792 5.987c.298 2.06.294 4.098.099 6.122a20.067 20.067 0 0 1-1.615 6.072 17.201 17.201 0 0 1-3.713 5.257c-3.121 2.993-7.007 4.593-10.747 5.541-3.777.939-7.55 1.278-11.267 1.377-7.441.188-14.703-.689-21.849-1.595a2.302 2.302 0 0 1-1.993-2.573 2.307 2.307 0 0 1 2.502-2c7.128.675 14.218 1.242 21.157.95 3.458-.162 6.88-.562 10.068-1.431 3.171-.867 6.107-2.252 8.151-4.323a11.379 11.379 0 0 0 2.393-3.548c.558-1.333.909-2.79 1.036-4.331.275-3.128-.122-6.234-1.449-8.918-1.308-2.688-3.435-5.008-6.04-6.843a29.317 29.317 0 0 0-7.595-3.759 22.78 22.78 0 0 0-1.066-.311l-.065-.017a2.97 2.97 0 0 1-2.147-3.607l.023-.081c.091-.301.21-.763.304-1.163.099-.415.19-.84.274-1.264a40.884 40.884 0 0 0 .78-7.792c.006-3.469-.48-6.916-1.618-10.09-1.135-3.172-2.95-6.046-5.404-8.338-2.453-2.309-5.446-4.028-8.767-5.205-3.318-1.22-6.788-1.97-10.275-2.074a26.702 26.702 0 0 0-10.261 1.687c-3.285 1.227-6.351 3.095-9.076 5.4a37.154 37.154 0 0 0-3.836 3.756c-1.173 1.332-2.314 2.806-3.2 4.241l-.037.06a1.384 1.384 0 0 1-1.903.45 1.385 1.385 0 0 1-.475-1.86Z"/>
  <path fill="#fff" d="M310.016 230.866c-9.123 14.796-21.715 28.664-36.153 38.076-33.236 21.658-126.447 28.626-157.99 9.045-10.612-6.571-17.261-18.196-21.416-30.711-8.205-24.722-6.688-52.96-6.688-52.96s-27.707-52.303-26.915-80.368c.116-4.232.88-7.924 2.493-10.794 12.273-21.86 70.549-6.05 70.549-6.05s.753-.571 2.068-1.517c3.683-2.6 11.8-8.09 20.353-12.081 7.597-3.537 21.087-7.558 21.087-7.558a136.547 136.547 0 0 1 33.158-34.646c5.228-3.816 11.549-7.421 17.85-5.952 5.064 1.188 8.631 5.257 11.53 9.741l.009.02c.879 1.343 1.69 2.735 2.465 4.088a457.1 457.1 0 0 1 5.933 10.747c5.566 10.37 10.554 20.536 15.82 31.63.415.87.832 1.749 1.246 2.638.427.88.841 1.778 1.268 2.677.299.629.598 1.256.897 1.894 0 0 11.452 8.09 23.852 28.451 1.439 2.368 3.035 4.505 4.716 6.485 9.915 11.703 23.001 18.565 28.472 42.523 3.323 14.573-2.716 35.38-14.604 54.622Z"/>
  <path fill="#FF9331" d="M296.152 133.723c-6.045 1.037-12.28.448-17.774-1.953-8.368-3.672-14.798-11.475-16.789-20.392-1.488-6.631-.496-13.752 2.58-19.802a1288.59 1288.59 0 0 1 3.409 7.212s11.458 8.088 23.855 28.449c1.441 2.371 3.037 4.502 4.719 6.486Z"/>
  <path fill="#fff" d="M318.496 192.868c.097-7.663-1.314-14.357-4.043-21.515-3.179-8.339-16.9-23.069-28.823-37.503 1.584.244 3.194.363 4.811.363.74 0 1.481-.026 2.223-.076.395.498.804.995 1.228 1.496 2.515 2.97 5.243 5.654 7.879 8.25 7.881 7.754 16.028 15.772 19.96 33.015.448 1.964.716 4.065.808 6.281a109.875 109.875 0 0 1-4.043 9.689Zm-57.524-89.64c-10.554-8.721-25.17-16.357-34.563-20.821 2.961.807 5.902 1.674 8.803 2.614 2.777.897 5.545 1.892 8.058 3.053a733.835 733.835 0 0 1 7.971 3.879c3.711 1.834 7.26 3.805 10.532 6.091a30.114 30.114 0 0 0-.801 5.184Z"/>
  <path fill="#FFD4AD" d="M290.441 134.214c-1.617 0-3.226-.12-4.811-.363-5.542-6.706-10.695-13.35-14.222-19.255-2.314-3.876-6.02-7.718-10.435-11.367.115-1.745.384-3.483.8-5.184a51.411 51.411 0 0 1 3.854 2.967c.022.021.047.04.071.06.003.005.01.008.013.013l.1.081c.065.052.133.099.201.144 1.344 1.011 11.763 9.185 22.893 27.464a51.697 51.697 0 0 0 3.759 5.364c-.742.05-1.483.076-2.223.076Z"/>
  <path fill="#FF9331" d="M195.989 247.271c-35.026 26.544-88.244 17.989-101.532 0-8.205-24.715-6.686-52.955-6.686-52.955s-36.708-69.295-24.427-91.159c12.28-21.863 70.557-6.059 70.557-6.059s26.488 6.533 50.925 22.12c20.337 12.978 37.815 35.887 40.039 59.906 2.177 23.629-5.85 50.699-28.876 68.147Z"/>
  <path fill="#fff" d="M144.976 100.459a183.15 183.15 0 0 0-7.435-2.356l.138-.099c3.929-2.78 11.74-8.013 19.885-11.811 7.314-3.408 20.552-7.37 20.685-7.409a2.964 2.964 0 0 0 1.619-1.198 132.997 132.997 0 0 1 32.44-33.895c3.756-2.745 8.495-5.717 13.141-5.717.768 0 1.533.081 2.291.258 5.33 1.247 8.903 6.825 12.102 12.429.47.825.935 1.646 1.395 2.464-4.474-4.456-9.652-7.93-15.792-7.937-6.107 0-11.625 3.556-16.332 7.441-10.775 8.863-19.54 20.16-25.465 32.79a163.13 163.13 0 0 0-38.672 15.04Z"/>
  <path fill="#FFD4AD" d="M65.665 109.651c-.25-.964-.488-1.924-.711-2.875.272-.776.594-1.502.97-2.17 4.275-7.613 15.847-10.045 28.55-10.045 14.446 0 30.356 3.147 38.653 5.395a2.953 2.953 0 0 0 2.552-.491c.015-.012.692-.52 1.862-1.362a181.96 181.96 0 0 1 7.435 2.357 151.96 151.96 0 0 0-9.861 5.864c-10.341-2.957-22.189-4.301-32.907-5.249a75.517 75.517 0 0 0-6.548-.291c-8.622 0-17.256 1.58-24.84 5.589a38.55 38.55 0 0 0-5.155 3.278Z"/>
  <path fill="#293241" d="M94.474 94.561c-12.703 0-24.275 2.433-28.55 10.046-9.422 16.773 14.464 69.445 24.463 88.325.25.473.368 1.008.338 1.543-.014.277-1.383 27.994 6.54 51.865 4.609 13.892 11.394 23.696 20.166 29.136 14.079 8.736 42.719 12.661 76.614 10.499 32.992-2.103 62.957-9.58 78.201-19.512 15.212-9.914 29.446-25.855 39.055-43.732 9.318-17.339 13.12-34.043 10.43-45.832-3.932-17.243-12.079-25.261-19.96-33.015-2.636-2.596-5.363-5.28-7.878-8.25-1.948-2.296-3.58-4.541-4.988-6.86-11.867-19.491-22.928-27.493-23.039-27.572a2.96 2.96 0 0 1-.965-1.154 1448.988 1448.988 0 0 0-3.403-7.198c-6.171-13-13.065-27.104-21.656-42.189-3.199-5.604-6.772-11.181-12.102-12.429-5.343-1.246-11.055 2.262-15.432 5.46a132.997 132.997 0 0 0-32.44 33.895 2.96 2.96 0 0 1-1.619 1.197c-.133.04-13.371 4.001-20.685 7.41-8.145 3.798-15.956 9.03-19.885 11.81-1.255.9-1.985 1.45-2 1.46-.729.55-1.672.73-2.552.492-8.297-2.248-24.207-5.395-38.653-5.395Zm81.991 197.906c-27.185 0-49.718-4.246-62.152-11.963-9.982-6.19-17.608-17.057-22.664-32.301-7.6-22.897-7.059-48.277-6.87-53.222-1.814-3.505-9.845-19.286-16.591-36.991-10.47-27.477-12.967-46.412-7.424-56.281 12.288-21.878 63.18-10.186 72.517-7.828.277-.201.599-.435.964-.695 4.108-2.908 12.252-8.36 20.818-12.357 6.568-3.059 17.137-6.384 20.472-7.405a138.9 138.9 0 0 1 33.284-34.513c5.396-3.941 12.578-8.237 20.267-6.442 7.649 1.791 12.216 8.816 15.897 15.26 8.688 15.256 15.64 29.48 21.859 42.579 1.021 2.14 2.051 4.326 3.1 6.554 2.68 2.073 12.982 10.71 24.019 28.837 1.246 2.053 2.701 4.051 4.446 6.111 2.342 2.766 4.855 5.239 7.514 7.856 8.091 7.961 17.263 16.985 21.58 35.918 3.003 13.163-1.001 31.369-10.988 49.947-10.063 18.725-25.02 35.45-41.036 45.889h-.001c-16.048 10.455-47.106 18.295-81.055 20.462-6.159.392-12.166.585-17.956.585Z"/>
  <path fill="#293241" d="M272.812 184.512c-.243 3.979-2.15 7.876-5.382 10.588-.842.602-1.665 1.271-2.617 1.749-.931.497-1.917.899-2.938 1.198-2.04.606-4.226.81-6.42.554h-.006l3.254-1.773c-.965 2.115-2.243 4.101-3.826 5.834a19.714 19.714 0 0 1-5.56 4.27c-.525.259-1.079.468-1.617.698-.542.232-1.081.447-1.631.604a19.81 19.81 0 0 1-3.403.701c-2.294.26-4.623.11-6.851-.451a2.085 2.085 0 0 1 .862-4.075l.032.006c1.754.308 3.557.29 5.293-.036a14.902 14.902 0 0 0 2.531-.716 9.422 9.422 0 0 0 1.193-.552c.382-.203.778-.373 1.15-.592 2.964-1.791 5.158-4.688 6.366-7.971l.003-.008a2.798 2.798 0 0 1 3.251-1.763h.004c1.324.363 2.779.463 4.218.259a10.554 10.554 0 0 0 2.128-.517c.7-.22 1.324-.619 2.005-.945 2.524-1.529 4.522-4.292 5.164-7.41l.003-.023a1.413 1.413 0 0 1 2.794.371ZM200.968 74.45c3.173.013 6.126.413 9.115.821 2.971.443 5.925.943 8.866 1.509 5.881 1.138 11.719 2.444 17.53 4.06 2.911.808 5.793 1.694 8.731 2.901a760.872 760.872 0 0 1 8.224 3.567c5.495 2.423 11.063 5.314 16.011 9.185l.014.013a2.959 2.959 0 1 1-3.748 4.579c-4.276-3.659-9.209-6.53-14.469-9.13a741.053 741.053 0 0 0-7.971-3.88c-2.514-1.16-5.281-2.156-8.059-3.053-5.571-1.804-11.282-3.34-17.018-4.703a212.368 212.368 0 0 0-8.641-1.849c-2.874-.522-5.814-1.026-8.585-1.154l-.071-.003a1.432 1.432 0 0 1 .071-2.863Z"/>
  <path fill="#EE6C4D" d="M119.477 113.475c-7.161 8.938-13.008 18.922-17.376 29.514a122.67 122.67 0 0 0-6.92 22.779c-6.987-12.438-10.891-26.315-14.728-40.059-.561-1.98-1.12-4.001-1.13-6.049 0-.599.047-1.199.164-1.779.26-1.459.87-2.841 1.923-3.855 1.817-1.75 4.543-2.107 7.064-2.272 10.254-.705 20.595.185 31.003 1.721Z"/>
  <path fill="#293241" d="M95.77 113.974c-2.449 0-4.815.079-7.126.237-2.497.168-4.39.504-5.526 1.594-.849.819-1.333 2.22-1.327 3.846.008 1.751.529 3.602 1.033 5.393 3.158 11.288 6.405 22.897 11.461 33.595 4.029-15.645 11.076-30.437 20.643-43.304-7.07-.914-13.343-1.361-19.159-1.361Zm-.585 54.258a2.47 2.47 0 0 1-2.15-1.259c-7.173-12.764-11.132-26.914-14.96-40.597-.565-2.007-1.205-4.285-1.215-6.706-.011-3.009.997-5.642 2.84-7.419 2.34-2.249 5.52-2.753 8.61-2.962 9.223-.627 19.24-.071 31.525 1.75a2.465 2.465 0 0 1 1.564 3.979c-11.821 14.777-20.05 32.492-23.795 51.231a2.468 2.468 0 0 1-2.42 1.983Z"/>
  <path fill="#EE6C4D" d="M245.288 85.207c-9.212-4.3-18.951-7.337-28.961-9.095 1.922-6.33 4.448-12.483 8.368-17.774 1.031-1.379 2.316-2.797 4.029-2.991 2.286-.254 4.145 1.744 5.47 3.619 5.461 7.771 8.955 16.673 11.094 26.241Z"/>
  <path fill="#293241" d="M219.525 75.19a118.446 118.446 0 0 1 22.142 6.717c-2.218-7.882-5.344-14.636-9.491-20.536-1.24-1.757-2.372-2.67-3.179-2.586-.804.09-1.713 1.194-2.327 2.016-2.849 3.845-5.149 8.465-7.145 14.39Zm25.762 13.47c-.355 0-.709-.076-1.042-.232-8.94-4.173-18.476-7.167-28.345-8.901a2.463 2.463 0 0 1-1.933-3.146c2.358-7.767 5.137-13.652 8.745-18.523 1.268-1.695 3.058-3.67 5.734-3.974 4.151-.463 6.867 3.382 7.76 4.646 5.354 7.616 9.11 16.487 11.488 27.125a2.465 2.465 0 0 1-2.407 3.005Zm.868 100.095c-1.502 1.059-1.246 3.369.451 4.067 2.967 1.215 7.096 2.06 9.706.107 1.131-.844 2.209-4.043 2.984-6.94.557-2.07-1.605-3.82-3.517-2.853-2.96 1.504-6.756 3.58-9.624 5.619Zm17.822 24.029c-.87 3.006-2.358 5.218-4.754 5.808-5.355 1.295-9.897-5.595-12.864-11.954-.146-.31-.28-.619-.416-.919.687-.251 1.353-.56 1.991-.907 3.548-1.895 6.359-5.093 8.041-9.124 2.928.522 6.03.02 8.649-1.392.541 5.432.899 13.183-.647 18.488Z"/>
  <path fill="#FF5228" d="M263.976 212.784c-.87 3.006-2.358 5.218-4.754 5.808-5.354 1.295-9.897-5.595-12.864-11.954 3.77-1.431 8.146-1.295 11.742.522 2.455 1.246 4.494 3.247 5.876 5.624Z"/>
  <path fill="#293241" d="M249.232 206.917c3.254 6.495 6.704 9.927 9.404 9.277 3.077-.75 4.505-7.845 3.809-18.392-1.625.44-3.315.622-4.991.534-1.918 3.698-4.785 6.703-8.222 8.581Zm8.6 14.309c-5.077 0-9.825-4.863-14.144-14.497a2.471 2.471 0 0 1 1.394-3.321 12.833 12.833 0 0 0 1.68-.761c3.066-1.643 5.46-4.377 6.934-7.908a2.467 2.467 0 0 1 2.713-1.478c2.35.423 4.918.008 7.048-1.139a2.466 2.466 0 0 1 3.623 1.925c1.633 16.302-.815 25.365-7.279 26.939h-.004c-.661.16-1.315.24-1.965.24Z"/>
  <path fill="#D6DCE4" d="M261.183 235.387c-1.419 0-2.845-.266-4.135-.956a2.272 2.272 0 0 1-.156-3.915l.263-.167c1.134-.721 2.095-1.245 3.015-1.768l2.651-1.467c.866-.479 1.716-.956 2.663-1.402.948-.456 1.935-.915 3.26-1.379l.303-.107a2.294 2.294 0 0 1 2.928 1.41c.106.298.143.614.125.911-.113 1.716-.86 3.238-1.863 4.515-1.007 1.288-2.326 2.301-3.774 3.03a12.065 12.065 0 0 1-4.664 1.279c-.204.009-.41.016-.616.016Z"/>
  <path fill="#293241" d="M221.553 439.926c.486-1.168.954-2.545 1.348-3.859.397-1.336.736-2.69 1.018-4.057.29-1.366.497-2.746.645-4.132.159-1.387.188-2.776.18-4.168v-.056a1.288 1.288 0 0 1 2.563-.192c.216 1.496.386 3.008.42 4.518a43.825 43.825 0 0 1-.088 4.528 53.277 53.277 0 0 1-.5 4.502c-.24 1.513-.508 2.942-.926 4.53a2.474 2.474 0 1 1-4.68-1.567l.02-.047Zm-15.656 4.557a78.75 78.75 0 0 1-1.141-4.866 94.658 94.658 0 0 1-.86-4.865 77.385 77.385 0 0 1-.584-4.903 63.575 63.575 0 0 1-.234-4.939 1.206 1.206 0 0 1 1.191-1.225c.612-.01 1.126.44 1.212 1.033l.003.031a60.21 60.21 0 0 0 .838 4.646c.342 1.54.722 3.068 1.165 4.584a90.325 90.325 0 0 0 1.419 4.51 75.243 75.243 0 0 0 1.647 4.371l.011.024a2.474 2.474 0 0 1-4.563 1.906 3.08 3.08 0 0 1-.104-.307Zm68.749-10.722a56.64 56.64 0 0 0 .835-3.496c.249-1.194.466-2.398.656-3.607.382-2.419.627-4.858.7-7.307l.002-.022a1.386 1.386 0 0 1 2.748-.206c.463 2.557.747 5.146.883 7.741.07 1.298.109 2.597.113 3.9a59.914 59.914 0 0 1-.102 3.975v.01a2.976 2.976 0 1 1-5.835-.988Zm-16.263 4.931c-.334-1.543-.519-2.893-.691-4.33a60.123 60.123 0 0 1-.351-4.244 59.054 59.054 0 0 1 .173-8.448 1.342 1.342 0 0 1 1.457-1.212c.646.06 1.144.571 1.21 1.191l.002.021a55.82 55.82 0 0 0 1.406 7.827c.32 1.28.689 2.548 1.094 3.792.399 1.225.862 2.522 1.329 3.581a2.972 2.972 0 0 1-1.52 3.922 2.972 2.972 0 0 1-4.105-2.077l-.004-.023Zm-101.526.319c.18-.439.382-1.047.549-1.592a34.173 34.173 0 0 0 1.169-5.185 25.81 25.81 0 0 0 .223-3.494 16.077 16.077 0 0 0-.441-3.382l-.019-.084a1.45 1.45 0 0 1 1.061-1.757 1.454 1.454 0 0 1 1.658.783 19.364 19.364 0 0 1 1.365 3.975c.285 1.355.465 2.722.559 4.089a38.872 38.872 0 0 1-.138 6.12 25.877 25.877 0 0 1-.285 2.112l-.015.079a2.98 2.98 0 1 1-5.686-1.664Zm-18.446 2.243c-.131-.282-.165-.405-.23-.587-.062-.173-.104-.327-.154-.489a15.796 15.796 0 0 1-.245-.942 22.934 22.934 0 0 1-.345-1.831 29.941 29.941 0 0 1-.288-3.584 34.708 34.708 0 0 1 .12-3.501c.094-1.152.257-2.288.444-3.409a1.085 1.085 0 0 1 2.148.049l.004.032a38.18 38.18 0 0 0 .494 3.17c.209 1.038.471 2.056.778 3.044.316.986.674 1.945 1.09 2.848.209.449.428.889.666 1.298.114.209.239.402.358.59.06.087.122.187.18.26.052.068.138.192.138.151a2.959 2.959 0 0 1-5.158 2.901Z"/>
  <path fill="#D6DCE4" d="M176.215 286.559c-25.954 0-47.253-3.926-58.784-11.082-7.466-4.63-13.492-12.421-17.963-23.206 9.227 7.131 25.337 11.853 43.095 11.853 4.96 0 10.045-.368 15.146-1.157 6.576.594 13.504.884 20.593.884 36.595 0 77.558-7.686 97.318-20.56 18.418-12.003 33.81-31.256 42.876-50.421-.084 6.623-1.296 13.97-3.761 22.963a120.8 120.8 0 0 1-3.434 6.899c-9.609 17.877-23.844 33.817-39.055 43.732-15.244 9.931-45.21 17.408-78.201 19.512a280.05 280.05 0 0 1-17.83.583Z"/>
  <path fill="#D6DCE4" d="M314.734 215.833c2.465-8.994 3.677-16.341 3.761-22.964a109.875 109.875 0 0 0 4.043-9.689c.389 9.313-2.325 20.689-7.804 32.653Z"/>
  <path fill="#CC763E" d="M142.562 264.123c-17.757 0-33.867-4.723-43.095-11.853a88.142 88.142 0 0 1-2.202-5.931c-7.002-21.09-6.747-45.18-6.584-50.699.971 8.177 2.653 17.295 5.536 25.979 4.153 12.52 10.808 24.142 21.414 30.719 9.158 5.683 23.504 9.129 40.078 10.628a99.258 99.258 0 0 1-15.147 1.157Zm-52.18-71.199c-8.955-16.91-29.035-60.895-26.377-81.953a38.117 38.117 0 0 1 1.66-1.32c7.063 27.29 23.866 59.014 23.866 59.014s-.564 10.48.85 24.259Z"/>
  <path fill="#C38A8F" d="M64.005 110.972c.193-1.525.504-2.93.948-4.195.224.951.462 1.91.712 2.874-.566.425-1.119.866-1.66 1.321Z"/>
  <path fill="#293241" d="M176.548 289.229c-24.953 0-47.881-3.575-60.669-11.51-10.606-6.579-17.262-18.2-21.415-30.72-8.204-24.715-6.686-52.955-6.686-52.955s-36.709-69.295-24.429-91.158c.182-.321.373-.634.574-.94.3 1.585.646 3.197 1.03 4.83-.444 1.266-.755 2.671-.948 4.196-2.657 21.058 17.422 65.042 26.377 81.952.092.891.191 1.799.3 2.716-.164 5.519-.418 29.609 6.584 50.7a88.087 88.087 0 0 0 2.202 5.931c4.471 10.784 10.497 18.575 17.963 23.205 11.531 7.156 32.831 11.082 58.784 11.082 5.735 0 11.697-.191 17.83-.583 32.992-2.103 62.958-9.58 78.201-19.512 15.212-9.914 29.446-25.855 39.055-43.732a121.106 121.106 0 0 0 3.434-6.898c5.479-11.964 8.193-23.34 7.804-32.653a93.879 93.879 0 0 0 2.165-6.777c5.528 25.839-17.783 70.723-50.837 92.265-19.762 12.877-60.721 20.561-97.319 20.561Z"/>
  <path fill="#D6DCE4" d="M200.128 440.875c-3.922 0-7.806-.336-11.387-1.268l-.89-.238-.852-.292c-.584-.176-1.105-.421-1.642-.648-.543-.22-1.001-.522-1.503-.774l-.662-.452c-.11-.077-.226-.146-.332-.224l-.283-.253c-.187-.168-.396-.324-.569-.497a16.348 16.348 0 0 0-.477-.542c-.158-.141-.335-.445-.505-.688l-.517-.76c-.736-.971-1.272-2.136-1.898-3.217-1.807-3.588-3.105-7.54-4.119-11.603a21.138 21.138 0 0 0-.598-2.55 82.306 82.306 0 0 1-.262-1.229c3.516 5.003 8.144 9.197 13.668 11.757 5.016 2.325 10.532 3.22 16.093 3.32a74.57 74.57 0 0 0 .503 4.035 92.539 92.539 0 0 0 1.092 5.964l-.895.055a80.652 80.652 0 0 1-3.965.104Z"/>
  <path fill="#293241" d="M200.512 444.049c-9.304 0-17.896-1.8-21.581-6.679-1.833-2.431-3.385-5.366-4.693-8.684.204-.863.35-1.728.441-2.587.194-2.024.199-4.062-.099-6.122-.028-.186-.055-.371-.088-.557 1.015 4.062 2.313 8.015 4.12 11.602.625 1.081 1.162 2.246 1.897 3.217l.517.76c.17.243.347.548.506.689.163.176.321.358.476.541.174.173.383.329.569.497l.284.253c.105.078.222.148.332.224l.661.452c.502.253.961.554 1.504.775.536.226 1.058.471 1.641.648l.853.291.889.239c3.581.931 7.466 1.267 11.387 1.267 1.321 0 2.647-.039 3.966-.104l.894-.055c.225 1.047.467 2.084.746 3.155a78.326 78.326 0 0 1-5.222.178Zm-26.618-27.18a20.949 20.949 0 0 0-.599-1.714c.112.163.223.325.337.486.037.183.076.366.115.549l.147.679Zm-3.655-6.983a23.356 23.356 0 0 0-.739-.889l-.136-1.024a40.345 40.345 0 0 0 .875 1.913Z"/>
  <path fill="#293241" d="M174.238 428.685c-1.009-2.565-1.873-5.357-2.609-8.323a18.597 18.597 0 0 0-.63-2.724 115.717 115.717 0 0 1-1.499-8.642c.253.29.501.587.739.89a42.62 42.62 0 0 0 3.056 5.268 20.847 20.847 0 0 1 1.285 4.823c.298 2.059.294 4.098.099 6.122a20.707 20.707 0 0 1-.441 2.586Z"/>
  <path fill="#D6DCE4" d="M209.553 440.304a91.392 91.392 0 0 1-2.066-6.325 70.022 70.022 0 0 1-.867-3.287 77.343 77.343 0 0 0 4.126-.252c4.831-.416 9.833-1.296 13.926-3.783-.025.406-.061.815-.108 1.221a40.704 40.704 0 0 1-.645 4.133 49.071 49.071 0 0 1-1.018 4.056 53.312 53.312 0 0 1-.565 1.771c-.856.245-1.721.471-2.591.682a86.547 86.547 0 0 1-10.192 1.784Z"/>
  <path fill="#293241" d="M210.717 443.4a2.652 2.652 0 0 0-.152-.515l-.012-.025c-.34-.816-.675-1.68-1-2.555a86.547 86.547 0 0 0 10.192-1.784c.87-.211 1.735-.438 2.591-.683-.25.73-.512 1.441-.783 2.089l-.019.047a2.472 2.472 0 0 0-.133 1.444c-3.232.825-6.892 1.515-10.684 1.982Z"/>
  <path fill="#D6DCE4" d="M227.267 436.129c.166-1.204.289-2.411.372-3.621.11-1.504.132-3.018.087-4.528a34 34 0 0 0-.271-3.416c2.467-2.288 4.183-5.27 5.325-8.417.025-.068.049-.139.072-.212.063.663.113 1.327.154 1.988.155 2.585.154 5.189-.075 7.715-.228 2.507-.692 5.019-1.557 6.968l-.326.71c-.117.216-.256.378-.374.574l-.179.287c-.064.129-.098.094-.141.154-.05.04-.05.076-.128.134l-.247.187c-.658.495-1.673 1.019-2.712 1.477Z"/>
  <path fill="#293241" d="M226.622 439.831a52.678 52.678 0 0 0 .646-3.701c1.039-.459 2.053-.982 2.711-1.478l.248-.186c.078-.059.078-.094.128-.135.042-.06.076-.024.141-.154l.178-.287c.119-.196.258-.358.375-.573l.325-.71c.866-1.949 1.329-4.461 1.558-6.968.228-2.526.23-5.13.074-7.715a57.993 57.993 0 0 0-.154-1.988c.679-2.144.645-6.076 1.272-8.795.038.057.067.115.096.174 2.282 4.725 3.74 22.633-1.256 28.925-.967 1.217-3.241 2.463-6.342 3.591Z"/>
  <path fill="#293241" d="M221.401 441.417a2.468 2.468 0 0 1 .133-1.443l.019-.047c.271-.649.533-1.36.783-2.089.199-.587.389-1.185.565-1.771.397-1.336.736-2.69 1.018-4.056.29-1.366.497-2.747.645-4.133.047-.406.083-.815.108-1.221a17.511 17.511 0 0 0 2.784-2.092c.141 1.134.245 2.275.271 3.415a44.107 44.107 0 0 1-.087 4.528 53.078 53.078 0 0 1-.501 4.502 53.7 53.7 0 0 1-.517 2.821 55.95 55.95 0 0 1-5.221 1.586Zm-15.667 2.454a92.766 92.766 0 0 1-1.838-9.119 73.578 73.578 0 0 1-.502-4.035 66.652 66.652 0 0 0 3.226-.026c.262 1.102.549 2.198.867 3.288a90.655 90.655 0 0 0 2.066 6.325c.324.875.659 1.739 1 2.555l.011.025c.07.17.12.342.152.515a90.61 90.61 0 0 1-4.982.472Z"/>
  <path fill="#D6DCE4" d="M147.991 439.084c-1.407-.031-2.8-.075-4.166-.128a3.076 3.076 0 0 0-.256-.603c0 .005-.002.008-.005.008-.018 0-.089-.1-.133-.159-.058-.072-.12-.173-.18-.26-.12-.188-.245-.381-.358-.59a16.107 16.107 0 0 1-.666-1.298 25.079 25.079 0 0 1-1.478-4.205c4.302-.043 8.592-.453 12.688-1.708a27.641 27.641 0 0 0 5.316-2.256c.022.283.037.57.045.855a25.812 25.812 0 0 1-.224 3.494 33.845 33.845 0 0 1-1.168 5.186l-.076.246-.109.031c-2.93.797-6.057 1.201-9.23 1.387Z"/>
  <path fill="#293241" d="M143.888 439.205a3.602 3.602 0 0 0-.063-.248c1.366.053 2.76.097 4.166.128-.279.016-.557.03-.838.043-1.084.046-2.173.07-3.265.077Z"/>
  <path fill="#293241" d="M142.992 441.982a2.965 2.965 0 0 0 .896-2.778 88.503 88.503 0 0 0 3.265-.076c.281-.013.559-.027.838-.043 3.173-.187 6.3-.59 9.23-1.388a2.21 2.21 0 0 1 .109-.03c-.151.476-.321.972-.473 1.345a3.046 3.046 0 0 0-.224 1.056c-3.622 1.042-7.743 1.666-12.192 1.864-.48.022-.963.039-1.449.05Z"/>
  <path fill="#D6DCE4" d="M98.178 429.387c-4.391-2.232-8.114-4.844-11.154-7.835-4.252-4.183-7.182-9.062-8.82-14.73 4.106 5.467 9.358 10.155 15.19 13.702a63.549 63.549 0 0 0 4.784 2.64v6.223Z"/>
  <path fill="#D6DCE4" d="M137.646 438.616c-16.464-1.161-29.645-4.241-39.469-9.229v-6.223c11.569 5.76 24.731 8.079 37.701 8.6.431.018.864.033 1.296.046a37.327 37.327 0 0 0-.026 2.011 29.74 29.74 0 0 0 .289 3.584c.061.402.128.804.209 1.211Z"/>
  <path fill="#293241" d="M123.504 440.113c-.693-.143-1.387-.294-2.084-.452h-.019c-8.409-1.46-15.521-3.548-21.475-6.176-17.018-7.5-24.566-19.376-25.986-33.429a48.168 48.168 0 0 0 4.264 6.766c1.638 5.668 4.568 10.547 8.82 14.73 3.04 2.991 6.762 5.603 11.154 7.835 9.823 4.988 23.004 8.068 39.468 9.228.031.151.063.304.097.456-3.89-.182-7.814-.52-11.747-.893a2.307 2.307 0 0 0-2.492 1.935Z"/>
  <path fill="#293241" d="M138.973 441.97c-4.928-.144-10.146-.758-15.469-1.857a2.306 2.306 0 0 1 2.492-1.935c3.933.373 7.856.712 11.747.893l.039.165c.068.31.154.623.244.942.051.162.093.316.154.489.065.182.099.305.23.587.154.274.346.514.563.716Z"/>
  <path fill="#D6DCE4" d="M163.038 435.233a38.729 38.729 0 0 0-.057-2.87 29.767 29.767 0 0 0-.559-4.088 20.76 20.76 0 0 0-.685-2.344c2.224-1.706 4.112-3.803 5.433-6.276.293-.547.553-1.11.776-1.687.123.339.234.683.331 1.031.108.491.22.982.335 1.471.29 1.626.339 3.322.19 5.024a14.221 14.221 0 0 1-1.036 4.331 11.379 11.379 0 0 1-2.393 3.548 13.128 13.128 0 0 1-2.335 1.86Z"/>
  <path fill="#293241" d="M168.611 420.472c-.115-.49-.226-.981-.335-1.472.136.483.248.974.335 1.472Z"/>
  <path fill="#293241" d="M162.927 437.559a41.54 41.54 0 0 0 .11-2.325 13.06 13.06 0 0 0 2.336-1.861 11.363 11.363 0 0 0 2.393-3.547c.558-1.333.909-2.79 1.036-4.331.149-1.702.1-3.398-.19-5.024a15.21 15.21 0 0 0-.666-2.502 15.909 15.909 0 0 0 1.001-4.106c.221.27.438.543.652.817a24.236 24.236 0 0 0-.026-.38 17.944 17.944 0 0 1 1.426 3.339c.199.922.408 1.831.63 2.724.237 1.534.303 3.194.161 4.984-.431 5.341-3.697 9.425-8.863 12.212Z"/>
  <path fill="#293241" d="M156.633 440.067a3.064 3.064 0 0 1 .223-1.056c.153-.373.323-.869.474-1.345l.076-.246a33.902 33.902 0 0 0 1.168-5.186c.152-1.165.23-2.332.224-3.494a16.202 16.202 0 0 0-.046-.855 24.268 24.268 0 0 0 2.984-1.953c.277.77.502 1.554.685 2.343.285 1.355.465 2.723.559 4.089a38.69 38.69 0 0 1-.053 5.195c-1.865 1.006-3.979 1.842-6.294 2.508Zm-15.417 1.936c-.741 0-1.488-.01-2.243-.032a2.98 2.98 0 0 1-.562-.717c-.131-.282-.165-.405-.23-.586-.062-.174-.104-.328-.154-.49a15.969 15.969 0 0 1-.245-.941l-.039-.166a26.47 26.47 0 0 1-.097-.455 26.656 26.656 0 0 1-.209-1.21 29.961 29.961 0 0 1-.289-3.585 37.327 37.327 0 0 1 .026-2.011 93.87 93.87 0 0 0 3.575.039 25.196 25.196 0 0 0 1.478 4.205c.209.449.428.89.666 1.298.113.209.238.402.358.59.06.088.122.188.18.261.044.058.115.159.133.159.003 0 .005-.004.005-.008a3.067 3.067 0 0 1 .319.85 2.965 2.965 0 0 1-.896 2.778c-.587.014-1.178.021-1.776.021Zm30.413-21.64a93.154 93.154 0 0 1-.631-2.724c.269.86.483 1.768.631 2.724Z"/>
  <path fill="#D6DCE4" d="M139.408 406.604c-1.292 0-2.578-.059-3.829-.189-3.196-.332-4.22-4.458-1.629-6.357 3.565-2.614 6.48-6.121 8.324-10.14a25.748 25.748 0 0 0 2.139-7.58c3.185 3.967 5.615 8.58 7.191 13.466a40.972 40.972 0 0 1-.563 3.727c-.084.425-.175.849-.274 1.264-.094.4-.214.862-.304 1.164l-.023.081a2.967 2.967 0 0 0 .995 3.025c-3.38.885-7.736 1.539-12.027 1.539Z"/>
  <path fill="#D6DCE4" d="M151.603 395.804c-1.575-4.886-4.006-9.499-7.19-13.466a26.51 26.51 0 0 0-.65-9.94c.355.293.7.598 1.036.914 2.453 2.291 4.268 5.166 5.404 8.337 1.138 3.175 1.624 6.622 1.617 10.091a39.518 39.518 0 0 1-.217 4.064Zm14.58 10.033a28.138 28.138 0 0 0-1.399-1.048 31.485 31.485 0 0 0-5.161-2.917 33.865 33.865 0 0 0-2.729-1.099l-.15-.053.026-.16c.16-.986.286-1.971.382-2.959.191-1.976.263-3.963.194-5.957-.132-3.98-.824-8.015-2.341-11.823-1.19-3-2.936-5.829-5.148-8.215a15.22 15.22 0 0 0 8.083-2.228c3.707-2.281 6.381-5.919 8.117-9.946a322.11 322.11 0 0 0-.563 8.118c-.607 11.023-.637 22.105.216 33.206.134 1.693.29 3.388.473 5.081Z"/>
  <path fill="#293241" d="M169.226 408.689a25.714 25.714 0 0 0-3.043-2.852 177.652 177.652 0 0 1-.473-5.082c-.852-11.1-.823-22.183-.216-33.205.154-2.711.341-5.417.563-8.119.41-.952.768-1.928 1.074-2.912.851-2.725 1.258-5.529 1.724-8.327.917 4.296-.089 9.377-.225 13.756a534.165 534.165 0 0 0 .596 46.741Z"/>
  <path fill="#293241" d="M169.573 414.3a18.633 18.633 0 0 0-.575-.975c-.015.18-.031.36-.051.538a50.325 50.325 0 0 0-12.25-10.819c-1.064.692-2.932 1.412-5.262 2.021a2.967 2.967 0 0 1-.972-3.106c.09-.302.21-.763.304-1.164a40.853 40.853 0 0 0 1.054-9.055c.006-3.469-.48-6.916-1.618-10.091-1.136-3.171-2.951-6.046-5.404-8.337a20.88 20.88 0 0 0-1.036-.914 25.129 25.129 0 0 0-1.029-3.1c2.054 1.54 4.562 2.27 7.122 2.308 2.212 2.385 3.959 5.214 5.149 8.214 1.517 3.808 2.208 7.843 2.341 11.823a45.683 45.683 0 0 1-.194 5.957 45.863 45.863 0 0 1-.383 2.959l-.025.16.15.054c.926.327 1.835.692 2.729 1.098a31.485 31.485 0 0 1 5.161 2.917c.473.332.94.682 1.399 1.049a25.632 25.632 0 0 1 3.043 2.852c.105 1.871.222 3.741.347 5.611Z"/>
  <path fill="#293241" d="M169.598 414.679a55.436 55.436 0 0 0-.651-.817c.019-.178.035-.358.05-.538.199.316.392.642.575.976.01.126.018.253.026.379Z"/>
  <path fill="#D6DCE4" d="M260.486 90.722c-2.327-1.251-4.698-2.376-7.052-3.415a659.423 659.423 0 0 0-5.955-2.592c-1.618-6.928-3.833-13.099-6.711-18.655 1.511-3.326 1.906-7.117 1.593-10.92 6.989 12.595 12.834 24.483 18.125 35.582Z"/>
  <path fill="#293241" d="M265.022 93.373a70.732 70.732 0 0 0-4.536-2.651c-5.291-11.099-11.136-22.986-18.125-35.58-.225-2.741-.818-5.488-1.627-8.07-.165-.521-.436-1.189-.783-1.962.879 1.344 1.69 2.736 2.465 4.089 8.127 14.263 14.69 27.495 21.753 42.377.284.595.567 1.193.853 1.797Z"/>
  <path fill="#293241" d="M265.416 94.215a1053.275 1053.275 0 0 0-18.303-6.362 2.468 2.468 0 0 0 .581-2.197 67.848 67.848 0 0 0-.215-.94c1.988.855 3.946 1.704 5.955 2.592 2.355 1.04 4.725 2.164 7.052 3.415a70.46 70.46 0 0 1 4.536 2.65l.394.842Zm-51.549-16.958-.105-.031.103-.002.002.033Z"/>
  <path fill="#CC5F45" d="M241.667 81.907a117.873 117.873 0 0 0-16.647-5.484c4.79-.81 9.26-2.436 12.536-5.719 1.616 3.467 2.98 7.187 4.111 11.203Z"/>
  <path fill="#293241" d="M247.113 87.853a1041.745 1041.745 0 0 0-33.246-10.597l-.001-.032c3.644-.04 7.493-.182 11.155-.8a117.86 117.86 0 0 1 16.647 5.483c-1.131-4.016-2.495-7.736-4.111-11.202a15.73 15.73 0 0 0 3.212-4.645c2.878 5.557 5.093 11.728 6.71 18.655.073.313.146.626.216.94a2.47 2.47 0 0 1-.582 2.198Z"/>
  <path fill="#CC5F45" d="M101.351 138.492c-1.166-5.665-3.197-11.008-6.845-15.499-2.31-2.85-5.334-5.286-8.91-6.107a3.795 3.795 0 0 0-.835-.083c-.76 0-1.637.167-2.536.383.22-.553.523-1.023.894-1.381 1.136-1.091 3.029-1.426 5.526-1.595 2.311-.157 4.677-.236 7.125-.236 5.816 0 12.089.447 19.159 1.361a124.066 124.066 0 0 0-13.578 23.157Z"/>
  <path fill="#293241" d="M102.101 142.989a63.015 63.015 0 0 0-.75-4.497 124.035 124.035 0 0 1 13.578-23.156c-7.07-.914-13.343-1.361-19.159-1.361-2.448 0-4.814.079-7.125.236-2.497.169-4.39.504-5.526 1.595-.371.358-.674.828-.894 1.38-.921.222-1.866.496-2.737.696.26-1.459.87-2.841 1.923-3.856 1.817-1.75 4.542-2.106 7.064-2.271 2.442-.167 4.887-.245 7.337-.245 7.843 0 15.735.794 23.666 1.966-7.161 8.938-13.008 18.922-17.377 29.513Zm96.825 25.127c-8.177.86-13.009 11.636-10.794 24.07 2.217 12.432 10.643 21.815 18.822 20.955 8.177-.861 13.011-11.637 10.794-24.069-2.217-12.434-10.643-21.817-18.822-20.956Z"/>
  <path fill="#fff" d="M199.759 173.345c-2.226 1.663-2.186 6.05.091 9.796 2.277 3.747 5.929 5.435 8.156 3.773 2.228-1.664 2.187-6.051-.089-9.798-2.279-3.746-5.93-5.435-8.158-3.771Z"/>
  <path fill="#B199C5" d="M198.378 201.402c-.943 1.196-.465 3.517 1.066 5.181 1.532 1.666 3.539 2.047 4.483.849.943-1.196.465-3.516-1.067-5.181-1.531-1.666-3.539-2.045-4.482-.849Z"/>
  <path fill="#293241" d="M262.981 142.007c5.268-4.531 14.696-1.258 21.058 7.31 6.362 8.567 7.25 19.186 1.982 23.717-5.267 4.533-14.696 1.259-21.058-7.308-6.362-8.568-7.25-19.187-1.982-23.719Z"/>
  <path fill="#fff" d="M265.714 145.549c2.314-.405 4.987 2.16 5.973 5.733.983 3.572-.094 6.795-2.408 7.202-2.314.405-4.988-2.16-5.973-5.732-.984-3.573.094-6.796 2.408-7.203Z"/>
  <path fill="#B199C5" d="M283.769 160.959c1.284.113 2.432 1.752 2.57 3.659.136 1.907-.792 3.361-2.076 3.247-1.281-.113-2.432-1.75-2.568-3.657-.136-1.907.792-3.363 2.074-3.249Z"/>
  <path fill="#fff" d="M256.796 185.611c-.227-.47-1.738-.209-3.371.584-1.633.792-2.773 1.816-2.544 2.286.227.47 1.735.207 3.37-.585 1.634-.792 2.773-1.816 2.545-2.285Z"/>
  <path fill="#293241" d="M381.144 120c-.443 0-.891-.077-1.274-.237-5.004-2.087-7.774-5.217-8.715-9.853-.708-3.479 1.04-9.044 4.679-11.468.196-.127 16.945-11.083 13.346-24.51-1.55-5.793-4.792-10.98-7.925-15.997-8.718-13.952-17.73-28.38 7.356-57.254.525-.604 1.814-.853 2.879-.556 1.065.297 1.505 1.026.982 1.63-24.29 27.956-15.97 41.272-7.162 55.37 3.201 5.123 6.511 10.42 8.123 16.442 3.904 14.573-13.601 25.988-14.348 26.468-2.724 1.814-4.239 6.741-3.659 9.597 1.047 5.147 4.493 7.129 6.995 8.171.956.399 1.16 1.16.456 1.702-.423.323-1.074.495-1.733.495Z"/>
  <path fill="#7099D6" d="M379.697 114.538c8.693 1.533 12.126 23.296 7.663 48.606-3.326 18.859-10.096 34.367-16.925 40.414 12.008 15.618.539 34.12-8.469 16.182-9.968 11.507-25.656-1.01-4.652-19.671-3.81-8.448-4.599-24.574-1.442-42.477 4.463-25.31 15.128-44.588 23.825-43.054Z"/>
  <path fill="#21201F" d="m370.127 203.529.159-.14c7.017-6.214 13.632-22.026 16.851-40.284 4.434-25.147 1.079-46.834-7.479-48.343-8.558-1.509-19.128 17.723-23.562 42.87-3.064 17.375-2.518 33.6 1.426 42.345l.068.152-.125.111c-10.94 9.719-10.691 16.452-10.077 18.895.599 2.381 2.266 4.061 4.575 4.61 3.237.771 6.912-.781 9.832-4.152l.223-.257.152.303c2.353 4.686 5.087 7.261 7.696 7.246 1.738-.008 3.263-1.175 4.295-3.283 2.136-4.365 1.824-12.453-3.905-19.904l-.129-.169Zm17.457-40.345c-3.213 18.218-9.81 34.032-16.841 40.404 5.724 7.559 6.003 15.762 3.825 20.213-1.095 2.239-2.808 3.529-4.7 3.539-2.733.014-5.55-2.539-7.952-7.198-2.997 3.325-6.737 4.835-10.058 4.044-2.479-.59-4.269-2.39-4.909-4.94-.633-2.515-.907-9.411 10.091-19.234-3.917-8.859-4.452-25.099-1.391-42.459 4.478-25.394 15.283-44.79 24.088-43.238 8.805 1.553 12.324 23.475 7.847 48.869Z"/>
  <path fill="#21201F" d="M361.583 173.89a67.932 67.932 0 0 1 3.149 3.298 129.568 129.568 0 0 1 2.984 3.434 127.646 127.646 0 0 1 2.854 3.542 67.243 67.243 0 0 1 2.688 3.679.57.57 0 0 1-.871.723 66.425 66.425 0 0 1-3.117-3.324 129.218 129.218 0 0 1-2.95-3.462 131.136 131.136 0 0 1-2.821-3.57 68.084 68.084 0 0 1-2.656-3.707.484.484 0 0 1 .74-.613Zm1.749-5.673a67.476 67.476 0 0 1 3.148 3.298 126.261 126.261 0 0 1 2.985 3.434c.967 1.167 1.928 2.34 2.854 3.542a67.943 67.943 0 0 1 2.688 3.68.57.57 0 0 1-.872.722 67.818 67.818 0 0 1-3.117-3.324 127.709 127.709 0 0 1-2.95-3.463 127.693 127.693 0 0 1-2.82-3.57 68.45 68.45 0 0 1-2.656-3.706.482.482 0 0 1 .74-.613Zm.982-5.569a67.932 67.932 0 0 1 3.148 3.298 129.606 129.606 0 0 1 2.985 3.434 129.52 129.52 0 0 1 2.853 3.543 67.017 67.017 0 0 1 2.689 3.679.57.57 0 0 1-.872.722A67.818 67.818 0 0 1 372 174a127.666 127.666 0 0 1-2.95-3.462 127.693 127.693 0 0 1-2.82-3.57 68.084 68.084 0 0 1-2.656-3.707.481.481 0 0 1 .137-.669.485.485 0 0 1 .603.056Zm.982-5.57a68.909 68.909 0 0 1 3.148 3.298 129.606 129.606 0 0 1 2.985 3.434 129.476 129.476 0 0 1 2.853 3.542 67.41 67.41 0 0 1 2.688 3.68.568.568 0 0 1-.871.722 66.943 66.943 0 0 1-3.117-3.325 126.152 126.152 0 0 1-2.95-3.462 127.649 127.649 0 0 1-2.82-3.569 67.905 67.905 0 0 1-2.656-3.706.484.484 0 0 1 .74-.614Zm.982-5.567a67.955 67.955 0 0 1 3.148 3.297 127.757 127.757 0 0 1 2.984 3.434 126.18 126.18 0 0 1 2.854 3.542 67.025 67.025 0 0 1 2.688 3.68.568.568 0 0 1-.872.722 66.922 66.922 0 0 1-3.116-3.325 124.709 124.709 0 0 1-2.951-3.462 128.084 128.084 0 0 1-2.82-3.57 67.48 67.48 0 0 1-2.655-3.705.484.484 0 0 1 .74-.613Zm.982-5.571a68.44 68.44 0 0 1 3.148 3.298 127.757 127.757 0 0 1 2.984 3.434c.967 1.168 1.928 2.34 2.854 3.542a67.41 67.41 0 0 1 2.688 3.68.568.568 0 0 1-.872.722 67.797 67.797 0 0 1-3.116-3.324 127.703 127.703 0 0 1-2.951-3.462 127.703 127.703 0 0 1-2.819-3.571 66.99 66.99 0 0 1-2.656-3.706.481.481 0 0 1 .137-.669.485.485 0 0 1 .603.056Z"/>
  <path fill="#21201F" d="M375.836 177.146a67.82 67.82 0 0 1-3.764 2.575 134.119 134.119 0 0 1-3.87 2.39 129.395 129.395 0 0 1-3.958 2.244 67.006 67.006 0 0 1-4.066 2.058.568.568 0 0 1-.571-.977 66.412 66.412 0 0 1 3.785-2.538 129.285 129.285 0 0 1 3.892-2.353 129.404 129.404 0 0 1 3.979-2.206 67.717 67.717 0 0 1 4.087-2.022.484.484 0 0 1 .486.829Zm.299-5.928a68.354 68.354 0 0 1-3.764 2.574c-1.274.825-2.57 1.611-3.871 2.39a126.15 126.15 0 0 1-3.957 2.245 67.59 67.59 0 0 1-4.066 2.058.57.57 0 0 1-.572-.977 67.69 67.69 0 0 1 3.785-2.539 126.106 126.106 0 0 1 3.894-2.352 126.139 126.139 0 0 1 3.978-2.206 67.723 67.723 0 0 1 4.087-2.023.484.484 0 0 1 .486.83Zm.982-5.568a67.454 67.454 0 0 1-3.765 2.574c-1.273.825-2.57 1.612-3.87 2.39a126.15 126.15 0 0 1-3.957 2.245 67.59 67.59 0 0 1-4.066 2.058.57.57 0 0 1-.572-.977 67.128 67.128 0 0 1 3.785-2.538 127.291 127.291 0 0 1 3.893-2.353 129.404 129.404 0 0 1 3.979-2.206c1.34-.711 2.695-1.4 4.087-2.022a.484.484 0 0 1 .486.829Zm.981-5.57a67.976 67.976 0 0 1-3.764 2.574 126.13 126.13 0 0 1-3.871 2.39 129.296 129.296 0 0 1-3.956 2.244 67.013 67.013 0 0 1-4.066 2.058.567.567 0 0 1-.572-.976 67.666 67.666 0 0 1 3.784-2.539 129.352 129.352 0 0 1 3.894-2.352 131.589 131.589 0 0 1 3.979-2.207 68.923 68.923 0 0 1 4.087-2.022.483.483 0 0 1 .485.83Zm.983-5.569a67.976 67.976 0 0 1-3.764 2.574c-1.273.825-2.57 1.611-3.871 2.39a125.212 125.212 0 0 1-3.956 2.244 67.013 67.013 0 0 1-4.066 2.058.569.569 0 0 1-.572-.976 66.761 66.761 0 0 1 3.784-2.539 126.106 126.106 0 0 1 3.894-2.352 128.416 128.416 0 0 1 3.978-2.206 67.123 67.123 0 0 1 4.087-2.022.483.483 0 0 1 .486.829Zm.982-5.57a68.354 68.354 0 0 1-3.764 2.574c-1.274.826-2.57 1.612-3.871 2.391a128.16 128.16 0 0 1-3.957 2.244 67.861 67.861 0 0 1-4.065 2.058.569.569 0 0 1-.573-.977 68.807 68.807 0 0 1 3.785-2.539 128.11 128.11 0 0 1 3.894-2.352 128.189 128.189 0 0 1 3.978-2.206 68.308 68.308 0 0 1 4.087-2.022.484.484 0 0 1 .486.829Z"/>
  <mask id="a" width="30" height="107" x="348" y="115" maskUnits="userSpaceOnUse" style="mask-type:luminance">
    <path fill="#fff" d="M377.528 116.049c-6.448 4.758-12.997 18.235-16.802 35.282a9.413 9.413 0 0 0-1.649-3.948c4.728-18.692 12.421-30.836 18.062-31.955.132.2.261.407.389.621Zm-16.557 83.762c-6.518 5.79-9.502 10.989-10.22 15.063-.448 2.54-.016 4.642.991 6.177l-.118-.026c-1.69-.403-2.864-1.595-3.308-3.359-.144-.575-.304-1.68-.025-3.264.533-3.025 2.67-7.795 9.577-13.932l1.068-.948-.587-1.302c-2.09-4.636-3.174-11.728-3.212-20.006a10.31 10.31 0 0 0 1.601-2.469 8.87 8.87 0 0 0 .647-2.109c.455-2.582-.177-5.371-1.618-7.605.137-1.322.296-2.657.479-4.001a11.064 11.064 0 0 0 3.061-3.402c-2.895 17.384-2.054 32.94 1.664 41.183Z"/>
  </mask>
  <g mask="url(#a)">
    <path fill="#C3DCF4" d="m358.794 222.294 18.828-106.781-12.777-2.252-18.828 106.781 12.777 2.252Z"/>
  </g>
  <path fill="#5785CD" d="M384.311 163.925c-3.275 16.968-9.427 31.399-15.899 37.128l-1.356 1.202 1.104 1.437c4.23 5.501 5.298 11.296 4.575 15.392-.179 1.019-.47 1.934-.851 2.712-.422.865-1.345 2.316-2.763 2.323-.958.005-2.03-.612-3.115-1.749.908-1.149 1.582-2.753 1.918-4.657.69-3.915-.043-9.098-3.08-14.22a4.439 4.439 0 0 1-.56-3.033 4.24 4.24 0 0 1 .937-2.008c2.235-2.653 4.424-6.263 6.445-10.613.237.244.478.487.722.727a.57.57 0 0 0 .871-.723c-.315-.468-.638-.93-.967-1.387a89.52 89.52 0 0 0 1.577-3.828c.088.09.177.177.265.266a.57.57 0 0 0 .872-.723 53.637 53.637 0 0 0-.624-.906 104.84 104.84 0 0 0 1.316-3.807.566.566 0 0 0 .322-.802.422.422 0 0 0-.031-.095l-.003-.006c1.567-4.97 2.909-10.431 3.927-16.207 3.402-19.291 2.218-36.515-2.386-44.299.333-.245.665-.466.997-.665l.1.016c5.074.894 8.683 12.715 7.921 30.046-1.495-1.268-2.947-2.252-4.173-2.801l-.186.415c.024.011.047.02.07.032l-1.841 19.318-.039.224c1.26.222 2.604.734 3.935 1.291Z"/>
  <path fill="#21201F" d="M373.347 188.26a.568.568 0 0 1-.96.306 49.49 49.49 0 0 1-.722-.727c.211-.453.419-.915.626-1.383.33.457.653.919.967 1.387a.571.571 0 0 1 .089.417Zm1.748-5.674a.568.568 0 0 1-.96.307l-.266-.265c.173-.449.344-.904.513-1.363.211.298.42.6.625.906a.57.57 0 0 1 .088.415Zm.981-5.569a.568.568 0 0 1-.378.44l.089-.275.049-.037a.483.483 0 0 0 .184-.49c.06.114.077.241.056.362Z"/>
  <path fill="#21201F" d="M376.024 176.841a.49.49 0 0 1-.189.305l-.049.036c.068-.208.134-.417.2-.627a.481.481 0 0 1 .038.286Z"/>
  <path fill="#A0B5D7" d="M378.524 115.383c-.332.199-.664.421-.996.666a15.713 15.713 0 0 0-.388-.62c.476-.095.94-.111 1.384-.046Z"/>
  <path fill="#21201F" d="m368.649 205.386 1.356-1.202c6.745-5.972 13.144-21.398 16.3-39.297 4.563-25.881.454-45.203-6.088-46.357-6.543-1.153-17.012 15.598-21.576 41.479-2.961 16.795-2.451 33.023 1.301 41.342l.586 1.302-1.067.949c-10.524 9.349-9.972 15.524-9.552 17.195.443 1.764 1.618 2.956 3.307 3.359 2.01.479 5.203-.218 8.139-3.607l1.901-2.194 1.303 2.594c1.986 3.955 4.288 6.31 6.155 6.3 1.418-.006 2.34-1.458 2.762-2.322 1.91-3.903 1.559-11.234-3.723-18.105l-1.104-1.436Zm21.481-39.825c-3.109 17.629-9.403 33.119-16.277 40.304 5.293 7.794 5.394 16.108 3.113 20.769-1.393 2.847-3.665 4.487-6.232 4.5-2.162.011-5.259-1.11-8.363-6.133-3.108 2.638-6.729 3.726-10.054 2.934-3.077-.732-5.385-3.047-6.176-6.191-1.439-5.725 2.092-13.005 9.711-20.11-3.612-9.355-4.026-25.341-1.036-42.299 2.195-12.448 5.937-23.882 10.539-32.196 5.003-9.044 10.376-13.344 15.536-12.434 5.159.91 8.737 6.787 10.346 16.997 1.481 9.388 1.088 21.413-1.107 33.859Z"/>
  <path fill="#7099D6" d="M380.415 162.409c4.634.817 10.061 5.353 13.638 2.645 6.709-5.08-5.507-19.401-11.774-22.203l-1.864 19.558Z"/>
  <path fill="#21201F" d="M396.141 162.062c-.229 1.3-.881 2.363-1.951 3.173-2.453 1.857-5.737.454-8.913-.902-1.639-.7-3.335-1.424-4.902-1.7l.079-.447c1.618.286 3.338 1.02 5.001 1.73 3.198 1.365 6.218 2.655 8.461.957 1.441-1.091 2.051-2.695 1.814-4.768-.718-6.281-8.829-14.938-13.544-17.046l.186-.415c4.805 2.149 13.076 10.988 13.809 17.409a6.96 6.96 0 0 1-.04 2.009Z"/>
  <path fill="#5785CD" d="M395.695 161.973c-.21 1.192-.805 2.163-1.778 2.9-2.244 1.697-5.264.408-8.461-.958-1.664-.71-3.383-1.444-5.001-1.729l-.04.223 1.841-19.318c4.725 2.16 12.76 10.763 13.474 17.013a6.465 6.465 0 0 1-.035 1.869Z"/>
  <path fill="#21201F" d="M395.917 162.015c-.21 1.19-.798 2.232-1.865 3.039-3.577 2.708-9.004-1.828-13.638-2.645l.04-.223c1.618.285 3.338 1.02 5.001 1.729 3.197 1.366 6.217 2.656 8.461.958.973-.737 1.568-1.708 1.778-2.9a6.465 6.465 0 0 0 .035-1.869c-.713-6.25-8.749-14.853-13.474-17.013l.023-.239c5.271 2.356 14.75 12.861 13.639 19.163Z"/>
  <path fill="#21201F" d="M380.538 161.71c.967.022 1.913.192 2.811.426.905.223 1.768.517 2.614.795 1.677.557 3.31 1.165 4.735 1.315.35.029.685.047.982.011a3.16 3.16 0 0 0 .807-.2c.248-.1.46-.226.689-.433a3.44 3.44 0 0 0 .615-.635c.334-.461.532-1.017.582-1.679.055-.658-.039-1.389-.202-2.133-.335-1.501-1.044-3.024-1.867-4.48-.826-1.466-1.8-2.879-2.86-4.23a40.137 40.137 0 0 0-3.432-3.863c-1.233-1.195-2.535-2.356-3.979-3.202l-.017-.011a.603.603 0 0 1 .509-1.089c.897.321 1.729.746 2.519 1.228.794.477 1.555 1 2.276 1.567 1.465 1.112 2.795 2.377 4.06 3.711 2.464 2.719 4.737 5.719 5.869 9.597.261.978.415 2.028.35 3.146-.061 1.109-.418 2.313-1.11 3.309a6.73 6.73 0 0 1-1.198 1.306 5.239 5.239 0 0 1-1.569.954c-1.174.474-2.414.485-3.456.313-1.06-.168-1.992-.501-2.868-.862a30.487 30.487 0 0 1-2.48-1.19c-1.583-.823-3.064-1.682-4.626-2.273l-.024-.008a.719.719 0 0 1 .27-1.39Zm-17.474-30.634c.755.797 1.516 1.575 2.35 2.29a23.56 23.56 0 0 0 2.655 2.015c.941.624 1.943 1.177 2.971 1.749 1.027.585 2.1 1.125 3.203 1.8-1.272.247-2.548.201-3.811.023-1.262-.193-2.492-.582-3.683-1.093a16.51 16.51 0 0 1-3.382-1.966c-1.042-.805-2.002-1.739-2.769-2.818a1.59 1.59 0 0 1 2.452-2.016l.014.016Zm9.986-4.914c.632.481 1.116.998 1.592 1.514.467.52.895 1.051 1.315 1.595.423.54.847 1.082 1.264 1.648.417.566.838 1.141 1.231 1.8l.003.006a.403.403 0 0 1-.463.594c-.762-.229-1.446-.607-2.074-1.054a9.612 9.612 0 0 1-1.7-1.561 8.31 8.31 0 0 1-1.268-1.928c-.32-.705-.56-1.454-.577-2.277a.417.417 0 0 1 .67-.341l.007.004Z"/>
  <path fill="#21201F" d="M371.861 132.365c.024-.857.311-1.648.702-2.372.4-.721.934-1.365 1.549-1.911a8.213 8.213 0 0 1 2.049-1.355c.746-.341 1.545-.573 2.374-.604a.403.403 0 0 1 .291.695l-.007.007c-.572.536-1.12 1.003-1.645 1.479-.525.475-1.032.942-1.523 1.425l-1.466 1.466c-.507.489-1.008.995-1.643 1.498l-.008.008a.415.415 0 0 1-.673-.336Z"/>
</svg>
