<svg xmlns="http://www.w3.org/2000/svg" width="435" height="401" fill="none" viewBox="0 0 435 401">
  <path fill="#3D5A80" d="M244.896 400.75c-104.809 0-189.772-9.018-189.772-20.142 0-5.964 24.417-11.322 63.226-15.011a101.952 101.952 0 0 0 15.274 10.717l.058.034c15.852 9.074 34.032 13.926 51.857 13.926 2.222 0 4.437-.076 6.642-.227 17.491-1.205 31.677-7.23 38.547-16.257.328.049.695.103 1.098.159 5.005.699 16.322 2.009 30.859 2.009 13.419-.001 29.583-1.117 46.039-4.86 12.632 2.988 28.366 5.673 44.123 5.673 9.047 0 18.104-.886 26.585-3.104 4.681-1.226 9.126-3.178 13.274-5.693 26.248 3.456 41.963 7.85 41.963 12.634 0 11.124-84.965 20.142-189.773 20.142Z"/>
  <path fill="#92A2B8" d="M111.804 344.838c-7.562 12.732-52.125 26.564-84.63-8.598-6.334-6.856-11.36-14.249-15.132-21.747-13.238-26.235-11.24-53.674 3.058-63.092 3.356-2.215 7.394-3.435 12.074-3.411 23.233.129 22.872 21.844 27.76 44.418v.008c2.104 9.657 5.162 19.475 11.456 27.825 5.572 7.386 12.411 10.267 18.697 11.03 9.922 1.213 18.465-2.875 18.465-2.875l8.252 16.442Z"/>
  <path fill="#fff" d="M54.935 292.409v.008c-.168.931-6.903 36.261-42.892 22.077-16.345-32.4-9.457-66.64 15.132-66.503 23.233.129 22.872 21.844 27.76 44.418Z"/>
  <path fill="#6C7887" d="M76.27 355.338c-12.223 0-30.43-3.635-46.736-21.276-5.114-5.535-9.49-11.583-13.043-18.017 4.165 1.256 7.89 1.803 11.226 1.803 1.414 0 2.759-.098 4.035-.284 4.308 5.889 9.354 11.231 15.074 15.811 5.5 4.408 11.777 8.228 18.77 9.095.84.104 1.693.156 2.548.156 6.254 0 12.642-2.755 15.714-8.135.034-.058.066-.116.098-.174a34.66 34.66 0 0 0 4.806.329c1.643 0 3.222-.11 4.705-.291 2.817 5.35 5.9 10.166 9.142 14.496-4.837 2.84-11.814 5.293-19.992 6.156-1.855.195-3.99.331-6.347.331Z"/>
  <path fill="#D6DCE4" d="M27.716 317.848c-3.335 0-7.06-.546-11.225-1.803a86.392 86.392 0 0 1-1.582-2.999c-9.816-19.458-11.339-40.721-3.789-52.909 1.01-1.63 2.166-3.046 3.454-4.24-1.952 21.668 4.331 44.105 17.178 61.667a27.966 27.966 0 0 1-4.036.284Z"/>
  <path fill="#293241" d="M27.033 251.202c-6.79 0-12.29 3.087-15.913 8.935-7.55 12.187-6.026 33.45 3.79 52.908 3.803 7.56 8.723 14.629 14.624 21.016 19.453 21.045 41.608 22.158 53.083 20.945 12.182-1.284 21.699-6.101 25.446-10.463l-6.08-12.113c-7.127 2.382-25.604 6.393-38.156-10.257-7.101-9.418-10.159-20.484-12.03-29.073a4.589 4.589 0 0 1-.021-.108c-.766-3.549-1.402-7.058-2.018-10.452-3.618-19.954-6.451-31.25-22.6-31.338h-.125ZM76.25 361.76c-13.489 0-33.543-3.988-51.433-23.34-6.309-6.829-11.571-14.393-15.643-22.484-10.784-21.378-12.197-45.163-3.514-59.181 4.787-7.728 12.373-11.977 21.374-11.977l.159.002c22.268.123 25.482 17.849 28.885 36.615.611 3.371 1.243 6.859 1.995 10.334.008.033.014.066.02.099 1.733 7.934 4.538 18.09 10.862 26.479 12.572 16.675 32.382 7.584 33.219 7.188a3.22 3.22 0 0 1 4.248 1.462l8.253 16.441c.491.977.45 2.139-.11 3.079-4.334 7.297-17.194 13.431-31.273 14.916a67.295 67.295 0 0 1-7.042.367Z"/>
  <path fill="#fff" d="M399.658 358.694c-6.205 5.611-13.351 9.85-21.042 11.865-38.444 10.067-90.055-8.516-92.376-9.287l68.277-29.415s11.456-63.484 49.387-50.318a30.05 30.05 0 0 1 2.77 1.109c26.941 12.201 17.011 54.339-7.016 76.046Z"/>
  <path fill="#D6DCE4" d="M353.127 370.307c-10.516 0-21.105-1.256-30.657-2.971 16.625-5.375 30.907-13.197 42.549-23.317 16.736-14.548 28.095-33.93 33.756-57.607v-.001c.226-.944.44-1.887.643-2.829 1.124.255 2.269.583 3.435.987 1.262.439 2.43.935 3.514 1.485-1.82 17.27-7.552 34.119-16.712 48.862-2.762 4.448-5.965 9.303-5.058 14.45.859 4.917 5.39 8.177 10.395 9.126-5.167 4.167-10.962 7.331-17.187 8.96-7.8 2.043-16.215 2.855-24.678 2.855Z"/>
  <path fill="#293241" d="M295.372 360.832c16.938 5.081 53.843 14.105 82.434 6.62 23.561-6.165 40.909-34.298 41.744-55.687.307-7.887-1.454-21.906-16.696-27.195-7.424-2.575-13.983-2.104-20.054 1.441-18.473 10.793-25.059 46.059-25.123 46.415a3.214 3.214 0 0 1-1.889 2.377l-60.416 26.029Zm57.476 15.939c-28.708 0-57.335-8.908-67.274-12.336l-.349-.119a3.213 3.213 0 0 1-.254-5.996l66.727-28.748c1.621-7.66 9.132-38.153 27.851-49.099 7.683-4.492 16.232-5.155 25.41-1.971 13.992 4.855 21.65 17.07 21.008 33.513-.942 24.137-19.866 54.671-46.535 61.651-8.48 2.219-17.538 3.105-26.584 3.105Z"/>
  <path fill="#92A2B8" d="M395.651 285.664c-23.938 100.1-142.839 87.978-163.383 85.104a87.299 87.299 0 0 1-3.026-.465c-11.535 18.351-56.564 24.669-93.966 3.258l-.039-.023c-23.578-13.503-44.113-38.045-51.298-77.549a161.414 161.414 0 0 1-.964-5.924c-10.139-70.365 29.727-122.827 53.506-147.198 9.618-9.852 16.609-15.118 16.609-15.118 67.571-29.438 161.375-4.238 211.285 49.46.498.537.988 1.067 1.477 1.614 26.14 28.915 39.602 65.844 29.799 106.841Z"/>
  <path fill="#fff" d="M211.27 307.685s-.2-81.884 85.035-92.463c72.138-8.955 103.768 73.329 72.398 120.913-26.036 39.494-98.161 37.848-121.335 36.203-4.749-.336-7.442-.673-7.262-.656.444.043-10.361-2.116-10.361-2.116s27.08-47.431-18.475-61.881Z"/>
  <path fill="#6C7887" d="M133.23 353.917c-19.15-12.532-34.21-30.573-44.633-51.296 10.422 20.723 25.485 38.766 44.633 51.292v.004Zm246.267-45.237c2.916-16.225.849-33.518-5.648-48.797a115.529 115.529 0 0 0 2.551-13.049 118.423 118.423 0 0 0 1.074-16.823c1.649 1.721 3.725 2.886 5.649 3.668a8.79 8.79 0 0 0-.989 3.002c-.289 2.111.116 5.376 3.675 8.936 1.818 1.817 4.463 2.68 7.488 2.799.491 10.267-.468 20.897-3.079 31.815-2.565 10.723-6.215 20.152-10.721 28.449Zm-6.366-108.993c-1.432-4.192-3.475-8.862-5.134-13.557a136.332 136.332 0 0 1 8.153 10.912 22.88 22.88 0 0 0-3.019 2.645Z"/>
  <path fill="#D6DCE4" d="M257.278 367.327c-8.726 0-16.29-.483-22.006-1.019.804-1.64 1.563-3.299 2.201-5.009a57.887 57.887 0 0 0 3.164-11.702c.528-3.219.679-6.5.559-9.772 7.642 1.719 15.441 2.548 23.248 2.548 37.315-.001 74.735-18.95 95.315-50.294 6.473-9.855 11.166-20.793 14.09-32.196 6.497 15.279 8.564 32.573 5.648 48.797-27.137 49.966-85.18 58.647-122.219 58.647Z"/>
  <path fill="#6C7887" d="M249.815 232.108c-6.928-.407-13.762-.761-20.517-1.612-9.092-1.185-18.175-3.045-26.981-5.678-.464-.139-.928-.281-1.391-.423-36.786-14.479-62.415-43.365-64.331-76.989.098-.102.194-.205.292-.305 4.243 21.533 16.32 38.489 36.02 50.511 20.382 12.438 48.731 19.014 81.985 19.014 34.42 0 65.546-7.32 87.646-20.613 7.791-4.684 14.468-10.083 19.992-16.128l.237.258c-8.376 14.567-21.579 27.125-38.042 36.471-5.544-1.345-11.46-2.068-17.732-2.068-3.456 0-7.021.219-10.688.675-19.712 2.446-34.857 8.708-46.49 16.887Z"/>
  <path fill="#D6DCE4" d="M267.049 233.825a63.513 63.513 0 0 0-2.831-.486c-2.409-.354-4.787-.572-7.149-.762a510.399 510.399 0 0 0-7.254-.468c11.633-8.18 26.778-14.442 46.49-16.888a86.61 86.61 0 0 1 10.688-.674c6.272 0 12.189.722 17.733 2.067-16.476 9.353-36.223 15.49-57.677 17.211Z"/>
  <path fill="#fff" d="M232.268 370.768a87.299 87.299 0 0 1-3.026-.465c-11.535 18.351-56.564 24.669-93.966 3.258l-.039-.023c-1.413-7.153-2.031-13.671-2.007-19.62.216-51.901 49.515-60.144 49.515-60.144l14.731 13.911s18.321-4.471 31.766 10.396c3.701 4.095 5.909 9.048 7.057 14.403 2.681 12.546-.497 27.286-4.031 38.284Z"/>
  <path fill="#6C7887" d="M134.49 369.364c-16.887-10.323-37.259-30.005-45.893-66.742 10.422 20.722 25.483 38.764 44.633 51.296-.02 4.771.374 9.908 1.26 15.446Z"/>
  <path fill="#D6DCE4" d="M185.522 383.853c-16.699 0-33.751-4.554-48.63-13.067a1.49 1.49 0 0 1-.058-.034v-.001a91.115 91.115 0 0 1-2.344-1.387c-.886-5.538-1.28-10.674-1.26-15.446a113.47 113.47 0 0 0 13.534 7.578c10.792 5.103 22.915 8.433 34.764 8.433 7.894 0 15.664-1.476 22.845-4.892 17.235-8.198 28.286-30.194 20.712-47.38a28.496 28.496 0 0 1 1.733 1.617c2.417 2.426 4.289 5.34 5.559 8.491.386.76.571 1.602.84 2.409l.377 1.223.261 1.306c.166.872.369 1.737.513 2.612l.29 2.646c.267 3.537.215 7.117-.366 10.649a51.552 51.552 0 0 1-2.808 10.372c-.626 1.687-1.393 3.32-2.19 4.928-.42.79-.829 1.593-1.287 2.349-.221.387-.449.765-.684 1.129-.116.185-.232.375-.35.542l-.322.477-.015.023a3.398 3.398 0 0 0-.112.165c-5.125 8.155-18.455 13.92-34.784 15.044a89.987 89.987 0 0 1-6.218.214Z"/>
  <path fill="#293241" d="M136.892 370.785c16.733 9.574 36.211 14.139 54.848 12.853 16.33-1.124 29.659-6.889 34.785-15.044a3.207 3.207 0 0 1 3.287-1.452c.011.002 1.044.186 2.901.446 22.631 3.164 136.684 14.059 159.816-82.67 10.481-43.836-5.594-86.278-45.262-119.506-53.93-45.175-134.826-59.812-192.531-34.876-2.63 2.055-22.756 18.212-40.638 44.979-17.498 26.193-36.387 68.257-26.998 119.9 7.862 43.228 31.384 64.829 49.734 75.335v.002l.058.033Zm48.647 19.489c-17.824 0-36.005-4.852-51.856-13.927a.665.665 0 0 1-.058-.033c-19.529-11.189-44.543-34.107-52.845-79.749-4.323-23.786-3.304-47.612 3.03-70.819 5.058-18.529 13.492-36.691 25.072-53.984 19.686-29.399 41.365-45.891 42.279-46.578.2-.151.418-.278.648-.379 29.611-12.9 66.345-16.096 103.433-8.995 35.788 6.851 69.933 22.719 96.149 44.678 19.567 16.391 33.756 35.145 42.172 55.739 9.207 22.529 10.96 46.144 5.213 70.184v.001c-5.662 23.677-17.02 43.059-33.756 57.607-13.688 11.899-31.024 20.621-51.528 25.922-35.941 9.292-71.595 5.417-81.666 4.008-.403-.057-.77-.11-1.098-.159-6.869 9.027-21.055 15.052-38.547 16.256-2.205.152-4.42.228-6.642.228Z"/>
  <path fill="#293241" d="m226.651 368.407.322-.477c.118-.168.234-.357.35-.542.235-.365.463-.742.684-1.13.458-.755.867-1.558 1.287-2.348.797-1.608 1.564-3.241 2.19-4.929a51.516 51.516 0 0 0 2.808-10.372c.581-3.531.633-7.112.366-10.648l-.29-2.646c-.143-.875-.347-1.74-.513-2.612l-.261-1.306-.377-1.223c-.269-.808-.454-1.649-.84-2.409-1.27-3.152-3.142-6.065-5.559-8.491-2.4-2.438-5.263-4.443-8.387-5.933-6.248-2.984-13.533-3.924-20.286-2.515a3.234 3.234 0 0 1-3.274-1.263l-.023-.033-.001-.002a32.983 32.983 0 0 0-1.194-1.568 81.108 81.108 0 0 0-1.324-1.597 64.125 64.125 0 0 0-2.828-3.08 63.951 63.951 0 0 0-6.246-5.545c-4.404-3.382-9.311-6.106-14.58-7.616-2.631-.752-5.342-1.22-8.085-1.338-2.743-.081-5.495.18-8.229.68l-2.031.488-1.02.243-1 .322-2.011.64-1.976.777c-1.345.466-2.577 1.193-3.895 1.764-1.29.626-2.518 1.378-3.816 2.035l-.076.04a.953.953 0 0 1-1.023-1.598c1.171-.923 2.342-1.868 3.576-2.733.625-.419 1.263-.823 1.899-1.229.321-.2.634-.414.962-.603l1.002-.539 2.012-1.081c.692-.322 1.402-.608 2.104-.911l1.06-.451 1.09-.371c.732-.24 1.464-.484 2.203-.708a39.844 39.844 0 0 1 9.207-1.335c3.126-.047 6.257.309 9.308.996 6.132 1.351 11.789 4.226 16.822 7.77a60.476 60.476 0 0 1 7.112 5.877 70.864 70.864 0 0 1 3.217 3.313 50.734 50.734 0 0 1 1.521 1.758c.506.616.961 1.174 1.496 1.91l.001.001-3.296-1.295c8.224-1.71 16.864-.581 24.393 3.004 3.762 1.795 7.253 4.228 10.21 7.239 2.974 2.992 5.33 6.629 6.912 10.553.467.956.718 1.988 1.045 2.993.152.504.317 1.011.458 1.514l.306 1.503c.196 1.003.422 2.002.585 3.009l.339 3.048c.313 4.067.238 8.178-.42 12.19a57.95 57.95 0 0 1-3.163 11.702c-.706 1.892-1.561 3.724-2.462 5.535-.476.896-.937 1.796-1.465 2.674-.254.441-.518.881-.8 1.319-.139.22-.272.438-.426.662-.153.226-.286.433-.486.709a3.21 3.21 0 0 1-5.262-3.677l.078-.114Z"/>
  <path fill="#293241" d="M198.035 310.847c-.359.055-.939.178-1.421.298a33.792 33.792 0 0 0-4.532 1.458 33.437 33.437 0 0 0-5.654 2.895c-3.553 2.272-6.543 5.321-8.523 8.982-2.015 3.645-2.985 7.882-3.06 12.215-.102 4.341.594 8.77 1.787 13.093a1.946 1.946 0 0 1-1.358 2.392 1.95 1.95 0 0 1-2.366-1.275c-1.472-4.527-2.472-9.29-2.584-14.207-.14-4.892.736-9.998 2.996-14.575 2.214-4.595 5.744-8.516 9.848-11.411a39.399 39.399 0 0 1 6.514-3.722 40.013 40.013 0 0 1 5.283-1.97 23.8 23.8 0 0 1 1.954-.497 3.212 3.212 0 1 1 1.151 6.318l-.035.006Z"/>
  <path fill="#92A2B8" d="M379.564 127.14c0 59.036-59.382 84.58-123.726 84.58-62.263 0-113.12-23.152-116.346-78.889a100.983 100.983 0 0 1-.162-5.691c0-15.446 6.335-33.822 16.916-51.652-1.936-6.447-8.253-29.342-6.495-48.119.771-8.268 3.115-15.734 8.075-20.648 12.363-12.25 55.192 10.285 55.505 10.445 15.1-8.96 31.349-14.457 47.534-14.457 13.911 0 27.013 3.026 39.014 8.364 14.145-7.844 40.983-14.041 50.27-5.434 3.541 3.275 5.54 9.993 6.528 17.997 1.821 14.578.296 33.404-1.35 43.424 8.999 12.186 15.391 24.179 19.331 35.162 3.308 9.159 4.906 17.62 4.906 24.918Z"/>
  <path fill="#BBC5D3" d="M211.268 26.6c-12.885-9.297-29.943-11.36-41.816-14.45a5.788 5.788 0 0 0-1.478-.187c-4.578 0-10.004 4.978-14.951 11.108 1.142-5.11 3.109-9.395 6.118-12.374 1.939-1.922 5.112-2.733 9.04-2.733 11.763 0 30.296 7.27 42.737 13.753a3.213 3.213 0 0 0 3.106-.095c15.667-9.296 31.108-14.009 45.894-14.009 12.957 0 25.645 2.721 37.71 8.088a3.218 3.218 0 0 0 2.862-.125c9.811-5.44 23.749-9.18 34.186-9.18 5.407 0 9.874 1.003 12.345 3.292 1.191 1.102 2.189 2.796 3.015 4.941-4.197-3.003-9.588-4.121-15.288-4.121-16.577 0-35.759 9.451-35.759 9.451-13.296-6.19-25.984-8.425-37.367-8.425-29.561 0-50.354 15.066-50.354 15.066Z"/>
  <path fill="#fff" d="M379.021 128.834c0 59.036-59.381 84.582-123.724 84.582-62.264 0-113.121-23.154-116.348-78.89 5.948-4.344 13.166-8.358 21.258-10.349 13.09-3.217 20.89.775 29.29 4.768 6.252 2.971 12.834 5.943 22.176 5.941 20.956 0 36.438-31.397 62.064-31.397 23.324 0 29.422 24.261 50.07 23.997 20.638-.259 34.366-32.481 49.435-24.108.288.16.586.336.875.537 3.307 9.16 4.904 17.622 4.904 24.919Z"/>
  <path fill="#D6DCE4" d="M254.826 210.709c-31.333 0-102.868-6.788-112.274-67.6 17.545 32.537 59.109 46.583 107.597 46.583 40.955 0 85.155-3.222 107.297-26.707 19.626-20.817 16.963-22.155 18.777-20.31 2.092 2.159-4.598 11.879-6.514 16.861-.767 9.963-19.716 24.968-30.546 31.481-21.114 12.699-51.065 19.692-84.337 19.692Z"/>
  <path fill="#293241" d="M168.182 7.964c-3.929 0-7.102.81-9.041 2.733-11.635 11.519-7.685 42.517-.766 65.562.258.86.145 1.79-.315 2.562-10.618 17.892-16.464 35.654-16.464 50.012 0 1.816.052 3.669.156 5.512 3.963 68.466 80.442 75.857 113.14 75.857 33.272 0 63.222-6.993 84.337-19.691 24.006-14.438 36.178-35.19 36.178-61.678 0-7.048-1.631-15.287-4.715-23.828-4.002-11.152-10.535-23.026-18.893-34.345a3.213 3.213 0 0 1-.587-2.428c3.19-19.388 3.533-51.392-4.191-58.544-7.24-6.71-31.638-2.37-46.531 5.887a3.21 3.21 0 0 1-2.861.126c-12.066-5.367-24.754-8.088-37.711-8.088-14.786 0-30.227 4.713-45.894 14.009a3.215 3.215 0 0 1-3.106.095c-12.44-6.484-30.973-13.753-42.736-13.753Zm86.71 208.662c-33.254 0-61.603-6.576-81.985-19.014-23.336-14.241-35.976-35.405-37.568-62.902-.11-1.967-.165-3.942-.165-5.877 0-15.163 5.904-33.61 16.65-52.076-4.078-14.025-13.801-54.189 2.798-70.624 12.473-12.361 47.413 3.886 57.663 9.067 16.151-9.297 32.169-14.01 47.633-14.01 13.345 0 26.415 2.696 38.874 8.012 13.901-7.16 41.752-14.27 52.594-4.226 11.481 10.631 8.543 48.58 6.375 62.957 8.453 11.628 14.833 23.362 18.974 34.898 3.379 9.358 5.094 18.108 5.094 26.002 0 28.491-13.586 51.722-39.291 67.18-22.1 13.293-53.226 20.613-87.646 20.613Z"/>
  <path fill="#EE6C4D" d="M198.011 29.248s-24.79-14.093-32.015-7.556c-7.225 6.538-.764 42.198-.764 42.198s14.999-20.523 32.779-34.642Zm114.102-6.773s19.22 17.002 30.897 29.923c0 0 3.132-30.016-1.721-34.06-8.257-6.88-29.176 4.137-29.176 4.137Z"/>
  <path fill="#293241" d="M171.561 23.136c-1.509 0-2.692.287-3.411.938-3.112 2.815-2.885 17.577-.909 31.989 5.228-6.479 14.408-17.128 25.022-26.232-7.136-3.548-15.707-6.695-20.702-6.695Zm-6.329 43.965a3.211 3.211 0 0 1-3.161-2.638c-.067-.372-1.653-9.197-2.37-18.986-1.378-18.849 1.703-23.96 4.14-26.165 8.515-7.705 31.279 4.6 35.756 7.144a3.212 3.212 0 0 1 .41 5.307c-17.241 13.691-32.036 33.82-32.183 34.021a3.21 3.21 0 0 1-2.592 1.317ZM317.85 23.31c5.064 4.586 14.521 13.312 22.574 21.636.797-12.01.335-22.368-1.245-24.191-3.933-3.272-13.856-.645-21.329 2.554Zm25.16 32.3a3.211 3.211 0 0 1-2.383-1.058c-11.42-12.638-30.452-29.502-30.643-29.672a3.213 3.213 0 0 1 .632-5.246c2.336-1.23 23.099-11.789 32.728-3.762 2.089 1.739 4.176 5.603 3.836 21.084a215.687 215.687 0 0 1-.977 15.777 3.211 3.211 0 0 1-3.193 2.877Zm-97.366 55.891h-43.351a3.21 3.21 0 1 1 0-6.421h43.351a3.21 3.21 0 1 1 0 6.421Zm93.737 0H296.03a3.21 3.21 0 1 1 0-6.421h43.351a3.21 3.21 0 1 1 0 6.421Zm-72.692 2.462c.594-2.967 11.332-2.715 13.018-.655 1.685 2.06-3.278 7.098-6.178 7.092-1.791-.004-7.588-2.69-6.84-6.437Z"/>
  <path fill="#293241" d="M293.717 122.698a15.198 15.198 0 0 1-1.22 3.303l-.421.809-.507.787c-.164.264-.367.519-.565.777a6.98 6.98 0 0 1-.645.749c-.905.978-2.07 1.917-3.565 2.494-1.481.595-3.238.733-4.813.456a9.69 9.69 0 0 1-2.201-.659c-.33-.151-.674-.298-.988-.466l-.913-.527c-1.17-.733-2.138-1.609-3.026-2.496a21.76 21.76 0 0 1-2.321-2.837 21.61 21.61 0 0 1-.962-1.515c-.315-.53-.561-1.01-.871-1.659l-.001-.003 5.901-.552c-.639 2.005-1.433 4.033-2.707 6.007a14.428 14.428 0 0 1-2.362 2.823 10.748 10.748 0 0 1-3.438 2.132c-1.317.482-2.72.69-4.063.655a13.816 13.816 0 0 1-3.732-.727 17.822 17.822 0 0 1-3.176-1.493c-.493-.29-.966-.599-1.427-.93-.233-.162-.46-.339-.689-.512-.241-.194-.428-.339-.736-.614a3.208 3.208 0 0 1 4.164-4.879l.166.136.367.3c.152.115.299.232.461.342.313.226.641.442.971.632.661.39 1.337.718 1.997.947.658.22 1.289.341 1.867.38a4.685 4.685 0 0 0 1.559-.246c.944-.342 1.88-1.194 2.684-2.444.808-1.238 1.448-2.79 1.962-4.419a3.176 3.176 0 0 1 5.476-1.067l.426.516h.001l.774 1.08.846 1.12c.58.729 1.167 1.436 1.782 2.055.599.64 1.238 1.175 1.838 1.633a6.72 6.72 0 0 0 1.714.904 3.04 3.04 0 0 0 1.49.085c.53-.102 1.178-.365 1.852-.809 1.372-.871 2.748-2.304 4.222-3.788l.047-.049a1.656 1.656 0 0 1 2.782 1.569Z"/>
  <path fill="#293241" d="M270.673 130.903c1.029 3.547 2.678 5.115 3.437 5.115.899 0 2.68-1.966 3.637-5.887-1.359-.938-2.556-2.089-3.561-3.232-1.015 1.676-2.188 3.014-3.513 4.004Zm3.437 11.537c-4.892 0-8.918-4.94-10.259-12.587a3.214 3.214 0 0 1 2.005-3.55c1.841-.711 3.435-3.081 4.611-6.854a3.208 3.208 0 0 1 2.767-2.241 3.2 3.2 0 0 1 3.134 1.69c.77 1.434 3.388 5.425 6.201 6.605a3.21 3.21 0 0 1 1.939 3.405c-1.131 8.094-5.309 13.532-10.398 13.532Zm-14.851-29.251c.458 1.135.712 2.171.921 3.286.204 1.101.311 2.22.33 3.348a20.813 20.813 0 0 1-.999 6.815c-.737 2.24-1.944 4.437-3.692 6.17-1.731 1.736-3.967 2.971-6.294 3.322a1.454 1.454 0 0 1-1.302-2.406l.076-.084c1.349-1.496 2.457-2.812 3.321-4.283.883-1.44 1.568-2.979 2.149-4.632.555-1.666.975-3.439 1.311-5.288.162-.925.315-1.867.455-2.825.142-.942.254-1.963.405-2.864l.033-.2a1.719 1.719 0 0 1 1.978-1.411 1.724 1.724 0 0 1 1.308 1.052Zm10.133 33.606c-.008-.037.053-.035.096-.038l.148-.006.313.004c.211 0 .426.016.635.022l1.252.021c.82-.005 1.609.006 2.403-.064.791-.083 1.59-.121 2.44-.229.434-.014.867-.101 1.342-.11.475-.024.947-.104 1.51-.063l.442.034a2.124 2.124 0 0 1 1.548 3.391c-.78 1.049-1.819 1.863-3.003 2.435-1.172.607-2.508.901-3.844 1.008a10.84 10.84 0 0 1-3.988-.455 9.692 9.692 0 0 1-1.852-.786c-.293-.182-.586-.335-.864-.553-.137-.101-.281-.204-.42-.324l-.469-.412a2.255 2.255 0 1 1 2.311-3.875Z"/>
  <path fill="#293241" d="M252.826 213.441c-62.265 0-113.12-23.152-116.348-78.89-.104-1.861-.16-3.756-.16-5.69 0-.75.027-1.51.056-2.272 1.495 5.77 3.596 11.101 6.244 16.013 9.407 60.812 80.941 67.6 112.274 67.6 33.272 0 63.223-6.993 84.338-19.691 10.83-6.514 19.252-14.313 25.234-23.345.467.167.939.315 1.411.448-19.924 31.647-65.11 45.827-113.049 45.827Z"/>
  <path fill="#92A2B8" d="M147.93 272.251c14.844 8.364 30.755 13.59 46.016 16.617 34.64 6.872 65.997 2.424 74.233-2.376 11.873-6.912 4.126-16.313 4.126-16.313 16.514-8.253 4.649-21.675 4.649-21.675 4.125-15.991-24.541-11.568-51.09-15.991-7.642-1.277-14.353-2.851-20.166-4.529-20.069-5.779-29.381-12.763-29.381-12.763l-28.387 57.03Z"/>
  <path fill="#fff" d="M272.305 270.179s7.747 9.401-4.126 16.313c-8.236 4.8-39.593 9.248-74.233 2.376 0 0-8.678-19.027 3.187-47.444 3.652-8.743 8.565-13.44 8.565-13.44 5.813 1.678 12.524 3.252 20.166 4.529 26.549 4.423 55.215 0 51.09 15.991 0 0 11.865 13.422-4.649 21.675Z"/>
  <path fill="#293241" d="M148.691 270.9c10.506 5.489 21.613 9.737 33.038 12.801a164.461 164.461 0 0 0 17.354 3.674c5.842.92 11.722 1.62 17.626 1.954 5.9.366 11.817.496 17.712.26 5.891-.22 11.772-.718 17.536-1.643 2.893-.431 5.717-1.072 8.486-1.767 1.336-.414 2.721-.785 3.94-1.299.303-.125.648-.229.92-.37l.814-.412c.554-.227 1.066-.647 1.599-.986.563-.332.988-.745 1.436-1.138.501-.369.781-.832 1.165-1.238.607-.875 1.117-1.745 1.22-2.689.149-.934.071-1.934-.25-2.971-.082-.258-.157-.518-.281-.774a6.151 6.151 0 0 0-.357-.765c-.119-.258-.28-.493-.42-.739-.138-.211-.347-.51-.403-.576l-.249-.406a3.176 3.176 0 0 1 1.292-4.509c1.76-.875 3.35-1.933 4.562-3.154a8.54 8.54 0 0 0 1.496-1.935c.387-.676.667-1.376.802-2.118.288-1.473.093-3.128-.512-4.799a15.3 15.3 0 0 0-1.157-2.473c-.234-.4-.483-.797-.747-1.18l-.401-.558a13.855 13.855 0 0 0-.365-.459l-.704-2.929c.191-.868.377-1.742.298-2.427-.038-.715-.179-1.274-.532-1.776-.624-1.031-2.183-2.032-4.092-2.7-1.896-.69-4.044-1.162-6.237-1.533a112.51 112.51 0 0 0-6.739-.893c-9.151-.942-18.578-1.388-27.951-2.904-9.355-1.537-18.541-3.739-27.514-6.747a123.48 123.48 0 0 1-13.172-5.274 93.88 93.88 0 0 1-6.302-3.298c-2.061-1.211-4.046-2.435-6.002-3.976a1.19 1.19 0 0 1 1.362-1.95l.069.043c1.852 1.154 3.93 2.242 5.981 3.223a90.293 90.293 0 0 0 6.296 2.775c4.245 1.752 8.604 3.23 13.009 4.553 8.806 2.634 17.889 4.493 26.981 5.678 9.102 1.145 18.347 1.391 27.771 2.081 2.362.19 4.739.408 7.149.762 2.408.364 4.85.823 7.358 1.674.621.186 1.259.487 1.888.737.316.137.635.316.952.475.317.165.633.321.948.539 1.259.734 2.517 1.861 3.482 3.266.226.368.481.721.659 1.116.174.395.34.799.497 1.203.223.811.455 1.666.474 2.46.16 1.647-.119 3.096-.414 4.498l-.704-2.928.006.004c.298.345.457.557.669.832.197.26.382.521.565.783.363.526.701 1.065 1.023 1.616a21.927 21.927 0 0 1 1.64 3.515c.893 2.463 1.333 5.335.769 8.208-.548 2.874-2.136 5.474-4.04 7.338-1.905 1.909-4.067 3.284-6.249 4.378l1.042-4.915c.41.52.61.849.88 1.267.232.405.478.802.675 1.223.215.412.404.84.574 1.28.186.427.327.885.463 1.345.54 1.829.722 3.887.351 5.906-.321 2.05-1.35 3.869-2.494 5.389-.621.7-1.22 1.474-1.925 2.011l-1.031.874c-.34.307-.714.496-1.071.746-.733.463-1.41.974-2.242 1.336l-1.202.582c-.401.191-.778.301-1.169.454-1.559.621-3.081 1.003-4.614 1.449-3.051.731-6.099 1.334-9.143 1.729-6.092.852-12.186 1.239-18.275 1.344-6.089.119-12.169-.136-18.223-.635-6.057-.467-12.079-1.309-18.055-2.374a168.915 168.915 0 0 1-17.733-4.132c-11.659-3.371-22.985-8.06-33.38-14.331a1.551 1.551 0 0 1-.529-2.129 1.56 1.56 0 0 1 2.051-.572Z"/>
  <path fill="#D6DCE4" d="M233.652 302.712c-.432 0-.855-.001-1.266-.006-6.932-.062-13.819-.769-20.658-1.888.207-1.918.51-4.179.948-6.708 1.218.124 2.44.234 3.661.328 5.06.417 10.137.665 15.225.665.998 0 1.998-.01 2.998-.029 6.09-.106 12.183-.492 18.275-1.344 3.045-.396 6.093-.999 9.143-1.73 1.533-.446 3.055-.828 4.614-1.449.391-.153.768-.263 1.17-.453l1.202-.582c.832-.362 1.508-.874 2.241-1.336.357-.251.731-.44 1.072-.747l1.03-.873c.706-.538 1.304-1.312 1.926-2.011 1.143-1.521 2.173-3.339 2.493-5.39.371-2.018.19-4.077-.351-5.906a11.577 11.577 0 0 0-.463-1.345 13.957 13.957 0 0 0-.224-.548 21.305 21.305 0 0 0 3.303-2.684c1.904-1.865 3.491-4.465 4.04-7.338.563-2.874.123-5.746-.77-8.209a21.756 21.756 0 0 0-1.64-3.515 24.673 24.673 0 0 0-1.252-1.94c.048-.31.086-.623.113-.944.003.008.008.015.012.023.631 1.211 3.063 2.428 4.03 3.631 2.145 2.669 3.481 6.014 3.661 9.441.281 5.356-2.264 10.781-6.564 13.989 3.196 1.757 4.918 7.489 3.434 10.819-6.865 15.406-35.592 18.079-51.403 18.079Z"/>
  <path fill="#293241" d="M231.561 295.102c-5.087 0-10.164-.247-15.224-.664a159.448 159.448 0 0 1-3.661-.328c-4.825-.487-9.624-1.194-14.394-2.046a168.974 168.974 0 0 1-17.733-4.132c-11.659-3.371-22.985-8.06-33.38-14.331a1.55 1.55 0 0 1 1.45-2.736c.025.01.048.023.072.035 10.506 5.489 21.613 9.737 33.038 12.801a164.814 164.814 0 0 0 17.354 3.674c5.842.92 11.722 1.62 17.627 1.954 3.869.241 7.747.379 11.619.379 2.032 0 4.063-.039 6.092-.119 5.891-.22 11.772-.718 17.536-1.643 2.893-.431 5.717-1.072 8.486-1.767 1.336-.414 2.721-.785 3.94-1.299.303-.125.649-.229.92-.37l.814-.412c.554-.228 1.066-.647 1.599-.986.563-.332.988-.745 1.437-1.138.5-.369.78-.832 1.165-1.238.606-.875 1.116-1.745 1.219-2.689.149-.934.071-1.934-.25-2.971-.082-.258-.157-.518-.281-.774a6.151 6.151 0 0 0-.357-.765c-.119-.258-.28-.493-.42-.739a9.529 9.529 0 0 0-.403-.576l-.249-.406a3.176 3.176 0 0 1 1.292-4.509c1.76-.875 3.35-1.933 4.562-3.154a8.54 8.54 0 0 0 1.496-1.935c.387-.676.668-1.376.802-2.118.288-1.473.093-3.128-.512-4.799a15.3 15.3 0 0 0-1.157-2.473c-.234-.4-.482-.797-.747-1.18l-.401-.558a13.855 13.855 0 0 0-.365-.459l-.704-2.929c.191-.868.377-1.742.298-2.427-.038-.715-.179-1.274-.532-1.776a3.601 3.601 0 0 0-.548-.68c1.206-2.291 2.478-4.429 3.688-5.083.768.636 1.49 1.41 2.098 2.294.225.368.48.72.658 1.116.174.395.34.798.497 1.203l.13.476c.023 1.411-.13 2.953.35 3.905-.028.32-.066.633-.113.943l.229.325c.363.526.701 1.065 1.023 1.616a21.841 21.841 0 0 1 1.64 3.515c.893 2.463 1.333 5.335.769 8.208-.548 2.874-2.136 5.474-4.04 7.338a21.136 21.136 0 0 1-3.302 2.684c.077.181.152.364.224.549.186.427.327.885.463 1.345.54 1.829.722 3.887.351 5.906-.321 2.05-1.35 3.869-2.494 5.389-.621.7-1.22 1.474-1.925 2.011l-1.031.874c-.34.307-.714.496-1.071.746-.733.463-1.41.974-2.242 1.336l-1.201.582c-.402.191-.779.301-1.17.453-1.559.622-3.081 1.004-4.614 1.449-3.051.732-6.098 1.335-9.143 1.73-6.092.852-12.186 1.239-18.275 1.344-1 .02-2 .029-2.999.029Z"/>
  <path fill="#FF6845" d="M314.709 186.438s-31.509 4.029-34.483 14.415c-1.723 6.021 8.818 23.063 8.366 32.447-.452 9.383-8.479 24.873-5.2 29.394 3.279 4.523 9.27 4.184 11.192 14.924l20.125-91.18Z"/>
  <path fill="#FFB4A2" d="M285.043 261.904a6.666 6.666 0 0 1-.199-.262c-.984-1.357-.239-5.155.866-9.187.334.461.695.906 1.084 1.328-.878 3.029-1.59 5.851-1.751 8.121Zm-2.593-55.795c-.546-2.023-.797-3.723-.499-4.763 1.462-5.109 12.945-9.159 23.523-11.472a94.303 94.303 0 0 0-1.537 2.378c-9.019 2.236-19.64 6.059-21.307 11.877-.163.568-.216 1.233-.18 1.98Z"/>
  <path fill="#293241" d="M294.582 279.412a1.794 1.794 0 0 1-1.763-1.477c-1.164-6.505-3.81-8.368-6.612-10.341-1.485-1.045-3.021-2.126-4.268-3.846-2.432-3.355-.479-9.798 1.782-17.26 1.426-4.708 2.902-9.577 3.08-13.274.209-4.32-2.319-10.936-4.549-16.773-2.563-6.707-4.776-12.499-3.749-16.082 3.205-11.199 32.633-15.272 35.978-15.7a1.794 1.794 0 0 1 .455 3.558c-11.729 1.502-31.058 6.396-32.985 13.129-.697 2.434 1.613 8.481 3.651 13.815 2.471 6.467 5.027 13.154 4.782 18.226-.2 4.14-1.74 9.224-3.23 14.141-1.648 5.436-3.697 12.202-2.31 14.114.896 1.237 2.069 2.063 3.428 3.02 2.964 2.087 6.653 4.685 8.078 12.641a1.795 1.795 0 0 1-1.768 2.109Z"/>
  <path fill="#FF6845" d="M300.847 322.784c-.136 9.412-4.151 19.417-8.987 18.796-2.47-.311-5.075-3.879-6.917-8.832-1.598-4.301-2.623-9.656-2.476-14.852a30.63 30.63 0 0 1 .097-1.803c-9.96-.704-28.149-6.989-28.911-17.401-.064-.898.334-1.823 1.181-2.659l-.001-.005c2.387-2.384 8.35-4.093 17.638-2.513 8.693 1.484 13.768 3.776 17.26 6.137 1.487 1.008 2.689 2.029 3.769 3.005l4.799 4.942s2.677 6.252 2.548 15.185Z"/>
  <path fill="#FFB4A2" d="M280.245 302.95c-5.675 0-19.476-5.099-16.692-6.206.786-.312 2.013-.456 3.473-.456 5.38 0 13.938 1.966 15.347 4.773.682 1.36-.301 1.889-2.128 1.889Z"/>
  <path fill="#E84B31" d="M300.847 322.784c-.136 9.412-4.151 19.417-8.987 18.796-2.47-.311-5.075-3.879-6.917-8.831 7.546 6.182 9.998-7.572 7.427-12.985-1.533-3.241-5.787-3.029-9.903-1.868a30.63 30.63 0 0 1 .097-1.803c-9.96-.704-28.149-6.989-28.911-17.401-.064-.898.334-1.823 1.181-2.658 6.158 8.329 28.209 19.26 34.897 3.618 1.487 1.008 2.689 2.029 3.769 3.005l4.799 4.942s2.677 6.252 2.548 15.185Z"/>
  <path fill="#293241" d="M292.282 343.401c-.233 0-.449-.016-.648-.041-5.897-.758-11.33-13.809-10.954-25.649-10.318-1.273-27.999-7.694-28.818-18.887-.111-1.534.584-3.067 1.96-4.316 3.473-3.156 10.558-4.188 18.952-2.758 12.3 2.093 17.809 5.841 21.931 9.579a1.794 1.794 0 0 1-2.411 2.657c-3.463-3.141-8.16-6.664-20.123-8.7-8.621-1.468-13.975.093-15.937 1.876-.534.486-.824.996-.794 1.4.666 9.123 18.097 15.099 27.253 15.744a1.79 1.79 0 0 1 1.661 1.937c-.975 11.764 4.661 23.163 7.738 23.559.208.027.836.107 1.797-.727 2.798-2.425 5.065-9.592 5.162-16.315.121-8.458-2.374-14.4-2.4-14.459a1.794 1.794 0 0 1 3.299-1.41c.115.27 2.819 6.71 2.687 15.92-.116 8.006-2.746 15.809-6.399 18.974-1.476 1.28-2.886 1.616-3.956 1.616Z"/>
  <path fill="#FF9331" d="M378.306 245.946c-1.092 2.801-2.303 5.424-3.628 7.822-5.9 10.672-13.541 23.064-36.599 37.94-23.059 14.877-35.258 19.042-35.258 19.042s-4.513 1.946-7.55.716c-1.892-.769-3.209-2.772-2.493-7.26 0 0 1.393-26.668-.817-55.493-.644-8.389-.144-16.236 1.168-23.486 3.31-18.354 11.81-32.851 20.06-42.504 2.412-2.826 4.805-5.238 7.039-7.208 20.6-18.186 43.446-15.889 51.773-10.119 16.4 11.374 16.731 53.883 6.305 80.55Z"/>
  <path fill="#293241" d="M355.55 161.441c-10.362 0-23.252 3.79-35.138 14.284-2.368 2.086-4.727 4.502-7.011 7.179-5.849 6.843-16.224 21.447-19.999 42.374-1.38 7.624-1.772 15.502-1.164 23.415 2.187 28.513.831 55.261.818 55.528-.602 3.778.18 6.119 2.321 6.988 2.89 1.171 7.289-.695 7.333-.714.143-.05 12.462-4.339 35.217-19.02 22.356-14.422 30.294-26.601 36.507-37.841 1.298-2.345 2.514-4.967 3.613-7.788v-.001c5.152-13.178 7.728-30.334 6.889-45.894-.912-16.912-5.563-29.103-13.093-34.326-3.612-2.503-9.393-4.184-16.293-4.184Zm-57.904 150.713c-.854 0-1.708-.117-2.478-.43-2.412-.98-3.308-3.523-2.665-7.561.011-.238 1.365-26.952-.82-55.428-.611-7.959-.216-15.885 1.173-23.556 3.796-21.054 14.237-35.751 20.121-42.636 2.303-2.696 4.681-5.131 7.067-7.235 20.023-17.68 42.934-16.501 52.116-10.139 7.674 5.322 12.409 17.665 13.33 34.752.844 15.635-1.745 32.878-6.926 46.126-1.107 2.846-2.334 5.489-3.643 7.856-6.249 11.302-14.229 23.548-36.691 38.039-22.825 14.724-35.197 19.03-35.32 19.071-.126.056-2.683 1.141-5.264 1.141Z"/>
  <path fill="#FF6D33" d="M378.306 245.946c-1.092 2.801-2.303 5.424-3.628 7.822-5.901 10.672-13.541 23.064-36.599 37.94-23.059 14.877-35.258 19.042-35.258 19.042s-4.513 1.946-7.55.716c-1.892-.769-3.209-2.772-2.493-7.26 0 0 1.393-26.668-.817-55.493-.644-8.389-.144-16.236 1.168-23.486 18.691-.523 64.799-.643 58.374 11.32-8.029 14.953-16.922 10.432-19.734 24.111-2.839 13.795 10.601 19.191 16.731 9.89 5.036-7.645 7.75-24.785 13.291-25.717 1.826-.308 8.457.24 16.515 1.115Z"/>
  <path fill="#F9D0A7" d="M378.306 245.946c-.111.283-.221.567-.337.845-.033.097-.072.192-.11.285-.13.316-.264.628-.394.936-.145.341-.288.678-.437 1.009-.308.692-.62 1.369-.947 2.033-.125.268-.26.533-.394.793a1.736 1.736 0 0 1-.087.172c-.134.275-.273.539-.413.808-.168.317-.336.633-.509.941-5.9 10.672-13.541 23.064-36.599 37.94-23.059 14.877-35.258 19.042-35.258 19.042s-4.513 1.946-7.55.716c18.466-5.516 34.827-20.104 46.82-36.412 2.363-.427 4.675-1.879 6.409-4.506 5.036-7.645 7.75-24.785 13.291-25.717 1.826-.308 8.457.24 16.515 1.115Z"/>
  <path fill="#FFEDD9" d="M374.679 253.768c-5.901 10.672-13.541 23.064-36.599 37.94-23.059 14.877-35.259 19.042-35.259 19.042s-4.512 1.946-7.548.716c45.048-13.455 77.547-80.88 64.669-95.604-7.492-8.565-39.357-2.242-46.752-33.139 2.412-2.826 4.805-5.238 7.039-7.208 20.599-18.186 43.446-15.889 51.773-10.119 18.12 12.565 16.625 63.157 2.677 88.372Z"/>
  <path fill="#F9D0A7" d="M378.306 245.946c-.111.283-.221.567-.337.845-.033.097-.072.192-.11.285-.13.316-.264.628-.394.936-.145.341-.288.678-.437 1.009-.308.692-.62 1.369-.947 2.033-.125.268-.26.533-.394.793a1.736 1.736 0 0 1-.087.172c-.134.275-.273.539-.413.808-.168.317-.336.633-.509.941-5.9 10.672-13.541 23.064-36.599 37.94-23.059 14.877-35.258 19.042-35.258 19.042s-4.513 1.946-7.55.716c18.466-5.516 34.827-20.104 46.82-36.412 2.363-.427 4.675-1.879 6.409-4.506 5.036-7.645 7.807-22.268 13.855-27.469 6.88-5.916 21.283-12.295 15.951 2.867Z"/>
  <path fill="#FFCE98" d="m313.836 185.125-.072-.24.072.24Z"/>
  <path fill="#FFF6EC" d="m313.929 185.433-.093-.308-.072-.24c3.392-4.102 6.258-6.798 7.651-8.027 11.99-10.586 24.222-13.862 33.772-13.862 7.217 0 12.903 1.872 15.792 3.875 4.54 3.148 7.78 8.987 9.832 16.326-2.203-5.045-5.119-9.082-8.8-11.636-3.636-2.519-9.89-4.412-17.513-4.412-10.834 0-24.431 3.824-37.21 15.107a64.546 64.546 0 0 0-3.359 3.177Z"/>
  <path fill="#293241" d="M355.187 162.996c-9.55 0-21.782 3.277-33.772 13.863-5.188 4.58-30.903 29.562-27.667 71.716 2.196 28.611.834 55.457.821 55.724l-.021.189c-.28 1.765-.362 4.065.846 5.003 1.57 1.22 5.202.267 6.717-.386l.13-.05c.12-.041 12.32-4.307 34.866-18.853 22.074-14.24 29.625-25.77 36.003-37.299 13.654-24.687 14.874-74.24-2.131-86.031-2.889-2.004-8.575-3.876-15.792-3.876Zm-57.529 150.676c-1.557 0-3.162-.336-4.466-1.349-2.063-1.603-2.803-4.396-2.201-8.301.086-1.737 1.295-27.632-.82-55.173-2.608-33.967 13.203-60.849 28.869-74.679 20.634-18.218 44.411-16.883 53.983-10.246 8.814 6.112 13.966 21.02 14.135 40.9.156 18.278-4.024 37.366-10.909 49.816-6.345 11.469-14.443 23.896-37.197 38.576-22.364 14.429-34.486 18.826-35.586 19.21-.587.248-3.124 1.246-5.808 1.246Z"/>
  <path fill="#293241" d="M352.654 180.181c1.898 5.707-.694 11.708-5.79 13.404-5.097 1.696-10.767-1.557-12.666-7.264-1.899-5.708.694-11.708 5.79-13.404 5.096-1.695 10.767 1.557 12.666 7.264Z"/>
  <path fill="#fff" d="M346.285 185.388c.752 2.258-.053 4.559-1.796 5.139-1.744.58-3.766-.781-4.518-3.039-.751-2.258.053-4.559 1.798-5.139 1.743-.58 3.765.78 4.516 3.039Z"/>
  <path fill="#6C7887" d="M346.154 180.881c-.869 0-1.769-.766-2.149-1.91-.447-1.345-.009-2.7.98-3.029.147-.049.298-.072.45-.072.869 0 1.769.766 2.149 1.91.448 1.344.009 2.7-.98 3.029a1.408 1.408 0 0 1-.45.072Z"/>
  <path fill="#293241" d="M359.573 192.603c1.999-1.753 2.914-4.369 3.68-6.883.768-2.624 1.315-5.368 1.86-8.151.817-3.476 1.21-7.6 3.682-10.679 2.188-2.539 5.537-1.266 7.563.627 1.3 1.138-.299 3.119-1.682 2.098-2.105-1.54-3.384-2.143-4.596.657-2.923 6.881-2.677 19.298-9.77 23.455-.715.366-1.366-.613-.737-1.124Z"/>
  <path fill="#FF6845" d="M352.973 248.993c-1.681 3.484-9.408 3.786-16.235 1.836-3.896-1.11-7.505-2.96-9.533-5.363-8.298-9.844 8.856-29.497 18.82-28.565 2.932.274 6.713 1.854 8.199 4.897.903 1.854 1.426 4.093 1.671 6.495.812 7.904-1.388 17.529-2.922 20.7Z"/>
  <path fill="#E84B31" d="M355.895 228.293c-3.493 10.157-13.645 18.562-19.157 22.536-3.896-1.11-7.505-2.96-9.533-5.363-8.298-9.845 8.856-29.498 18.82-28.565 2.932.274 6.713 1.854 8.199 4.896.903 1.855 1.426 4.094 1.671 6.496Z"/>
  <path fill="#293241" d="M345.315 218.66c-5.052 0-12.722 6.118-16.45 13.249-1.536 2.937-3.615 8.454-.288 12.401 3.491 4.141 12.882 6.514 18.621 5.789 2.2-.276 3.718-.964 4.162-1.887 2.031-4.204 4.672-18.614 1.25-25.628-1.148-2.354-4.306-3.67-6.752-3.899a5.695 5.695 0 0 0-.543-.025Zm-.332 35.155c-6.649 0-15.295-2.622-19.147-7.193-3.467-4.112-3.52-9.928-.15-16.375 4.103-7.85 13.325-15.808 20.505-15.134 3.528.329 7.878 2.281 9.644 5.898 4.128 8.463.961 24.196-1.245 28.762-1.013 2.096-3.414 3.441-6.943 3.885-.836.105-1.732.157-2.664.157Z"/>
  <path fill="#D8C8BF" d="M393.983 260.013c.201-.293.394-.594.581-.904a30.667 30.667 0 0 0 2.817-6.035l.005-.007c-.667 1.98-1.594 3.999-2.823 6.044-.186.309-.379.609-.58.902Z"/>
  <path fill="#C5C5D6" d="M375.533 268.849c-2.629 0-5.226-.387-7.613-1.133a21.322 21.322 0 0 1-3.419-1.395c-3.286-1.696-5.871-4.213-7.111-7.45 2.451 6.395 10.146 9.978 18.145 9.978a26.328 26.328 0 0 0-.002 0Zm10.91-2.666.003-.005-.003.005Z"/>
  <path fill="#293241" d="M325.98 257.385c-.604 3.524.508 7.32 4.58 7.622.764.078 1.519.17 2.279.372.241.056.264.417.036.505-1.214.454-2.44.894-3.749.833-2.58-.121-4.799-2.388-5.031-4.946-.12-1.647.116-3.394 1.164-4.744.261-.348.839-.054.721.358Z"/>
  <path fill="#293241" d="M331.718 265.721c.963 1.047 1.761 2.096 3.269 2.132.477.054 1.032.053 1.566.089.372-.017.703.273.674.657a.61.61 0 0 1-.238.443c-1.199.872-2.652 1.16-4.111.591-1.457-.677-2.191-1.929-2.455-3.392a.713.713 0 0 1 .598-.81c.282-.045.527.089.697.29Zm-23.662-59.189c-.604 3.524.508 7.321 4.58 7.623.764.078 1.519.17 2.279.372.24.056.264.417.035.504-1.214.455-2.44.894-3.748.834-2.58-.122-4.799-2.389-5.031-4.947-.12-1.645.115-3.394 1.163-4.743.262-.348.84-.054.722.357Z"/>
  <path fill="#293241" d="M313.793 214.87c.965 1.046 1.762 2.096 3.27 2.132.476.054 1.032.052 1.566.089.372-.017.703.273.673.657a.607.607 0 0 1-.238.442c-1.199.873-2.651 1.161-4.111.592-1.457-.677-2.19-1.929-2.454-3.393a.712.712 0 0 1 .598-.809c.282-.045.526.089.696.29Zm-11.677 47.243c-.603 3.525.508 7.319 4.58 7.623.764.076 1.519.17 2.279.372.24.055.264.417.036.503-1.214.456-2.441.895-3.749.835-2.58-.121-4.799-2.388-5.032-4.947-.12-1.646.117-3.395 1.165-4.744.261-.348.84-.054.721.358Z"/>
  <path fill="#293241" d="M307.853 270.45c.965 1.047 1.762 2.097 3.27 2.132.476.055 1.032.053 1.566.089.372-.016.703.274.674.657a.61.61 0 0 1-.238.443c-1.199.873-2.652 1.16-4.112.592-1.456-.677-2.19-1.929-2.455-3.394a.713.713 0 0 1 .599-.809c.281-.044.527.089.696.29Zm-3.944 15.29c-.603 3.523.508 7.319 4.582 7.621.763.078 1.519.171 2.278.373.24.056.263.417.035.504-1.213.455-2.44.894-3.748.834-2.58-.122-4.8-2.389-5.032-4.947-.12-1.645.116-3.394 1.164-4.743.261-.348.84-.055.721.358Z"/>
  <path fill="#293241" d="M309.647 294.077c.965 1.046 1.762 2.095 3.271 2.131.475.054 1.031.053 1.564.09.372-.018.703.272.675.657a.614.614 0 0 1-.238.442c-1.199.873-2.653 1.161-4.111.592-1.457-.678-2.192-1.929-2.455-3.393a.71.71 0 0 1 .598-.809c.282-.046.526.087.696.29Z"/>
  <path fill="#fff" d="M388.081 243.35c-6.88-6.887 1.028-11.36 1.028-11.36s-19.267-2.407-7.908-18.575c0 0-6.767 1.653-8.26-5.163-.401-1.823.402-3.846 2.063-5.796 7.956-9.352 35.628-17.003 44.386 7.346.33.907.603 1.797.835 2.674 6.968 25.985-25.488 37.528-32.144 30.874Z"/>
  <path fill="#293241" d="M381.166 210.211c1.063 0 2.084.523 2.686 1.428a3.204 3.204 0 0 1-.024 3.62c-1.846 2.629-3.805 6.315-2.651 8.943 1.337 3.043 6.604 4.377 8.343 4.606a3.214 3.214 0 0 1 1.172 5.981c-.499.293-2.03 1.469-2.197 2.778-.154 1.212.924 2.577 1.855 3.508 1.57 1.573 9.129 1.487 16.771-3.36 4.625-2.933 14.786-11.421 9.245-26.826-6.318-17.572-22.541-14.403-27.362-13.013-8.781 2.531-13.359 7.712-12.925 9.688.429 1.957 1.374 2.45 2.15 2.663 1.108.303 2.232.062 2.243.059.23-.05.464-.075.694-.075Zm12.875 38.221c-3.333 0-6.266-.851-8.232-2.814-3.559-3.561-3.963-6.825-3.675-8.937a8.82 8.82 0 0 1 .99-3.002c-2.933-1.192-6.224-3.276-7.813-6.865-1.384-3.122-1.191-6.672.568-10.596a9.256 9.256 0 0 1-1.826-.872c-1.501-.937-3.457-2.808-4.248-6.405-1.637-7.46 7.753-14.45 17.42-17.237 12.732-3.669 28.662-1.128 35.185 17.011 4.935 13.719.505 26.586-11.849 34.423-5.012 3.179-11.263 5.294-16.52 5.294Z"/>
  <path fill="#6C7887" d="M211.728 300.817c-6.905-1.128-13.759-2.677-20.552-4.405a59.747 59.747 0 0 0-4.418-3.432c-5.033-3.544-10.69-6.419-16.822-7.771-2.87-.646-5.812-1-8.755-1-.184 0-.368.002-.552.005a39.98 39.98 0 0 0-2.961.191c-3.455-1.994-6.712-4.3-9.685-7.012-2.438-2.226-4.78-5.818-2.953-8.568.892-1.342 2.561-1.958 4.193-1.958.25 0 .501.015.747.044.192.022.384.052.574.088l-1.924 3.866a1.555 1.555 0 0 0-1.979.607 1.552 1.552 0 0 0 .528 2.129c10.395 6.27 21.721 10.959 33.38 14.331a168.97 168.97 0 0 0 17.733 4.131c4.77.852 9.569 1.559 14.394 2.046-.438 2.529-.74 4.79-.948 6.708Z"/>
  <path fill="#293241" d="M191.176 296.412a456.652 456.652 0 0 1-4.535-1.179c-9.967-2.646-20.119-5.717-28.973-10.829a40.467 40.467 0 0 1 2.96-.19c.185-.004.368-.005.553-.005 2.942 0 5.884.354 8.755 1 6.132 1.351 11.789 4.226 16.821 7.77a59.837 59.837 0 0 1 4.419 3.433Z"/>
  <path fill="#6C7887" d="M193.03 286.314a164.814 164.814 0 0 1-11.3-2.614c-11.426-3.064-22.532-7.312-33.038-12.801l-.072-.035 1.924-3.866c1.627.307 3.144 1.077 4.64 1.808 11.499 5.614 23.833 9.468 36.461 11.516.42 2.539.942 4.557 1.385 5.992Z"/>
  <path fill="#D6DCE4" d="M228.329 289.707c-3.872 0-7.75-.137-11.619-.379-5.905-.334-11.784-1.033-17.626-1.954a162.957 162.957 0 0 1-6.054-1.06c-.443-1.435-.965-3.453-1.385-5.993a134.315 134.315 0 0 0 21.494 1.73c12.463 0 24.922-1.739 36.882-5.258 2.425-.713 4.882-1.524 6.896-3.054 2.012-1.531 3.531-3.924 3.391-6.448.114.003.23.006.346.006 4.106 0 8.132-2.472 9.962-6.153 1.984-3.993 1.07-8.314-1.187-11.92 1.005-1.069 2.277-3.832 3.633-6.405.224.223.409.45.548.679.352.503.493 1.061.531 1.776.079.686-.107 1.559-.298 2.428l.704 2.928c.063.072.241.296.365.46l.402.557c.264.383.513.78.746 1.18.466.806.858 1.64 1.158 2.474.604 1.67.8 3.325.511 4.799-.134.742-.415 1.441-.801 2.117a8.574 8.574 0 0 1-1.497 1.935c-1.212 1.221-2.802 2.28-4.562 3.154a3.177 3.177 0 0 0-1.292 4.509l.249.406c.057.066.266.365.403.576.141.246.301.481.42.739.139.25.257.505.357.765.124.257.199.516.281.774.321 1.037.399 2.037.251 2.971-.104.944-.614 1.814-1.22 2.689-.385.406-.664.869-1.165 1.238-.449.393-.874.807-1.437 1.138-.533.339-1.044.759-1.599.986l-.813.413c-.272.14-.617.244-.921.369-1.219.515-2.603.886-3.939 1.299-2.77.695-5.593 1.336-8.487 1.767-5.764.925-11.645 1.423-17.536 1.643-2.029.081-4.06.119-6.092.119Zm165.704-47.723c-1.808 0-3.124-.349-3.682-.908-.932-.931-2.01-2.297-1.856-3.509.167-1.308 1.698-2.484 2.198-2.777a3.214 3.214 0 0 0-1.173-5.981c-1.739-.229-7.005-1.563-8.343-4.606-1.154-2.628.805-6.314 2.651-8.943a3.202 3.202 0 0 0 .024-3.62 3.224 3.224 0 0 0-3.38-1.353c-.006.001-.434.094-1.02.094-.367 0-.797-.036-1.223-.154-.776-.212-1.721-.705-2.15-2.663-.13-.589.188-1.465.93-2.47.223.237.456.461.701.67 1.902 1.632 4.97 2.53 7.99 2.831 1.846.183 2.835 2.245 1.91 3.851-1.784 3.099-2.593 6.869-1.022 9.558 1.771 3.029 5.274 4.861 8.758 4.88 1.246.006 2.256.898 2.445 2.13.16 1.049.762 2.085 1.658 2.664.905.582 1.953.809 3.029.809 1.062 0 2.152-.221 3.161-.543 5.55-1.779 9.834-6.247 12.32-11.581-.397 9.512-7.266 15.088-10.837 17.352-4.923 3.124-9.812 4.269-13.089 4.269Z"/>
  <path fill="#293241" d="M394.071 245.2c-2.612 0-4.748-.61-5.99-1.849-6.88-6.888 1.028-11.36 1.028-11.36s-19.267-2.408-7.908-18.576c0 0-.722.176-1.746.176-2.112 0-5.509-.75-6.514-5.338-.401-1.823.402-3.846 2.063-5.796.624.931 1.261 1.849 2.005 2.637-.742 1.004-1.06 1.881-.93 2.47.429 1.958 1.374 2.451 2.15 2.663.426.118.856.154 1.223.154.586 0 1.014-.093 1.02-.094a3.226 3.226 0 0 1 3.38 1.352 3.204 3.204 0 0 1-.024 3.621c-1.846 2.629-3.805 6.315-2.651 8.942 1.338 3.043 6.604 4.378 8.343 4.607a3.214 3.214 0 0 1 1.172 5.981c-.499.293-2.03 1.468-2.197 2.777-.154 1.212.924 2.577 1.855 3.509.559.559 1.875.908 3.683.908 3.277 0 8.166-1.145 13.088-4.269 3.572-2.264 10.441-7.84 10.838-17.353a26.151 26.151 0 0 0 2.017-6.306c.096-.52.177-1.052.249-1.58 5.669 21.139-14.757 32.724-26.154 32.724Z"/>
</svg>
