<svg xmlns="http://www.w3.org/2000/svg" width="64" height="64" fill="none" viewBox="0 0 64 64">
  <path fill="#fff" d="M63.008 31.504c0 17.4-14.105 31.504-31.504 31.504C14.104 63.008 0 48.903 0 31.504S14.105 0 31.504 0c17.4 0 31.504 14.105 31.504 31.504Z"/>
  <path fill="#3D5A80" d="M8.535 32.03c0-12.977 10.518-23.496 23.494-23.496 12.976 0 23.495 10.52 23.495 23.495 0 12.976-10.519 23.495-23.495 23.495S8.535 45.005 8.535 32.029Z"/>
  <path fill="#FF9331" d="M33.05 48.272c-.128 2.56-.764 4.949-2.052 6.816a21.484 21.484 0 0 1-1.302-.084c-6.176-.582-11.652-3.693-15.47-8.33.171-.949.389-1.902.596-2.858.157-.722.309-1.447.43-2.173.253-1.517.374-3.038.138-4.555 4.21-1.795 8.858-2.92 13.562-3.32a18.96 18.96 0 0 1 1.429 2.386c1.789 3.526 2.872 8.038 2.669 12.118Z"/>
  <path fill="#CC763E" d="M23.294 49.495c-1.108 0-2.275-.802-2.703-2.644a.94.94 0 0 1-.464.118c-.288 0-.581-.118-.812-.305-.172-.14-.071-.414.13-.414.014 0 .03.002.045.005.071.014.144.02.216.02.26 0 .522-.088.743-.254a.509.509 0 0 1 .308-.104c.153 0 .305.069.412.197.631.758 1.328 1.108 1.942 1.108.869 0 1.571-.7 1.687-1.939.016.062.03.124.04.188.014.075.033.15.042.225l.027.223c.013.077.007.141.01.21.004.067-.008.138-.01.207-.05.553-.32 1.034-.744 1.312a1.626 1.626 0 0 1-.71.256c-.064.01-.128.007-.193.01-.064-.004-.13-.003-.194-.014a1.993 1.993 0 0 1-.386-.085 2.494 2.494 0 0 1-.735-.407 4.274 4.274 0 0 1-.663-.674l-.001-.002a.069.069 0 0 0-.064-.023.072.072 0 0 0-.057.083c.057.35.193.69.401.994.209.303.495.563.832.742a2.24 2.24 0 0 0 1.026.245c.416 0 .837-.113 1.201-.343.168-.106.328-.23.464-.38.073-.071.132-.155.196-.233.056-.085.116-.167.162-.258a2.72 2.72 0 0 0 .242-.617c-.04 1.6-1.18 2.553-2.39 2.553Zm-7.633-7.859c.055-.335.103-.67.143-1.006 1.516-.155 3.014-.863 4.169-1.563.19-.116.376-.233.552-.35.45.852 1.096 1.442 1.867 1.672a2.347 2.347 0 0 0 2.503-.773c.572-.693.786-1.64.64-2.718a15.658 15.658 0 0 0 2.239-.49 10.44 10.44 0 0 0 1.877-.757c.125.225.247.455.366.69-1.15.569-2.354.983-3.59 1.214.01 1.388-.83 2.806-2.076 3.391a3.253 3.253 0 0 1-1.382.302 3.44 3.44 0 0 1-2.425-.99 10.87 10.87 0 0 1-4.883 1.378Z"/>
  <path fill="#293241" d="M14.658 46.553c3.876 4.631 9.222 7.482 15.073 8.033.354.034.71.058 1.062.074 1.615-2.472 2.217-6.078 1.695-10.189-.474-3.734-1.863-7.55-3.729-10.264-4.49.404-8.948 1.489-12.926 3.147.295 2.396-.23 4.79-.739 7.107-.15.688-.306 1.397-.436 2.092Zm16.34 8.955h-.014a21.787 21.787 0 0 1-1.326-.086c-6.125-.576-11.715-3.586-15.739-8.475a.433.433 0 0 1-.09-.351c.14-.774.313-1.561.48-2.322.514-2.347 1.047-4.773.683-7.12a.423.423 0 0 1 .245-.455c4.193-1.787 8.924-2.946 13.682-3.35a.397.397 0 0 1 .357.17c4.099 5.78 5.948 16.16 2.048 21.815a.398.398 0 0 1-.327.174Z"/>
  <path fill="#FF9331" d="M27.662 36.005c-2.544.768-5.172.675-5.172.675s-1.128 1.06-2.72 2.024c-2.942 1.783-7.465 3.236-9.352-2.956-.78-2.558-.612-5.585.36-8.32 1.168-3.292 3.503-6.158 6.75-7.271 2.359-.808 4.83-.567 7.067.37 3.405 1.424 6.268 4.457 7.352 7.843 1.503 4.695-1.335 6.744-4.285 7.635Z"/>
  <path fill="#FFD4AD" d="M12.575 25.668c.057-.407.119-.83.187-1.273 1.212-1.747 2.858-3.142 4.893-3.84a8.67 8.67 0 0 1 2.822-.465c1.027 0 2.048.174 3.033.49a.37.37 0 0 0 .047.05l.498.462a10.317 10.317 0 0 0-3.062-.479c-.99 0-1.985.155-2.96.489-2.313.793-4.163 2.474-5.458 4.566Z"/>
  <path fill="#CC763E" d="M15.212 39.823a3.925 3.925 0 0 1-1.476-.271c-1.313-.529-2.3-1.851-2.935-3.931a10.044 10.044 0 0 1-.075-.26l.081.01a1.166 1.166 0 0 0 .582-.083c.495 1.32 1.245 2.452 2.319 3.253a4.07 4.07 0 0 0 1.771.414c.787 0 1.546-.233 2.288-.59.384.167.806.269 1.24.3-1.123.614-2.487 1.158-3.795 1.158Zm12.19-4.177c.415-.46.704-1.02.828-1.604.422-.198.804-.48 1.12-.896.173-.31.292-.644.365-1.001.279.621.597 1.213.951 1.772-.733.715-1.776 1.28-3.116 1.685l-.149.044Zm1.894-7.09c-.485-1.43-1.274-2.94-2.16-4.376.987 1.092 1.86 2.19 2.83 3.528.034.046.07.09.109.13a28.19 28.19 0 0 1-.5.467 24.87 24.87 0 0 1-.28.252Z"/>
  <path fill="#293241" d="M20.477 20.09a8.64 8.64 0 0 0-2.822.467c-5.836 2-8.476 9.74-6.853 15.064.634 2.08 1.621 3.403 2.934 3.931 1.905.767 4.223-.235 5.832-1.21a17.765 17.765 0 0 0 2.652-1.973.393.393 0 0 1 .284-.108c.025.001 2.597.08 5.046-.659 1.988-.6 3.321-1.55 3.962-2.825.576-1.145.594-2.582.053-4.274-1.423-4.442-6.186-8.413-11.088-8.413Zm-5.272 20.572c-.597 0-1.19-.097-1.759-.326-1.552-.625-2.7-2.125-3.412-4.46-.868-2.846-.607-6.377.697-9.444 1.409-3.312 3.778-5.682 6.672-6.674 2.89-.99 6.12-.537 9.094 1.275 2.742 1.671 4.923 4.364 5.832 7.204.614 1.917.579 3.576-.103 4.93-.747 1.485-2.245 2.575-4.452 3.242-2.245.678-4.516.703-5.136.695a18.765 18.765 0 0 1-2.665 1.964c-1.306.792-3.054 1.594-4.768 1.594Z"/>
  <path fill="#AA400B" d="M33.242 23.779c-.033.942-.537 2.462-1.736 3.76a.783.783 0 0 1-1.218-.085c-1.85-2.553-3.387-4.289-6.176-6.872a50.259 50.259 0 0 0-.222-.206l-.067-.061.061-.04c1.666-1.11 3.866-1.508 5.4-.757 1.955.958 3.721 3.094 3.9 3.683.044.15.065.346.058.578Z"/>
  <path fill="#DDB39D" d="M31.963 22.786c-.32-.244-.641-.487-.963-.727-.802-.598-1.628-1.193-2.569-1.499a5.768 5.768 0 0 0-1.793-.26c-.669 0-1.345.086-2.015.195l-.122-.113c.954-.54 2.014-.826 2.975-.826.601 0 1.163.112 1.635.343 1.138.557 2.213 1.542 2.907 2.33-.02.186-.039.372-.055.557Z"/>
  <path fill="#293241" d="M24.502 20.382c2.655 2.468 4.236 4.238 6.107 6.82.072.099.182.16.302.168a.377.377 0 0 0 .305-.123c1.388-1.502 1.762-3.323 1.582-3.92-.144-.475-1.832-2.52-3.687-3.429-1.227-.6-3.06-.395-4.61.484Zm6.433 7.828c-.024 0-.048 0-.072-.002a1.201 1.201 0 0 1-.897-.5c-1.953-2.695-3.51-4.414-6.41-7.077a.43.43 0 0 1 .046-.667c1.884-1.285 4.236-1.617 5.852-.826 1.982.97 3.88 3.164 4.112 3.936.311 1.03-.277 3.14-1.77 4.756a1.17 1.17 0 0 1-.86.38Z"/>
  <path fill="#AA400B" d="M27.808 34.083c-.166.63-.547 1.2-1.053 1.607-2.544.768-4.366.518-4.366.518s-1.128 1.06-2.72 2.023c-1.262.141-2.667-.405-3.186-1.691a2.958 2.958 0 0 1-.208-1.091c-.001-.182.01-.358.032-.532.505-4.019 6.923-5.85 9.925-4.087.265.16.496.33.692.51.912.833 1.117 1.848.884 2.743Z"/>
  <path fill="#fff" d="M53.687 29.742a40.766 40.766 0 0 1-1.186 2.964c-3.083-2.181-5.77-5.464-6.768-9.233 1.54-.778 3.045-1.542 4.593-2.082a14.07 14.07 0 0 1 2.445-.628c3.643-.502 2.315 5.063.916 8.98Z"/>
  <path fill="#293241" d="M46.215 23.696c.921 3.128 3.126 6.144 6.122 8.378 1.5-3.447 3.155-8.751 1.994-10.41-.297-.425-.791-.584-1.508-.485-2.27.355-4.385 1.394-6.608 2.517Zm6.45 9.633-.39-.276c-3.46-2.447-5.986-5.898-6.93-9.468l-.09-.338.35-.176c2.375-1.201 4.62-2.335 7.106-2.724 1.028-.142 1.79.135 2.27.822 1.882 2.687-1.701 10.8-2.116 11.716l-.2.444Z"/>
  <path fill="#EE6C4D" d="M51.746 28.484c.7-1.198 1.208-2.961 1.192-4.857-.002-.231-.208-.405-.425-.36a9.063 9.063 0 0 0-3.64 1.706c.64 1.402 1.628 2.63 2.873 3.511Z"/>
  <path fill="#CC763E" d="M29.057 54.512c-5.587-.7-10.672-3.506-14.399-7.96.128-.678.279-1.371.427-2.044.477 1.21 1.043 2.374 1.826 3.391 1.152 1.498 2.88 2.644 4.675 2.644.191 0 .383-.013.576-.04.965.65 2.121.933 3.278.933.343 0 .687-.025 1.025-.073a9.631 9.631 0 0 0 1.919-.486v.148c.034 1.204.26 2.373.673 3.487Z"/>
  <path fill="#293241" d="M29.232 54.956c-5.986-.69-11.284-3.762-15.006-8.283.171-.948.389-1.901.596-2.857.085.232.172.462.263.691-.148.673-.3 1.366-.427 2.046 3.728 4.452 8.812 7.259 14.399 7.958.055.15.114.298.175.444Zm20.121-29.859a8.358 8.358 0 0 0 2.274 2.815c.6-1.199.946-2.754.937-4.255a8.68 8.68 0 0 0-3.21 1.44Zm2.395 3.778a.365.365 0 0 1-.21-.067c-1.284-.908-2.322-2.176-3.003-3.667a.402.402 0 0 1 .116-.483c1.14-.878 2.45-1.492 3.79-1.774a.705.705 0 0 1 .603.155.77.77 0 0 1 .27.585c.016 1.835-.438 3.68-1.245 5.064a.376.376 0 0 1-.321.188Z"/>
  <path fill="#fff" d="M49.043 47.085c-4.239 4.923-10.39 8.02-17.235 8.02a22.38 22.38 0 0 1-2.113-.1 10.396 10.396 0 0 1-.801-2.77c-.06-.4-.095-.808-.107-1.222-.036-4.534 1.363-8.673 3.453-12.581a53.11 53.11 0 0 1 2.826-4.639c3.403 2.37 7.617 3.441 11.704 3.083-.217 1.756-.093 3.537.305 5.258a18.095 18.095 0 0 0 1.968 4.95Zm-8.134-24.86c-2.074 2.753-5.381 4.494-8.65 5.183a37.875 37.875 0 0 1 .045-3.706c.223-3.607 1.06-7.854 3.694-6.252.657.416 1.264.9 1.842 1.43 1.086.997 2.067 2.16 3.069 3.345Z"/>
  <path fill="#293241" d="M34.938 17.523a.93.93 0 0 0-.506.147c-1.486.936-1.877 5.845-1.788 9.22 3.17-.764 5.953-2.437 7.737-4.653-1.453-1.716-2.846-3.322-4.592-4.428-.314-.19-.596-.286-.851-.286Zm-3.06 10.393-.022-.49c-.038-.91-.306-8.922 2.16-10.475.439-.277 1.175-.478 2.185.137 1.935 1.224 3.413 2.972 4.978 4.822l.254.3-.208.275c-1.97 2.615-5.209 4.56-8.886 5.334l-.462.097Z"/>
  <path fill="#EE6C4D" d="M34.599 24.807c-.332-1.36-.321-3.2.228-5.008a.351.351 0 0 1 .508-.213 9.358 9.358 0 0 1 3 2.743c-1.007 1.145-2.298 2.017-3.736 2.478Z"/>
  <path fill="#293241" d="M35.177 19.942c-.43 1.432-.538 3.025-.301 4.355a8.062 8.062 0 0 0 2.965-1.995 8.979 8.979 0 0 0-2.664-2.36Zm-.579 5.256a.364.364 0 0 1-.184-.05.388.388 0 0 1-.18-.245c-.382-1.57-.296-3.472.235-5.222a.749.749 0 0 1 .423-.476.701.701 0 0 1 .622.037c1.2.68 2.28 1.666 3.122 2.854a.404.404 0 0 1-.025.498c-1.07 1.217-2.42 2.112-3.902 2.587a.366.366 0 0 1-.11.017Z"/>
  <path fill="#EE6C4D" d="M43.373 50.946c-.012.33-.04.66-.087.988-.802.477-1.634.908-2.492 1.285a22.14 22.14 0 0 1-4.51 1.433l-1.133.202a5.095 5.095 0 0 1-.495-1.035 12.013 12.013 0 0 1-.448-2.01c-.34-2.502.08-5.118 1.22-7.35.578-1.131 1.43-2.236 2.626-2.528 1.253-.305 2.582.395 3.393 1.437.811 1.041 1.197 2.368 1.484 3.676.063.284.12.57.174.855.188 1.006.305 2.026.268 3.047Z"/>
  <path fill="#fff" d="M47.133 49.06a23.228 23.228 0 0 1-3.847 2.874 22.74 22.74 0 0 1-2.492 1.285c.119-1.431.65-3.034 1.074-3.745a6.6 6.6 0 0 1 1.238-1.575c.672-.627 1.473-1.095 2.348-1.319 1.252.395 1.714 1.337 1.68 2.48Zm-10.85 5.593c-.498-1.093-1.211-2.109-2.074-2.844-1.193-1.015-2.674-1.494-4.273-.898-.084 1.458.436 2.948 1.323 4.187a22.372 22.372 0 0 0 3.892-.244l1.132-.201Z"/>
  <path fill="#CCCCE3" d="M30.974 54.668a22.217 22.217 0 0 1-1.008-.061 9.988 9.988 0 0 1-.576-1.862c.275.228.585.413.916.55.171.475.397.936.668 1.373Zm16.134-6.151a2.397 2.397 0 0 0-.322-.96 6.62 6.62 0 0 0 .682-2.795c.303.77.663 1.53 1.076 2.27a23.725 23.725 0 0 1-1.435 1.486Z"/>
  <path fill="#CC5F45" d="M36.092 54.258a8.352 8.352 0 0 0-1.554-2.147l.085-.115a4.188 4.188 0 0 0 3 1.288c.218 0 .437-.018.652-.055 1.199-.206 2.29-.989 2.917-2.071a11.35 11.35 0 0 0-.343 1.569 22.137 22.137 0 0 1-4.757 1.531Zm5.205-3.44a.543.543 0 0 0-.057-.02l.06.01-.003.01Z"/>
  <path fill="#CCCCE3" d="M40.849 52.727c.076-.534.198-1.074.343-1.57.059-.101.114-.206.164-.313a3.124 3.124 0 0 0-.06-.025l.004-.01.043.007c.112.007.224.01.337.01 1.685 0 3.34-.832 4.42-2.187.266-.334.495-.697.686-1.082.174.284.278.608.322.96a22.713 22.713 0 0 1-6.26 4.21Zm-9.041 1.957c-.277 0-.557-.005-.835-.016a7.359 7.359 0 0 1-.668-1.373 3.524 3.524 0 0 0 1.385.267c1.092-.015 2.166-.565 2.849-1.452a8.353 8.353 0 0 1 1.553 2.148 21.768 21.768 0 0 1-4.284.426Z"/>
  <path fill="#293241" d="M29.966 54.607a22.16 22.16 0 0 0 1.843.077c6.352 0 12.435-2.785 16.736-7.652-1.724-3.09-2.507-6.503-2.227-9.701-3.958.241-7.884-.802-11.145-2.964-2.863 4.292-6.036 10.009-5.983 16.642a9.999 9.999 0 0 0 .776 3.598Zm1.843.917c-.718 0-1.442-.034-2.15-.101l-.23-.022-.098-.219a10.873 10.873 0 0 1-.946-4.157c-.057-7.054 3.364-13.043 6.352-17.474l.226-.335.327.227c3.305 2.301 7.37 3.372 11.447 3.014l.497-.043-.063.516c-.402 3.248.385 6.777 2.217 9.937l.154.266-.199.232c-4.464 5.185-10.855 8.16-17.534 8.16Z"/>
  <path fill="#fff" d="M48.547 47.641c.736-4.325-.64-6.652.644-7.412 1.33-.787 2.119 1.563 1.986 3.967l-2.63 3.445Z"/>
  <path fill="#CCCCE3" d="M32.64 25.236c.013-.646.044-1.314.094-1.973.415-.412.846-.807 1.293-1.183a9.98 9.98 0 0 0 .026 1.76c-.48.45-.948.92-1.412 1.396Zm5.192-4.137c-.34-.37-.703-.71-1.086-1.02.222-.168.435-.349.627-.554.086-.091.168-.188.243-.291.473.437.926.907 1.373 1.4a9.313 9.313 0 0 0-1.157.465Z"/>
  <path fill="#293241" d="M32.234 25.653c.007-.597.027-1.262.07-1.95.14-.149.284-.295.43-.44a34.89 34.89 0 0 0-.095 1.973l-.183.189-.222.228Zm6.754-5.02c-.447-.492-.9-.962-1.373-1.399.083-.112.159-.23.224-.353.55.505 1.073 1.051 1.584 1.622a8.72 8.72 0 0 0-.435.13Z"/>
  <path fill="#CC5F45" d="M34.76 23.196a9.983 9.983 0 0 1 .096-1.783c.31-.236.625-.463.946-.681l.283-.19c.368.278.717.589 1.044.928-.837.482-1.618 1.073-2.368 1.726Z"/>
  <path fill="#293241" d="M34.051 23.839c-.06-.567-.068-1.16-.026-1.76.272-.229.548-.45.83-.666a9.972 9.972 0 0 0-.095 1.784c-.24.208-.475.423-.709.642Zm3.077-2.37a9.05 9.05 0 0 0-1.044-.927c.223-.15.447-.3.66-.463.384.309.748.65 1.087 1.02a10.62 10.62 0 0 0-.703.37ZM49.28 46.681l1.793-2.35a10.798 10.798 0 0 1-1.792 2.35Zm-.003.005.005-.005a.043.043 0 0 1-.005.005Z"/>
  <path fill="#0A96E3" d="M51.188 43.397c0-.029-.002-.057-.003-.086l.012.072-.009.014Z"/>
  <path fill="#293241" d="M51.18 44.14c.012-.25.015-.498.008-.742l.008-.015.09.554a7.82 7.82 0 0 1-.106.203Z"/>
  <path fill="#0A96E3" d="M48.645 42.34a16.606 16.606 0 0 0-.057-.364c.013.026.026.053.04.078.004.093.01.188.017.287Z"/>
  <path fill="#CCCCE3" d="M48.634 47.271a16.13 16.13 0 0 0 .01-4.93 19.34 19.34 0 0 1-.017-.287 1.994 1.994 0 0 0 1.736 1.035c.259 0 .517-.054.759-.168.02.13.042.26.063.388l.003.089a9.45 9.45 0 0 1-.008.742 8.54 8.54 0 0 1-.106.19l-1.793 2.35-.004.006c-.206.204-.42.4-.643.585Zm4.042-16.001a91.209 91.209 0 0 0-.622-1.88v-.001l-.006-.017v-.004l-.007-.016v-.001a1.879 1.879 0 0 0-.02-.058l-.004-.013-.003-.009-.005-.012a.076.076 0 0 1-.003-.009L52 29.23l-.004-.011-.003-.01a.182.182 0 0 0-.004-.011.23.23 0 0 0-.008-.023l-.003-.008-.007-.021c-.035-.097-.07-.194-.103-.29a.376.376 0 0 0 .2-.168c.217-.37.407-.773.57-1.2.282.57.553 1.144.813 1.722a39.96 39.96 0 0 1-.774 2.06Zm-3.161-7.208a9.962 9.962 0 0 0-1.203-1.393c.655-.303 1.307-.58 1.964-.818-.01.267.01.536.06.793.056.293.142.576.248.85a9.774 9.774 0 0 0-1.07.568Z"/>
  <path fill="#293241" d="m52.866 31.864-.19-.593c.265-.652.53-1.349.774-2.06.08.177.16.354.237.532a43.276 43.276 0 0 1-.821 2.121Zm-4.553-9.194a8.742 8.742 0 0 0-.335-.304 25.022 25.022 0 0 1 2.348-.975 3.26 3.26 0 0 0-.05.46 24.85 24.85 0 0 0-1.964.819Z"/>
  <path fill="#CC5F45" d="M51.627 27.912a6.981 6.981 0 0 1-.166-.135c-.435-1.095-.923-2.133-1.513-3.072.31-.187.627-.354.952-.5.18.362.382.716.577 1.068.233.42.46.843.681 1.269a8.37 8.37 0 0 1-.531 1.37Z"/>
  <path fill="#293241" d="M51.867 28.856a35.74 35.74 0 0 0-.406-1.079c.055.046.11.091.166.135a8.27 8.27 0 0 0 .532-1.37c.163.314.323.63.48.948a8.223 8.223 0 0 1-.57 1.198.38.38 0 0 1-.202.168Zm-1.919-4.15a12.29 12.29 0 0 0-.432-.643 9.67 9.67 0 0 1 1.069-.567c.092.242.2.477.316.71a8.893 8.893 0 0 0-.953.5Zm-.251 15.76a.635.635 0 0 0-.32.105c-.453.267-.426.87-.323 2.209.073.945.167 2.166.029 3.664a23.796 23.796 0 0 0 1.724-2.374c.08-1.804-.378-3.206-.878-3.53a.412.412 0 0 0-.232-.074Zm-1.15 7.567a.361.361 0 0 1-.17-.042.396.396 0 0 1-.2-.417c.34-1.99.217-3.575.129-4.732-.109-1.41-.187-2.428.7-2.952.452-.268.92-.273 1.319-.015.978.634 1.321 2.639 1.227 4.344a.403.403 0 0 1-.06.192 24.584 24.584 0 0 1-2.674 3.502.368.368 0 0 1-.27.12Z"/>
  <path fill="#CCCCE3" d="M43.438 42.41c-.063 0-.126 0-.19-.002a2.66 2.66 0 0 0-1.576-.528c-.431 0-.86.108-1.26.309-.218-.033-.435-.07-.651-.11a3.03 3.03 0 0 0-.995-.218c-.115-.028-.23-.058-.345-.09-2.132-.579-4.177-1.61-5.87-3.065.29-.546.59-1.078.893-1.594a14.715 14.715 0 0 0 8.49 3.447h.019l.005.001h.008l.004.001h.01l.005.001h.011l.007.001h.01a14.2 14.2 0 0 0 4.328-.383c.069.67.179 1.34.331 2.01-1.073.14-2.154.22-3.234.22Z"/>
  <path fill="#CC5F45" d="M39.761 42.079a17.58 17.58 0 0 1-.994-.218c.338.014.673.09.994.218Z"/>
  <path fill="#293241" d="M46.672 42.19a16.64 16.64 0 0 1-.33-2.01c.13-.032.263-.066.394-.103.067.692.182 1.379.338 2.057-.134.02-.268.038-.402.056ZM32.55 38.706c-.105-.09-.209-.182-.31-.275.285-.534.584-1.064.893-1.59.102.092.205.182.31.27a43.173 43.173 0 0 0-.893 1.595Z"/>
  <path fill="#fff" d="M53.062 36.31c-7.731 7.885-20.99 4.3-24.022-5.994-.213-.723-.01-1.513.536-2.01.984-.899 1.924-1.9 2.88-2.882 2.553-2.63 5.206-5.134 9.05-5.22 6.468.018 8.782 4.154 10.464 8.942.56 1.592 1.049 3.258 1.599 4.867a2.25 2.25 0 0 1-.508 2.297Z"/>
  <path fill="#0A93E1" d="M47.13 39.962Z"/>
  <path fill="#293241" d="M46.736 40.077Z"/>
  <path fill="#A1A1CB" d="M42.936 40.593Z"/>
  <path fill="#293241" d="M46.342 40.18Z"/>
  <path fill="#A1A1CB" d="M42.01 40.564h-.007a.67.67 0 0 0 .008 0Zm-.008 0h-.007.007Zm-.01-.001h-.005.006Zm-.009 0-.005-.001h.005Zm-.009-.001h-.005.005Zm-.018-.001h-.004.004Zm-.01-.001h-.003.002Z"/>
  <path fill="#0A93E1" d="m51.769 37.484.005-.004-.005.004Zm.01-.007c0-.002.002-.003.004-.004l-.005.004Zm.01-.008c0-.002.002-.002.003-.003l-.004.003Zm.01-.009.002-.002-.003.002Zm1.269-1.156a2.25 2.25 0 0 0 .501-2.29 62.32 62.32 0 0 0 .441 1.236 15.24 15.24 0 0 1-.942 1.054Z"/>
  <path fill="#A1A1CB" d="M52.677 31.27Z"/>
  <path fill="#293241" d="m52.865 31.864-.19-.594.19.594Z"/>
  <path fill="#C9743F" d="M29.04 30.31a15.07 15.07 0 0 1-.313-1.267c.192-.157.382-.32.57-.486l.016.047a1.999 1.999 0 0 0-.273 1.706Z"/>
  <path fill="#A15D49" d="M29.312 28.605a3.32 3.32 0 0 0-.016-.048l.277-.248a1.78 1.78 0 0 0-.261.296Z"/>
  <path fill="#A1A1CB" d="m52.047 29.369-.006-.017.006.017Zm-.006-.017a2.3 2.3 0 0 1-.017-.05l.017.05Zm-.035-.1-.007-.02.007.02Z"/>
  <path fill="#C9C9E1" d="M42.935 40.593c-.308 0-.615-.01-.921-.03h-.02a.05.05 0 0 0-.006 0l-.003-.001h-.01l-.005-.001h-.014l-.004-.001h-.008l-.009-.001c-5.707-.394-11.1-4.141-12.897-10.249a1.998 1.998 0 0 1 .274-1.705c.075-.108.162-.207.26-.297.986-.898 1.927-1.9 2.884-2.884-.422.84-.87 1.664-1.327 2.458a3.531 3.531 0 0 0 .026 3.535c1.977 3.347 5.287 5.838 8.982 6.656a12.94 12.94 0 0 0 2.794.302c2.84 0 5.68-.905 8.014-2.549 1.008-.709 1.552-1.944 1.411-3.202l-.386-3.478a.488.488 0 0 0 .01.028l.005.014.003.01a.167.167 0 0 0 .004.012l.003.009.005.012.006.02.004.008.004.012.003.01.004.012.003.007.017.05v.002l.006.016.001.004c.002.005.005.01.006.017.215.62.42 1.25.622 1.881l.19.594.19.59c.167.523.337 1.044.513 1.56a2.252 2.252 0 0 1-.502 2.29c-.4.41-.818.79-1.247 1.138l-.01.008-.002.001-.007.007-.003.002-.007.005a.038.038 0 0 1-.004.003l-.005.004a.04.04 0 0 1-.004.004.046.046 0 0 0-.005.004l-.005.004a13.99 13.99 0 0 1-8.833 3.11Z"/>
  <path fill="#293241" d="M41.504 20.624c-3.927.089-6.644 2.902-9.27 5.622-.785.811-1.595 1.65-2.427 2.406a1.437 1.437 0 0 0-.408 1.452c1.354 4.709 5.03 8.29 9.836 9.58 1.235.331 2.479.494 3.705.494 3.672 0 7.187-1.456 9.851-4.18a1.8 1.8 0 0 0 .404-1.827c-.254-.743-.5-1.508-.736-2.248-1.853-5.8-3.605-11.278-10.955-11.299Zm1.438 20.394c-1.294 0-2.605-.17-3.908-.52-5.081-1.364-8.971-5.16-10.407-10.152-.24-.836.015-1.75.65-2.327.813-.738 1.614-1.568 2.388-2.37 2.74-2.836 5.572-5.769 9.831-5.865 7.94.023 9.866 6.047 11.728 11.874.235.736.478 1.496.73 2.231a2.666 2.666 0 0 1-.599 2.709c-2.817 2.88-6.533 4.42-10.413 4.42Z"/>
  <path fill="#293241" d="M42.832 33.708c-.05.184-.104.357-.16.52-.787 2.318-2.029 2.566-2.495 1.017-.152-.5-.222-1.186-.17-2.052.59.053 1.257-.258 1.508-.938.06.779.632 1.286 1.317 1.453Zm-2.015-2.373c.047-.299.419-.257.874-.18.455.077.821.158.775.457-.046.299-.487.702-.942.625-.456-.076-.753-.603-.707-.902Z"/>
  <path fill="#FF5228" d="M42.67 34.228c-.786 2.318-2.028 2.566-2.495 1.017.197-.772.827-1.337 1.575-1.337a1.5 1.5 0 0 1 .92.32Z"/>
  <path fill="#293241" d="M44.76 33.285c-.158.367-.492.643-.863.787a2.012 2.012 0 0 1-1.19.073 2.102 2.102 0 0 1-1.6-1.857l.789.12a1.898 1.898 0 0 1-.732.948 1.796 1.796 0 0 1-1.116.295 1.628 1.628 0 0 1-.575-.151 1.275 1.275 0 0 1-.487-.39 1.116 1.116 0 0 1-.218-.586.972.972 0 0 1 .123-.556.074.074 0 0 1 .104-.026.079.079 0 0 1 .029.03l.001.005c.077.156.15.284.23.382a.99.99 0 0 0 .246.22c.168.104.367.165.586.162.216-.001.439-.056.625-.164a.964.964 0 0 0 .421-.476l.01-.024a.4.4 0 0 1 .534-.222c.146.065.236.21.245.365a.99.99 0 0 0 .3.677c.184.178.432.289.693.362.261.073.54.103.827.094.29-.01.585-.058.927-.17l.002-.002c.039-.012.08.01.092.05a.08.08 0 0 1-.003.054Z"/>
  <path fill="#293241" d="M40.395 33.602c-.011.6.045 1.119.166 1.517.126.42.322.683.512.687h.005c.304 0 .813-.536 1.214-1.718l.037-.11a2.048 2.048 0 0 1-.949-.828 1.876 1.876 0 0 1-.986.452Zm.683 3.044h-.02c-.564-.011-1.025-.476-1.266-1.275-.177-.586-.24-1.328-.187-2.205a.427.427 0 0 1 .14-.291.392.392 0 0 1 .297-.1c.396.035.908-.16 1.097-.672a.4.4 0 0 1 .434-.265.414.414 0 0 1 .344.382c.06.788.785 1.025 1.006 1.079.108.026.2.097.256.196.056.099.07.218.04.328a9.11 9.11 0 0 1-.168.547c-.491 1.448-1.21 2.276-1.973 2.276Z"/>
  <path fill="#fff" d="M44.593 44.128c-1.971-4.143-6.315-2.029-6.423 2.042-.107 4.037 4.437 3.096 4.143-.283l2.28-1.759Z"/>
  <path fill="#293241" d="M39.045 48.705a1.32 1.32 0 0 1-.09-.43c-.01-.148.005-.296.027-.442a2.18 2.18 0 0 1 .292-.818.04.04 0 0 1 .056-.013c.01.007.017.019.018.03.04.285.072.548.118.803.021.127.05.251.067.375.019.124.038.246.036.375v.01a.279.279 0 0 1-.278.28.274.274 0 0 1-.246-.17Zm1.196.082a1.191 1.191 0 0 1-.07-.404 1.93 1.93 0 0 1 .043-.41c.055-.269.147-.529.301-.755a.04.04 0 0 1 .058-.01c.01.007.015.017.017.029.04.267.068.513.108.752.019.12.041.236.055.352.014.116.026.23.017.352v.009a.278.278 0 0 1-.294.264.276.276 0 0 1-.235-.179Z"/>
  <path fill="#fff" d="M32.336 43.99c.758-1.51 2.606-3.408 4.09-2.261 1.392 1.076 1.894 3.407 1.561 5.107-.577 2.945-4.53 2.524-3.925-1.342l-1.726-1.504Z"/>
  <path fill="#CCCCE3" d="M43.02 47.465c-.028-.14-.058-.281-.089-.421-.1-.456-.212-.915-.35-1.364l.235-.18c.143.116.305.206.482.255a.987.987 0 0 0 .736-.082.186.186 0 0 1 .088-.023c.13 0 .237.146.169.285a2.358 2.358 0 0 1-.2.334c-.193.27-.506.472-.822.472a.7.7 0 0 1-.211-.032 3.61 3.61 0 0 1-.037.756Z"/>
  <path fill="#CC5F45" d="M40.343 50.018c-.103 0-.205-.007-.306-.02-.823-.115-1.579-.727-1.835-1.55a3.117 3.117 0 0 1-.123-.936c.088-.537.09-1.104.045-1.66.015.054.032.108.051.16a5.104 5.104 0 0 0-.006.158c-.03 1.137.308 1.88.804 2.284.014.086.036.17.07.252a.274.274 0 0 0 .247.17h.004a.27.27 0 0 0 .227-.126 1.745 1.745 0 0 0 .733.067.273.273 0 0 0 .241.15.279.279 0 0 0 .273-.265l.001-.01v-.003c.906-.352 1.669-1.352 1.543-2.801l.268-.207c.138.448.25.907.35 1.364l.09.42a3.5 3.5 0 0 1-.182.697 6.65 6.65 0 0 0-.99 1.344c-.44.324-.971.512-1.505.512Z"/>
  <path fill="#CCCCE3" d="m41.85 49.505.018-.032a6.67 6.67 0 0 1 .972-1.311c-.131.35-.319.673-.561.95a2.72 2.72 0 0 1-.43.393Zm-1.804-.677c-.178 0-.354-.026-.524-.079a.293.293 0 0 0 .046-.155v-.009c.002-.129-.017-.251-.035-.375-.017-.124-.046-.248-.068-.375-.027-.156-.05-.315-.073-.48a1.83 1.83 0 0 0 .975.13 2.378 2.378 0 0 0-.153.487 1.93 1.93 0 0 0-.042.41 1.192 1.192 0 0 0 .083.435c-.07.007-.14.011-.209.011Zm.725-.14a1.823 1.823 0 0 0-.017-.348c-.014-.116-.037-.232-.056-.351-.03-.18-.053-.363-.08-.556a1.86 1.86 0 0 0 .92-.568c.376-.434.534-1.008.626-1.595a.201.201 0 0 1 .197-.173c.055 0 .11.024.149.077.09.122.191.233.306.325l-.235.181-.268.207c.126 1.45-.637 2.45-1.542 2.802Zm-1.797-.235c-.495-.404-.834-1.146-.804-2.283.001-.053.003-.106.006-.158.181.51.533.955.98 1.222-.085.189-.14.392-.174.6a2.022 2.022 0 0 0-.027.44c.004.06.01.12.02.18Z"/>
  <path fill="#293241" d="M39.295 48.876h-.004a.274.274 0 0 1-.246-.17 1.123 1.123 0 0 1-.07-.253 1.79 1.79 0 0 1 .007-.62c.034-.207.089-.41.174-.599.076.045.155.086.236.12.023.166.046.325.074.48.021.128.05.252.067.376.019.124.038.246.036.376v.009a.29.29 0 0 1-.047.154.27.27 0 0 1-.227.127Zm1.201.091-.02-.001a.274.274 0 0 1-.235-.18 1.184 1.184 0 0 1-.07-.404 1.925 1.925 0 0 1 .043-.41c.035-.168.084-.333.153-.488.085-.011.169-.028.251-.05.027.193.05.376.08.555.019.12.041.236.055.352.014.115.025.229.017.348v.013a.28.28 0 0 1-.274.265Z"/>
  <path fill="#CCCCE3" d="M34.113 49.413a2.296 2.296 0 0 1-.215-.168c-.842-.74-.876-2.17-.564-3.629a2.163 2.163 0 0 1-.489-.337c-.109-.108-.025-.286.108-.286a.16.16 0 0 1 .05.008.983.983 0 0 0 .523.027l.536.467c-.148.945-.023 1.685.258 2.22-.106.56-.176 1.128-.207 1.698Z"/>
  <path fill="#CC5F45" d="M35.67 49.885c-.552 0-1.11-.163-1.557-.472.03-.57.1-1.138.207-1.698.368.699 1.005 1.047 1.649 1.047.876 0 1.767-.644 2.018-1.926a5.83 5.83 0 0 0 .086-1.474c.021.162.038.325.052.49l-.004-.016c.042.554-.041 1.122-.041 1.675-.11.678-.356 1.308-.81 1.813-.439.38-1.017.56-1.6.56Z"/>
  <path fill="#CCCCE3" d="M35.97 48.762c-.645 0-1.281-.349-1.65-1.048-.28-.534-.406-1.274-.258-2.22l-.535-.466c.167-.038.33-.12.487-.243a.203.203 0 0 1 .126-.044c.11 0 .214.09.221.22.108 1.98.806 2.767 1.553 2.767 1.05 0 2.199-1.548 1.959-3.515.077.362.149.75.2 1.15a5.827 5.827 0 0 1-.086 1.473c-.25 1.282-1.141 1.926-2.017 1.926Z"/>
  <path fill="#A35090" d="M38.08 47.512c-.001-.554.082-1.122.04-1.676l.004.015a6.908 6.908 0 0 1-.045 1.66Z"/>
  <path fill="#293241" d="M44.544 44.153a8.236 8.236 0 0 0-.68-.86 4.1 4.1 0 0 0-.795-.663 2.47 2.47 0 0 0-1.855-.34c-.625.135-1.21.504-1.663 1.01a3.904 3.904 0 0 0-.572.858 4.33 4.33 0 0 0-.353.987 5.634 5.634 0 0 0-.124 1.053c-.003.352.032.7.12 1.02.09.318.235.605.438.822.207.21.467.356.757.402l.108.017.112.005c.074.008.149-.008.224-.01.149-.025.3-.05.444-.113.291-.11.555-.303.778-.538.115-.116.211-.252.303-.392.045-.07.084-.146.127-.22.034-.079.071-.157.104-.238.13-.324.201-.682.242-1.06a.055.055 0 0 1 .06-.051c.023.002.04.02.046.04.103.377.125.787.057 1.192-.07.404-.238.8-.492 1.134a2.468 2.468 0 0 1-.974.775 2.39 2.39 0 0 1-.605.183c-.106.009-.211.028-.319.023-.053-.001-.107 0-.161-.004l-.161-.02a1.03 1.03 0 0 1-.16-.03c-.054-.014-.107-.025-.16-.043-.102-.04-.207-.074-.303-.131a2.046 2.046 0 0 1-.53-.403 2.64 2.64 0 0 1-.598-1.148 4.512 4.512 0 0 1-.122-1.229 6.37 6.37 0 0 1 .157-1.197c.195-.78.537-1.533 1.06-2.15.261-.307.563-.582.905-.8.34-.218.722-.378 1.123-.455.4-.078.82-.067 1.216.033.395.103.767.29 1.078.545.315.25.574.56.785.889l.148.253c.046.086.085.176.126.263l.061.132.05.137c.034.09.063.182.094.273a.057.057 0 0 1-.032.072.053.053 0 0 1-.061-.02l-.003-.003Z"/>
  <path fill="#DDB39D" d="M16.707 34.962c.212-1.64 1.513-2.678 2.317-3.172 1.299-.796 2.903-1.213 4.355-1.213 1.009 0 1.944.201 2.652.617.413.248.743.533.984.847.006.106.008.213.007.32-.928-1.095-2.467-1.486-3.918-1.486-.38 0-.755.027-1.111.075-2.28.307-4.565 1.944-5.285 4.012Z"/>
  <path fill="#293241" d="M36.76 48.373c-.013-.128-.005-.25 0-.376.005-.124.021-.25.029-.38.017-.258.018-.522.02-.811 0-.024.02-.043.042-.043a.04.04 0 0 1 .03.015c.186.224.31.495.388.781.038.143.069.29.073.44.006.149-.004.3-.05.443a.271.271 0 0 1-.344.181.283.283 0 0 1-.187-.24v-.01Zm-1.403.231a1.79 1.79 0 0 1 .006-.348c.01-.115.03-.231.044-.35.032-.238.05-.483.081-.75a.041.041 0 0 1 .046-.038.042.042 0 0 1 .028.016c.162.218.264.472.328.737.031.133.054.27.056.406.001.137-.012.274-.058.405a.271.271 0 0 1-.351.17.285.285 0 0 1-.179-.238v-.01Z"/>
  <path fill="#293241" d="M32.28 43.96a4.904 4.904 0 0 1 .49-1.081c.204-.34.447-.661.73-.95.14-.144.293-.28.459-.404.164-.124.341-.237.535-.328.193-.091.4-.164.62-.205a1.876 1.876 0 0 1 1.335.246c.05.028.096.062.143.094l.07.05c.022.017.04.035.061.052.08.07.162.14.24.213.304.298.545.648.745 1.013.102.182.184.373.268.562l.108.29c.037.097.061.197.093.295.031.098.056.197.08.297.022.1.049.2.066.3l.058.303.041.305c.046.408.06.82.032 1.234l-.027.31-.045.311c-.016.104-.046.212-.068.318-.028.106-.065.21-.098.316a2.818 2.818 0 0 1-.742 1.112 2.272 2.272 0 0 1-1.218.555 2.093 2.093 0 0 1-1.307-.261c-.4-.218-.712-.58-.909-.977a2.856 2.856 0 0 1-.264-1.254c.006-.417.084-.82.224-1.192a.063.063 0 0 1 .083-.038c.023.01.038.033.04.058v.001c.027.391.06.767.142 1.118.08.352.201.677.374.95l.07.097a.655.655 0 0 0 .072.093l.075.089.083.08c.053.056.117.095.174.144.064.038.123.084.192.112.064.036.134.058.203.083.034.012.07.017.105.027l.053.013.054.008c.143.027.29.023.433.002a1.53 1.53 0 0 0 .789-.366c.224-.2.404-.463.527-.764.025-.079.056-.154.079-.234.019-.083.044-.16.06-.246l.045-.262.03-.266c.027-.357.02-.72-.015-1.08a5.22 5.22 0 0 0-.215-1.06 4.446 4.446 0 0 0-.419-.973 3.632 3.632 0 0 0-.623-.803c-.061-.055-.125-.106-.187-.16l-.046-.039-.046-.031c-.03-.021-.06-.045-.091-.06a1.213 1.213 0 0 0-.388-.156c-.268-.056-.567-.015-.865.102-.3.114-.59.304-.872.513-.56.433-1.063.98-1.525 1.585a.062.062 0 0 1-.09.011.07.07 0 0 1-.021-.072Zm-1.413 6.964c.286-.11.59-.18.9-.212.31-.027.625-.01.937.034.311.052.618.135.915.25a5.152 5.152 0 0 1 1.629 1.024c.117.114.235.227.344.348a6.243 6.243 0 0 1 1.23 2.089.415.415 0 0 1-.235.525.386.386 0 0 1-.482-.192v-.003c-.269-.526-.546-1.035-.878-1.502a7.226 7.226 0 0 0-.532-.665 5.781 5.781 0 0 0-.616-.58 5.561 5.561 0 0 0-.703-.474 4.929 4.929 0 0 0-.777-.345 4.386 4.386 0 0 0-.834-.187 4.282 4.282 0 0 0-.872.004h-.001a.057.057 0 0 1-.062-.052.06.06 0 0 1 .037-.062Zm9.62 2.233a7.422 7.422 0 0 1 .26-1.958c.086-.321.194-.635.33-.94.132-.307.29-.6.468-.879a5.7 5.7 0 0 1 1.303-1.451c.257-.195.526-.37.813-.506.287-.135.585-.237.888-.3.031-.007.06.014.067.046a.06.06 0 0 1-.031.064h-.002a5.26 5.26 0 0 0-.768.469 5.2 5.2 0 0 0-.661.595 6.028 6.028 0 0 0-1 1.459c-.265.529-.444 1.092-.585 1.671-.139.58-.221 1.174-.298 1.78v.002a.397.397 0 0 1-.442.352.405.405 0 0 1-.342-.404Zm-17.109-22.58c-1.452 0-3.056.418-4.355 1.214-.88.54-2.356 1.733-2.346 3.656.008.698.245 1.27.705 1.696.537.498 1.34.75 2.16.68 1.494-.917 2.566-1.917 2.577-1.927a.392.392 0 0 1 .322-.104c.017.002 1.743.221 4.126-.482.617-.527.969-1.305.921-2.048-.052-.81-.556-1.525-1.458-2.067-.707-.416-1.643-.618-2.652-.618Zm-4.101 8.097c-.92 0-1.806-.324-2.43-.903-.628-.581-.965-1.383-.975-2.317-.01-1.74.965-3.297 2.743-4.387 2.465-1.512 5.825-1.77 7.815-.602 1.131.68 1.792 1.653 1.862 2.74.067 1.042-.428 2.122-1.291 2.818a.392.392 0 0 1-.135.071c-2.157.651-3.804.594-4.344.55a18.792 18.792 0 0 1-2.65 1.951.393.393 0 0 1-.16.055c-.146.016-.29.024-.435.024Z"/>
  <path fill="#293241" d="M19.93 33.68a.582.582 0 0 1-.48-.256.632.632 0 0 1 .134-.858 4.975 4.975 0 0 1 2.911-.997h.007c.323 0 .586.271.59.609a.604.604 0 0 1-.585.622 3.819 3.819 0 0 0-2.234.764.57.57 0 0 1-.344.116Z"/>
  <path fill="#FF5228" d="M25.168 37.716c-.123 2.45-2.628 3.195-4.026 1.237-.385-.539-.686-1.283-.831-2.253 1.022-.865 2.702-1.48 4.349-1.369.398.91.543 1.712.508 2.385Z"/>
  <path fill="#D44725" d="M21.463 38.695a3.895 3.895 0 0 1-.457-.883c.779-.471 1.477-1.195 1.477-1.195s.106.003.282.003c.404 0 1.178-.014 1.873-.105.1.41.142.8.127 1.16a12.502 12.502 0 0 0-2-.01c-.436.336-.87.682-1.302 1.03Z"/>
  <path fill="#293241" d="M20.75 36.879c.267 1.429.954 2.43 1.864 2.702a1.56 1.56 0 0 0 1.67-.514c.607-.734.643-1.966.107-3.328-1.29-.027-2.671.405-3.641 1.14Zm2.326 3.61a2.39 2.39 0 0 1-.684-.1c-1.27-.379-2.197-1.734-2.479-3.624a.429.429 0 0 1 .144-.39c1.18-1 2.997-1.574 4.629-1.463.148.01.279.104.34.245.781 1.786.733 3.412-.131 4.459a2.348 2.348 0 0 1-1.819.874Zm1.094-11.137a.387.387 0 0 1-.139-.026.425.425 0 0 1-.24-.539c.627-1.793 1.741-2.073 2.83-2.205.22-.027.42.138.447.368a.417.417 0 0 1-.354.466c-.97.118-1.693.306-2.166 1.66a.404.404 0 0 1-.379.276Z"/>
  <path fill="#AA400B" d="m21.812 34.338-3.463 2.387c-.227 1.026.907 1.728 1.782 1.46 1.034-.203 2.351-1.568 2.351-1.568s2.25.055 3.179-.342c.85-.279 1.46-1.537.478-2.382l-4.327.445Z"/>
  <path fill="#883320" d="M18.634 37.767a2.63 2.63 0 0 1-1.251-.624 2.153 2.153 0 0 1-.667-1.256c.05.072.103.14.16.205.304.342.74.571 1.153.571.122 0 .243-.02.357-.064.02.02.04.04.062.058l-.099.068c-.091.414.039.776.285 1.042Z"/>
  <path fill="#293241" d="M19.28 38.253c-1.467 0-2.985-.909-3.005-2.804 0-.182.01-.358.032-.532.08.349.211.684.409.97.084.502.307.923.667 1.256.333.31.77.523 1.25.624.247.268.61.439.982.47-.111.01-.223.016-.335.016Z"/>
  <path fill="#883320" d="M26.588 35.291c.134-.451.041-.972-.443-1.392.261-.035.502-.223.643-.46.173-.289.222-.64.232-.982l.002-.096c.167.196.314.416.438.66.014.08.023.16.029.24.047.735-.296 1.504-.9 2.03Z"/>
  <path fill="#B18F94" d="M27.46 33.022a3.363 3.363 0 0 0-.438-.661 4.858 4.858 0 0 0-.007-.32c.232.303.382.632.444.98Z"/>
  <path fill="#293241" d="M26.31 35.817c.125-.154.222-.334.279-.526.605-.526.948-1.295.9-2.03a2.256 2.256 0 0 0-.474-1.22 4.891 4.891 0 0 0-.09-.7c1.551 1.416 1.058 3.361-.17 4.35a13.5 13.5 0 0 1-.445.126Z"/>
  <path fill="#883320" d="m25.973 33.911-.002-.012a.76.76 0 0 0 .063.006l-.061.006Z"/>
  <path fill="#883320" d="M19.615 38.237a1.53 1.53 0 0 1-.982-.47 1.134 1.134 0 0 1-.284-1.042l.099-.068c.302.265.695.388 1.094.388.33 0 .664-.084.955-.243.67-.363 1.132-1.048 1.418-1.776.378.386.96.428 1.49.447.152.005.305.01.459.01.425 0 .85-.038 1.235-.216.521-.24.948-.814.873-1.356l.062-.007a.609.609 0 0 0 .111-.005c.484.42.577.94.444 1.392a1.518 1.518 0 0 1-.28.526c-1.34.355-2.446.43-3.137.43-.5 0-.783-.04-.783-.04s-1.128 1.06-2.72 2.025a5.92 5.92 0 0 1-.054.005Z"/>
  <path fill="#FFD4AD" d="M19.035 44.774a3.82 3.82 0 0 1 .048-.198.03.03 0 0 0 .005-.006l.002-.003c.19-.278.374-.541.581-.774.21-.23.432-.433.672-.596a2.63 2.63 0 0 1 1.569-.475 2.849 2.849 0 0 1 1.565.525c.42.3.775.714 1.015 1.197a3.731 3.731 0 0 0-2.596-1.027c-1.073 0-2.146.446-2.86 1.357Z"/>
  <path fill="#AA400B" d="M12.33 24.54c-.593 3.928-.721 6.304-.59 9.54.022.513-.398.932-.888.874-1.667-.2-2.957-.996-3.58-1.689a1.88 1.88 0 0 1-.36-.545c-.223-.572-.164-3.392.76-5.428.733-1.616 2.71-2.779 4.698-3.009l-.04.258Z"/>
  <path fill="#293241" d="M13.815 32.239a.396.396 0 0 1-.316-.16.432.432 0 0 1 .066-.59c.879-.724 1.638-1.35 3.484-.532.205.09.3.337.214.55a.397.397 0 0 1-.529.223c-1.406-.623-1.855-.253-2.669.418a.392.392 0 0 1-.25.091Z"/>
  <path fill="#DDB39D" d="M7.331 31.152a3.758 3.758 0 0 1-.093-.285c.081-1.028.314-2.329.798-3.395.578-1.273 2.106-2.327 3.83-2.682l-.02.053c-.632.378-1.283.725-1.86 1.186-1.234.986-2.066 2.46-2.453 4.03-.089.36-.156.725-.202 1.093Z"/>
  <path fill="#293241" d="M22.52 36.981a.3.3 0 0 1-.282-.211l-1.323-4.068a.314.314 0 0 1 .187-.394.295.295 0 0 1 .378.195l1.323 4.067a.314.314 0 0 1-.187.395.29.29 0 0 1-.096.016Z"/>
  <path fill="#FFD4AD" d="M25.452 43.664c-.02-.416.028-.833.16-1.22.188-.57.53-1.07.968-1.429a2.64 2.64 0 0 1 .729-.424 2.708 2.708 0 0 1 .98-.172c.246 0 .497.029.752.082.302.069.605.174.918.291l.004.002a.064.064 0 0 0 .033.003l.057.039a3.757 3.757 0 0 0-.764-.078c-.899 0-1.8.315-2.506.897a4.247 4.247 0 0 0-1.331 2.009Z"/>
  <path fill="#293241" d="M11.887 24.786c-1.732.35-3.271 1.408-3.851 2.686-.876 1.932-.93 4.63-.75 5.09.225.582 1.625 1.738 3.613 1.975.154.019.26-.06.31-.108a.436.436 0 0 0 .13-.33c-.132-3.232.006-5.647.548-9.313Zm-.944 10.593c-.046 0-.09-.002-.136-.008-2.138-.255-3.88-1.492-4.269-2.493-.291-.75-.167-3.7.77-5.765.763-1.683 2.78-2.987 5.018-3.246a.394.394 0 0 1 .336.128.432.432 0 0 1 .106.356c-.61 3.978-.762 6.338-.625 9.712.016.37-.125.728-.386.981a1.17 1.17 0 0 1-.814.335Zm9.847 13.994c.427.209.83.47 1.214.763a8.68 8.68 0 0 1 1.075.984c.332.36.644.746.909 1.166.264.419.495.863.657 1.337a.427.427 0 0 1-.245.54.398.398 0 0 1-.486-.186l-.001-.003c-.224-.402-.434-.806-.664-1.2-.23-.395-.465-.789-.726-1.168a13.63 13.63 0 0 0-.842-1.1c-.3-.357-.62-.697-.956-1.034a.063.063 0 0 1-.001-.086.056.056 0 0 1 .066-.013Zm-1.825-4.858a5.52 5.52 0 0 1 .05-.256l.03-.129c.012-.041.026-.083.04-.125.028-.082.052-.169.086-.25l.11-.243c.16-.319.37-.62.632-.877a2.89 2.89 0 0 1 2.005-.82c.742-.006 1.464.272 2.042.72a4.521 4.521 0 0 1 1.34 1.71c.08.164.138.337.203.508.052.174.112.347.146.526.019.09.043.177.057.268l.042.275c.018.088.017.192.023.29.007.101-.003.197-.005.296-.02.393-.13.793-.324 1.15-.046.091-.106.174-.162.258-.064.079-.123.162-.196.233a2.276 2.276 0 0 1-2.691.478 2.35 2.35 0 0 1-.832-.742 2.461 2.461 0 0 1-.401-.993.072.072 0 0 1 .056-.084.068.068 0 0 1 .065.024v.001c.215.259.427.492.664.674.234.184.481.321.735.408.128.038.256.073.386.085.065.01.13.01.194.014.064-.003.13 0 .192-.01.255-.03.5-.118.71-.257.425-.278.695-.758.745-1.311.002-.07.014-.14.01-.208-.003-.068.003-.133-.01-.21l-.027-.223c-.01-.074-.028-.15-.041-.224-.025-.152-.073-.296-.11-.443-.051-.142-.097-.287-.163-.422a3.256 3.256 0 0 0-1.09-1.36 2.85 2.85 0 0 0-1.564-.524 2.627 2.627 0 0 0-1.57.474 3.888 3.888 0 0 0-.671.596 7.693 7.693 0 0 0-.58.774l-.003.003a.067.067 0 0 1-.096.017.073.073 0 0 1-.027-.07Z"/>
  <path fill="#293241" d="M22.822 46.826c.203.196.36.424.497.664.068.12.133.243.179.373.047.13.085.263.093.404a.282.282 0 0 1-.257.303.272.272 0 0 1-.258-.15l-.002-.004a1.771 1.771 0 0 1-.129-.364c-.034-.124-.054-.254-.078-.383a8.837 8.837 0 0 1-.113-.808.042.042 0 0 1 .037-.047.041.041 0 0 1 .031.012Zm1.329-.559c.221.185.394.418.536.67.07.125.136.256.18.395.044.138.077.28.077.429a.28.28 0 0 1-.275.284.273.273 0 0 1-.249-.169l-.002-.006a2.141 2.141 0 0 1-.11-.37c-.03-.124-.048-.254-.072-.383-.046-.26-.103-.523-.15-.81a.042.042 0 0 1 .033-.049.041.041 0 0 1 .032.009Zm5.809-5.474a7.202 7.202 0 0 0-.919-.291 3.554 3.554 0 0 0-.895-.079 2.693 2.693 0 0 0-.836.169 2.64 2.64 0 0 0-.729.424c-.439.36-.78.86-.968 1.43-.194.569-.209 1.203-.086 1.806.066.302.165.596.29.88.032.07.07.136.102.204l.052.102c.017.033.038.059.056.088l.056.087.066.084c.041.058.09.108.137.16.38.406.903.622 1.416.585.256-.022.507-.1.727-.241a1.87 1.87 0 0 0 .562-.575c.156-.236.267-.517.35-.821.086-.305.131-.633.174-.98v-.001a.07.07 0 0 1 .077-.063.07.07 0 0 1 .055.043c.137.33.21.69.218 1.066a2.62 2.62 0 0 1-.225 1.127c-.319.733-1.061 1.285-1.86 1.358-.2.017-.4.018-.597-.018-.1-.012-.195-.041-.292-.064-.093-.032-.19-.057-.28-.101a2.652 2.652 0 0 1-.95-.696 2.478 2.478 0 0 1-.184-.229l-.085-.118-.079-.128c-.025-.043-.054-.086-.075-.128l-.06-.127c-.038-.086-.081-.17-.117-.256a5.944 5.944 0 0 1-.328-1.063c-.136-.735-.136-1.513.083-2.248.21-.73.631-1.42 1.242-1.887.078-.054.154-.114.235-.163.083-.047.163-.1.249-.141.086-.039.172-.08.26-.115l.269-.09a2.774 2.774 0 0 1 1.108-.078c.364.049.71.167 1.025.332l.228.135c.076.045.143.104.214.154.07.051.138.107.201.168.064.06.127.12.187.182a.073.073 0 0 1 .002.1.066.066 0 0 1-.073.018l-.003-.001Z"/>
  <path fill="#293241" d="M27.563 47.187a.148.148 0 0 1-.155-.049l-.082-.097c-.083-.1-.14-.215-.185-.335a1.963 1.963 0 0 1-.095-.376 2.274 2.274 0 0 1-.002-.78.042.042 0 0 1 .049-.034c.01.002.02.009.026.018.144.215.26.422.381.622.06.1.12.198.171.299.052.101.098.203.127.318l-.236-.146h.001a.29.29 0 0 1 .196.355.285.285 0 0 1-.196.205Zm.772-2.239c.15.23.28.449.412.66.065.105.135.206.193.312.058.106.115.21.154.33l.003.007a.289.289 0 0 1-.172.362.267.267 0 0 1-.285-.071 1.248 1.248 0 0 1-.218-.35 2.019 2.019 0 0 1-.122-.4 2.367 2.367 0 0 1-.04-.832.041.041 0 0 1 .046-.036.044.044 0 0 1 .029.018Zm-9.76-8.58c.008.25.056.474.147.666.088.191.214.352.36.477.145.125.312.212.474.255a.78.78 0 0 0 .455-.01l.041-.01a2.51 2.51 0 0 0 .542-.22c.187-.096.375-.212.56-.337a6.988 6.988 0 0 0 1.045-.87.389.389 0 0 1 .285-.123h.009a13.747 13.747 0 0 0 1.562-.07c.258-.027.513-.06.76-.103.123-.024.244-.046.36-.074.116-.028.226-.062.32-.097l.035-.014a.836.836 0 0 0 .385-.256 1.1 1.1 0 0 0 .235-.456 1.3 1.3 0 0 0 .017-.567 2.21 2.21 0 0 0-.246-.642l-.001-.003a.076.076 0 0 1 .028-.1.067.067 0 0 1 .059-.005c.245.094.475.27.637.52.164.25.253.57.239.892-.013.322-.127.64-.316.904a1.598 1.598 0 0 1-.774.587l.035-.014c-.154.07-.302.114-.447.15a4.565 4.565 0 0 1-.427.086 8.416 8.416 0 0 1-.835.083 25.156 25.156 0 0 1-1.645.021l.294-.122c-.186.187-.362.351-.55.52a9.533 9.533 0 0 1-.58.481 4.989 4.989 0 0 1-.647.425 2.615 2.615 0 0 1-.78.283l.042-.01a1.439 1.439 0 0 1-.958-.068 1.688 1.688 0 0 1-.707-.57 1.668 1.668 0 0 1-.312-.83 1.42 1.42 0 0 1 .17-.816.068.068 0 0 1 .095-.025.074.074 0 0 1 .034.06v.002Zm22.661 14.429-.021-.004c.005 0 .01 0 .02.004Z"/>
  <path fill="#CC763E" d="M27.666 46.444c-.05-.097-.108-.191-.165-.288l-.123-.207c.264-.004.525-.069.743-.22.051-.037.1-.077.144-.12.01.064.021.127.034.19.03.136.066.272.123.399l.002.006a1.599 1.599 0 0 1-.758.24Zm-.616-.088a1.877 1.877 0 0 1-.764-.5c-.047-.05-.096-.101-.137-.16l-.066-.083-.056-.087c-.018-.03-.04-.055-.056-.088v-.001c.303.245.662.415 1.04.482 0 .138.014.275.035.411l.005.026Z"/>
  <path fill="#293241" d="M27.207 46.86a1.726 1.726 0 0 1-.617-.193c-.752-.404-1.137-1.288-1.34-2.188.156.377.409.706.72.958.017.034.038.06.057.09l.056.086.066.084c.041.058.09.108.137.16.217.232.481.402.764.498.02.12.048.239.09.35.02.053.042.105.067.154Zm.555-.017a.296.296 0 0 0-.07-.135l.105.065a1.491 1.491 0 0 0-.126-.318l-.006-.011.037-.002a1.6 1.6 0 0 0 .722-.238c.047.104.102.206.173.295-.25.176-.538.293-.835.344Z"/>
  <path fill="#293241" d="M27.428 46.872c-.074 0-.147-.004-.22-.013a1.497 1.497 0 0 1-.067-.153 1.924 1.924 0 0 1-.09-.35l-.005-.026a2.704 2.704 0 0 1-.035-.411l.058.01c.091.013.185.02.279.02h.03c.04.07.081.139.122.207.058.097.116.19.166.288a1.494 1.494 0 0 1 .132.33l-.105-.066a.297.297 0 0 1 .07.135c-.112.02-.223.029-.335.029Z"/>
  <path fill="#CC763E" d="m28.867 45.797-.12-.19c-.072-.113-.143-.23-.216-.348a2.83 2.83 0 0 0 .199-.436 4.9 4.9 0 0 0 .287-1.396c.02-.337.282-.613.602-.613l.03.001a1.017 1.017 0 0 0 .19-.007c-.32.9-.6 1.828-.826 2.783l-.022.034c-.04.06-.08.118-.124.172Z"/>
  <path fill="#CCCCE3" d="M30.475 43.442c.112-.33.23-.655.353-.978 0 .275-.072.55-.212.784a1.384 1.384 0 0 1-.141.194Z"/>
  <path fill="#293241" d="M29.014 45.59c.226-.955.505-1.883.825-2.783a.97.97 0 0 0 .202-.05c.35-.127.624-.463.687-.845.068.175.102.363.101.552-.123.322-.24.648-.353.978a1.437 1.437 0 0 1-.787.468 2.53 2.53 0 0 0-.04-.106.07.07 0 0 0-.056-.044h-.009a.07.07 0 0 0-.068.063v.002a6.631 6.631 0 0 1-.174.98 2.92 2.92 0 0 1-.328.785Z"/>
  <path fill="#293241" d="M29.028 46.09a3.104 3.104 0 0 0-.162-.293 2.62 2.62 0 0 0 .147-.207c.144-.228.248-.497.328-.786a6.74 6.74 0 0 0 .173-.98.07.07 0 0 1 .078-.063.07.07 0 0 1 .055.043c.014.035.028.07.04.106a1.3 1.3 0 0 1-.176.024c.15.747-.02 1.571-.483 2.157Z"/>
  <path fill="#293241" d="M28.598 46.5a1.34 1.34 0 0 1-.176-.303 2.01 2.01 0 0 1-.122-.398 2.904 2.904 0 0 1-.034-.19c.104-.102.191-.221.266-.35.073.118.143.234.215.348l.12.19a3.204 3.204 0 0 1 .162.293 2.023 2.023 0 0 1-.43.409Z"/>
  <path fill="#0A96E3" d="m12.284 23.664.146-.384-.032.23a11.5 11.5 0 0 0-.114.154Z"/>
  <path fill="#293241" d="m12.202 23.882.082-.218c.038-.052.075-.103.114-.154l-.046.354a8.074 8.074 0 0 0-.15.018Z"/>
  <path fill="#883320" d="M10.945 34.54a.35.35 0 0 1-.046-.003C8.91 34.3 7.51 33.144 7.285 32.563a.807.807 0 0 1-.036-.144c.003-.424.029-.847.082-1.267.284.76.8 1.337 1.556 1.337.227 0 .475-.051.744-.165.692-.435.8-1.411.876-2.249.156-1.715.723-3.533 1.339-5.232l.036-.021c-.538 3.646-.675 6.055-.543 9.277a.435.435 0 0 1-.13.33.38.38 0 0 1-.264.11Z"/>
  <path fill="#B18F94" d="M7.249 32.419c-.052-.292-.066-.86-.011-1.552.027.098.058.193.093.285-.053.42-.08.843-.082 1.267Zm4.597-7.576.02-.052.02-.005a.209.209 0 0 1-.004.035l-.036.022Z"/>
  <path fill="#293241" d="M10.51 34.836c-1.075 0-2.456-.723-3.018-1.301-1.141-1.328-.751-3.282-.32-4.844-.156.65-.136 1.466.066 2.176-.055.691-.041 1.26.01 1.551.011.06.024.11.037.145.226.58 1.626 1.736 3.614 1.973a.38.38 0 0 0 .31-.107.436.436 0 0 0 .13-.331c-.132-3.222.005-5.63.543-9.277l.005-.036-.022.005c.111-.307.225-.61.337-.908a8.076 8.076 0 0 1 .15-.018c-.247 2.015-.3 4.193-.497 6.164-.313 3.123.376 3.997-.469 4.575-.24.164-.544.233-.876.233Zm26.105-5.956c-.385 1.125-.102 2.258.633 2.532.734.274 1.642-.416 2.027-1.54.386-1.125.102-2.259-.632-2.532-.735-.274-1.643.416-2.028 1.54Z"/>
  <path fill="#fff" d="M38.011 28.977c-.112.329-.03.66.185.74.215.08.48-.122.592-.45.113-.329.03-.66-.185-.74-.214-.08-.48.122-.592.45Z"/>
  <path fill="#293241" d="M48.217 31.982c-.288 1.156-1.133 1.928-1.888 1.724-.755-.204-1.134-1.306-.848-2.462.288-1.156 1.133-1.928 1.888-1.724.755.204 1.135 1.306.848 2.462Z"/>
  <path fill="#fff" d="M47.009 31.245c-.084.337-.33.563-.551.503-.221-.059-.332-.381-.248-.719.084-.337.33-.563.551-.503.221.06.332.381.248.719Z"/>
</svg>
