<svg xmlns="http://www.w3.org/2000/svg" width="586" height="101" fill="none" viewBox="0 0 586 101">
  <path fill="#fff" d="M44.414 79H5.195V22.984h11.211V67.79h28.008V79Zm44.063-21.29c0 3.126-.56 6.043-1.68 8.75-1.12 2.683-2.643 5.014-4.57 6.993-1.928 1.953-4.193 3.503-6.797 4.649-2.578 1.12-5.352 1.68-8.32 1.68-2.943 0-5.717-.56-8.32-1.68a22.368 22.368 0 0 1-6.798-4.649c-1.927-1.979-3.45-4.31-4.57-6.992-1.12-2.708-1.68-5.625-1.68-8.75 0-3.177.56-6.12 1.68-8.828 1.12-2.709 2.643-5.04 4.57-6.992a21.478 21.478 0 0 1 6.797-4.649c2.604-1.12 5.378-1.68 8.32-1.68 2.97 0 5.743.534 8.32 1.602 2.605 1.042 4.87 2.54 6.798 4.492 1.927 1.927 3.45 4.258 4.57 6.992 1.12 2.709 1.68 5.73 1.68 9.063Zm-10.743 0c0-1.718-.286-3.267-.859-4.648-.547-1.406-1.302-2.604-2.266-3.593a9.486 9.486 0 0 0-3.398-2.305 10.3 10.3 0 0 0-4.102-.82 10.58 10.58 0 0 0-4.14.82 9.568 9.568 0 0 0-3.36 2.305c-.937.99-1.68 2.187-2.226 3.593-.547 1.38-.82 2.93-.82 4.649 0 1.614.273 3.112.82 4.492.547 1.38 1.289 2.578 2.226 3.594a11.076 11.076 0 0 0 3.36 2.422c1.302.573 2.682.86 4.14.86a10.3 10.3 0 0 0 4.102-.821 10.206 10.206 0 0 0 3.398-2.305c.964-.99 1.72-2.187 2.266-3.594.573-1.406.86-2.955.86-4.648ZM105 79 89.062 37.164h12.149l9.141 26.094 9.101-26.094h12.188L115.703 79H105Zm46.094-10.234c.416.13.833.221 1.25.273.416.026.833.04 1.25.04 1.041 0 2.044-.144 3.008-.43.963-.287 1.862-.69 2.695-1.212a10.21 10.21 0 0 0 2.265-1.953 10.295 10.295 0 0 0 1.641-2.578l7.813 7.852a20.68 20.68 0 0 1-3.438 3.789 20.785 20.785 0 0 1-4.18 2.851 19.79 19.79 0 0 1-4.726 1.758 20.548 20.548 0 0 1-5.078.625c-2.943 0-5.716-.547-8.321-1.64a21.253 21.253 0 0 1-6.796-4.57c-1.928-1.954-3.451-4.272-4.571-6.954-1.12-2.708-1.679-5.677-1.679-8.906 0-3.307.559-6.328 1.679-9.063 1.12-2.734 2.643-5.065 4.571-6.992a21.039 21.039 0 0 1 6.796-4.492c2.605-1.068 5.378-1.602 8.321-1.602 1.745 0 3.45.209 5.117.626a21.099 21.099 0 0 1 4.727 1.796 20.912 20.912 0 0 1 4.218 2.891 20.68 20.68 0 0 1 3.438 3.79l-20 24.1Zm5.468-21.993a6.13 6.13 0 0 0-1.484-.351 13.444 13.444 0 0 0-1.484-.078 10.58 10.58 0 0 0-4.141.82 9.813 9.813 0 0 0-3.359 2.266c-.938.99-1.68 2.187-2.227 3.593-.547 1.38-.82 2.943-.82 4.688 0 .39.013.833.039 1.328.052.495.117 1.003.195 1.523.104.495.222.977.352 1.446.13.469.299.885.508 1.25l12.421-16.485Zm163.259 27.344a29.667 29.667 0 0 1-2.773 2.227 22.295 22.295 0 0 1-3.047 1.797 18.65 18.65 0 0 1-3.32 1.171c-1.12.313-2.266.47-3.438.47-2.578 0-5-.456-7.265-1.368a18.317 18.317 0 0 1-5.977-3.867c-1.693-1.693-3.034-3.737-4.023-6.133-.964-2.422-1.446-5.13-1.446-8.125V37.164h10.625V60.29c0 1.406.209 2.67.625 3.79.443 1.093 1.029 2.017 1.758 2.773a7.316 7.316 0 0 0 2.539 1.718 8.54 8.54 0 0 0 3.164.586 6.658 6.658 0 0 0 3.086-.742 8.9 8.9 0 0 0 2.578-2.031 9.73 9.73 0 0 0 1.719-2.813 8.946 8.946 0 0 0 .625-3.28V37.163h10.664V79h-2.578l-3.516-4.883ZM344.743 79h-10.664V37.164h2.578l3.516 4.961a18.343 18.343 0 0 1 5.859-3.594 18.431 18.431 0 0 1 6.797-1.289h9.414v10.625h-9.414a8.07 8.07 0 0 0-3.164.625 7.99 7.99 0 0 0-2.578 1.719 7.996 7.996 0 0 0-1.719 2.578 8.063 8.063 0 0 0-.625 3.164V79Zm-61.735-30.487c0 17.399-14.104 31.504-31.504 31.504-17.399 0-31.504-14.105-31.504-31.504 0-17.4 14.105-31.505 31.504-31.505 17.4 0 31.504 14.105 31.504 31.505Z"/>
  <path fill="#3D5A80" d="M228.535 49.038c0-12.976 10.518-23.495 23.494-23.495 12.976 0 23.495 10.519 23.495 23.495s-10.519 23.494-23.495 23.494-23.494-10.518-23.494-23.494Z"/>
  <path fill="#FF9331" d="M253.05 65.28c-.128 2.56-.764 4.95-2.052 6.817a21.391 21.391 0 0 1-1.302-.084c-6.176-.582-11.653-3.694-15.47-8.331.171-.948.389-1.902.596-2.857.157-.723.309-1.447.429-2.173.254-1.517.375-3.038.139-4.556 4.21-1.794 8.858-2.92 13.562-3.319a18.89 18.89 0 0 1 1.429 2.386c1.789 3.525 2.872 8.038 2.669 12.117Z"/>
  <path fill="#CC763E" d="M243.294 66.504c-1.108 0-2.275-.803-2.702-2.645a.944.944 0 0 1-.465.119c-.288 0-.581-.119-.812-.306-.172-.14-.071-.413.13-.413.014 0 .029.001.045.004a1.242 1.242 0 0 0 .959-.233.508.508 0 0 1 .308-.104c.153 0 .305.068.412.197.631.758 1.328 1.108 1.942 1.108.868 0 1.571-.7 1.687-1.94.016.063.03.125.041.189.013.075.032.15.041.224l.027.223c.013.077.007.142.01.21.004.068-.008.139-.01.208-.05.553-.32 1.033-.744 1.311-.211.14-.455.227-.71.256-.064.01-.128.008-.193.01-.064-.004-.129-.003-.194-.013a2.024 2.024 0 0 1-.386-.085 2.494 2.494 0 0 1-.735-.408 4.261 4.261 0 0 1-.663-.674l-.001-.001a.07.07 0 0 0-.064-.024.072.072 0 0 0-.057.084c.057.349.193.69.401.993.209.303.495.563.832.742.314.162.668.245 1.026.245a2.25 2.25 0 0 0 1.201-.342c.168-.106.328-.231.464-.381.073-.07.132-.154.196-.233.056-.084.116-.167.162-.258.106-.195.187-.403.242-.616-.04 1.599-1.181 2.552-2.39 2.553Zm-7.633-7.86c.055-.334.103-.67.143-1.005 1.515-.156 3.014-.864 4.169-1.563.191-.116.376-.233.552-.35.451.851 1.096 1.441 1.867 1.671a2.348 2.348 0 0 0 2.503-.773c.572-.693.786-1.639.64-2.717a15.683 15.683 0 0 0 2.239-.49c.697-.21 1.323-.464 1.877-.757.125.224.247.454.366.689-1.149.57-2.354.983-3.59 1.215.011 1.387-.829 2.806-2.076 3.39a3.253 3.253 0 0 1-1.382.302 3.44 3.44 0 0 1-2.425-.99 10.87 10.87 0 0 1-4.883 1.378Z"/>
  <path fill="#293241" d="M234.658 63.561c3.876 4.632 9.222 7.482 15.073 8.033.354.034.71.059 1.062.074 1.615-2.472 2.217-6.078 1.695-10.188-.474-3.735-1.863-7.551-3.729-10.265-4.491.404-8.948 1.49-12.926 3.147.295 2.397-.23 4.79-.739 7.107a69.02 69.02 0 0 0-.436 2.092Zm16.339 8.956h-.013a21.837 21.837 0 0 1-1.326-.086c-6.125-.577-11.715-3.587-15.739-8.475a.438.438 0 0 1-.09-.352c.14-.774.313-1.56.48-2.322.514-2.346 1.047-4.772.683-7.119a.423.423 0 0 1 .245-.455c4.192-1.788 8.924-2.946 13.682-3.35a.394.394 0 0 1 .356.17c4.1 5.78 5.949 16.16 2.049 21.814a.398.398 0 0 1-.327.175Z"/>
  <path fill="#FF9331" d="M247.662 53.013c-2.544.768-5.172.676-5.172.676s-1.128 1.06-2.719 2.024c-2.942 1.783-7.466 3.236-9.353-2.957-.78-2.558-.612-5.584.36-8.319 1.169-3.292 3.503-6.159 6.751-7.272 2.358-.808 4.829-.566 7.066.37 3.405 1.425 6.268 4.457 7.352 7.843 1.502 4.695-1.335 6.744-4.285 7.635Z"/>
  <path fill="#FFD4AD" d="M232.575 42.676c.057-.406.119-.83.187-1.273 1.212-1.747 2.858-3.142 4.893-3.839a8.665 8.665 0 0 1 2.822-.466c1.027 0 2.048.175 3.033.49a.361.361 0 0 0 .047.051c.171.157.336.311.498.462a10.315 10.315 0 0 0-3.062-.48c-.99 0-1.985.155-2.961.49-2.312.792-4.162 2.474-5.457 4.565Z"/>
  <path fill="#CC763E" d="M235.212 56.831a3.926 3.926 0 0 1-1.476-.27c-1.313-.53-2.301-1.852-2.935-3.931a11.251 11.251 0 0 1-.075-.26l.081.01a1.149 1.149 0 0 0 .582-.083c.495 1.32 1.245 2.452 2.319 3.253a4.07 4.07 0 0 0 1.772.413c.786 0 1.544-.232 2.287-.59.384.168.806.27 1.241.3-1.124.615-2.488 1.158-3.796 1.158Zm12.189-4.177c.417-.46.705-1.02.829-1.604.422-.198.804-.48 1.12-.896.173-.309.292-.644.365-1 .279.62.597 1.212.951 1.772-.733.715-1.776 1.28-3.116 1.684l-.149.044Zm1.895-7.089c-.486-1.43-1.274-2.941-2.16-4.377.987 1.093 1.86 2.19 2.83 3.529.034.046.07.09.109.13-.165.158-.332.314-.499.467l-.004.003a16.25 16.25 0 0 1-.276.248Z"/>
  <path fill="#293241" d="M240.477 37.099a8.66 8.66 0 0 0-2.822.466c-5.836 2-8.476 9.74-6.853 15.065.634 2.08 1.621 3.402 2.934 3.93 1.905.767 4.223-.235 5.832-1.21a17.776 17.776 0 0 0 2.653-1.972.391.391 0 0 1 .283-.108c.025.001 2.597.08 5.046-.66 1.988-.6 3.321-1.55 3.962-2.824.576-1.145.594-2.583.053-4.274-1.423-4.443-6.186-8.413-11.088-8.413Zm-5.272 20.572c-.597 0-1.19-.098-1.759-.327-1.552-.624-2.7-2.125-3.412-4.46-.867-2.846-.607-6.376.697-9.443 1.409-3.312 3.778-5.682 6.672-6.674 2.89-.99 6.119-.538 9.094 1.275 2.742 1.67 4.923 4.364 5.832 7.204.613 1.916.579 3.575-.103 4.93-.747 1.484-2.245 2.575-4.452 3.242-2.244.677-4.516.702-5.136.695a18.727 18.727 0 0 1-2.665 1.963c-1.306.792-3.054 1.595-4.768 1.595Z"/>
  <path fill="#AA400B" d="M253.242 40.787c-.033.943-.537 2.462-1.736 3.76a.784.784 0 0 1-1.218-.085c-1.851-2.553-3.387-4.288-6.176-6.872l-.222-.205a1.68 1.68 0 0 1-.067-.062l.061-.04c1.666-1.11 3.866-1.507 5.399-.757 1.956.958 3.722 3.094 3.9 3.683.045.15.066.347.059.578Z"/>
  <path fill="#DDB39D" d="M251.963 39.795c-.32-.245-.641-.487-.963-.728-.802-.597-1.628-1.193-2.569-1.498a5.764 5.764 0 0 0-1.793-.26c-.669 0-1.345.085-2.015.195l-.122-.114c.954-.54 2.014-.826 2.975-.826.601 0 1.163.112 1.635.343 1.138.557 2.213 1.542 2.907 2.33-.02.186-.039.372-.055.558Z"/>
  <path fill="#293241" d="M244.502 37.39c2.655 2.468 4.236 4.239 6.107 6.82.072.099.182.16.302.168a.378.378 0 0 0 .305-.122c1.388-1.502 1.762-3.323 1.582-3.92-.144-.476-1.832-2.521-3.687-3.43-1.227-.6-3.06-.394-4.609.484Zm6.433 7.829c-.024 0-.048 0-.072-.002a1.203 1.203 0 0 1-.897-.5c-1.953-2.695-3.511-4.415-6.41-7.078a.428.428 0 0 1 .046-.667c1.884-1.285 4.236-1.617 5.852-.826 1.982.971 3.879 3.165 4.112 3.937.311 1.03-.277 3.14-1.77 4.755-.226.244-.536.38-.861.38Z"/>
  <path fill="#AA400B" d="M247.808 51.092a3.106 3.106 0 0 1-1.053 1.607c-2.544.767-4.366.517-4.366.517s-1.128 1.06-2.72 2.024c-1.262.14-2.667-.406-3.187-1.692a2.96 2.96 0 0 1-.207-1.09 4.03 4.03 0 0 1 .032-.532c.505-4.02 6.923-5.85 9.925-4.087.265.159.496.33.692.51.912.833 1.117 1.847.884 2.743Z"/>
  <path fill="#fff" d="M273.687 46.75a40.417 40.417 0 0 1-1.187 2.964c-3.082-2.18-5.77-5.463-6.767-9.232 1.539-.779 3.045-1.542 4.593-2.083a14.08 14.08 0 0 1 2.445-.628c3.643-.502 2.315 5.063.916 8.98Z"/>
  <path fill="#293241" d="M266.215 40.704c.921 3.128 3.126 6.145 6.122 8.379 1.5-3.448 3.155-8.752 1.994-10.41-.297-.426-.791-.584-1.508-.486-2.27.355-4.385 1.395-6.608 2.517Zm6.449 9.633-.389-.275c-3.46-2.447-5.986-5.898-6.931-9.469l-.089-.337.35-.177c2.375-1.2 4.619-2.335 7.106-2.724 1.028-.141 1.79.136 2.271.822 1.881 2.688-1.702 10.8-2.117 11.716l-.201.444Z"/>
  <path fill="#EE6C4D" d="M271.746 45.493c.7-1.199 1.208-2.962 1.192-4.857-.002-.232-.208-.406-.425-.36a9.068 9.068 0 0 0-3.641 1.705c.641 1.403 1.629 2.63 2.874 3.512Z"/>
  <path fill="#CC763E" d="M249.057 71.52c-5.587-.7-10.672-3.506-14.399-7.959.128-.679.279-1.372.427-2.045.477 1.21 1.043 2.374 1.826 3.392 1.152 1.498 2.88 2.644 4.675 2.644.191 0 .383-.013.575-.04.966.65 2.122.932 3.279.932a7.46 7.46 0 0 0 1.025-.072 9.634 9.634 0 0 0 1.919-.487v.148a10.87 10.87 0 0 0 .673 3.487Z"/>
  <path fill="#293241" d="M249.232 71.964c-5.986-.69-11.284-3.761-15.006-8.282.171-.949.389-1.902.596-2.858.085.232.172.462.263.692a69.664 69.664 0 0 0-.427 2.045c3.728 4.453 8.812 7.26 14.399 7.959.055.149.114.297.175.444Zm20.121-29.859a8.362 8.362 0 0 0 2.274 2.815c.6-1.198.946-2.754.937-4.255a8.684 8.684 0 0 0-3.211 1.44Zm2.395 3.779a.366.366 0 0 1-.211-.068c-1.283-.907-2.321-2.176-3.002-3.667a.402.402 0 0 1 .116-.483 9.47 9.47 0 0 1 3.789-1.774.705.705 0 0 1 .604.156c.17.144.269.357.271.584.015 1.836-.439 3.681-1.246 5.064a.38.38 0 0 1-.321.188Z"/>
  <path fill="#fff" d="M269.043 64.093c-4.239 4.923-10.39 8.02-17.235 8.02a22.38 22.38 0 0 1-2.113-.1 10.4 10.4 0 0 1-.801-2.77c-.06-.4-.095-.807-.107-1.221-.036-4.535 1.363-8.673 3.453-12.582a52.984 52.984 0 0 1 2.826-4.639c3.403 2.37 7.617 3.442 11.704 3.084-.217 1.756-.093 3.537.305 5.258a18.095 18.095 0 0 0 1.968 4.95Zm-8.134-24.859c-2.074 2.752-5.381 4.493-8.65 5.182-.034-.81-.048-2.202.045-3.706.223-3.606 1.06-7.854 3.694-6.251.657.415 1.264.9 1.842 1.43 1.086.996 2.067 2.159 3.069 3.345Z"/>
  <path fill="#293241" d="M254.938 34.531a.931.931 0 0 0-.506.147c-1.485.936-1.877 5.846-1.788 9.22 3.171-.764 5.953-2.436 7.737-4.653-1.452-1.715-2.846-3.322-4.592-4.427-.314-.191-.596-.287-.851-.287Zm-3.061 10.393-.021-.49c-.038-.909-.306-8.922 2.16-10.475.439-.277 1.175-.478 2.185.137 1.935 1.224 3.413 2.972 4.978 4.823l.254.3-.207.274c-1.971 2.615-5.21 4.56-8.887 5.334l-.462.097Z"/>
  <path fill="#EE6C4D" d="M254.599 41.815c-.332-1.36-.321-3.2.228-5.007a.352.352 0 0 1 .508-.214 9.361 9.361 0 0 1 3 2.744c-1.007 1.145-2.298 2.017-3.736 2.477Z"/>
  <path fill="#293241" d="M255.177 36.95c-.431 1.433-.538 3.026-.302 4.355a8.053 8.053 0 0 0 2.966-1.995 8.973 8.973 0 0 0-2.664-2.36Zm-.579 5.256a.36.36 0 0 1-.183-.05.387.387 0 0 1-.18-.244c-.383-1.57-.297-3.473.234-5.223a.749.749 0 0 1 .423-.476.703.703 0 0 1 .622.037c1.2.68 2.28 1.667 3.122 2.855a.403.403 0 0 1-.025.497 8.8 8.8 0 0 1-3.902 2.588.367.367 0 0 1-.111.017Z"/>
  <path fill="#EE6C4D" d="M263.373 67.955c-.012.33-.04.66-.087.987-.802.478-1.634.908-2.492 1.285a22.138 22.138 0 0 1-4.51 1.434l-1.133.201a5.12 5.12 0 0 1-.495-1.035 11.987 11.987 0 0 1-.448-2.01c-.34-2.501.08-5.117 1.219-7.35.579-1.131 1.43-2.236 2.627-2.528 1.253-.304 2.582.395 3.393 1.437.811 1.042 1.197 2.368 1.484 3.676.063.284.121.57.174.855.188 1.006.304 2.026.268 3.048Z"/>
  <path fill="#fff" d="M267.133 66.068a23.205 23.205 0 0 1-3.847 2.874 22.73 22.73 0 0 1-2.492 1.286c.119-1.432.65-3.034 1.074-3.746a6.576 6.576 0 0 1 1.238-1.574c.672-.627 1.473-1.096 2.348-1.32 1.252.396 1.714 1.338 1.679 2.48Zm-10.85 5.594c-.498-1.094-1.211-2.11-2.074-2.844-1.193-1.016-2.674-1.495-4.273-.898-.084 1.457.436 2.948 1.324 4.187a22.342 22.342 0 0 0 3.891-.244l1.132-.201Z"/>
  <path fill="#CCCCE3" d="M250.974 71.677a22.056 22.056 0 0 1-1.008-.062 10.049 10.049 0 0 1-.576-1.862c.275.228.585.414.916.55.171.475.397.937.668 1.374Zm16.134-6.151a2.384 2.384 0 0 0-.322-.96 6.63 6.63 0 0 0 .682-2.795c.304.77.663 1.529 1.076 2.27a23.442 23.442 0 0 1-1.436 1.485Z"/>
  <path fill="#CC5F45" d="M256.092 71.267c-.412-.801-.938-1.546-1.554-2.148a3.42 3.42 0 0 0 .085-.115 4.19 4.19 0 0 0 3 1.288c.218 0 .436-.018.652-.055 1.199-.205 2.291-.988 2.917-2.07a11.24 11.24 0 0 0-.343 1.568 22.143 22.143 0 0 1-4.757 1.532Zm5.205-3.44a.595.595 0 0 0-.057-.02l.06.01a.47.47 0 0 0-.003.01Z"/>
  <path fill="#CCCCE3" d="M260.849 69.736c.075-.534.198-1.075.343-1.57.059-.102.114-.206.164-.313a3.467 3.467 0 0 0-.059-.026l.003-.01.043.007c.112.008.224.011.337.011 1.685 0 3.341-.833 4.42-2.188.266-.333.495-.697.686-1.081.174.283.278.608.322.96a22.721 22.721 0 0 1-6.259 4.21Zm-9.04 1.956c-.279 0-.558-.005-.836-.015a7.418 7.418 0 0 1-.668-1.374c.423.174.88.268 1.339.268h.046c1.093-.015 2.166-.566 2.849-1.452a8.383 8.383 0 0 1 1.554 2.147 21.778 21.778 0 0 1-4.284.426Z"/>
  <path fill="#293241" d="M249.966 71.615c.609.052 1.228.078 1.843.078 6.352 0 12.435-2.786 16.736-7.653-1.724-3.089-2.507-6.503-2.227-9.7-3.958.24-7.884-.803-11.145-2.965-2.863 4.293-6.036 10.01-5.983 16.643a10 10 0 0 0 .776 3.597Zm1.843.918a22.84 22.84 0 0 1-2.15-.102l-.23-.022-.098-.219a10.868 10.868 0 0 1-.946-4.156c-.057-7.054 3.364-13.044 6.352-17.474l.226-.336.327.228c3.305 2.3 7.371 3.371 11.447 3.014l.497-.044-.063.516c-.402 3.248.385 6.777 2.217 9.938l.154.266-.199.231c-4.464 5.186-10.855 8.16-17.534 8.16Z"/>
  <path fill="#fff" d="M268.547 64.65c.736-4.326-.64-6.653.644-7.412 1.329-.788 2.119 1.563 1.986 3.966l-2.63 3.446Z"/>
  <path fill="#CCCCE3" d="M252.641 42.245a33.9 33.9 0 0 1 .093-1.973c.415-.412.847-.807 1.293-1.184-.043.6-.035 1.193.026 1.76-.48.45-.948.92-1.412 1.397Zm5.191-4.137a9.939 9.939 0 0 0-1.086-1.02 4.93 4.93 0 0 0 .627-.555c.086-.09.167-.188.243-.29.473.436.926.906 1.373 1.399-.398.13-.784.286-1.157.466Z"/>
  <path fill="#293241" d="M252.234 42.661c.007-.596.027-1.261.07-1.95.141-.148.284-.295.429-.44a35.77 35.77 0 0 0-.094 1.974l-.183.188-.222.228Zm6.754-5.02c-.447-.492-.9-.962-1.373-1.398.083-.112.159-.23.225-.353a23.308 23.308 0 0 1 1.583 1.622 8.75 8.75 0 0 0-.435.13Z"/>
  <path fill="#CC5F45" d="M254.761 40.205a9.893 9.893 0 0 1 .095-1.784c.309-.235.625-.462.946-.68.094-.065.189-.128.283-.191.368.278.717.59 1.044.928-.837.482-1.619 1.074-2.368 1.727Z"/>
  <path fill="#293241" d="M254.051 40.847c-.06-.566-.068-1.16-.026-1.76.272-.228.548-.45.83-.665a9.89 9.89 0 0 0-.095 1.783c-.239.208-.475.423-.709.642Zm3.077-2.369a9.083 9.083 0 0 0-1.044-.928c.223-.15.447-.3.66-.462.384.308.748.65 1.087 1.02a10.61 10.61 0 0 0-.703.37Zm12.153 25.212-.001-.001 1.793-2.35a10.792 10.792 0 0 1-1.792 2.35Z"/>
  <path fill="#293241" d="m269.277 63.694.005-.005a.023.023 0 0 1-.005.005Z"/>
  <path fill="#0A96E3" d="m271.188 60.406-.003-.087.012.072-.009.015Z"/>
  <path fill="#293241" d="M271.18 61.148a9.7 9.7 0 0 0 .008-.742l.008-.015.091.555-.107.202Z"/>
  <path fill="#0A96E3" d="M268.645 59.35a23.35 23.35 0 0 0-.057-.366l.04.079c.004.092.01.188.017.286Z"/>
  <path fill="#CCCCE3" d="M268.634 64.28c.259-1.603.257-3.251.011-4.931a17.188 17.188 0 0 1-.018-.286 1.995 1.995 0 0 0 1.736 1.034c.259 0 .517-.053.759-.167l.063.388.003.088c.007.244.005.493-.008.742-.035.064-.069.128-.106.191l-1.793 2.35-.004.005c-.206.204-.421.4-.643.586Zm4.042-16.002a91.402 91.402 0 0 0-.622-1.88l-.006-.018-.001-.003-.006-.017-.017-.051-.003-.008-.004-.012-.003-.009-.005-.012-.003-.01-.007-.019-.004-.012-.003-.009-.004-.012a.252.252 0 0 0-.003-.01l-.005-.013-.003-.007-.007-.022-.103-.29a.379.379 0 0 0 .201-.168 8.13 8.13 0 0 0 .569-1.199c.282.57.552 1.143.813 1.722a39.685 39.685 0 0 1-.774 2.06Zm-3.161-7.208a9.975 9.975 0 0 0-1.203-1.392 24.466 24.466 0 0 1 1.964-.818c-.01.267.011.535.06.793.056.292.142.575.248.85a9.665 9.665 0 0 0-1.069.567Z"/>
  <path fill="#293241" d="m272.866 48.873-.19-.594c.266-.652.529-1.348.774-2.06.08.177.159.354.237.532a43.997 43.997 0 0 1-.821 2.122Zm-4.553-9.195a9.947 9.947 0 0 0-.334-.304 25.005 25.005 0 0 1 2.347-.975 3.232 3.232 0 0 0-.05.461c-.657.237-1.309.515-1.963.818Z"/>
  <path fill="#CC5F45" d="M271.627 44.92a6.292 6.292 0 0 1-.166-.135c-.435-1.094-.923-2.133-1.513-3.071a8.91 8.91 0 0 1 .952-.5c.181.362.382.715.577 1.067.233.42.46.843.681 1.27a8.316 8.316 0 0 1-.531 1.37Z"/>
  <path fill="#293241" d="M271.867 45.865a36.853 36.853 0 0 0-.406-1.08c.055.047.11.092.166.136.21-.419.388-.882.532-1.37.163.314.323.63.479.947a8.13 8.13 0 0 1-.569 1.199.379.379 0 0 1-.202.168Zm-1.919-4.15a12.1 12.1 0 0 0-.432-.644 9.582 9.582 0 0 1 1.069-.567c.092.242.2.478.316.71a8.945 8.945 0 0 0-.953.5Zm-.251 15.76a.636.636 0 0 0-.321.104c-.451.267-.425.87-.322 2.21.073.945.167 2.166.029 3.664a23.935 23.935 0 0 0 1.725-2.375c.079-1.804-.379-3.205-.879-3.53a.413.413 0 0 0-.232-.073Zm-1.15 7.567a.362.362 0 0 1-.17-.043.396.396 0 0 1-.199-.417c.338-1.99.216-3.574.128-4.731-.109-1.41-.187-2.428.7-2.953.452-.267.92-.273 1.319-.014.979.633 1.321 2.638 1.227 4.344a.407.407 0 0 1-.061.192 24.586 24.586 0 0 1-2.673 3.502.369.369 0 0 1-.271.12Z"/>
  <path fill="#CCCCE3" d="m263.438 59.418-.19-.001a2.658 2.658 0 0 0-1.576-.529 2.82 2.82 0 0 0-1.261.31c-.217-.034-.434-.07-.65-.11a3.033 3.033 0 0 0-.995-.218l-.345-.09c-2.132-.58-4.177-1.61-5.87-3.065.291-.546.59-1.078.893-1.595a14.716 14.716 0 0 0 8.491 3.447h.009l.002.001a.04.04 0 0 1 .006 0 .042.042 0 0 1 .009.001h.014l.004.001h.009l.006.001h.011l.007.001h.002a14.197 14.197 0 0 0 4.328-.383c.068.669.178 1.34.33 2.01-1.073.14-2.155.219-3.234.219Z"/>
  <path fill="#CC5F45" d="M259.761 59.087a17.793 17.793 0 0 1-.994-.217c.338.013.673.09.994.217Z"/>
  <path fill="#293241" d="M266.672 59.198a16.5 16.5 0 0 1-.331-2.009c.132-.032.264-.067.395-.103.067.691.182 1.378.338 2.056-.134.02-.268.038-.402.056Zm-14.121-3.483c-.105-.09-.209-.182-.311-.276.286-.534.585-1.064.894-1.59.102.092.205.182.31.271a41.819 41.819 0 0 0-.893 1.595Z"/>
  <path fill="#fff" d="M273.062 53.318c-7.731 7.886-20.989 4.301-24.022-5.993-.213-.723-.011-1.513.536-2.011.984-.898 1.924-1.899 2.88-2.881 2.553-2.63 5.206-5.135 9.05-5.22 6.468.018 8.782 4.154 10.464 8.941.559 1.593 1.049 3.258 1.599 4.868a2.25 2.25 0 0 1-.507 2.296Z"/>
  <path fill="#0A93E1" d="M267.13 56.97Z"/>
  <path fill="#293241" d="M266.736 57.086Z"/>
  <path fill="#A1A1CB" d="M262.936 57.602Z"/>
  <path fill="#293241" d="M266.342 57.19Z"/>
  <path fill="#A1A1CB" d="M262.01 57.573h-.007.007Zm-.008 0-.007-.001h.007Zm-.009-.002h-.006a.09.09 0 0 1 .006 0Zm-.01 0h-.005.005Zm-.009 0-.005-.001h.005Zm-.018-.002h-.004.004Zm-.011 0h-.002.002Z"/>
  <path fill="#0A93E1" d="m271.769 54.493.005-.004-.005.004Zm.009-.008.005-.004-.005.004Zm.01-.008a.014.014 0 0 0 .004-.003l-.004.003Zm.01-.008.003-.002-.003.002Zm1.27-1.156c.58-.597.775-1.49.501-2.29a61.448 61.448 0 0 0 .442 1.236 15.76 15.76 0 0 1-.943 1.054Z"/>
  <path fill="#A1A1CB" d="M272.677 48.279Z"/>
  <path fill="#293241" d="m272.865 48.873-.19-.594.19.594Z"/>
  <path fill="#C9743F" d="M249.04 47.319a14.925 14.925 0 0 1-.313-1.268c.192-.157.382-.32.57-.486l.016.048a1.999 1.999 0 0 0-.273 1.706Z"/>
  <path fill="#A15D49" d="m249.312 45.613-.016-.047c.093-.082.185-.165.277-.249-.099.09-.186.19-.261.296Z"/>
  <path fill="#A1A1CB" d="m272.047 46.377-.006-.016.006.016Zm-.006-.017-.018-.05.018.05Zm-.035-.1a.17.17 0 0 0-.007-.02l.007.02Z"/>
  <path fill="#C9C9E1" d="M262.935 57.602c-.308 0-.615-.01-.921-.03h-.02l-.006-.001h-.009l-.004-.001h-.009l-.005-.001h-.009l-.006-.001h-.011c-5.707-.395-11.101-4.142-12.897-10.25a2.001 2.001 0 0 1 .274-1.705 1.83 1.83 0 0 1 .26-.296c.986-.899 1.927-1.9 2.884-2.885-.422.841-.87 1.664-1.327 2.459a3.532 3.532 0 0 0 .026 3.534c1.978 3.347 5.287 5.839 8.982 6.656.919.204 1.856.302 2.794.302 2.84 0 5.681-.905 8.014-2.548 1.008-.71 1.552-1.944 1.411-3.203l-.386-3.478.007.021a.151.151 0 0 0 .003.008l.005.014.003.009.004.012.003.01.004.011a.148.148 0 0 1 .007.02l.003.009.005.012.003.009a.068.068 0 0 0 .004.012l.003.008.017.05v.001l.006.017.001.003c.002.006.005.011.006.017.215.62.419 1.25.622 1.882l.19.593.189.591c.168.523.338 1.044.514 1.559a2.25 2.25 0 0 1-.502 2.29c-.401.41-.818.79-1.247 1.139h-.001l-.009.008h-.002l-.007.007-.003.002a.017.017 0 0 0-.006.006c-.002 0-.003.001-.005.003a.029.029 0 0 1-.005.004l-.004.004-.005.003-.005.004-.004.003a13.984 13.984 0 0 1-8.829 3.107Z"/>
  <path fill="#293241" d="M261.504 37.633c-3.927.088-6.644 2.901-9.271 5.621-.784.812-1.594 1.65-2.426 2.407a1.438 1.438 0 0 0-.408 1.452c1.354 4.708 5.03 8.29 9.836 9.58 1.235.33 2.479.493 3.704.493 3.673 0 7.188-1.456 9.852-4.18a1.8 1.8 0 0 0 .404-1.827c-.254-.742-.499-1.507-.736-2.247-1.853-5.8-3.605-11.278-10.955-11.3Zm1.438 20.394a15.05 15.05 0 0 1-3.908-.521c-5.081-1.364-8.971-5.16-10.407-10.152-.24-.836.015-1.75.651-2.327.812-.738 1.613-1.567 2.387-2.37 2.74-2.835 5.572-5.768 9.831-5.864 7.94.022 9.866 6.047 11.728 11.873.235.736.478 1.497.73 2.232a2.667 2.667 0 0 1-.599 2.708c-2.817 2.88-6.533 4.42-10.413 4.42Z"/>
  <path fill="#293241" d="M262.832 50.716a9.23 9.23 0 0 1-.16.521c-.787 2.318-2.029 2.566-2.495 1.017-.152-.5-.222-1.187-.17-2.052.59.052 1.256-.259 1.508-.939.061.78.632 1.286 1.317 1.453Zm-2.015-2.373c.047-.299.418-.256.874-.18.455.077.821.159.775.457-.046.3-.487.702-.942.626-.456-.077-.753-.604-.707-.903Z"/>
  <path fill="#FF5228" d="M262.67 51.237c-.786 2.318-2.028 2.566-2.495 1.016.197-.771.827-1.336 1.575-1.336.341 0 .658.117.92.32Z"/>
  <path fill="#293241" d="M264.76 50.294c-.158.367-.492.642-.863.786a2.015 2.015 0 0 1-1.191.073 2.108 2.108 0 0 1-1.599-1.857l.789.12a1.89 1.89 0 0 1-.732.948c-.334.22-.726.324-1.116.296a1.625 1.625 0 0 1-.575-.152 1.272 1.272 0 0 1-.487-.39 1.123 1.123 0 0 1-.218-.586.975.975 0 0 1 .123-.555.074.074 0 0 1 .104-.027.082.082 0 0 1 .029.031l.001.004c.077.156.15.284.229.383a1.03 1.03 0 0 0 .833.381c.216 0 .439-.055.625-.163a.962.962 0 0 0 .421-.477l.01-.024a.401.401 0 0 1 .534-.222c.146.066.236.21.245.365a.988.988 0 0 0 .301.677c.183.179.432.289.692.362.261.073.539.104.827.095.289-.01.585-.059.927-.171l.002-.001c.039-.013.08.01.092.05a.077.077 0 0 1-.003.054Z"/>
  <path fill="#293241" d="M260.394 50.61c-.01.6.046 1.119.167 1.517.126.42.323.683.512.687h.005c.305 0 .813-.535 1.214-1.717l.037-.11a2.052 2.052 0 0 1-.949-.829 1.87 1.87 0 0 1-.986.452Zm.684 3.044h-.02c-.564-.01-1.025-.475-1.266-1.275-.177-.585-.24-1.328-.187-2.204a.429.429 0 0 1 .139-.292.393.393 0 0 1 .298-.1c.397.036.908-.16 1.097-.672a.401.401 0 0 1 .434-.264.413.413 0 0 1 .344.382c.061.787.785 1.024 1.006 1.078.108.026.2.097.256.196.056.1.07.218.04.328-.052.19-.109.375-.168.548-.491 1.447-1.21 2.275-1.973 2.275Z"/>
  <path fill="#fff" d="M264.593 61.137c-1.971-4.144-6.315-2.03-6.423 2.041-.107 4.038 4.437 3.097 4.143-.282l2.28-1.76Z"/>
  <path fill="#293241" d="M259.045 65.714a1.305 1.305 0 0 1-.09-.431c-.01-.148.005-.296.027-.441.047-.29.137-.572.292-.819a.04.04 0 0 1 .056-.012c.01.007.017.018.018.03.041.285.072.547.118.802.021.127.05.252.067.376.019.124.038.246.036.375l-.001.009a.278.278 0 0 1-.277.281.274.274 0 0 1-.246-.17Zm1.196.081a1.189 1.189 0 0 1-.069-.404 1.88 1.88 0 0 1 .042-.41c.055-.268.147-.528.301-.755a.04.04 0 0 1 .058-.01.048.048 0 0 1 .017.029c.041.268.068.514.108.752.019.12.041.236.055.352.014.117.026.231.017.352l-.001.01a.277.277 0 0 1-.293.263.277.277 0 0 1-.235-.179Z"/>
  <path fill="#fff" d="M252.336 60.999c.758-1.51 2.606-3.409 4.09-2.262 1.392 1.077 1.894 3.408 1.561 5.107-.577 2.946-4.53 2.524-3.925-1.341l-1.726-1.504Z"/>
  <path fill="#CCCCE3" d="M263.021 64.474c-.029-.14-.059-.282-.09-.422-.1-.456-.212-.915-.35-1.363l.235-.181c.143.117.305.206.482.255a.988.988 0 0 0 .736-.082.189.189 0 0 1 .088-.023c.131 0 .237.146.169.286a2.366 2.366 0 0 1-.199.333c-.194.27-.507.472-.823.472a.702.702 0 0 1-.211-.032 3.61 3.61 0 0 1-.037.757Z"/>
  <path fill="#CC5F45" d="M260.343 67.027a2.21 2.21 0 0 1-.306-.021c-.823-.115-1.579-.727-1.835-1.55a3.108 3.108 0 0 1-.123-.936 6.862 6.862 0 0 0 .045-1.66c.015.054.032.108.051.161a4.115 4.115 0 0 0-.006.158c-.03 1.137.308 1.879.804 2.283.014.086.036.17.07.252a.275.275 0 0 0 .247.17h.004a.27.27 0 0 0 .227-.126 1.746 1.746 0 0 0 .733.068.274.274 0 0 0 .241.15.278.278 0 0 0 .273-.265l.001-.01v-.003c.906-.352 1.669-1.353 1.543-2.802l.268-.207c.138.449.25.907.35 1.364.031.14.061.28.09.421a3.514 3.514 0 0 1-.182.697 6.66 6.66 0 0 0-.971 1.31l-.019.033a2.562 2.562 0 0 1-1.505.513Z"/>
  <path fill="#CCCCE3" d="m261.85 66.514.018-.032c.27-.476.597-.919.972-1.311a3.09 3.09 0 0 1-.561.949 2.715 2.715 0 0 1-.429.394Zm-1.804-.677c-.178 0-.354-.026-.524-.08a.29.29 0 0 0 .046-.154v-.01c.002-.128-.017-.25-.035-.375-.017-.124-.046-.248-.068-.375-.027-.156-.05-.315-.073-.48a1.837 1.837 0 0 0 .976.13 2.36 2.36 0 0 0-.154.488 1.88 1.88 0 0 0-.042.41 1.19 1.19 0 0 0 .083.434 1.84 1.84 0 0 1-.209.012Zm.725-.14a1.83 1.83 0 0 0-.018-.348c-.013-.116-.036-.233-.055-.352-.03-.18-.053-.362-.079-.555.35-.095.675-.288.918-.568.377-.434.535-1.008.627-1.595a.201.201 0 0 1 .197-.174c.055 0 .11.024.149.077.089.122.191.233.306.326l-.235.18-.268.208c.126 1.449-.637 2.45-1.542 2.801Zm-1.797-.236c-.495-.404-.834-1.146-.804-2.283a4.1 4.1 0 0 1 .006-.157c.181.509.533.954.98 1.221-.085.19-.14.393-.174.6a2.034 2.034 0 0 0-.028.44c.005.06.011.12.02.18Z"/>
  <path fill="#293241" d="M259.295 65.884h-.004a.274.274 0 0 1-.246-.17 1.17 1.17 0 0 1-.071-.252 2.034 2.034 0 0 1 .008-.62c.034-.207.089-.41.174-.6.076.046.155.086.236.12.023.166.046.325.074.481.021.128.05.252.067.376.019.124.038.246.036.375l-.001.009a.28.28 0 0 1-.046.155.269.269 0 0 1-.227.126Zm1.201.091h-.02a.273.273 0 0 1-.235-.18 1.188 1.188 0 0 1-.069-.404 1.88 1.88 0 0 1 .042-.41c.035-.168.084-.333.153-.489a1.77 1.77 0 0 0 .251-.05c.027.193.05.376.08.556.019.119.041.235.055.351.014.115.025.23.017.349v.003l-.001.01a.279.279 0 0 1-.273.264Z"/>
  <path fill="#CCCCE3" d="M254.113 66.421a2.29 2.29 0 0 1-.215-.168c-.842-.74-.876-2.17-.564-3.628a2.183 2.183 0 0 1-.489-.337c-.109-.108-.025-.286.107-.286.017 0 .034.002.051.008a.985.985 0 0 0 .524.026l.535.467c-.148.946-.023 1.685.258 2.22-.106.56-.176 1.128-.207 1.698Z"/>
  <path fill="#CC5F45" d="M255.67 66.893c-.552 0-1.11-.162-1.557-.472.031-.57.1-1.138.207-1.698.368.7 1.005 1.048 1.649 1.048.876 0 1.767-.645 2.018-1.926.089-.458.118-.962.086-1.474.021.161.038.324.052.489a.089.089 0 0 1-.004-.016c.042.554-.041 1.122-.041 1.676-.111.678-.356 1.308-.81 1.812-.439.38-1.017.561-1.6.561Z"/>
  <path fill="#CCCCE3" d="M255.97 65.77c-.645 0-1.281-.348-1.65-1.047-.281-.535-.406-1.274-.258-2.22l-.535-.467c.167-.038.33-.12.487-.242a.203.203 0 0 1 .126-.044c.11 0 .214.09.221.219.108 1.981.806 2.767 1.553 2.767 1.05 0 2.199-1.547 1.959-3.514.077.362.149.75.201 1.149a5.83 5.83 0 0 1-.087 1.473c-.251 1.282-1.141 1.926-2.017 1.926Z"/>
  <path fill="#A35090" d="M258.079 64.52c0-.554.083-1.121.041-1.676l.004.016a6.862 6.862 0 0 1-.045 1.66Z"/>
  <path fill="#293241" d="M264.544 61.162a8.302 8.302 0 0 0-.679-.861 4.123 4.123 0 0 0-.796-.663 2.47 2.47 0 0 0-1.855-.34c-.626.135-1.21.504-1.663 1.011a3.89 3.89 0 0 0-.572.857c-.157.31-.274.644-.353.988a5.712 5.712 0 0 0-.125 1.052c-.002.353.033.7.122 1.02.088.319.234.606.437.823.207.21.467.356.757.402l.108.017.112.004c.074.008.149-.007.224-.009.149-.025.301-.051.444-.114.291-.11.555-.302.778-.538a2.48 2.48 0 0 0 .303-.391c.045-.071.084-.147.127-.22.034-.08.071-.157.104-.238.129-.325.201-.683.242-1.06V62.9a.055.055 0 0 1 .06-.05.052.052 0 0 1 .046.04c.103.377.125.786.057 1.191a2.61 2.61 0 0 1-.492 1.134 2.472 2.472 0 0 1-.974.776 2.42 2.42 0 0 1-.605.183c-.106.008-.211.028-.319.022-.053 0-.107 0-.161-.003l-.161-.02a1.028 1.028 0 0 1-.161-.03c-.053-.014-.106-.026-.158-.043-.103-.041-.208-.075-.304-.132a2.042 2.042 0 0 1-.531-.402 2.644 2.644 0 0 1-.597-1.148 4.492 4.492 0 0 1-.121-1.23c.015-.402.065-.803.156-1.196.195-.78.537-1.533 1.06-2.15a4.04 4.04 0 0 1 .905-.8 3.218 3.218 0 0 1 1.123-.455c.401-.078.82-.068 1.216.033.396.103.767.29 1.078.545.315.25.574.559.785.888l.148.253c.046.086.085.176.126.264l.061.132.05.136c.034.09.063.183.094.273a.056.056 0 0 1-.032.072.052.052 0 0 1-.061-.019l-.003-.003Z"/>
  <path fill="#DDB39D" d="M236.708 51.97c.211-1.64 1.512-2.678 2.316-3.171 1.299-.796 2.903-1.214 4.355-1.214 1.009 0 1.944.202 2.652.618.413.248.743.533.984.846.006.106.008.213.007.32-.929-1.095-2.467-1.485-3.918-1.485a8.18 8.18 0 0 0-1.111.075c-2.28.307-4.565 1.943-5.285 4.012Z"/>
  <path fill="#293241" d="M256.76 65.382c-.013-.128-.006-.251 0-.376.005-.125.021-.251.029-.38.017-.258.018-.523.02-.812.001-.024.019-.043.042-.042.012 0 .023.005.03.014.186.224.309.496.388.782.038.142.069.29.073.44.006.148-.004.299-.049.442a.27.27 0 0 1-.345.182.284.284 0 0 1-.187-.24l-.001-.01Zm-1.403.231a1.839 1.839 0 0 1 .006-.349c.01-.115.029-.23.044-.35.032-.238.05-.482.081-.75a.042.042 0 0 1 .046-.038.043.043 0 0 1 .028.017c.162.217.264.472.328.737.031.133.054.269.056.406a1.18 1.18 0 0 1-.058.404.27.27 0 0 1-.351.17.286.286 0 0 1-.179-.237l-.001-.01Z"/>
  <path fill="#293241" d="M252.28 60.969a4.804 4.804 0 0 1 .49-1.082c.204-.34.447-.66.73-.949a4.04 4.04 0 0 1 .458-.405 3.11 3.11 0 0 1 .536-.328c.193-.09.4-.164.621-.204.22-.04.455-.043.685-.002.23.038.452.129.649.248.051.027.096.061.143.094l.07.05c.022.017.041.034.061.052.08.07.162.139.24.212.304.299.545.649.745 1.014.102.182.184.372.268.562l.108.29c.037.096.061.196.093.294.031.098.056.198.079.298.023.1.05.2.067.3l.058.303.041.305c.046.407.059.82.032 1.234l-.027.31-.045.31c-.016.104-.046.213-.068.319-.028.105-.065.21-.098.315a2.82 2.82 0 0 1-.742 1.113 2.276 2.276 0 0 1-1.218.555 2.093 2.093 0 0 1-1.307-.262c-.401-.218-.712-.58-.909-.976a2.85 2.85 0 0 1-.264-1.254c.006-.418.084-.82.224-1.192a.063.063 0 0 1 .083-.038c.023.01.039.032.04.057v.002c.027.39.06.766.142 1.118a3 3 0 0 0 .374.949l.07.097a.664.664 0 0 0 .072.093l.075.09.083.079c.053.056.117.096.174.145.064.037.123.083.192.112.064.035.134.057.202.083.035.011.071.017.106.026l.053.014.054.007c.143.028.29.023.433.003a1.527 1.527 0 0 0 .789-.367c.224-.2.404-.462.527-.764.025-.078.056-.154.079-.234.019-.082.044-.159.059-.246l.046-.261.029-.266c.028-.358.021-.72-.014-1.08a5.19 5.19 0 0 0-.215-1.06 4.507 4.507 0 0 0-.419-.974 3.617 3.617 0 0 0-.623-.802c-.061-.056-.125-.106-.187-.16l-.046-.04-.046-.03c-.03-.021-.059-.045-.091-.062a1.217 1.217 0 0 0-.388-.155c-.268-.056-.567-.014-.865.103-.3.114-.59.303-.872.512-.56.434-1.063.98-1.525 1.585a.063.063 0 0 1-.09.012.072.072 0 0 1-.021-.072Zm-1.413 6.964c.286-.11.589-.181.9-.212a4.09 4.09 0 0 1 .937.033c.311.052.618.136.915.25a5.147 5.147 0 0 1 1.629 1.024c.117.114.235.228.344.349a6.295 6.295 0 0 1 1.23 2.088.415.415 0 0 1-.235.526.387.387 0 0 1-.482-.193l-.001-.002c-.268-.526-.545-1.036-.877-1.502a7.244 7.244 0 0 0-.532-.666 5.786 5.786 0 0 0-.616-.58 5.61 5.61 0 0 0-.703-.474 4.964 4.964 0 0 0-.777-.344 4.365 4.365 0 0 0-.834-.188 4.278 4.278 0 0 0-.871.004h-.002a.057.057 0 0 1-.062-.052.059.059 0 0 1 .037-.061Zm9.62 2.232a7.41 7.41 0 0 1 .26-1.958c.086-.32.194-.635.33-.94.132-.307.291-.6.468-.878a5.712 5.712 0 0 1 1.303-1.452 4.64 4.64 0 0 1 .813-.505c.287-.136.585-.237.888-.3a.057.057 0 0 1 .067.045.06.06 0 0 1-.031.065h-.002a5.264 5.264 0 0 0-.768.468c-.238.18-.458.38-.661.596a6.022 6.022 0 0 0-.999 1.458c-.266.53-.445 1.093-.586 1.672-.139.579-.221 1.174-.298 1.779v.002a.398.398 0 0 1-.442.353.406.406 0 0 1-.342-.405Zm-17.109-22.579c-1.452 0-3.056.417-4.355 1.214-.88.54-2.356 1.732-2.346 3.655.008.699.245 1.27.705 1.697.537.498 1.34.748 2.16.679 1.494-.917 2.566-1.916 2.577-1.926a.391.391 0 0 1 .322-.105c.017.003 1.743.222 4.126-.482.617-.527.969-1.304.921-2.048-.052-.81-.557-1.525-1.458-2.067-.707-.416-1.643-.617-2.652-.617Zm-4.101 8.096c-.921 0-1.806-.324-2.43-.902-.628-.582-.965-1.383-.975-2.318-.009-1.74.965-3.296 2.743-4.387 2.465-1.512 5.825-1.77 7.814-.602 1.132.681 1.793 1.654 1.863 2.741.067 1.042-.427 2.122-1.291 2.817a.394.394 0 0 1-.134.072c-2.158.65-3.805.593-4.345.55a18.768 18.768 0 0 1-2.651 1.95.393.393 0 0 1-.159.055 3.893 3.893 0 0 1-.435.024Z"/>
  <path fill="#293241" d="M239.929 50.688a.582.582 0 0 1-.479-.255.63.63 0 0 1 .134-.859 4.974 4.974 0 0 1 2.911-.996h.007c.323 0 .586.271.589.608a.603.603 0 0 1-.584.622 3.82 3.82 0 0 0-2.234.764.57.57 0 0 1-.344.116Z"/>
  <path fill="#FF5228" d="M245.168 54.724c-.123 2.45-2.629 3.196-4.025 1.237-.386-.538-.687-1.283-.832-2.252 1.022-.866 2.702-1.48 4.349-1.37.398.91.543 1.712.508 2.385Z"/>
  <path fill="#D44725" d="M241.463 55.703a3.887 3.887 0 0 1-.457-.882c.779-.472 1.477-1.195 1.477-1.195s.106.002.282.002c.404 0 1.178-.014 1.873-.105.1.41.142.801.127 1.16a12.518 12.518 0 0 0-2-.01c-.436.337-.869.682-1.302 1.03Z"/>
  <path fill="#293241" d="M240.75 53.887c.267 1.43.954 2.431 1.864 2.703a1.559 1.559 0 0 0 1.67-.514c.607-.735.642-1.966.107-3.328-1.29-.028-2.671.405-3.641 1.14Zm2.327 3.611c-.227 0-.457-.033-.685-.1-1.271-.38-2.197-1.734-2.479-3.625a.43.43 0 0 1 .144-.39c1.18-.999 2.997-1.573 4.629-1.463.148.01.279.105.341.245.78 1.787.732 3.412-.132 4.46a2.348 2.348 0 0 1-1.818.873Zm1.092-11.138a.387.387 0 0 1-.138-.026.424.424 0 0 1-.24-.538c.627-1.794 1.742-2.073 2.83-2.206a.406.406 0 0 1 .446.369.416.416 0 0 1-.353.466c-.97.118-1.693.306-2.167 1.659a.404.404 0 0 1-.378.276Z"/>
  <path fill="#AA400B" d="m241.812 51.346-3.463 2.387c-.227 1.027.907 1.728 1.782 1.46 1.034-.202 2.351-1.568 2.351-1.568s2.25.056 3.179-.342c.85-.278 1.46-1.536.478-2.381l-4.327.444Z"/>
  <path fill="#883320" d="M238.634 54.776a2.63 2.63 0 0 1-1.251-.625 2.158 2.158 0 0 1-.667-1.255c.05.071.103.14.161.205.303.341.74.57 1.152.57.122 0 .243-.02.357-.063l.062.058-.098.068c-.092.414.038.776.284 1.042Z"/>
  <path fill="#293241" d="M239.28 55.261c-1.467 0-2.985-.908-3.005-2.804-.001-.182.01-.358.032-.531.079.349.211.683.409.97.084.501.307.922.667 1.255.333.31.77.524 1.25.625.247.267.61.438.982.47-.111.01-.223.015-.335.015Z"/>
  <path fill="#883320" d="M246.589 52.3c.133-.452.04-.973-.443-1.393.26-.035.5-.222.642-.46.173-.288.222-.64.232-.981l.002-.097c.167.197.314.416.437.661.015.079.025.16.03.24.047.735-.296 1.503-.9 2.03Z"/>
  <path fill="#B18F94" d="M247.46 50.03a3.384 3.384 0 0 0-.438-.66 4.863 4.863 0 0 0-.007-.32c.232.302.382.631.445.98Z"/>
  <path fill="#293241" d="M246.31 52.825c.125-.154.222-.333.279-.525.605-.527.948-1.295.9-2.03a2.118 2.118 0 0 0-.029-.24 2.262 2.262 0 0 0-.445-.98 4.85 4.85 0 0 0-.09-.7c1.551 1.416 1.058 3.36-.17 4.349-.151.046-.3.088-.445.126Z"/>
  <path fill="#883320" d="m245.973 50.92-.002-.013a.744.744 0 0 0 .063.006l-.061.007Z"/>
  <path fill="#883320" d="M239.615 55.245a1.53 1.53 0 0 1-.982-.469 1.135 1.135 0 0 1-.284-1.042l.099-.068a1.65 1.65 0 0 0 1.094.388c.33 0 .664-.085.956-.243.668-.364 1.131-1.048 1.416-1.776.379.385.961.427 1.491.446.152.006.305.01.459.01.425 0 .849-.038 1.236-.215.52-.24.947-.814.872-1.357l.062-.006a.64.64 0 0 0 .111-.006c.484.42.577.94.444 1.393a1.517 1.517 0 0 1-.28.525 12.37 12.37 0 0 1-3.137.43c-.5 0-.783-.039-.783-.039s-1.128 1.06-2.719 2.024l-.055.005Z"/>
  <path fill="#FFD4AD" d="M239.035 61.783a5.22 5.22 0 0 1 .048-.198.02.02 0 0 0 .005-.007l.002-.003c.19-.277.374-.54.581-.774.209-.23.432-.432.672-.596a2.628 2.628 0 0 1 1.569-.474 2.852 2.852 0 0 1 1.565.525c.42.3.775.713 1.015 1.197a3.733 3.733 0 0 0-2.596-1.028c-1.073 0-2.146.447-2.861 1.358Z"/>
  <path fill="#AA400B" d="M232.331 41.55c-.594 3.927-.722 6.302-.59 9.539.021.512-.399.931-.889.873-1.667-.2-2.957-.995-3.58-1.688a1.872 1.872 0 0 1-.36-.545c-.223-.573-.164-3.392.759-5.428.734-1.617 2.712-2.779 4.699-3.009l-.039.257Z"/>
  <path fill="#293241" d="M233.815 49.247a.396.396 0 0 1-.316-.159.433.433 0 0 1 .066-.59c.879-.724 1.638-1.35 3.484-.533.205.09.301.337.214.551a.398.398 0 0 1-.529.222c-1.406-.622-1.855-.252-2.669.419a.39.39 0 0 1-.25.09Z"/>
  <path fill="#DDB39D" d="M227.331 48.16a3.699 3.699 0 0 1-.093-.284c.081-1.029.314-2.33.798-3.396.578-1.272 2.106-2.326 3.829-2.681l-.019.052c-.632.378-1.283.725-1.861 1.187-1.233.986-2.065 2.46-2.452 4.029-.089.36-.156.725-.202 1.093Z"/>
  <path fill="#293241" d="M242.52 53.99a.3.3 0 0 1-.282-.212l-1.323-4.067a.314.314 0 0 1 .187-.395.295.295 0 0 1 .378.195l1.323 4.068a.314.314 0 0 1-.187.394.291.291 0 0 1-.096.017Z"/>
  <path fill="#FFD4AD" d="M245.452 60.672a3.29 3.29 0 0 1 .16-1.22c.188-.569.529-1.07.968-1.428.221-.179.465-.325.729-.425a2.707 2.707 0 0 1 .98-.172c.246 0 .497.03.751.082.303.07.606.174.919.292l.004.001a.063.063 0 0 0 .033.003l.057.04a3.751 3.751 0 0 0-.764-.078c-.899 0-1.799.315-2.506.896a4.241 4.241 0 0 0-1.331 2.01Z"/>
  <path fill="#293241" d="M231.887 41.794c-1.732.351-3.271 1.409-3.851 2.687-.876 1.931-.93 4.629-.751 5.09.226.581 1.626 1.737 3.614 1.974.154.019.26-.06.309-.107a.436.436 0 0 0 .131-.331c-.132-3.232.006-5.646.548-9.313Zm-.945 10.594c-.045 0-.09-.003-.135-.008-2.138-.255-3.88-1.493-4.269-2.493-.291-.75-.167-3.701.77-5.766.763-1.682 2.78-2.987 5.018-3.245a.395.395 0 0 1 .336.127.43.43 0 0 1 .106.356c-.61 3.978-.762 6.338-.624 9.713a1.29 1.29 0 0 1-.387.98 1.167 1.167 0 0 1-.815.336Zm9.848 13.994c.427.208.831.47 1.214.762a8.7 8.7 0 0 1 1.075.985c.332.36.644.745.908 1.165.265.42.496.864.658 1.338a.426.426 0 0 1-.245.539.398.398 0 0 1-.486-.186l-.001-.003c-.223-.401-.434-.805-.664-1.2-.23-.394-.465-.788-.726-1.167a13.754 13.754 0 0 0-.842-1.101 16.715 16.715 0 0 0-.956-1.033.063.063 0 0 1-.001-.086.056.056 0 0 1 .066-.013Zm-1.825-4.858a5.79 5.79 0 0 1 .05-.257c.01-.042.019-.086.03-.128.012-.042.026-.083.04-.125.028-.083.052-.17.086-.25l.109-.244c.161-.318.371-.62.633-.877a2.886 2.886 0 0 1 2.004-.82c.743-.005 1.465.273 2.043.72a4.52 4.52 0 0 1 1.339 1.71c.081.164.139.337.204.508.052.175.112.348.146.527.019.09.043.176.057.268l.042.274c.018.088.017.193.023.291.007.1-.003.197-.005.296a2.72 2.72 0 0 1-.324 1.15c-.046.09-.106.173-.162.258-.064.078-.123.162-.196.232a2.276 2.276 0 0 1-2.691.478 2.357 2.357 0 0 1-.832-.741 2.454 2.454 0 0 1-.401-.994.072.072 0 0 1 .056-.083.07.07 0 0 1 .065.024h.001c.213.259.426.493.663.675.234.184.481.32.735.407.129.038.256.073.386.085.065.01.13.01.194.014.065-.002.129 0 .193-.01.254-.03.499-.117.71-.256.424-.279.694-.759.744-1.312.002-.069.014-.14.009-.207-.002-.069.004-.133-.009-.21l-.027-.223c-.01-.075-.028-.15-.041-.225-.025-.152-.073-.295-.111-.443-.05-.142-.096-.287-.162-.422a3.256 3.256 0 0 0-1.089-1.359 2.854 2.854 0 0 0-1.565-.525 2.629 2.629 0 0 0-1.57.475 3.86 3.86 0 0 0-.671.596 7.771 7.771 0 0 0-.581.774l-.002.003a.066.066 0 0 1-.095.017.07.07 0 0 1-.028-.071Z"/>
  <path fill="#293241" d="M242.822 63.834c.202.197.36.425.497.665.068.12.133.243.179.373.047.13.085.263.093.403a.282.282 0 0 1-.257.303.273.273 0 0 1-.258-.15l-.002-.003a1.776 1.776 0 0 1-.129-.364c-.034-.125-.054-.254-.078-.384-.045-.26-.091-.523-.113-.808a.042.042 0 0 1 .037-.046.04.04 0 0 1 .031.011Zm1.33-.559c.22.186.393.418.535.67.07.126.136.257.18.395.044.138.077.281.077.43a.28.28 0 0 1-.275.283.274.274 0 0 1-.249-.168l-.002-.007a2.126 2.126 0 0 1-.11-.37c-.03-.124-.048-.253-.072-.383-.046-.26-.103-.523-.15-.809a.042.042 0 0 1 .033-.05.042.042 0 0 1 .033.01Zm5.808-5.474a7.177 7.177 0 0 0-.919-.291 3.56 3.56 0 0 0-.895-.079 2.704 2.704 0 0 0-.836.169c-.264.1-.509.246-.729.425a3.11 3.11 0 0 0-.968 1.429c-.194.569-.209 1.203-.086 1.806.066.302.165.597.291.88.031.071.068.136.101.205l.052.101c.017.034.038.059.056.089l.056.087.066.083c.042.058.09.109.137.16.379.407.903.622 1.416.586.256-.022.507-.101.727-.242a1.86 1.86 0 0 0 .562-.575c.156-.236.267-.517.35-.82.086-.305.131-.634.174-.98v-.002a.07.07 0 0 1 .077-.063c.026.004.046.02.055.044.137.33.21.69.218 1.065a2.61 2.61 0 0 1-.225 1.128c-.319.732-1.061 1.285-1.861 1.357-.198.017-.4.018-.596-.018-.099-.011-.195-.04-.292-.063-.093-.032-.19-.057-.28-.102a2.659 2.659 0 0 1-.95-.695 2.54 2.54 0 0 1-.183-.23l-.086-.118-.079-.128c-.025-.042-.054-.085-.074-.128l-.061-.127c-.038-.085-.081-.17-.116-.255a5.875 5.875 0 0 1-.328-1.064c-.137-.734-.137-1.513.082-2.247.21-.731.631-1.42 1.242-1.887.078-.055.154-.114.235-.164.083-.047.163-.1.249-.14.086-.04.172-.08.26-.115l.269-.091a2.778 2.778 0 0 1 1.108-.077c.364.048.711.166 1.025.331l.228.135c.076.045.143.104.214.155.071.05.138.106.201.167.064.06.126.121.187.183a.073.073 0 0 1 .002.1.068.068 0 0 1-.073.018l-.003-.002Z"/>
  <path fill="#293241" d="M247.563 64.195h-.001a.149.149 0 0 1-.154-.048l-.082-.098a1.133 1.133 0 0 1-.185-.335 1.928 1.928 0 0 1-.095-.376 2.271 2.271 0 0 1-.002-.78.042.042 0 0 1 .049-.034.05.05 0 0 1 .026.018c.144.215.261.422.381.622.06.1.12.198.171.3.051.1.098.203.127.317l-.236-.146h.001a.29.29 0 0 1 .196.355.284.284 0 0 1-.196.205Zm.772-2.239c.151.23.279.45.412.66.065.105.135.206.193.312.058.106.115.211.154.33l.003.008a.29.29 0 0 1-.172.362.266.266 0 0 1-.284-.072 1.247 1.247 0 0 1-.219-.35 2.021 2.021 0 0 1-.122-.399 2.356 2.356 0 0 1-.04-.833.041.041 0 0 1 .047-.036.046.046 0 0 1 .028.018Zm-9.76-8.579c.008.25.056.473.147.665.089.192.214.352.36.477.144.125.312.212.475.256a.79.79 0 0 0 .454-.011l.041-.01a2.51 2.51 0 0 0 .542-.22c.187-.095.375-.211.56-.336a7.058 7.058 0 0 0 1.045-.87.388.388 0 0 1 .285-.123h.009a13.73 13.73 0 0 0 1.562-.07 10.7 10.7 0 0 0 .76-.104c.123-.023.244-.045.36-.073.116-.029.226-.063.32-.098l.035-.013a.832.832 0 0 0 .385-.256 1.1 1.1 0 0 0 .235-.457c.045-.173.054-.363.017-.567a2.225 2.225 0 0 0-.246-.642l-.001-.002a.076.076 0 0 1 .028-.101.068.068 0 0 1 .059-.005c.245.094.475.27.637.521.164.249.253.569.239.891-.013.323-.127.64-.316.904a1.598 1.598 0 0 1-.774.587l.035-.013a2.64 2.64 0 0 1-.447.15 4.581 4.581 0 0 1-.427.086 8.424 8.424 0 0 1-.835.082c-.275.016-.549.022-.822.026a28.31 28.31 0 0 1-.823-.005l.294-.122a12.69 12.69 0 0 1-.55.52 9.714 9.714 0 0 1-.58.481 4.966 4.966 0 0 1-.647.425 2.604 2.604 0 0 1-.78.284l.042-.01a1.439 1.439 0 0 1-.958-.069 1.688 1.688 0 0 1-.707-.57 1.68 1.68 0 0 1-.312-.83 1.416 1.416 0 0 1 .17-.815.067.067 0 0 1 .095-.026.073.073 0 0 1 .034.06v.002Zm22.661 14.428Z"/>
  <path fill="#CC763E" d="M247.666 63.453c-.05-.098-.108-.192-.165-.289a25.168 25.168 0 0 1-.123-.206c.264-.005.525-.07.743-.221.051-.036.099-.077.144-.12.009.064.021.128.034.19.03.136.066.273.123.4l.002.005a1.596 1.596 0 0 1-.758.24Zm-.615-.089a1.881 1.881 0 0 1-.765-.5c-.047-.05-.096-.1-.137-.159l-.065-.083-.057-.087c-.018-.03-.039-.055-.056-.089h-.001c.304.244.663.415 1.041.482.001.137.014.275.035.41l.005.026Z"/>
  <path fill="#293241" d="M247.207 63.868a1.732 1.732 0 0 1-.617-.193c-.752-.404-1.137-1.287-1.34-2.188.156.377.409.707.72.958v.001c.017.034.038.059.057.089l.056.086.066.084c.041.058.089.108.137.16.217.232.481.403.764.499a1.639 1.639 0 0 0 .157.504Zm.555-.016a.296.296 0 0 0-.069-.136l.104.065a1.498 1.498 0 0 0-.126-.318l-.006-.01.037-.003c.253-.021.503-.1.722-.238.047.105.102.206.173.296-.25.175-.538.293-.835.344Z"/>
  <path fill="#293241" d="M247.428 63.88c-.074 0-.147-.004-.22-.012a1.236 1.236 0 0 1-.067-.154 1.901 1.901 0 0 1-.091-.35l-.004-.025a2.826 2.826 0 0 1-.035-.412l.058.01c.091.013.185.02.279.02h.029c.042.07.082.14.124.207.057.097.115.191.165.288l.005.011c.052.102.098.204.127.318l-.105-.064a.297.297 0 0 1 .069.135 1.973 1.973 0 0 1-.334.029Z"/>
  <path fill="#CC763E" d="m248.867 62.806-.121-.19-.215-.349a2.88 2.88 0 0 0 .199-.435 4.89 4.89 0 0 0 .287-1.396c.021-.337.282-.613.602-.613h.03a1.01 1.01 0 0 0 .19-.007c-.32.9-.6 1.829-.826 2.783l-.022.035a2.43 2.43 0 0 1-.124.172Z"/>
  <path fill="#CCCCE3" d="M250.475 60.45c.112-.329.23-.655.353-.977 0 .275-.072.55-.212.783a1.466 1.466 0 0 1-.141.195Z"/>
  <path fill="#293241" d="M249.014 62.598a26.72 26.72 0 0 1 .825-2.783.976.976 0 0 0 .202-.049c.351-.127.624-.464.687-.846.068.175.102.364.101.552a28.38 28.38 0 0 0-.353.979 1.436 1.436 0 0 1-.787.467 1.348 1.348 0 0 0-.041-.106.07.07 0 0 0-.055-.043h-.009a.07.07 0 0 0-.068.063l-.001.001a6.516 6.516 0 0 1-.173.98 2.886 2.886 0 0 1-.328.785Z"/>
  <path fill="#293241" d="M249.028 63.099c-.028-.058-.059-.114-.09-.171a2.281 2.281 0 0 0-.072-.122 2.55 2.55 0 0 0 .124-.172l.023-.035c.144-.229.248-.497.328-.786.085-.305.131-.633.173-.98v-.001a.07.07 0 0 1 .078-.063c.025.004.045.02.055.043l.041.106a1.32 1.32 0 0 1-.177.025c.151.747-.019 1.57-.483 2.156Z"/>
  <path fill="#293241" d="M248.598 63.508a1.342 1.342 0 0 1-.173-.296l-.003-.006a2.024 2.024 0 0 1-.122-.4 2.442 2.442 0 0 1-.034-.19c.104-.1.191-.22.266-.35.073.12.143.236.215.35.04.064.081.126.12.19a2.97 2.97 0 0 1 .162.293 2 2 0 0 1-.431.409Z"/>
  <path fill="#0A96E3" d="m232.284 40.673.146-.385-.032.23-.114.155Z"/>
  <path fill="#293241" d="m232.202 40.89.082-.218c.038-.051.075-.103.114-.154l-.046.355a7.248 7.248 0 0 0-.15.018Z"/>
  <path fill="#883320" d="M230.945 51.548c-.015 0-.031 0-.046-.003-1.988-.237-3.388-1.393-3.614-1.973a.817.817 0 0 1-.036-.145c.003-.423.029-.846.082-1.266.284.76.8 1.337 1.556 1.337.227 0 .475-.052.744-.166.692-.434.8-1.41.876-2.248.156-1.715.724-3.534 1.339-5.232l.036-.022c-.538 3.647-.675 6.056-.543 9.277a.436.436 0 0 1-.131.33.379.379 0 0 1-.263.111Z"/>
  <path fill="#B18F94" d="M227.249 49.427c-.052-.291-.066-.86-.011-1.551.027.097.058.192.093.285-.053.42-.079.842-.082 1.266Zm4.597-7.575.019-.053.022-.005-.005.036-.036.022Z"/>
  <path fill="#293241" d="M230.51 51.845c-1.075 0-2.456-.724-3.018-1.302-1.141-1.328-.751-3.281-.32-4.844-.156.65-.136 1.467.066 2.176-.055.692-.041 1.26.011 1.552a.81.81 0 0 0 .036.144c.226.58 1.626 1.736 3.614 1.974a.377.377 0 0 0 .309-.108.435.435 0 0 0 .131-.33c-.132-3.222.005-5.631.543-9.277a.438.438 0 0 1 .005-.036l-.022.004c.111-.307.225-.61.337-.908a8.418 8.418 0 0 1 .15-.017c-.247 2.015-.3 4.192-.497 6.164-.313 3.122.376 3.996-.469 4.574-.241.165-.544.234-.876.234Zm26.105-5.955c-.385 1.123-.102 2.257.633 2.53.734.274 1.642-.416 2.027-1.54.386-1.125.102-2.258-.632-2.532-.735-.273-1.643.417-2.028 1.541Z"/>
  <path fill="#fff" d="M258.011 45.986c-.112.328-.03.66.185.74.215.08.48-.122.592-.45.113-.33.03-.66-.185-.74-.214-.08-.479.121-.592.45Z"/>
  <path fill="#293241" d="M268.217 48.99c-.288 1.157-1.133 1.928-1.888 1.724-.755-.204-1.134-1.306-.847-2.462.287-1.156 1.132-1.928 1.887-1.724.755.205 1.135 1.307.848 2.463Z"/>
  <path fill="#fff" d="M267.009 48.253c-.084.338-.331.563-.551.504-.221-.06-.332-.382-.248-.72.084-.337.331-.562.551-.503.221.06.332.382.248.72Zm164.397-12.058v22.422h11.211a11.01 11.01 0 0 0 4.336-.86 11.633 11.633 0 0 0 3.555-2.421 11.09 11.09 0 0 0 2.383-3.555c.599-1.38.898-2.838.898-4.375 0-1.536-.299-2.981-.898-4.336a10.982 10.982 0 0 0-2.383-3.593 11.084 11.084 0 0 0-3.555-2.383 10.596 10.596 0 0 0-4.336-.899h-11.211Zm0 44.805h-11.211V24.984h22.422c2.057 0 4.037.274 5.938.82a20.932 20.932 0 0 1 5.312 2.266 21.14 21.14 0 0 1 4.531 3.516 21.11 21.11 0 0 1 3.516 4.531 21.612 21.612 0 0 1 2.266 5.352c.547 1.9.82 3.88.82 5.937 0 3.073-.586 5.977-1.758 8.711-1.172 2.709-2.773 5.078-4.804 7.11-2.032 2.03-4.415 3.632-7.149 4.804-2.708 1.172-5.599 1.758-8.672 1.758h-11.211V81Zm55.703-10.234c.417.13.834.221 1.25.273.417.026.834.04 1.25.04 1.042 0 2.045-.144 3.008-.43.964-.287 1.862-.69 2.695-1.212a10.194 10.194 0 0 0 2.266-1.953 10.323 10.323 0 0 0 1.641-2.578l7.812 7.852a20.638 20.638 0 0 1-3.437 3.789 20.813 20.813 0 0 1-4.18 2.851 19.806 19.806 0 0 1-4.726 1.758 20.556 20.556 0 0 1-5.079.625c-2.942 0-5.716-.547-8.32-1.64a21.257 21.257 0 0 1-6.797-4.57c-1.927-1.954-3.45-4.272-4.57-6.954-1.12-2.708-1.68-5.677-1.68-8.906 0-3.307.56-6.328 1.68-9.063 1.12-2.734 2.643-5.065 4.57-6.992a21.043 21.043 0 0 1 6.797-4.492c2.604-1.068 5.378-1.602 8.32-1.602 1.745 0 3.451.209 5.118.626a21.09 21.09 0 0 1 4.726 1.796 20.89 20.89 0 0 1 4.219 2.891 20.638 20.638 0 0 1 3.437 3.79l-20 24.1Zm5.469-21.993a6.142 6.142 0 0 0-1.484-.351 13.463 13.463 0 0 0-1.485-.078 10.58 10.58 0 0 0-4.14.82 9.827 9.827 0 0 0-3.36 2.266c-.937.99-1.679 2.187-2.226 3.593-.547 1.38-.821 2.943-.821 4.688 0 .39.014.833.04 1.328.052.495.117 1.003.195 1.523.104.495.221.977.351 1.446.131.469.3.885.508 1.25l12.422-16.485ZM533.477 81c-2.579 0-5-.482-7.266-1.445a19.635 19.635 0 0 1-5.977-4.024 19.654 19.654 0 0 1-4.023-5.976c-.964-2.266-1.445-4.688-1.445-7.266V49.867h-5.196V39.242h5.196V22.523h10.625v16.72h16.171v10.624h-16.171V62.29c0 1.12.208 2.174.625 3.164.416.964.989 1.81 1.718 2.54a8.552 8.552 0 0 0 2.578 1.757c.99.417 2.045.625 3.165.625h8.085V81h-8.085Zm37.07 0h-24.375V70.375h24.375c.729 0 1.354-.26 1.875-.781a2.557 2.557 0 0 0 .781-1.875c0-.755-.26-1.25-.781-1.485-.521-.234-1.146-.351-1.875-.351h-11.094c-1.849 0-3.581-.352-5.195-1.055a13.553 13.553 0 0 1-4.219-2.851 14.041 14.041 0 0 1-2.851-4.258c-.678-1.615-1.016-3.347-1.016-5.196 0-1.849.338-3.58 1.016-5.195a13.55 13.55 0 0 1 2.851-4.219 13.018 13.018 0 0 1 4.219-2.812c1.614-.703 3.346-1.055 5.195-1.055h21.602v10.625h-21.602c-.729 0-1.354.26-1.875.781a2.556 2.556 0 0 0-.781 1.875c0 .756.26 1.407.781 1.954a2.56 2.56 0 0 0 1.875.78h11.094c1.823 0 3.542.313 5.156.938 1.615.6 3.021 1.446 4.219 2.54a12.079 12.079 0 0 1 2.851 3.945c.704 1.536 1.055 3.216 1.055 5.039 0 1.849-.351 3.58-1.055 5.195a14.183 14.183 0 0 1-2.851 4.219 13.554 13.554 0 0 1-4.219 2.851c-1.614.678-3.333 1.016-5.156 1.016Z"/>
</svg>
