<svg xmlns="http://www.w3.org/2000/svg" width="45" height="45" fill="none" viewBox="0 0 45 45">
  <path fill="#F9FDFF" d="M13.218.815h18.689c7.12 0 12.905 5.69 12.905 12.693V31.89c0 3.366-1.36 6.595-3.78 8.975a13.014 13.014 0 0 1-9.125 3.718h-18.69c-7.12 0-12.904-5.69-12.904-12.693V13.508a12.59 12.59 0 0 1 3.78-8.976A13.014 13.014 0 0 1 13.218.815Zm-.445 4.376c-2.125 0-4.162.83-5.664 2.308a7.814 7.814 0 0 0-2.346 5.57v19.26c0 4.354 3.582 7.878 8.01 7.878h19.579c2.124 0 4.162-.83 5.664-2.308a7.813 7.813 0 0 0 2.346-5.57v-19.26c0-4.354-3.582-7.878-8.01-7.878h-19.58Zm21.47 3.283c.738 0 1.445.288 1.967.801.521.513.814 1.21.814 1.935 0 .725-.293 1.421-.814 1.934a2.805 2.805 0 0 1-1.967.801 2.805 2.805 0 0 1-1.966-.801 2.713 2.713 0 0 1-.815-1.934c0-.726.293-1.422.815-1.935a2.805 2.805 0 0 1 1.966-.8Zm-11.68 3.283c2.95 0 5.78 1.153 7.866 3.205a10.852 10.852 0 0 1 3.258 7.737c0 2.902-1.172 5.685-3.258 7.737a11.219 11.219 0 0 1-7.867 3.205c-2.95 0-5.78-1.152-7.866-3.205a10.852 10.852 0 0 1-3.258-7.737c0-2.902 1.172-5.685 3.258-7.737a11.22 11.22 0 0 1 7.866-3.205Zm0 4.377c-1.77 0-3.469.691-4.72 1.923a6.51 6.51 0 0 0-1.955 4.642 6.51 6.51 0 0 0 1.955 4.642 6.732 6.732 0 0 0 4.72 1.923c1.77 0 3.467-.691 4.72-1.922a6.511 6.511 0 0 0 1.954-4.643 6.51 6.51 0 0 0-1.955-4.642 6.731 6.731 0 0 0-4.72-1.923Z"/>
</svg>
