<svg xmlns="http://www.w3.org/2000/svg" width="591" height="101" fill="none" viewBox="0 0 591 101">
  <path fill="#fff" d="M44.414 79H5.195V22.984h11.211V67.79h28.008V79Zm44.063-21.29c0 3.126-.56 6.043-1.68 8.75-1.12 2.683-2.643 5.014-4.57 6.993-1.928 1.953-4.193 3.503-6.797 4.649-2.578 1.12-5.352 1.68-8.32 1.68-2.943 0-5.717-.56-8.32-1.68a22.368 22.368 0 0 1-6.798-4.649c-1.927-1.979-3.45-4.31-4.57-6.992-1.12-2.708-1.68-5.625-1.68-8.75 0-3.177.56-6.12 1.68-8.828 1.12-2.709 2.643-5.04 4.57-6.992a21.478 21.478 0 0 1 6.797-4.649c2.604-1.12 5.378-1.68 8.32-1.68 2.97 0 5.743.534 8.32 1.602 2.605 1.042 4.87 2.54 6.798 4.492 1.927 1.927 3.45 4.258 4.57 6.992 1.12 2.709 1.68 5.73 1.68 9.063Zm-10.743 0c0-1.718-.286-3.267-.859-4.648-.547-1.406-1.302-2.604-2.266-3.593a9.486 9.486 0 0 0-3.398-2.305 10.3 10.3 0 0 0-4.102-.82 10.58 10.58 0 0 0-4.14.82 9.568 9.568 0 0 0-3.36 2.305c-.937.99-1.68 2.187-2.226 3.593-.547 1.38-.82 2.93-.82 4.649 0 1.614.273 3.112.82 4.492.547 1.38 1.289 2.578 2.226 3.594a11.076 11.076 0 0 0 3.36 2.422c1.302.573 2.682.86 4.14.86a10.3 10.3 0 0 0 4.102-.821 10.206 10.206 0 0 0 3.398-2.305c.964-.99 1.72-2.187 2.266-3.594.573-1.406.86-2.955.86-4.648ZM105 79 89.062 37.164h12.149l9.141 26.094 9.101-26.094h12.188L115.703 79H105Zm46.094-10.234c.416.13.833.221 1.25.273.416.026.833.04 1.25.04 1.041 0 2.044-.144 3.008-.43.963-.287 1.862-.69 2.695-1.212a10.21 10.21 0 0 0 2.265-1.953 10.295 10.295 0 0 0 1.641-2.578l7.813 7.852a20.68 20.68 0 0 1-3.438 3.789 20.785 20.785 0 0 1-4.18 2.851 19.79 19.79 0 0 1-4.726 1.758 20.548 20.548 0 0 1-5.078.625c-2.943 0-5.716-.547-8.321-1.64a21.253 21.253 0 0 1-6.796-4.57c-1.928-1.954-3.451-4.272-4.571-6.954-1.12-2.708-1.679-5.677-1.679-8.906 0-3.307.559-6.328 1.679-9.063 1.12-2.734 2.643-5.065 4.571-6.992a21.039 21.039 0 0 1 6.796-4.492c2.605-1.068 5.378-1.602 8.321-1.602 1.745 0 3.45.209 5.117.626a21.099 21.099 0 0 1 4.727 1.796 20.912 20.912 0 0 1 4.218 2.891 20.68 20.68 0 0 1 3.438 3.79l-20 24.1Zm5.468-21.993a6.13 6.13 0 0 0-1.484-.351 13.444 13.444 0 0 0-1.484-.078 10.58 10.58 0 0 0-4.141.82 9.813 9.813 0 0 0-3.359 2.266c-.938.99-1.68 2.187-2.227 3.593-.547 1.38-.82 2.943-.82 4.688 0 .39.013.833.039 1.328.052.495.117 1.003.195 1.523.104.495.222.977.352 1.446.13.469.299.885.508 1.25l12.421-16.485Zm163.259 27.344a29.667 29.667 0 0 1-2.773 2.227 22.295 22.295 0 0 1-3.047 1.797 18.65 18.65 0 0 1-3.32 1.171c-1.12.313-2.266.47-3.438.47-2.578 0-5-.456-7.266-1.368a18.323 18.323 0 0 1-5.976-3.867c-1.693-1.693-3.034-3.737-4.024-6.133-.963-2.422-1.445-5.13-1.445-8.125V37.164h10.625V60.29c0 1.406.208 2.67.625 3.79.443 1.093 1.029 2.017 1.758 2.773a7.307 7.307 0 0 0 2.539 1.718 8.54 8.54 0 0 0 3.164.586 6.661 6.661 0 0 0 3.086-.742 8.9 8.9 0 0 0 2.578-2.031 9.73 9.73 0 0 0 1.719-2.813 8.946 8.946 0 0 0 .625-3.28V37.163h10.664V79h-2.578l-3.516-4.883ZM344.743 79h-10.664V37.164h2.578l3.516 4.961a18.332 18.332 0 0 1 5.859-3.594 18.431 18.431 0 0 1 6.797-1.289h9.414v10.625h-9.414a8.07 8.07 0 0 0-3.164.625 7.99 7.99 0 0 0-2.578 1.719 7.996 7.996 0 0 0-1.719 2.578 8.063 8.063 0 0 0-.625 3.164V79ZM283 48.5c0 17.397-14.103 31.5-31.5 31.5S220 65.897 220 48.5 234.103 17 251.5 17 283 31.103 283 48.5Z"/>
  <path fill="#3D5A80" d="M227.786 48.671c0-13.278 10.764-24.042 24.042-24.042 13.279 0 24.042 10.764 24.042 24.042 0 13.278-10.763 24.042-24.042 24.042-13.278 0-24.042-10.764-24.042-24.042Z"/>
  <path fill="#fff" d="M273.778 44.688a40.792 40.792 0 0 1-.87 3.07c-3.293-1.846-6.309-4.829-7.694-8.473 1.449-.934 2.866-1.851 4.349-2.55a14.03 14.03 0 0 1 2.365-.88c3.571-.88 2.832 4.792 1.85 8.833Z"/>
  <path fill="#293241" d="M265.716 39.456c1.243 3.015 3.751 5.783 6.964 7.692 1.131-3.585 2.222-9.032.894-10.56-.34-.392-.847-.498-1.55-.325-2.22.59-4.214 1.845-6.308 3.194Zm7.42 8.905-.416-.233c-3.696-2.072-6.568-5.24-7.881-8.691l-.124-.326.329-.212c2.237-1.443 4.35-2.805 6.781-3.452 1.008-.248 1.795-.052 2.345.58 2.151 2.476-.564 10.917-.88 11.872l-.154.462Z"/>
  <path fill="#EE6C4D" d="M271.717 43.64c.571-1.265.891-3.071.677-4.954-.026-.23-.249-.382-.46-.314a9.057 9.057 0 0 0-3.442 2.076c.783 1.328 1.895 2.446 3.225 3.192Z"/>
  <path fill="#293241" d="M268.983 40.522a8.352 8.352 0 0 0 2.555 2.561c.472-1.255.653-2.837.488-4.33a8.683 8.683 0 0 0-3.043 1.769Zm2.776 3.507a.364.364 0 0 1-.216-.046c-1.371-.768-2.536-1.92-3.369-3.332a.403.403 0 0 1 .065-.493 9.465 9.465 0 0 1 3.582-2.16.705.705 0 0 1 .617.092.771.771 0 0 1 .331.553c.207 1.823-.052 3.706-.71 5.166a.379.379 0 0 1-.3.22Z"/>
  <path fill="#fff" d="M270.972 62.418c-3.7 5.339-9.492 9.061-16.299 9.777-.708.074-1.413.114-2.112.121a10.402 10.402 0 0 1-1.086-2.67 10.299 10.299 0 0 1-.234-1.204c-.51-4.505.448-8.767 2.119-12.872.675-1.66 1.467-3.294 2.325-4.908 3.632 2 7.934 2.626 11.961 1.843-.033 1.769.276 3.527.852 5.197a18.113 18.113 0 0 0 2.474 4.717Zm-10.686-23.869c-1.774 2.953-4.881 5.03-8.059 6.057a37.176 37.176 0 0 1-.343-3.69c-.155-3.61.233-7.92 3.02-6.602.696.344 1.351.762 1.981 1.23 1.184.877 2.281 1.93 3.401 3.005Z"/>
  <path fill="#293241" d="M253.857 34.496a.928.928 0 0 0-.487.2c-1.38 1.086-1.256 6.009-.815 9.355 3.073-1.091 5.665-3.045 7.208-5.436-1.624-1.554-3.178-3.006-5.03-3.922-.332-.157-.623-.223-.876-.197ZM251.9 45.151l-.072-.485c-.134-.9-1.237-8.84 1.052-10.642.408-.321 1.119-.598 2.187-.092 2.053 1.015 3.705 2.599 5.455 4.275l.284.272-.178.295c-1.686 2.806-4.704 5.078-8.28 6.233l-.448.144Z"/>
  <path fill="#EE6C4D" d="M254.281 41.775c-.472-1.317-.653-3.149-.296-5.003a.35.35 0 0 1 .482-.266 9.354 9.354 0 0 1 3.27 2.415c-.882 1.244-2.074 2.246-3.456 2.854Z"/>
  <path fill="#293241" d="M254.348 36.877c-.279 1.47-.219 3.065.155 4.362a8.066 8.066 0 0 0 2.741-2.294 8.984 8.984 0 0 0-2.896-2.068Zm-.026 5.287a.362.362 0 0 1-.188-.03.388.388 0 0 1-.205-.225c-.544-1.52-.658-3.422-.313-5.217a.75.75 0 0 1 .372-.518.7.7 0 0 1 .621-.028c1.265.55 2.442 1.419 3.404 2.512a.405.405 0 0 1 .027.497c-.938 1.323-2.186 2.353-3.61 2.98a.374.374 0 0 1-.108.03Z"/>
  <path fill="#EE6C4D" d="M265.738 66.851c.023.33.029.66.017.99a22.798 22.798 0 0 1-2.344 1.54 22.139 22.139 0 0 1-4.335 1.896l-1.105.319a5.117 5.117 0 0 1-.601-.978 11.94 11.94 0 0 1-.655-1.952c-.6-2.451-.455-5.097.444-7.436.457-1.185 1.188-2.372 2.348-2.788 1.214-.434 2.608.123 3.523 1.074.916.951 1.439 2.23 1.861 3.5.092.276.18.554.263.833.291.98.514 1.982.584 3.002Z"/>
  <path fill="#fff" d="M269.28 64.582a23.234 23.234 0 0 1-3.525 3.26 22.723 22.723 0 0 1-2.344 1.539c-.031-1.436.33-3.085.676-3.837a6.628 6.628 0 0 1 1.067-1.695c.603-.694 1.351-1.243 2.197-1.557 1.287.262 1.844 1.15 1.929 2.29Zm-10.204 6.696c-.61-1.035-1.426-1.97-2.361-2.61-1.292-.886-2.814-1.207-4.342-.447.069 1.458.742 2.885 1.754 4.025a22.331 22.331 0 0 0 3.844-.65l1.105-.318Z"/>
  <path fill="#CCCCE3" d="M253.797 71.848c-.337.022-.674.037-1.008.044a9.959 9.959 0 0 1-.767-1.791c.297.198.625.35.967.45.221.456.494.89.808 1.297Zm15.402-7.803a2.4 2.4 0 0 0-.421-.92 6.62 6.62 0 0 0 .386-2.851c.382.734.819 1.45 1.307 2.144a23.403 23.403 0 0 1-1.272 1.627Z"/>
  <path fill="#CC5F45" d="M258.844 70.906a8.337 8.337 0 0 0-1.77-1.974c.025-.04.049-.081.073-.123a4.188 4.188 0 0 0 3.118.967c.217-.022.432-.063.642-.122 1.171-.33 2.175-1.223 2.684-2.365a11.479 11.479 0 0 0-.177 1.597 22.12 22.12 0 0 1-4.57 2.02Zm4.816-3.965a.54.54 0 0 0-.058-.015l.06.004-.002.011Z"/>
  <path fill="#CCCCE3" d="M263.414 68.886c.02-.539.085-1.09.177-1.597.048-.107.092-.217.131-.329l-.062-.019a.042.042 0 0 0 .002-.01l.044.002c.112-.004.224-.012.336-.024 1.675-.176 3.235-1.178 4.167-2.638a6.04 6.04 0 0 0 .568-1.147c.203.264.34.576.421.922a22.705 22.705 0 0 1-5.784 4.84Zm-8.785 2.89a22.07 22.07 0 0 1-.832.072 7.321 7.321 0 0 1-.808-1.296c.439.13.903.175 1.359.127l.046-.005c1.085-.13 2.095-.79 2.681-1.742a8.36 8.36 0 0 1 1.77 1.973c-1.365.426-2.776.72-4.216.871Z"/>
  <path fill="#293241" d="M252.789 71.892a22.104 22.104 0 0 0 1.841-.116c6.316-.663 12.074-4.069 15.842-9.358-2.037-2.892-3.172-6.204-3.228-9.414-3.911.654-7.924.027-11.393-1.783-2.398 4.568-4.956 10.584-4.209 17.175a9.995 9.995 0 0 0 1.147 3.496Zm1.929.72c-.714.075-1.437.117-2.149.124l-.231.002-.121-.207a10.857 10.857 0 0 1-1.374-4.035c-.795-7.009 1.982-13.322 4.489-18.04l.19-.357.349.192c3.527 1.943 7.682 2.582 11.699 1.8l.489-.095-.009.52c-.061 3.272 1.091 6.699 3.243 9.65l.182.249-.175.25c-3.896 5.623-9.941 9.249-16.582 9.947Z"/>
  <path fill="#fff" d="M270.538 63.024c.28-4.378-1.332-6.549-.135-7.438 1.24-.922 2.271 1.333 2.39 3.737l-2.255 3.7Z"/>
  <path fill="#CCCCE3" d="M252.379 42.407a34.339 34.339 0 0 1-.113-1.972c.369-.453.757-.89 1.161-1.312.02.601.091 1.19.21 1.748a46.663 46.663 0 0 0-1.258 1.536Zm4.73-4.656a9.968 9.968 0 0 0-1.187-.9 4.92 4.92 0 0 0 .566-.618c.076-.1.147-.205.211-.315.516.385 1.016.806 1.511 1.248a9.333 9.333 0 0 0-1.101.585Z"/>
  <path fill="#293241" d="M252.018 42.864a37.854 37.854 0 0 1-.134-1.947c.124-.162.251-.323.381-.482.018.66.058 1.328.113 1.972l-.163.207-.197.25Zm6.191-5.698a22.314 22.314 0 0 0-1.511-1.247c.071-.12.134-.246.186-.375.6.444 1.176.933 1.745 1.447a8.726 8.726 0 0 0-.42.175Z"/>
  <path fill="#CC5F45" d="M254.274 40.157a9.996 9.996 0 0 1-.092-1.783c.283-.267.573-.526.869-.776l.262-.22c.395.239.775.512 1.136.815-.782.566-1.498 1.236-2.175 1.964Z"/>
  <path fill="#293241" d="M253.636 40.87a9.898 9.898 0 0 1-.21-1.747c.246-.256.497-.506.755-.75a10 10 0 0 0 .092 1.784c-.216.232-.428.47-.637.713Zm2.812-2.678a9.044 9.044 0 0 0-1.136-.813c.207-.172.413-.346.608-.529.414.267.811.568 1.187.9-.225.14-.445.287-.659.442Zm14.719 23.801-.001-.001 1.538-2.524c-.396.91-.915 1.763-1.537 2.525Zm-.003.005.004-.006-.004.006Z"/>
  <path fill="#0A96E3" d="M272.72 58.528a1.266 1.266 0 0 0-.012-.086l.02.07-.008.016Z"/>
  <path fill="#293241" d="M272.79 59.267a9.891 9.891 0 0 0-.07-.74l.007-.015.148.542-.085.213Z"/>
  <path fill="#0A96E3" d="M270.081 57.743a15.53 15.53 0 0 0-.095-.357l.048.074c.014.091.03.185.047.283Z"/>
  <path fill="#CCCCE3" d="M270.586 62.647a16.144 16.144 0 0 0-.505-4.905 14.089 14.089 0 0 1-.047-.282c.412.605 1.142.92 1.834.847.257-.027.509-.107.737-.246l.103.38.012.087c.033.242.056.49.07.739a13.3 13.3 0 0 1-.085.2l-1.538 2.525-.003.006c-.184.224-.377.44-.578.649Zm2.346-16.334a95.018 95.018 0 0 0-.814-1.805v-.001a.118.118 0 0 1-.008-.017l-.002-.003a.112.112 0 0 0-.007-.016l-.023-.049a.025.025 0 0 0-.004-.007.05.05 0 0 0-.005-.012.037.037 0 0 1-.004-.008l-.006-.012-.004-.009a.176.176 0 0 0-.008-.018l-.006-.012-.004-.008a.16.16 0 0 0-.006-.012l-.004-.009-.006-.013-.003-.007a.241.241 0 0 1-.01-.02l-.133-.279a.376.376 0 0 0 .183-.188c.176-.39.323-.81.441-1.251.339.536.668 1.079.988 1.627a39.787 39.787 0 0 1-.555 2.129Zm-3.896-6.838a10.05 10.05 0 0 0-1.341-1.259 24.52 24.52 0 0 1 1.866-1.018c.018.266.067.531.143.782.086.285.202.557.335.82a9.71 9.71 0 0 0-1.003.675Z"/>
  <path fill="#293241" d="m273.183 46.884-.251-.57a39.72 39.72 0 0 0 .555-2.13c.098.168.195.336.291.505a42.158 42.158 0 0 1-.595 2.195Zm-5.488-8.667a9.334 9.334 0 0 0-.364-.268 24.874 24.874 0 0 1 2.232-1.214 3.11 3.11 0 0 0-.001.463c-.629.305-1.248.65-1.867 1.019Z"/>
  <path fill="#CC5F45" d="M271.538 43.083a7.734 7.734 0 0 1-.179-.117c-.546-1.043-1.141-2.025-1.826-2.896.289-.218.588-.417.895-.597.218.341.455.672.686 1.001.275.394.545.79.81 1.191-.092.5-.221.98-.386 1.418Z"/>
  <path fill="#293241" d="M271.876 43.997a34.01 34.01 0 0 0-.517-1.03c.06.04.119.079.179.117.165-.439.295-.917.386-1.418.195.295.387.593.576.892a8.196 8.196 0 0 1-.441 1.251.381.381 0 0 1-.183.188Zm-2.342-3.927a12.549 12.549 0 0 0-.497-.594 9.632 9.632 0 0 1 1.003-.675c.117.23.249.454.389.673a8.863 8.863 0 0 0-.895.596Zm1.398 15.699a.636.636 0 0 0-.309.137c-.421.313-.332.91-.089 2.23.171.933.392 2.137.412 3.642a23.8 23.8 0 0 0 1.466-2.542c-.109-1.802-.711-3.148-1.243-3.418a.41.41 0 0 0-.237-.05Zm-.353 7.645a.359.359 0 0 1-.173-.025.397.397 0 0 1-.243-.394c.129-2.014-.158-3.577-.367-4.718-.255-1.39-.439-2.395.388-3.01.421-.313.886-.367 1.31-.152 1.039.528 1.59 2.486 1.674 4.192a.395.395 0 0 1-.04.197 24.633 24.633 0 0 1-2.292 3.762.37.37 0 0 1-.257.148Z"/>
  <path fill="#CCCCE3" d="m264.911 58.355-.189.02a2.662 2.662 0 0 0-1.623-.362 2.812 2.812 0 0 0-1.221.44c-.22-.01-.439-.025-.659-.042a3.024 3.024 0 0 0-1.011-.112 17.19 17.19 0 0 1-.353-.054c-2.181-.353-4.322-1.164-6.157-2.434.232-.574.474-1.134.721-1.68a14.713 14.713 0 0 0 8.803 2.541h.027l.005-.001h.018l.004-.001h.017l.007-.001h.001a14.198 14.198 0 0 0 4.264-.833c.137.657.317 1.314.539 1.963a24.82 24.82 0 0 1-3.193.556Z"/>
  <path fill="#CC5F45" d="M261.22 58.41a17.599 17.599 0 0 1-1.011-.111c.337-.023.678.019 1.011.112Z"/>
  <path fill="#293241" d="M268.103 57.799a16.806 16.806 0 0 1-.539-1.963c.128-.046.256-.095.382-.144.14.68.325 1.351.552 2.01l-.395.097Zm-14.406-1.988c-.113-.079-.226-.16-.337-.242.228-.56.47-1.119.723-1.674.111.08.222.16.336.237-.248.545-.49 1.106-.722 1.679Z"/>
  <path fill="#fff" d="M273.843 51.284c-6.864 8.649-20.422 6.47-24.513-3.45-.288-.696-.169-1.502.322-2.055.885-.996 1.715-2.089 2.563-3.166 2.264-2.882 4.64-5.65 8.454-6.137 6.433-.657 9.166 3.214 11.339 7.798.723 1.525 1.384 3.13 2.099 4.673a2.25 2.25 0 0 1-.264 2.337Z"/>
  <path fill="#0A93E1" d="M268.326 55.535Z"/>
  <path fill="#293241" d="M267.947 55.691Z"/>
  <path fill="#A1A1CB" d="M264.221 56.602Z"/>
  <path fill="#293241" d="M267.565 55.836Z"/>
  <path fill="#A1A1CB" d="M263.298 56.67h-.007.007Zm-.009 0h-.006.006Zm-.009 0h-.006.006Zm-.009 0h-.005.005Zm-.009.001h-.005.005Zm-.018 0-.005.001h.005Zm-.011.001h-.002.002Z"/>
  <path fill="#0A93E1" d="M272.68 52.587a.02.02 0 0 1 .004-.004l-.004.004Zm.008-.008.005-.005-.005.005Zm.01-.01.003-.003-.003.004Zm.009-.009.002-.002-.002.002Zm1.141-1.282a2.251 2.251 0 0 0 .26-2.33 61.627 61.627 0 0 0 .568 1.183 15.2 15.2 0 0 1-.828 1.147Z"/>
  <path fill="#A1A1CB" d="M272.934 46.313Z"/>
  <path fill="#293241" d="m273.183 46.884-.251-.57.251.57Z"/>
  <path fill="#C9743F" d="M249.329 47.829a14.768 14.768 0 0 1-.444-1.228c.174-.176.346-.358.516-.543l.021.046a1.996 1.996 0 0 0-.093 1.725Z"/>
  <path fill="#A15D49" d="m249.421 46.104-.021-.045.249-.276c-.088.1-.164.207-.228.321Z"/>
  <path fill="#A1A1CB" d="m272.108 44.488-.007-.016.007.016Zm-.008-.017-.022-.048.022.048Zm-.045-.096-.008-.018a.143.143 0 0 0 .008.018Z"/>
  <path fill="#C9C9E1" d="M264.22 56.602c-.305.032-.612.054-.919.067h-.019l-.007.001h-.022l-.004.001h-.009a.06.06 0 0 0-.006 0h-.003l-.008.001h-.001c-5.715.205-11.471-2.957-13.895-8.843a1.998 1.998 0 0 1 .094-1.725 1.81 1.81 0 0 1 .228-.322c.886-.996 1.718-2.09 2.566-3.169-.332.88-.691 1.745-1.062 2.583a3.529 3.529 0 0 0 .394 3.512c2.317 3.121 5.868 5.253 9.628 5.68.935.106 1.877.106 2.809.008a14.031 14.031 0 0 0 7.704-3.371c.927-.811 1.339-2.096 1.068-3.333l-.748-3.418a.183.183 0 0 0 .01.02.136.136 0 0 0 .003.008l.006.013.005.009a.061.061 0 0 0 .005.012.033.033 0 0 1 .004.008l.006.012.009.018.004.009.005.012.004.008.006.012.003.007.023.049.007.016.002.004.008.016a141.432 141.432 0 0 1 1.065 2.376l.25.568c.222.502.445 1.002.674 1.496a2.251 2.251 0 0 1-.259 2.33c-.356.45-.732.872-1.122 1.263l-.009.009-.002.001-.006.007-.003.003a.108.108 0 0 1-.006.006l-.003.003a.02.02 0 0 0-.005.005l-.004.004a.015.015 0 0 0-.004.004l-.005.005a13.999 13.999 0 0 1-8.459 4.015Z"/>
  <path fill="#293241" d="M260.711 36.894c-3.897.5-6.304 3.58-8.632 6.56-.695.888-1.413 1.807-2.161 2.646a1.44 1.44 0 0 0-.254 1.486c1.839 4.541 5.869 7.718 10.782 8.498 1.263.2 2.516.232 3.736.104 3.652-.384 6.995-2.2 9.359-5.186a1.798 1.798 0 0 0 .211-1.859c-.331-.712-.654-1.447-.967-2.158-2.449-5.573-4.763-10.838-12.074-10.09Zm3.561 20.13a15.065 15.065 0 0 1-3.941-.11c-5.195-.825-9.46-4.192-11.409-9.007a2.302 2.302 0 0 1 .404-2.382c.73-.819 1.44-1.727 2.126-2.605 2.428-3.107 4.938-6.32 9.163-6.86 7.897-.807 10.442 4.982 12.903 10.581.311.707.632 1.438.959 2.143a2.668 2.668 0 0 1-.312 2.756c-2.5 3.158-6.035 5.078-9.893 5.484Z"/>
  <path fill="#293241" d="M263.398 49.766a8.545 8.545 0 0 1-.104.534c-.541 2.387-1.75 2.764-2.375 1.272-.203-.481-.345-1.157-.383-2.023.592-.01 1.222-.388 1.401-1.09.142.768.763 1.212 1.461 1.307Zm-2.251-2.149c.015-.302.389-.3.85-.27.46.028.833.07.818.373-.014.302-.411.749-.871.72-.461-.028-.812-.521-.797-.823Z"/>
  <path fill="#FF5228" d="M263.292 50.3c-.54 2.388-1.749 2.764-2.375 1.272.115-.788.683-1.416 1.426-1.494.34-.035.667.048.949.223Z"/>
  <path fill="#293241" d="M265.271 49.144c-.118.382-.421.69-.776.872-.357.184-.77.25-1.176.197a2.104 2.104 0 0 1-1.784-1.679l.797.037c-.093.395-.32.767-.629 1.019a1.794 1.794 0 0 1-1.079.41 1.635 1.635 0 0 1-.588-.09 1.272 1.272 0 0 1-.524-.338 1.108 1.108 0 0 1-.278-.559.967.967 0 0 1 .064-.565.074.074 0 0 1 .132-.01l.002.004c.093.148.179.267.268.356.089.09.179.15.269.194.178.086.381.125.599.099.214-.024.43-.101.604-.228a.962.962 0 0 0 .369-.518l.008-.025a.4.4 0 0 1 .507-.276c.152.05.257.184.282.337a.993.993 0 0 0 .37.642c.201.158.459.242.726.287.267.046.547.047.832.008.287-.04.576-.12.904-.267h.002a.073.073 0 0 1 .097.039.078.078 0 0 1 .002.054Z"/>
  <path fill="#293241" d="M260.963 49.915c.053.598.163 1.108.325 1.49.169.406.392.647.581.63h.004c.303-.032.753-.617 1.028-1.834l.025-.114a2.046 2.046 0 0 1-1.029-.725c-.247.27-.572.464-.934.553Zm.998 2.955a.305.305 0 0 1-.019.002c-.562.049-1.07-.365-1.392-1.135-.238-.564-.378-1.295-.417-2.172a.427.427 0 0 1 .108-.305.392.392 0 0 1 .285-.13c.399-.007.887-.255 1.022-.783a.4.4 0 0 1 .403-.309.414.414 0 0 1 .382.344c.143.777.888.937 1.114.967a.403.403 0 0 1 .274.169.432.432 0 0 1 .074.322 9.155 9.155 0 0 1-.11.562c-.337 1.49-.965 2.389-1.724 2.468Z"/>
  <path fill="#fff" d="M266.239 59.944c-2.394-3.914-6.492-1.358-6.174 2.701.315 4.026 4.736 2.615 4.09-.714l2.084-1.987Z"/>
  <path fill="#293241" d="M261.2 65.075a1.324 1.324 0 0 1-.135-.42 2.035 2.035 0 0 1-.018-.44c.016-.294.076-.584.204-.845a.04.04 0 0 1 .055-.018.043.043 0 0 1 .021.028c.07.279.128.537.201.785.034.125.076.245.106.366.031.122.063.241.074.37l.001.01a.278.278 0 0 1-.246.308.274.274 0 0 1-.263-.144Zm1.198-.044a1.187 1.187 0 0 1-.111-.395 1.888 1.888 0 0 1-.001-.411c.027-.273.091-.542.221-.783a.04.04 0 0 1 .056-.016c.01.006.017.016.02.027.068.262.121.503.186.737.031.117.066.23.092.344.026.114.049.227.053.348v.01a.277.277 0 0 1-.264.293.276.276 0 0 1-.252-.154Z"/>
  <path fill="#fff" d="M254.036 61.088c.596-1.582 2.235-3.662 3.83-2.677 1.498.925 2.24 3.19 2.087 4.916-.266 2.989-4.242 2.983-4.044-.924l-1.873-1.315Z"/>
  <path fill="#CCCCE3" d="M265.024 63.426a19.55 19.55 0 0 0-.133-.41 16.575 16.575 0 0 0-.491-1.319l.215-.204c.155.101.325.173.506.204a.984.984 0 0 0 .723-.159.189.189 0 0 1 .086-.032.196.196 0 0 1 .197.266 2.43 2.43 0 0 1-.163.352c-.165.29-.455.523-.768.556a.705.705 0 0 1-.214-.01c.04.25.055.504.042.756Z"/>
  <path fill="#CC5F45" d="M262.628 66.245a2.22 2.22 0 0 1-.306.011c-.831-.028-1.646-.557-1.987-1.35a3.106 3.106 0 0 1-.22-.917 6.88 6.88 0 0 0-.129-1.656c.021.053.043.104.068.155.002.053.006.105.01.158.089 1.134.503 1.836 1.038 2.186.024.084.054.166.097.244a.273.273 0 0 0 .263.143h.004a.27.27 0 0 0 .212-.15 1.747 1.747 0 0 0 .736-.01.275.275 0 0 0 .256.125.28.28 0 0 0 .244-.292v-.01l-.001-.003c.864-.445 1.518-1.52 1.241-2.947l.245-.234c.184.431.344.876.491 1.32.046.135.09.272.133.409a3.48 3.48 0 0 1-.108.712 6.62 6.62 0 0 0-.844 1.439 2.562 2.562 0 0 1-1.443.667Z"/>
  <path fill="#CCCCE3" d="m264.073 65.577.015-.034a6.7 6.7 0 0 1 .829-1.405 3.083 3.083 0 0 1-.459 1.003c-.113.16-.242.306-.385.436Zm-1.864-.484a1.747 1.747 0 0 1-.53-.025.292.292 0 0 0 .03-.158l-.001-.01c-.012-.128-.043-.247-.074-.369-.03-.121-.072-.242-.107-.366a12.338 12.338 0 0 1-.123-.47 1.845 1.845 0 0 0 .984.027 2.368 2.368 0 0 0-.102.502c-.012.137-.016.275.001.412a1.188 1.188 0 0 0 .128.423 1.849 1.849 0 0 1-.206.034Zm.705-.215a1.787 1.787 0 0 0-.053-.344c-.026-.114-.061-.228-.092-.345-.048-.175-.09-.354-.137-.544a1.86 1.86 0 0 0 .854-.66c.329-.471.427-1.059.457-1.652a.2.2 0 0 1 .177-.193.184.184 0 0 1 .157.061c.101.112.214.212.338.292l-.215.204-.245.234c.277 1.428-.377 2.502-1.241 2.947Zm-1.811-.046c-.535-.35-.949-1.053-1.038-2.187-.004-.053-.008-.105-.01-.157.233.487.629.893 1.102 1.112a2.397 2.397 0 0 0-.092 1.056c.01.059.023.118.038.175Z"/>
  <path fill="#293241" d="M261.467 65.218h-.004a.274.274 0 0 1-.263-.143 1.134 1.134 0 0 1-.096-.243 2.108 2.108 0 0 1-.039-.176 2.035 2.035 0 0 1-.018-.442c.011-.209.045-.417.11-.614.08.038.163.07.247.095.04.163.08.318.124.47.034.125.076.245.106.366.031.122.063.241.074.37l.001.01a.29.29 0 0 1-.029.158.27.27 0 0 1-.213.15Zm1.203-.035a.272.272 0 0 1-.272-.152 1.187 1.187 0 0 1-.111-.395 2.364 2.364 0 0 1 .1-.914 2.03 2.03 0 0 0 .244-.076c.048.19.089.369.138.544.031.117.066.23.092.344.025.113.049.225.053.344v.014a.278.278 0 0 1-.244.291Z"/>
  <path fill="#CCCCE3" d="M256.37 66.294a2.306 2.306 0 0 1-.232-.145c-.914-.648-1.098-2.066-.94-3.549a2.154 2.154 0 0 1-.521-.284c-.12-.096-.055-.282.077-.296a.16.16 0 0 1 .051.003.983.983 0 0 0 .523-.028l.581.408c-.048.956.154 1.678.489 2.18a12.84 12.84 0 0 0-.028 1.71Z"/>
  <path fill="#CC5F45" d="M257.968 66.6a2.761 2.761 0 0 1-1.598-.306c-.029-.57-.02-1.142.028-1.71.439.656 1.109.936 1.749.87.871-.092 1.69-.826 1.805-2.127a5.786 5.786 0 0 0-.068-1.475c.038.159.072.32.103.48l-.006-.014c.1.547.076 1.12.135 1.67-.04.686-.218 1.338-.616 1.887-.397.424-.953.665-1.532.725Z"/>
  <path fill="#CCCCE3" d="M258.148 65.453c-.641.067-1.31-.213-1.75-.87-.335-.502-.537-1.224-.488-2.18l-.581-.408a1.25 1.25 0 0 0 .459-.292.201.201 0 0 1 .12-.057.227.227 0 0 1 .243.195c.315 1.959 1.09 2.667 1.834 2.59 1.044-.11 2.024-1.77 1.58-3.7.115.352.227.73.32 1.121.086.506.109 1.01.068 1.475-.116 1.3-.934 2.034-1.805 2.126Z"/>
  <path fill="#A35090" d="M260.115 63.989c-.058-.55-.035-1.124-.134-1.67l.005.014c.104.55.16 1.113.129 1.656Z"/>
  <path fill="#293241" d="M266.193 59.974a8.21 8.21 0 0 0-.766-.785 4.078 4.078 0 0 0-.861-.576 2.468 2.468 0 0 0-1.88-.144c-.607.2-1.15.627-1.548 1.179a3.91 3.91 0 0 0-.479.912 4.348 4.348 0 0 0-.247 1.018 5.6 5.6 0 0 0-.014 1.06c.034.35.105.693.227 1.002.121.307.296.578.521.772.228.187.501.305.794.32l.11.006.111-.007c.075 0 .148-.023.222-.032a1.88 1.88 0 0 0 .43-.16c.278-.14.52-.359.717-.617a2.44 2.44 0 0 0 .261-.42c.037-.076.068-.155.103-.233.025-.081.054-.163.078-.247.095-.336.129-.7.13-1.08 0-.032.024-.057.055-.057.023 0 .042.015.05.036.142.364.206.769.181 1.179a2.62 2.62 0 0 1-.371 1.179c-.217.36-.523.665-.888.872-.179.11-.378.186-.582.246-.104.02-.207.05-.315.055-.053.005-.107.011-.16.014l-.163-.003a1.006 1.006 0 0 1-.163-.014c-.053-.008-.108-.013-.162-.025-.106-.03-.214-.053-.315-.1a2.052 2.052 0 0 1-.57-.344 2.64 2.64 0 0 1-.714-1.079 4.46 4.46 0 0 1-.249-1.21 6.4 6.4 0 0 1 .03-1.206c.112-.797.374-1.581.83-2.25a4.02 4.02 0 0 1 .816-.889 3.212 3.212 0 0 1 1.069-.57 2.78 2.78 0 0 1 2.342.335c.339.216.629.496.873.802l.174.235c.055.081.102.167.153.25l.074.124.064.13c.043.087.082.176.122.262a.058.058 0 0 1-.024.075.053.053 0 0 1-.063-.012l-.003-.003Zm-7.299 5.01c-.027-.126-.033-.25-.04-.374-.008-.125-.005-.252-.011-.38-.01-.26-.037-.523-.064-.81a.041.041 0 0 1 .036-.047.04.04 0 0 1 .032.011c.208.204.359.461.467.737.053.138.099.281.119.43.021.147.027.298-.003.445a.27.27 0 0 1-.324.217.282.282 0 0 1-.21-.22l-.002-.01Zm-1.372.376a1.858 1.858 0 0 1-.03-.347c-.002-.116.005-.233.007-.353.006-.24-.001-.485.002-.754 0-.024.018-.043.041-.043a.04.04 0 0 1 .03.014c.184.199.312.442.404.699.044.128.082.261.097.397.016.136.018.274-.014.409a.272.272 0 0 1-.332.206.282.282 0 0 1-.202-.218l-.003-.01Z"/>
  <path fill="#293241" d="M253.977 61.064a4.794 4.794 0 0 1 .374-1.127c.168-.36.376-.704.627-1.02.125-.16.262-.31.414-.45.15-.141.315-.272.498-.383.182-.11.381-.205.596-.268a1.872 1.872 0 0 1 1.352.105c.054.022.102.051.153.079l.074.042c.024.014.044.03.066.045.087.062.176.122.261.186.333.266.61.589.847.93.121.17.221.352.325.531l.137.278c.047.092.082.188.124.283.041.094.077.19.11.287.033.097.07.193.098.292l.089.295.073.299c.088.4.144.81.161 1.223l.005.312-.012.314c-.005.104-.024.215-.035.323-.016.108-.043.216-.065.324a2.807 2.807 0 0 1-.621 1.184 2.272 2.272 0 0 1-1.153.679 2.093 2.093 0 0 1-1.327-.124c-.421-.175-.768-.502-1.006-.876a2.857 2.857 0 0 1-.394-1.22 3.577 3.577 0 0 1 .098-1.208.064.064 0 0 1 .079-.046.065.065 0 0 1 .046.053l.001.001c.067.386.139.756.257 1.097.116.341.271.652.471.905l.08.09c.025.03.052.06.082.085l.084.08c.029.025.061.047.091.07.058.05.126.084.187.126.068.031.132.07.203.091.068.03.14.044.21.062.036.008.072.01.108.016l.054.007.055.002c.144.012.29-.007.43-.043a1.537 1.537 0 0 0 .746-.446c.203-.223.354-.503.445-.816.017-.08.04-.158.054-.24.01-.084.027-.163.033-.251l.018-.265.001-.268a6.186 6.186 0 0 0-.127-1.072 5.235 5.235 0 0 0-.324-1.031 4.506 4.506 0 0 0-.518-.925 3.627 3.627 0 0 0-.704-.733c-.066-.048-.135-.092-.202-.139l-.051-.034-.048-.027c-.033-.017-.064-.038-.097-.05a1.223 1.223 0 0 0-.402-.114c-.273-.028-.566.044-.85.192-.286.144-.555.363-.814.6-.511.49-.954 1.087-1.35 1.736a.062.062 0 0 1-.088.021.07.07 0 0 1-.029-.07Zm-.678 7.072a3.49 3.49 0 0 1 .873-.304c.306-.06.621-.077.936-.065.315.019.629.07.936.153a5.154 5.154 0 0 1 1.726.848c.129.101.259.202.379.31a6.199 6.199 0 0 1 1.442 1.948.415.415 0 0 1-.179.548.386.386 0 0 1-.499-.142l-.001-.002c-.322-.495-.651-.973-1.03-1.402a7.291 7.291 0 0 0-.598-.606 5.77 5.77 0 0 0-.674-.512 5.53 5.53 0 0 0-.748-.398 4.959 4.959 0 0 0-.808-.262 4.394 4.394 0 0 0-.85-.099 4.276 4.276 0 0 0-.866.095h-.002a.056.056 0 0 1-.067-.045.06.06 0 0 1 .03-.065Zm9.801 1.214a7.427 7.427 0 0 1 .053-1.973 6.36 6.36 0 0 1 .23-.97c.099-.32.226-.627.374-.922a5.708 5.708 0 0 1 1.143-1.58 4.66 4.66 0 0 1 .756-.587c.271-.165.558-.297.852-.392.03-.01.062.008.071.038a.059.059 0 0 1-.024.068h-.001a5.202 5.202 0 0 0-.715.547 5.23 5.23 0 0 0-.596.66 6.05 6.05 0 0 0-.841 1.555c-.209.554-.328 1.133-.407 1.724-.078.59-.098 1.19-.111 1.8v.002a.397.397 0 0 1-.402.397.404.404 0 0 1-.382-.366Z"/>
  <path fill="#293241" d="M263.597 66.925h-.021a.048.048 0 0 1 .021 0Z"/>
  <path fill="#CCCCE3" d="M252.128 60.737c.077-.34.16-.676.249-1.01.029.274-.014.556-.129.802a1.364 1.364 0 0 1-.12.208Z"/>
  <path fill="#293241" d="M250.9 63.025a26.67 26.67 0 0 1 .53-2.853.988.988 0 0 0 .195-.07c.335-.164.572-.527.595-.913a1.5 1.5 0 0 1 .158.538c-.088.334-.172.67-.249 1.01-.179.258-.44.453-.733.547a3.001 3.001 0 0 0-.052-.101.07.07 0 0 0-.068-.037.07.07 0 0 0-.062.07v.002c-.006.349-.017.68-.07.992a2.915 2.915 0 0 1-.244.815Z"/>
  <path fill="#293241" d="M250.966 63.522c-.033-.055-.07-.108-.107-.161a2.955 2.955 0 0 0-.084-.114 2.765 2.765 0 0 0 .124-.221c.119-.242.194-.52.244-.816.053-.312.064-.643.07-.992v-.001a.07.07 0 0 1 .061-.07l.009-.001a.07.07 0 0 1 .059.037c.018.033.036.067.052.101a1.248 1.248 0 0 1-.173.043c.228.727.145 1.564-.255 2.195Zm5.746-17.907c-.266 1.159.134 2.256.893 2.451.759.196 1.59-.585 1.856-1.743.265-1.159-.135-2.256-.894-2.451-.759-.196-1.59.585-1.855 1.743Z"/>
  <path fill="#fff" d="M258.11 45.566c-.077.338.04.659.261.716.222.057.465-.171.542-.51.078-.338-.039-.658-.261-.715-.222-.058-.464.17-.542.509Z"/>
  <path fill="#293241" d="M268.572 47.487c-.164 1.18-.924 2.035-1.696 1.912-.772-.125-1.265-1.18-1.1-2.36.165-1.18.924-2.036 1.696-1.912.772.124 1.265 1.18 1.1 2.36Z"/>
  <path fill="#fff" d="M267.294 46.88c-.048.344-.27.594-.495.558-.226-.036-.369-.345-.321-.689.048-.345.269-.594.495-.558.226.036.37.344.321.689Z"/>
  <path fill="#FF9331" d="M245.234 42.537s3.224-5.487 5.198-4.659c1.974.828.481 10.068.481 10.068l-5.679-5.41Zm-7.134-.607-6.582 4.266s.053-2.039.322-4.258c.308-2.536.897-5.308 2.013-5.547 1.052-.226 2.117 1.171 2.918 2.619a22.851 22.851 0 0 1 1.329 2.92Zm14.678 30.47c-8.225-.15-15.691-3.991-20.638-10.048.173-.291.349-.596.525-.912.438-.786.876-1.639 1.273-2.524.418-.935.791-1.905 1.067-2.872l12.314.024.873 2.734 1.334 4.18s1.96 1.644 2.873 4.76c.383 1.301.582 2.858.379 4.659Z"/>
  <mask id="a" width="21" height="11" x="232" y="61" maskUnits="userSpaceOnUse" style="mask-type:luminance">
    <path fill="#fff" d="M252.417 71.993a26.868 26.868 0 0 1-2.137-.154 16.217 16.217 0 0 0-.43-1.647 11.529 11.529 0 0 0-.74-1.808l-.001-.002a8.241 8.241 0 0 0-.247-.44 2.944 2.944 0 0 0 1.898.476c.459-.04.907-.186 1.289-.44a11.27 11.27 0 0 1 .368 4.015Zm-9.053-1.884a26.797 26.797 0 0 1-1.788-.788c.004-.19-.003-.38-.02-.573v-.004c-.176-2-1.423-4.05-2.698-4.129a3.767 3.767 0 0 0-.529.006c-1.142.1-1.898.746-2.259 1.141a27.088 27.088 0 0 1-3.445-3.448c.102-.175.202-.349.3-.522.825.97 1.96 1.682 3.206 1.962 1.208.27 2.532.172 3.605.788 1.093.626 1.718 1.884 2.824 2.489.412.225.852.342 1.306.389-.426.761-.575 1.747-.502 2.689Z"/>
  </mask>
  <g mask="url(#a)">
    <path fill="#CC763E" d="m232.582 61.822 19.061-1.668 1.033 11.816-19.06 1.668"/>
  </g>
  <path fill="#293241" d="M232.741 62.303c4.939 5.923 12.004 9.444 19.676 9.69.466-5.602-3.111-8.675-3.148-8.706a.398.398 0 0 1-.124-.184l-2.117-6.637-11.725-.023a22.77 22.77 0 0 1-1.001 2.636c-.465 1.039-.913 2.115-1.561 3.224Zm19.998 10.442h-.177c-8.173.121-15.927-3.363-20.528-10.265-.106-.13-.263-.386-.177-.53.692-1.168 1.23-2.111 1.717-3.197a21.5 21.5 0 0 0 1.048-2.819.398.398 0 0 1 .384-.289l12.314.024a.4.4 0 0 1 .379.277l2.173 6.809c.614.557 3.956 3.882 3.302 9.69-.021.191-.248.283-.435.3Z"/>
  <path fill="#AA400B" d="M248.192 58.802c-1.461 1.734-4.439 2.807-7.795 2.589-2.673-.174-5.003-1.128-6.459-2.475.418-.934.79-1.905 1.067-2.872l12.314.024.873 2.734Z"/>
  <path fill="#293241" d="M234.421 58.81c1.456 1.237 3.623 2.028 6.002 2.182 3.01.196 5.85-.697 7.32-2.285l-.715-2.241-11.725-.023c-.228.75-.524 1.543-.882 2.367Zm8.006 2.958c-.666.058-1.355.066-2.056.02-2.675-.173-5.119-1.114-6.704-2.58a.4.4 0 0 1-.093-.455c.444-.994.797-1.943 1.048-2.819a.398.398 0 0 1 .384-.29l12.314.024c.173 0 .327.113.379.278l.873 2.735a.399.399 0 0 1-.075.378c-1.274 1.513-3.501 2.484-6.07 2.709Z"/>
  <path fill="#FFB012" d="M242.541 62.09a1.695 1.695 0 1 1-3.376.297 1.695 1.695 0 0 1 3.376-.296Z"/>
  <path fill="#FFD4AD" d="M239.174 62.477Zm3.368-.38-.001-.006.001.005Zm-3.379.283v-.005.005Zm-.001-.01a1.716 1.716 0 0 1 .055-.58l-.008.03a1.73 1.73 0 0 0-.047.55Zm.082-.668.011-.032-.011.032Z"/>
  <path fill="#FF99C3" d="M239.77 60.934Z"/>
  <path fill="#9999C7" d="M239.255 61.67Z"/>
  <path fill="#FFDFA0" d="M239.163 62.38v-.005.005Zm-.001-.01Zm3.073-.276a1.694 1.694 0 0 0-2.818-.042 1.675 1.675 0 0 1-.173-.35l.011-.032a1.688 1.688 0 0 1 1.45-1.12 1.696 1.696 0 0 1 1.743 1.117c-.05.152-.123.296-.213.426Z"/>
  <path fill="#CC763E" d="M241 63.927Zm1.54-1.847Zm-3.377.295h-.001.001Zm.054-.586Z"/>
  <path fill="#293241" d="M242.48 61.763a1.627 1.627 0 0 0-.032-.096l.001-.001c.011.032.022.064.031.097Z"/>
  <path fill="#CC8D25" d="M241 63.927a1.695 1.695 0 0 1-1.815-1.386c.051-.176.13-.34.232-.489a1.696 1.696 0 0 0 2.818.041c.119.184.204.394.244.62A1.695 1.695 0 0 1 241 63.928Zm1.54-1.848Z"/>
  <path fill="#BEB4E0" d="M239.174 62.477Zm3.369-.365v-.002.002Zm-3.38.263Zm-.001-.005Zm.047-.55.008-.03a1.302 1.302 0 0 1-.008.03Z"/>
  <path fill="#CCB297" d="M242.479 62.713a1.676 1.676 0 0 0-.244-.62c.09-.13.163-.274.213-.426a1.7 1.7 0 0 1 .092.412v.006h.001v.011l.001.002v.012l.001.001v.005a1.67 1.67 0 0 1-.064.597Zm-3.294-.172a1.277 1.277 0 0 1-.021-.155l-.001-.005v-.006l-.001-.005a1.728 1.728 0 0 1 .082-.668c.044.124.103.242.173.35a1.695 1.695 0 0 0-.232.489Z"/>
  <path fill="#293241" d="M240.739 60.947a1.297 1.297 0 1 0 1.405 1.178 1.298 1.298 0 0 0-1.405-1.178Zm.296 3.378a2.097 2.097 0 0 1-2.269-1.904 2.097 2.097 0 0 1 1.904-2.268 2.095 2.095 0 0 1 2.268 1.903 2.096 2.096 0 0 1-1.903 2.269Z"/>
  <path fill="#FF9331" d="M241.57 69.474c-.046.892-.342 1.72-.985 2.297-2.227 1.997-3.953-2.354-3.486-4.698l-1.277-1.003s.02-.03.058-.081c.242-.322 1.242-1.481 2.978-1.374 1.432.088 2.827 2.663 2.712 4.859Z"/>
  <path fill="#CC763E" d="M239.56 72.276c-1.348.118-2.352-1.985-2.515-3.842a4.924 4.924 0 0 1 .054-1.36l-1.011-.796c.115-.088.243-.175.386-.258a3.148 3.148 0 0 1 1.61.751s-.326 3.634 1.299 4.006c.15.035.296.043.436.031.502-.044.939-.358 1.292-.74.009.45-.04.89-.16 1.299.392-.531.582-1.193.619-1.893a4.283 4.283 0 0 1-.089.686c-.136.624-.422 1.186-.896 1.611-.357.32-.701.477-1.025.505Zm-3.737-6.206h-.001s.02-.03.058-.081h.001a1.244 1.244 0 0 0-.058.081Z"/>
  <path fill="#DDD2F1" d="M241.556 68.743c-.176-1.999-1.422-4.05-2.698-4.128 1.275.079 2.522 2.129 2.698 4.129Z"/>
  <path fill="#9999C7" d="m236.087 66.279-.264-.208.265.208h-.001Z"/>
  <path fill="#FFD4AD" d="M241.11 70.068c-.043-2.108-1.364-4.412-2.718-4.495a3.34 3.34 0 0 0-1.919.447 3.202 3.202 0 0 0-.592-.031c.218-.289 1.039-1.244 2.449-1.368a3.48 3.48 0 0 1 .528-.006c1.275.079 2.522 2.13 2.698 4.128v.005c.021.244.027.487.014.726a4.722 4.722 0 0 1-.46.594Z"/>
  <path fill="#DDD2F1" d="M240.951 71.367c.12-.409.169-.85.16-1.3a4.8 4.8 0 0 0 .459-.593c-.037.7-.227 1.362-.619 1.893Zm-4.863-5.088-.265-.209c.003-.003.022-.033.058-.081.183-.007.382 0 .593.031a3.5 3.5 0 0 0-.386.259Z"/>
  <path fill="#293241" d="m236.33 66.01.992.779a.36.36 0 0 1 .131.355c-.322 1.615.472 4.043 1.516 4.639.437.25.886.157 1.375-.28 1.118-1.003.99-2.867.541-4.159-.469-1.349-1.312-2.323-2.049-2.368-1.308-.081-2.144.634-2.506 1.034Zm3.257 6.625a1.653 1.653 0 0 1-.976-.225c-1.365-.778-2.149-3.421-1.903-5.185l-1.109-.87a.362.362 0 0 1-.08-.481c.047-.072 1.163-1.754 3.361-1.62 1.053.066 2.107 1.185 2.687 2.853.547 1.574.64 3.696-.741 4.933-.4.359-.821.558-1.239.595Z"/>
  <path fill="#FF9331" d="m250.356 72.249-2.804-.452s-.88 2.044-2.647 1.298c-.682-.288-1.18-1.133-1.412-2.142-.483-2.094.177-4.893 2.7-4.877 1.962.012 3.083 2.325 3.657 4.116a15.25 15.25 0 0 1 .506 2.057Z"/>
  <path fill="#CC763E" d="M245.801 73.252a1.865 1.865 0 0 1-.896-.157c-.682-.288-1.18-1.133-1.411-2.142.032.04 1.048 1.26 2.113 1.166h.007c1.085-.1 2.156-1.062 2.26-2.085 0 0 .38.75 1.054.692.211-.019.451-.116.717-.34.264.668.453 1.325.582 1.842l-2.675-.43s-.067.155-.201.364c-.261.409-.778 1.023-1.55 1.09Zm4.507-1.272Z"/>
  <path fill="#FFD4AD" d="M248.861 67.942c-.575-.944-1.344-1.706-2.354-1.844 1.01.138 1.78.9 2.354 1.844Zm-4.994-.522h-.001c.407-.727 1.067-1.249 2.027-1.333a4.062 4.062 0 0 1 .001 0c-.96.085-1.62.606-2.027 1.333Zm2.64-1.322h-.004.004Z"/>
  <path fill="#DDD2F1" d="M243.364 70.11v-.001c-.074-.942.076-1.928.502-2.69h.001c-.427.762-.576 1.749-.503 2.69Zm5.746-1.726-.001-.002.001.002Zm-.001-.003Z"/>
  <path fill="#9999C7" d="m250.356 72.249-.13-.021.13.02Zm-6.921-1.578a5.933 5.933 0 0 0 0-.007v.007Z"/>
  <path fill="#FFD4AD" d="M249.645 70.385c-.632-1.602-1.693-3.277-3.363-3.287-.102 0-.202.003-.298.012-1.802.157-2.547 1.856-2.549 3.554a5.935 5.935 0 0 1-.071-.555c-.073-.941.076-1.928.503-2.69.407-.726 1.067-1.248 2.027-1.332a3.68 3.68 0 0 1 .299-.011 2.482 2.482 0 0 1 .308.02l.002.001h.005c1.009.139 1.778.901 2.354 1.845.086.143.169.29.247.44h.001v.002c.311.594.554 1.228.74 1.808l-.001.001a2.45 2.45 0 0 1-.204.192Z"/>
  <path fill="#DDD2F1" d="m250.356 72.249-.13-.021a14.738 14.738 0 0 0-.581-1.843c.066-.055.134-.12.204-.192h.001a15.982 15.982 0 0 1 .506 2.056Z"/>
  <path fill="#293241" d="M245.926 66.447c-1.471.129-1.959 1.409-2.119 2.19-.351 1.704.251 3.708 1.239 4.125 1.411.596 2.145-1.039 2.175-1.109a.362.362 0 0 1 .389-.213l2.294.37c-.301-1.412-1.353-5.359-3.713-5.373a2.84 2.84 0 0 0-.265.01Zm-.093 7.166a2.22 2.22 0 0 1-1.068-.186c-1.454-.613-2.045-3.093-1.666-4.935.365-1.775 1.494-2.787 3.096-2.778 3.472.022 4.477 6.215 4.518 6.479a.36.36 0 0 1-.414.412l-2.541-.409c-.334.604-.996 1.336-1.925 1.418Z"/>
  <path fill="#293241" d="M247.105 71.801a5.969 5.969 0 0 0 .512-1.068c.13-.378.224-.776.18-1.194.087.19.141.4.175.613.032.214.04.431.038.65a5.946 5.946 0 0 1-.099.977c-.02.11-.039.213-.071.333l-.004.017a.406.406 0 1 1-.731-.328Zm-1.364-29.333 4.888 4.657c.12-.873.305-2.387.386-3.93.22-4.213-.509-4.854-.737-4.95-1.092-.457-3.246 2.113-4.537 4.223Zm5.207 5.875a.402.402 0 0 1-.311-.109l-5.678-5.409a.398.398 0 0 1-.068-.49 22.78 22.78 0 0 1 1.895-2.693c1.522-1.834 2.801-2.552 3.801-2.132.64.269 1.464 1.156 1.224 5.733a50.81 50.81 0 0 1-.505 4.766.398.398 0 0 1-.358.334Z"/>
  <path fill="#293241" d="m247.751 42.58 1.705 1.556c.213-1.772.229-3.345.025-3.697-.31.068-1.085 1.028-1.73 2.141Zm2.033 2.762a.402.402 0 0 1-.304-.103l-2.501-2.284a.398.398 0 0 1-.081-.486c.016-.03.405-.74.905-1.432.781-1.083 1.393-1.519 1.925-1.37.585.162.777 1.014.664 2.94-.072 1.199-.241 2.347-.248 2.396a.4.4 0 0 1-.36.339Z"/>
  <path fill="#293241" d="m245.741 42.468 4.888 4.657c.12-.873.305-2.387.386-3.93.22-4.213-.509-4.854-.737-4.95-1.092-.457-3.246 2.113-4.537 4.223Zm5.207 5.875a.402.402 0 0 1-.311-.109l-5.678-5.409a.398.398 0 0 1-.068-.49 22.78 22.78 0 0 1 1.895-2.693c1.522-1.834 2.801-2.552 3.801-2.132.64.269 1.464 1.156 1.224 5.733a50.81 50.81 0 0 1-.505 4.766.398.398 0 0 1-.358.334Zm-16.93-11.574a.666.666 0 0 0-.081.012c-.242.052-1.077.546-1.64 4.728a48.715 48.715 0 0 0-.348 3.933l5.666-3.672c-.859-2.26-2.445-5.102-3.597-5.001Zm-2.465 9.824a.398.398 0 0 1-.433-.407c0-.024.064-2.389.386-4.778.611-4.543 1.585-5.262 2.264-5.407 1.06-.227 2.184.714 3.34 2.798.807 1.453 1.342 2.935 1.365 2.997a.399.399 0 0 1-.158.47l-6.582 4.265a.395.395 0 0 1-.182.062Z"/>
  <path fill="#293241" d="M234.313 39.086c-.266.314-.54 1.86-.658 3.636l1.964-1.214c-.426-1.205-1.006-2.286-1.306-2.422Zm-1.061 4.773a.399.399 0 0 1-.433-.413 30.3 30.3 0 0 1 .2-2.4c.244-1.912.59-2.714 1.194-2.767h.001c.551-.047 1.072.494 1.639 1.703.363.774.614 1.543.625 1.575a.398.398 0 0 1-.17.463l-2.881 1.781a.399.399 0 0 1-.175.058Z"/>
  <path fill="#293241" d="M234.018 36.769a.666.666 0 0 0-.081.012c-.242.052-1.077.546-1.64 4.728a48.715 48.715 0 0 0-.348 3.933l5.666-3.672c-.859-2.26-2.445-5.102-3.597-5.001Zm-2.465 9.824a.398.398 0 0 1-.433-.407c0-.024.064-2.389.386-4.778.611-4.543 1.585-5.262 2.264-5.407 1.06-.227 2.184.714 3.34 2.798.807 1.453 1.342 2.935 1.365 2.997a.399.399 0 0 1-.158.47l-6.582 4.265a.395.395 0 0 1-.182.062Z"/>
  <path fill="#EE6C4D" d="M247.247 42.661s1.553-2.839 2.374-2.61c.821.228.128 4.893.128 4.893l-2.502-2.283Zm-11.148-.981s-1.002-3.076-1.85-3.004c-.849.073-1.032 4.786-1.032 4.786l2.882-1.781Z"/>
  <path fill="#293241" d="m247.572 42.608 1.987 1.814c.054-.431.129-1.095.171-1.771.135-2.142-.179-2.351-.182-2.353-.346-.097-1.292 1.108-1.976 2.31Zm2.199 2.593a.257.257 0 0 1-.196-.066l-2.502-2.283a.258.258 0 0 1-.052-.315c.387-.708 1.725-2.998 2.669-2.735.353.099.696.508.56 2.796a30.855 30.855 0 0 1-.246 2.384.258.258 0 0 1-.233.22Zm-15.501-6.268c.001 0-.346.149-.61 2.278a29.512 29.512 0 0 0-.159 1.772l2.288-1.414c-.45-1.308-1.157-2.667-1.519-2.636Zm-1.03 4.786a.257.257 0 0 1-.28-.267c0-.012.047-1.203.199-2.389.29-2.271.702-2.612 1.066-2.644h.001c.977-.083 1.868 2.414 2.118 3.182a.257.257 0 0 1-.11.3l-2.881 1.78a.258.258 0 0 1-.113.038Z"/>
  <path fill="#CC763E" d="M232.066 43.666a43.4 43.4 0 0 1 .226-2.114c.227-.19.474-.387.737-.584l-.01.077a29.859 29.859 0 0 0-.165 1.753c-.277.276-.54.565-.788.868Z"/>
  <path fill="#293241" d="M232.854 42.798c.03-.456.082-1.1.165-1.753l.01-.077.158-.117-.028.212a27.856 27.856 0 0 0-.153 1.587l-.152.148Zm-1.233 1.454c.048-.682.119-1.485.219-2.314.14-.124.291-.254.451-.387a44.72 44.72 0 0 0-.225 2.116c-.154.19-.303.385-.445.585Z"/>
  <path fill="#CC763E" d="M236.106 40.56a13.474 13.474 0 0 0-.253-.578 8.458 8.458 0 0 0-.279-.548c.265-.117.534-.222.805-.31.199.351.391.72.57 1.096a10.99 10.99 0 0 0-.843.34Z"/>
  <path fill="#293241" d="M235.984 40.615a9.498 9.498 0 0 0-.536-1.124l.126-.057c.092.165.185.347.279.548.092.197.177.393.253.577a8.706 8.706 0 0 0-.122.056Zm.965-.395a17.525 17.525 0 0 0-.57-1.095c.13-.042.261-.08.392-.115.203.367.389.737.553 1.084-.126.04-.251.082-.375.126Z"/>
  <path fill="#CC5F45" d="M233.562 42.154c.026-.296.058-.619.098-.943.036-.292.074-.547.112-.77.384-.256.789-.502 1.209-.72.18.32.366.71.536 1.125-.698.367-1.353.806-1.955 1.308Z"/>
  <path fill="#293241" d="M233.006 42.65a28.832 28.832 0 0 1 .181-1.799c.188-.138.384-.275.585-.41-.038.223-.076.478-.112.77-.04.324-.072.647-.098.943-.191.16-.376.325-.556.496Zm2.511-1.803c-.17-.415-.356-.807-.536-1.127.154-.08.31-.157.467-.23.205.358.387.758.536 1.125-.158.074-.313.151-.467.231Z"/>
  <path fill="#CC763E" d="M250.793 45.813a10.85 10.85 0 0 0-.611-1.089c.056-.42.158-1.256.209-2.117.011-.184.019-.357.024-.521.221.234.428.467.619.69-.005.136-.012.276-.019.42a45.177 45.177 0 0 1-.222 2.617Z"/>
  <path fill="#293241" d="M250.183 44.724a13.557 13.557 0 0 0-.119-.182c.057-.453.142-1.196.187-1.944.014-.239.023-.457.027-.657l.137.144c-.005.165-.013.338-.024.522a31.285 31.285 0 0 1-.208 2.117Zm1.01 2.009c-.12-.313-.253-.62-.4-.92a45.177 45.177 0 0 0 .241-3.037c.175.204.335.401.481.586a50.762 50.762 0 0 1-.322 3.37Z"/>
  <path fill="#CC763E" d="M247.349 41.71c-.247-.18-.502-.35-.764-.509.343-.476.709-.94 1.079-1.357.249.14.493.294.731.461a7.418 7.418 0 0 0-.592.732c-.167.231-.321.465-.454.674Z"/>
  <path fill="#293241" d="M247.458 41.79a4.938 4.938 0 0 0-.109-.08c.133-.209.287-.442.454-.673.209-.29.406-.534.593-.732l.116.082c-.391.404-.766.943-1.054 1.404Zm-.874-.589a10.785 10.785 0 0 0-.412-.238c.287-.42.634-.897 1.015-1.363.16.075.32.157.477.244-.37.417-.736.882-1.08 1.357Z"/>
  <path fill="#CC5F45" d="M249.618 43.92a11.113 11.113 0 0 0-1.749-1.807c.349-.557.731-1.075 1.053-1.414.293.232.573.479.839.73.008.314.002.713-.03 1.222-.029.45-.072.895-.113 1.269Z"/>
  <path fill="#293241" d="M250.064 44.542c-.142-.212-.29-.42-.446-.622.041-.374.084-.819.113-1.269.031-.508.038-.908.03-1.222.179.17.351.341.517.512-.004.2-.014.419-.028.658a30.6 30.6 0 0 1-.186 1.943Zm-2.196-2.429c-.134-.11-.271-.218-.41-.322.288-.46.662-1 1.054-1.403.139.1.276.204.41.311-.322.34-.704.857-1.054 1.414Z"/>
  <path fill="#FF9331" d="M251.892 51.332c-.366 6.102-5.491 8.76-11.593 8.393-6.101-.366-10.87-3.62-10.504-9.721.367-6.102 5.611-10.752 11.713-10.385 6.102.367 10.751 5.61 10.384 11.713Z"/>
  <path fill="#9AF0FF" d="M229.584 50.534a11.005 11.005 0 0 1 1.594-5.608l-.021.382a10.992 10.992 0 0 0-1.2 3.36 11.124 11.124 0 0 0-.373 1.866Z"/>
  <path fill="#9999C7" d="m231.157 45.308.021-.381c.139-.23.287-.456.443-.675-.009.113-.016.222-.023.328-.156.236-.303.48-.441.728Z"/>
  <path fill="#9AF0FF" d="m237.74 40.04-.028-.06a10.995 10.995 0 0 1 3.796-.361 10.994 10.994 0 0 0-3.768.421Z"/>
  <path fill="#9999C7" d="m237.355 40.16-.031-.066c.128-.04.258-.078.388-.114l.028.06c-.129.038-.258.078-.385.12Z"/>
  <path fill="#DDD2F1" d="m232.043 43.953.023-.286c.248-.304.511-.593.788-.869l-.014.224a11.24 11.24 0 0 0-.797.931Z"/>
  <path fill="#9999C7" d="m232.84 43.022.014-.224c.05-.05.101-.099.152-.147a11.19 11.19 0 0 0-.015.216 12.94 12.94 0 0 0-.151.155Zm-1.242 1.558.022-.328c.143-.2.291-.395.446-.585l-.023.286c-.155.204-.304.412-.445.627Z"/>
  <path fill="#DDD2F1" d="m236.141 40.645-.035-.086c.276-.124.557-.237.843-.34l.034.072a11.13 11.13 0 0 0-.842.354Z"/>
  <path fill="#9999C7" d="M236.02 40.704a13.303 13.303 0 0 1-.036-.089l.122-.056.035.087-.121.058Zm.963-.413-.034-.07c.124-.045.25-.087.375-.127l.031.066c-.125.042-.248.086-.372.131Z"/>
  <path fill="#E9B3D4" d="m233.546 42.346.016-.192a11.115 11.115 0 0 1 1.955-1.307l.039.096c-.721.393-1.396.864-2.01 1.403Z"/>
  <path fill="#9999C7" d="m232.991 42.867.015-.216c.18-.172.365-.338.556-.497l-.016.192c-.191.167-.376.341-.555.521Zm2.565-1.924-.039-.096c.153-.081.309-.158.467-.232l.036.089a9.66 9.66 0 0 0-.464.239Z"/>
  <path fill="#FFD4AD" d="M251.652 51.877c.06-5.86-4.49-10.798-10.405-11.153a11.15 11.15 0 0 0-2.601.148v.001c.055.278-.36.596-.927.709a2.103 2.103 0 0 1-.229.032c-.371.033-.687-.043-.827-.195a11.083 11.083 0 0 0-6.706 7.248 10.987 10.987 0 0 1 2.086-4.714 11.256 11.256 0 0 1 1.503-1.607 11.144 11.144 0 0 1 2.474-1.642l.121-.059a11.129 11.129 0 0 1 1.599-.605 11.002 11.002 0 0 1 3.768-.421l.02.001c5.997.474 10.535 5.667 10.172 11.698-.011.19-.027.376-.048.559Z"/>
  <path fill="#02AEE3" d="m248.373 58.057-.049-.154c1.991-1.347 3.315-3.442 3.552-6.332.084.07.17.138.257.205-.29 2.893-1.69 4.971-3.76 6.281Z"/>
  <path fill="#CC763E" d="M252.089 49.18c-.014-.01-.026-.021-.04-.033.001-.08 0-.161-.001-.241a7.9 7.9 0 0 1 .041.275Z"/>
  <path fill="#A35E48" d="M252.187 50.806a7.285 7.285 0 0 1-.241-.223 11.048 11.048 0 0 0 .103-1.436l.04.034c.071.531.105 1.074.098 1.625Z"/>
  <path fill="#293241" d="M252.133 51.776a9.043 9.043 0 0 1-.257-.205l.017-.24c.01-.175.016-.35.019-.523l.034-.225c.079.076.159.15.241.222a10.595 10.595 0 0 1-.054.971Z"/>
  <path fill="#CC006A" d="M243.109 59.703a16.92 16.92 0 0 1-2.017.053c.593.01 1.175-.01 1.742-.06 1.779-.155 3.412-.606 4.789-1.365l.042.131c-1.327.684-2.877 1.094-4.556 1.241Z"/>
  <path fill="#293241" d="m247.665 58.462-.042-.13c.241-.134.475-.277.7-.43l.05.155a9.51 9.51 0 0 1-.708.405Z"/>
  <path fill="#CC763E" d="M242.835 59.697c-.568.05-1.15.069-1.743.059a19.596 19.596 0 0 1-.517-.024c-5.865-.353-10.498-3.372-10.523-9.025.81 4.629 5.096 7.114 10.384 7.433.868.052 1.716.042 2.534-.03 4.584-.4 8.205-2.763 8.942-7.302a13.163 13.163 0 0 1-.036.763c-.237 2.89-1.561 4.984-3.552 6.332-.225.152-.46.295-.701.428-1.376.759-3.01 1.21-4.788 1.366Z"/>
  <path fill="#293241" d="M239.907 40.038c-5.177.453-9.392 4.65-9.713 9.99-.384 6.384 4.981 8.99 10.13 9.3 5.148.309 10.787-1.636 11.17-8.02.353-5.873-4.137-10.938-10.01-11.29a10.711 10.711 0 0 0-1.577.02Zm2.977 20.057a17.75 17.75 0 0 1-2.608.029c-3.247-.196-5.982-1.166-7.912-2.805-2.121-1.802-3.147-4.34-2.967-7.34.38-6.311 5.823-11.137 12.135-10.758 6.312.38 11.138 5.823 10.759 12.135-.181 3-1.503 5.396-3.824 6.93-1.524 1.008-3.424 1.62-5.583 1.809Z"/>
  <path fill="#293241" d="m239.982 50.144 1.821-.008a.237.237 0 0 1 .177.396l-.924 1.026a.238.238 0 0 1-.355-.002l-.896-1.018a.237.237 0 0 1 .177-.394Z"/>
  <path fill="#293241" d="M237.006 51.288c.144.251.267.453.402.631.133.179.271.334.423.472.152.137.316.262.503.352.187.09.391.138.609.132l.065-.005.083-.01c.058-.003.106-.02.157-.029.1-.024.198-.06.29-.105.184-.09.352-.207.501-.346.152-.138.279-.3.401-.48.127-.18.251-.373.422-.624l.001-.003a.079.079 0 0 1 .109-.02.092.092 0 0 1 .023.022c.171.27.195.6.124.904a1.898 1.898 0 0 1-.462.815 2.11 2.11 0 0 1-.79.52 2.375 2.375 0 0 1-.458.124c-.077.01-.157.027-.23.028l-.112.006-.058.004-.072.002a2.828 2.828 0 0 1-.918-.168 2.063 2.063 0 0 1-.795-.508 1.77 1.77 0 0 1-.445-.82 1.321 1.321 0 0 1 .094-.894.075.075 0 0 1 .101-.031.076.076 0 0 1 .031.029l.001.002Z"/>
  <path fill="#293241" d="M240.994 51.275c.142.248.263.447.396.623.131.176.266.33.416.466.148.137.308.26.49.353.181.091.385.144.591.143l.031.002h.005l.041-.004.082-.006c.055-.001.105-.018.157-.026.103-.022.202-.057.297-.1.188-.089.361-.206.513-.347.156-.138.285-.303.41-.484.128-.182.254-.377.427-.633l.002-.002a.078.078 0 0 1 .131.002c.174.275.196.61.12.918-.08.308-.255.59-.478.822-.227.23-.507.409-.812.515a2.39 2.39 0 0 1-.466.116c-.079.009-.159.025-.237.024l-.117.005-.058.002c-.031 0-.064-.002-.095-.004l.031.002a2.83 2.83 0 0 1-.905-.181 2.043 2.043 0 0 1-.774-.514 1.77 1.77 0 0 1-.428-.811 1.317 1.317 0 0 1 .097-.88.075.075 0 0 1 .132-.002l.001.001Z"/>
  <path fill="#293241" d="M239.39 53.632c.008.753.135 1.482.363 2.068.292.753.716 1.206 1.133 1.213.421.006.86-.44 1.174-1.194.247-.592.394-1.333.419-2.099a2.37 2.37 0 0 1-1.547-1.012 2.374 2.374 0 0 1-1.542 1.024Zm1.628 4.073a1.385 1.385 0 0 1-.143.005c-.766-.011-1.446-.639-1.866-1.721-.286-.737-.43-1.618-.416-2.55l.004-.179a.397.397 0 0 1 .387-.384 1.586 1.586 0 0 0 1.545-1.597v-.002a.4.4 0 0 1 .798-.003v.002a1.582 1.582 0 0 0 1.56 1.586.398.398 0 0 1 .391.39c.002.083.002.168.001.254-.013.923-.18 1.794-.483 2.52-.423 1.014-1.065 1.617-1.778 1.68Z"/>
  <path fill="#293241" d="M239.818 55.858c.288.658.681 1.049 1.069 1.055.39.005.796-.379 1.103-1.036a1.244 1.244 0 0 0-2.172-.02Zm1.201 1.847a1.414 1.414 0 0 1-.144.005c-.766-.011-1.446-.639-1.866-1.722a.4.4 0 0 1 .004-.298 2.04 2.04 0 0 1 1.708-1.247 2.054 2.054 0 0 1 2.078 1.283.395.395 0 0 1-.003.3c-.423 1.014-1.065 1.617-1.777 1.679Z"/>
  <path fill="#293241" d="M239.907 40.038c-5.177.453-9.392 4.65-9.713 9.99-.384 6.384 4.981 8.99 10.13 9.3 5.148.309 10.787-1.636 11.17-8.02.353-5.873-4.137-10.938-10.01-11.29a10.711 10.711 0 0 0-1.577.02Zm2.977 20.057a17.75 17.75 0 0 1-2.608.029c-3.247-.196-5.982-1.166-7.912-2.805-2.121-1.802-3.147-4.34-2.967-7.34.38-6.311 5.823-11.137 12.135-10.758 6.312.38 11.138 5.823 10.759 12.135-.181 3-1.503 5.396-3.824 6.93-1.524 1.008-3.424 1.62-5.583 1.809Z"/>
  <path fill="#293241" d="m239.982 50.144 1.821-.008a.237.237 0 0 1 .177.396l-.924 1.026a.238.238 0 0 1-.355-.002l-.896-1.018a.237.237 0 0 1 .177-.394Z"/>
  <path fill="#293241" d="M242.88 53.26c.001.08.002.16.001.24-.013.899-.181 1.722-.452 2.373-.37.884-.93 1.447-1.548 1.438-.616-.009-1.156-.581-1.5-1.467-.256-.66-.402-1.494-.389-2.4l.004-.17a1.992 1.992 0 0 0 1.932-1.999 1.991 1.991 0 0 0 1.952 1.986Z"/>
  <path fill="#FF5228" d="M242.428 55.873c-.369.884-.929 1.447-1.547 1.438-.616-.009-1.156-.581-1.5-1.467a1.645 1.645 0 0 1 3.047.029Z"/>
  <path fill="#293241" d="M239.39 53.632c.008.753.135 1.482.363 2.068.292.753.716 1.206 1.133 1.213.421.006.86-.44 1.174-1.194.247-.592.394-1.333.419-2.099a2.37 2.37 0 0 1-1.547-1.012 2.374 2.374 0 0 1-1.542 1.024Zm1.628 4.073a1.385 1.385 0 0 1-.143.005c-.766-.011-1.446-.639-1.866-1.721-.286-.737-.43-1.618-.416-2.55l.004-.179a.397.397 0 0 1 .387-.384 1.586 1.586 0 0 0 1.545-1.597v-.002a.4.4 0 0 1 .798-.003v.002a1.582 1.582 0 0 0 1.56 1.586.398.398 0 0 1 .391.39c.002.083.002.168.001.254-.013.923-.18 1.794-.483 2.52-.423 1.014-1.065 1.617-1.778 1.68Zm-9.272-6.881c-.326-.04-.63-.092-.932-.144a54.661 54.661 0 0 0-.893-.149c-.296-.05-.591-.08-.89-.115-.301-.035-.602-.043-.931-.074a2.35 2.35 0 0 1 .922-.318c.324-.04.655-.04.975.014.321.052.634.14.93.268.295.13.579.291.819.518Zm.246 2.268c-.324.052-.63.085-.935.119-.304.032-.603.066-.9.102-.298.034-.59.085-.887.135-.299.05-.59.124-.916.185.221-.24.499-.43.799-.56.301-.127.619-.218.942-.254.322-.04.648-.04.968.001.319.044.636.12.929.272Zm.982 1.979c-.275.178-.542.332-.808.485a55.81 55.81 0 0 0-.782.457c-.259.151-.506.315-.757.48-.254.166-.49.352-.764.539.106-.31.284-.595.506-.834.223-.238.478-.45.759-.612.279-.166.577-.298.886-.39a2.83 2.83 0 0 1 .96-.125Zm17.169-4.184c.273-.186.579-.3.89-.383.313-.079.636-.118.961-.118.325-.003.651.05.965.14.313.091.612.246.861.458-.331-.021-.629-.06-.931-.073-.301-.014-.598-.029-.897-.026-.3-.001-.6.002-.906.006-.307.004-.615.009-.943-.004Zm-.599 2.202c.313-.105.639-.13.961-.123a3.9 3.9 0 0 1 .956.15c.313.087.613.227.89.4.275.175.52.406.701.678-.312-.111-.588-.23-.875-.326-.286-.096-.566-.193-.855-.273a58.611 58.611 0 0 0-.873-.242c-.296-.081-.594-.162-.905-.264Zm-1.281 1.8c.328.03.637.138.929.274.291.14.565.316.814.524.252.205.47.454.653.724.182.271.314.58.369.902-.241-.227-.444-.447-.669-.65-.223-.203-.441-.404-.673-.594-.23-.192-.463-.382-.701-.574-.238-.193-.478-.387-.722-.606Zm-3.484 18.378c-.021-.03-.03-.041-.042-.06a.919.919 0 0 1-.078-.153 1.204 1.204 0 0 1-.06-.205 1.68 1.68 0 0 1-.025-.411c.005-.136.026-.27.054-.4.03-.13.07-.257.125-.38a.04.04 0 0 1 .053-.02c.01.006.017.014.021.024v.001c.022.064.04.126.056.188.02.061.034.123.052.183.034.12.066.237.101.35l.107.328c.017.052.032.105.047.154l.02.075c.004.01.006.023.009.034.001.009.007.026.001.023a.259.259 0 0 1-.441.269Zm1.371-.094a1.197 1.197 0 0 1-.133-.404 2.01 2.01 0 0 1-.02-.41c.013-.273.06-.543.167-.797a.04.04 0 0 1 .052-.021c.01.004.018.013.022.023v.001c.044.13.077.255.115.377.034.124.072.244.106.362.036.118.076.233.106.349.03.113.06.236.068.338l.003.038a.26.26 0 0 1-.486.144Zm-8.076-1.763c-.016.011-.005-.005-.004-.01l.012-.029.03-.063c.02-.047.044-.094.067-.145.044-.1.097-.206.141-.32.047-.113.09-.231.135-.352l.068-.185a2.66 2.66 0 0 1 .074-.188l.001-.001a.038.038 0 0 1 .051-.02.041.041 0 0 1 .022.023 2.246 2.246 0 0 1 .104.82 1.52 1.52 0 0 1-.075.426.96.96 0 0 1-.165.312c-.012.017-.029.034-.044.05-.02.02-.029.03-.068.063a.258.258 0 0 1-.349-.38Zm1.202.659c-.016.006-.001-.009.002-.016l.021-.029.047-.066c.032-.047.066-.097.099-.15.065-.107.135-.22.195-.346.063-.123.119-.255.177-.39l.084-.206c.026-.07.055-.141.087-.213l.001-.001a.038.038 0 0 1 .051-.02.042.042 0 0 1 .022.028c.016.076.029.153.04.231.009.078.012.156.017.235.001.157-.006.317-.035.477-.028.16-.07.322-.15.476a1.116 1.116 0 0 1-.242.327 1.149 1.149 0 0 1-.06.048.781.781 0 0 1-.085.054.258.258 0 0 1-.271-.44Zm-3.621-24.189c-.217 1.08.204 2.075.939 2.223.736.148 1.508-.608 1.725-1.688.217-1.08-.203-2.076-.939-2.223-.736-.148-1.508.608-1.725 1.688Z"/>
  <path fill="#fff" d="M236.996 47.774c-.063.316.06.607.275.65.215.043.44-.178.504-.493.063-.316-.06-.607-.275-.65-.215-.043-.44.178-.504.493Z"/>
  <path fill="#293241" d="M246.365 47.558a6.53 6.53 0 0 0-.747.21c-.24.085-.469.186-.683.304-.109.056-.208.125-.311.188l-.145.108a3.3 3.3 0 0 0-.628.636l-.402-.513c.077-.026.128-.039.19-.052.06-.014.119-.023.177-.033a2.65 2.65 0 0 1 1.052.046c.226.06.448.138.645.257.203.108.379.258.536.415a.118.118 0 0 1-.126.192l-.013-.005c-.097-.038-.187-.085-.281-.12-.095-.033-.187-.07-.282-.094a2.59 2.59 0 0 0-.569-.1 2.696 2.696 0 0 0-.841.062c-.045.01-.09.02-.133.034a.937.937 0 0 0-.063.02l-.029.01-.022.007-.008.003a.341.341 0 0 1-.394-.517c.174-.244.365-.483.604-.67.111-.102.243-.178.367-.262.132-.07.262-.146.402-.197.275-.112.563-.184.852-.212.291-.026.576-.02.865.05.064.015.103.08.088.142a.12.12 0 0 1-.089.088l-.012.003Z"/>
  <path fill="#fff" d="M464.922 75.258a28.534 28.534 0 0 1-8.75 5.156 28.638 28.638 0 0 1-10.039 1.797 28.01 28.01 0 0 1-7.695-1.055 29.423 29.423 0 0 1-6.915-2.89 30.09 30.09 0 0 1-5.859-4.57 30.062 30.062 0 0 1-4.57-5.86 30.656 30.656 0 0 1-2.93-6.914 29.024 29.024 0 0 1-1.016-7.695c0-2.657.339-5.222 1.016-7.696a29.683 29.683 0 0 1 2.93-6.914 29.549 29.549 0 0 1 4.57-5.898 28.929 28.929 0 0 1 5.859-4.532 28.48 28.48 0 0 1 6.915-2.93 28.006 28.006 0 0 1 7.695-1.054c3.463 0 6.81.6 10.039 1.797a27.533 27.533 0 0 1 8.75 5.156l-5.938 9.766a16.546 16.546 0 0 0-5.82-4.063 17.608 17.608 0 0 0-7.031-1.445c-2.474 0-4.792.469-6.953 1.406-2.162.938-4.05 2.214-5.664 3.828-1.615 1.589-2.891 3.477-3.828 5.664-.938 2.162-1.407 4.467-1.407 6.915 0 2.448.469 4.752 1.407 6.914a18.24 18.24 0 0 0 3.828 5.625c1.614 1.614 3.502 2.89 5.664 3.828 2.161.937 4.479 1.406 6.953 1.406 2.448 0 4.791-.469 7.031-1.406a17 17 0 0 0 5.82-4.102l5.938 9.766ZM509.336 81h-2.578l-4.141-5.742a35.095 35.095 0 0 1-3.242 2.578 25.334 25.334 0 0 1-3.555 2.07 22.741 22.741 0 0 1-3.867 1.367c-1.302.339-2.63.508-3.984.508-2.943 0-5.716-.495-8.321-1.484A20.112 20.112 0 0 1 472.852 76c-1.928-1.901-3.451-4.219-4.571-6.953-1.12-2.734-1.679-5.846-1.679-9.336 0-3.255.559-6.237 1.679-8.945 1.12-2.735 2.643-5.078 4.571-7.032a20.73 20.73 0 0 1 6.796-4.53c2.605-1.095 5.378-1.642 8.321-1.642 1.354 0 2.695.17 4.023.508 1.328.339 2.617.808 3.867 1.407a23.24 23.24 0 0 1 3.555 2.109 28.528 28.528 0 0 1 3.203 2.617l4.141-4.96h2.578V81Zm-10.742-21.29c0-1.457-.287-2.864-.86-4.218a11.56 11.56 0 0 0-2.265-3.633 10.878 10.878 0 0 0-3.399-2.539 8.897 8.897 0 0 0-4.101-.976c-1.459 0-2.839.247-4.141.742a9.61 9.61 0 0 0-3.359 2.187c-.938.964-1.68 2.162-2.227 3.594-.547 1.406-.82 3.021-.82 4.844 0 1.823.273 3.45.82 4.883.547 1.406 1.289 2.59 2.227 3.554a9.608 9.608 0 0 0 3.359 2.188c1.302.495 2.682.742 4.141.742a9.2 9.2 0 0 0 4.101-.937 11.742 11.742 0 0 0 3.399-2.54 12.183 12.183 0 0 0 2.265-3.632c.573-1.38.86-2.8.86-4.258ZM538.477 81c-2.579 0-5-.482-7.266-1.445a19.635 19.635 0 0 1-5.977-4.024 19.654 19.654 0 0 1-4.023-5.976c-.964-2.266-1.445-4.688-1.445-7.266V49.867h-5.196V39.242h5.196V22.523h10.625v16.72h16.171v10.624h-16.171V62.29c0 1.12.208 2.174.625 3.164.416.964.989 1.81 1.718 2.54a8.552 8.552 0 0 0 2.578 1.757c.99.417 2.045.625 3.165.625h8.085V81h-8.085Zm37.07 0h-24.375V70.375h24.375c.729 0 1.354-.26 1.875-.781a2.557 2.557 0 0 0 .781-1.875c0-.755-.26-1.25-.781-1.485-.521-.234-1.146-.351-1.875-.351h-11.094c-1.849 0-3.581-.352-5.195-1.055a13.553 13.553 0 0 1-4.219-2.851 14.041 14.041 0 0 1-2.851-4.258c-.678-1.615-1.016-3.347-1.016-5.196 0-1.849.338-3.58 1.016-5.195a13.55 13.55 0 0 1 2.851-4.219 13.018 13.018 0 0 1 4.219-2.812c1.614-.703 3.346-1.055 5.195-1.055h21.602v10.625h-21.602c-.729 0-1.354.26-1.875.781a2.556 2.556 0 0 0-.781 1.875c0 .756.26 1.407.781 1.954a2.56 2.56 0 0 0 1.875.78h11.094c1.823 0 3.542.313 5.156.938 1.615.6 3.021 1.446 4.219 2.54a12.079 12.079 0 0 1 2.851 3.945c.704 1.536 1.055 3.216 1.055 5.039 0 1.849-.351 3.58-1.055 5.195a14.183 14.183 0 0 1-2.851 4.219 13.554 13.554 0 0 1-4.219 2.851c-1.614.678-3.333 1.016-5.156 1.016Z"/>
</svg>
