<svg xmlns="http://www.w3.org/2000/svg" width="269" height="559" fill="none" viewBox="0 0 269 559">
  <path fill="#E4E8ED" d="M32.418 511.945c-3 1.917-6.782 7.583-7.386 13.986-.6 6.406 1.84 11.785 5.208 11.964 3.368.182 7.093-5.842 10.644-6.489 3.554-.642 8.998 1.119 12.581-1.703 3.581-2.826-3.08-12.702-7.613-16.06-4.536-3.367-8.68-4.733-13.434-1.698Zm19.743-11.794c-2.213-.864-4.836 1.044-5.87 4.241-1.034 3.198-.089 6.474 2.125 7.338 2.212.867 4.853-1.007 5.887-4.205 1.035-3.197.072-6.506-2.142-7.374ZM27.99 510.943c2.518-1.75 2.536-6.171-.098-9.8-2.59-3.65-6.687-5.173-9.153-3.407-2.466 1.765-2.384 6.12.19 9.736 2.617 3.593 6.552 5.214 9.062 3.471Zm-8.198 2.734c-2.76-1.825-6.105-1.572-7.241.42-1.13 1.987.09 5.099 2.883 6.894 2.777 1.801 6.015 1.642 7.221-.37 1.206-2.019-.081-5.134-2.863-6.944Zm23.114-14.77c-.57-4.414-3.525-7.808-6.586-7.556-3.06.254-5.075 4.04-4.518 8.429.609 4.366 3.393 7.796 6.42 7.593 3.028-.207 5.166-4.002 4.684-8.466Zm.17-154.672c-3.001 1.917-6.782 7.584-7.386 13.987-.601 6.406 1.84 11.784 5.207 11.963 3.368.182 7.094-5.841 10.644-6.489 3.554-.641 8.998 1.12 12.582-1.703 3.58-2.825-3.081-12.702-7.614-16.06-4.535-3.367-8.68-4.733-13.433-1.698Zm19.743-11.793c-2.214-.864-4.837 1.044-5.87 4.241-1.035 3.197-.09 6.473 2.124 7.337 2.212.868 4.853-1.007 5.887-4.204 1.035-3.198.072-6.507-2.141-7.374Zm-24.171 10.792c2.517-1.75 2.535-6.171-.099-9.801-2.59-3.649-6.686-5.172-9.153-3.407-2.466 1.765-2.383 6.12.19 9.736 2.617 3.593 6.552 5.214 9.062 3.472Zm-8.198 2.734c-2.761-1.825-6.105-1.572-7.242.419-1.13 1.987.09 5.099 2.884 6.895 2.777 1.801 6.014 1.642 7.22-.371 1.206-2.018-.08-5.134-2.863-6.943Zm23.113-14.77c-.57-4.415-3.525-7.809-6.585-7.557-3.06.255-5.076 4.041-4.519 8.43.61 4.365 3.393 7.796 6.42 7.592 3.029-.207 5.166-4.002 4.684-8.465ZM71.79 188.144c-3.002 1.917-6.783 7.583-7.386 13.987-.601 6.406 1.84 11.784 5.207 11.963 3.368.182 7.093-5.842 10.644-6.489 3.554-.642 8.998 1.12 12.582-1.703 3.58-2.825-3.082-12.702-7.614-16.06-4.536-3.367-8.68-4.733-13.434-1.698Zm19.742-11.793c-2.213-.865-4.836 1.043-5.87 4.241-1.034 3.197-.089 6.473 2.125 7.337 2.212.867 4.853-1.007 5.887-4.205 1.035-3.197.072-6.506-2.142-7.373Zm-24.17 10.791c2.517-1.749 2.535-6.171-.1-9.8-2.589-3.649-6.685-5.172-9.152-3.407-2.466 1.765-2.383 6.12.19 9.736 2.617 3.593 6.552 5.214 9.062 3.471Zm-8.199 2.735c-2.76-1.826-6.104-1.572-7.241.419-1.13 1.987.09 5.099 2.883 6.894 2.778 1.801 6.015 1.643 7.221-.37 1.206-2.019-.08-5.134-2.863-6.943Zm23.114-14.77c-.57-4.415-3.525-7.809-6.586-7.557-3.06.255-5.075 4.04-4.518 8.43.609 4.365 3.393 7.795 6.42 7.592 3.028-.207 5.166-4.002 4.684-8.465Zm26.37-144.35c-3.001 1.917-6.782 7.584-7.386 13.987-.601 6.406 1.84 11.784 5.207 11.963 3.368.182 7.094-5.841 10.644-6.488 3.554-.642 8.998 1.119 12.582-1.704 3.581-2.825-3.081-12.702-7.614-16.06-4.535-3.367-8.68-4.733-13.433-1.698Zm19.743-11.793c-2.214-.864-4.837 1.044-5.871 4.241-1.034 3.198-.088 6.473 2.125 7.337 2.213.868 4.853-1.007 5.887-4.204 1.035-3.198.072-6.507-2.141-7.374Zm-24.171 10.792c2.517-1.75 2.536-6.171-.099-9.8-2.589-3.65-6.686-5.173-9.153-3.408-2.466 1.765-2.383 6.12.19 9.736 2.617 3.593 6.552 5.214 9.062 3.472ZM96.02 32.49c-2.76-1.825-6.104-1.572-7.24.42-1.13 1.986.089 5.099 2.883 6.894 2.777 1.8 6.015 1.642 7.22-.37 1.206-2.02-.08-5.135-2.863-6.944Zm23.115-14.77c-.57-4.414-3.526-7.808-6.586-7.557-3.06.255-5.076 4.04-4.518 8.43.608 4.365 3.392 7.796 6.42 7.592 3.028-.207 5.165-4.002 4.684-8.465Zm46.315 433.889c-3.478-.767-10.158.567-15.113 4.667-4.955 4.105-7.032 9.634-4.777 12.142 2.252 2.51 9.146.885 12.115 2.938 2.966 2.059 5.571 7.154 10.101 7.692 4.529.534 6.802-11.16 5.972-16.74-.826-5.587-2.791-9.484-8.298-10.699Zm22.299 5.621c-.954-2.176-4.158-2.682-7.15-1.152s-4.64 4.515-3.686 6.691c.951 2.178 4.144 2.719 7.136 1.189 2.993-1.529 4.652-4.55 3.7-6.728Zm-24.722-9.46c3.017.543 6.156-2.571 6.86-7 .749-4.412-1.071-8.385-4.063-8.881-2.992-.496-6.013 2.642-6.75 7.018-.69 4.392.946 8.321 3.953 8.863Zm-7.731-3.864c-.661-3.243-3.205-5.428-5.417-4.824-2.203.606-3.542 3.669-2.836 6.914.69 3.237 3.092 5.415 5.368 4.844 2.28-.575 3.573-3.688 2.885-6.934Zm26.788 5.9c2.719-3.524 3.029-8.014.687-10-2.344-1.984-6.446-.732-9.156 2.766-2.656 3.517-3.113 7.911-.828 9.908 2.287 1.995 6.482.823 9.297-2.674Zm.855-161.229c-3.478-.766-10.158.567-15.113 4.668-4.954 4.105-7.031 9.634-4.777 12.141 2.253 2.51 9.147.886 12.115 2.939 2.967 2.059 5.571 7.154 10.101 7.692 4.53.534 6.803-11.161 5.972-16.74-.826-5.588-2.791-9.485-8.298-10.7Zm22.299 5.622c-.954-2.177-4.158-2.682-7.15-1.152-2.992 1.529-4.639 4.514-3.686 6.69.952 2.178 4.144 2.72 7.137 1.19 2.993-1.529 4.651-4.55 3.699-6.728Zm-24.722-9.46c3.017.542 6.157-2.571 6.86-7 .749-4.412-1.07-8.386-4.063-8.882-2.991-.495-6.013 2.643-6.75 7.019-.69 4.391.946 8.32 3.953 8.863Zm-7.731-3.865c-.661-3.242-3.204-5.428-5.416-4.824-2.204.607-3.543 3.669-2.836 6.915.69 3.237 3.091 5.414 5.368 4.844 2.279-.575 3.572-3.688 2.884-6.935Zm26.789 5.901c2.718-3.525 3.028-8.015.686-10.001-2.343-1.983-6.446-.732-9.155 2.766-2.657 3.518-3.114 7.912-.829 9.908 2.287 1.996 6.482.823 9.298-2.673Zm31.018-175.72c-3.477-.767-10.158.567-15.112 4.668-4.955 4.104-7.032 9.634-4.778 12.141 2.253 2.51 9.147.886 12.115 2.938 2.967 2.06 5.571 7.154 10.101 7.693 4.53.534 6.803-11.161 5.973-16.74-.827-5.588-2.791-9.485-8.299-10.7Zm22.299 5.621c-.953-2.176-4.157-2.681-7.149-1.152-2.993 1.53-4.64 4.515-3.686 6.691.951 2.178 4.144 2.719 7.136 1.19 2.993-1.529 4.651-4.55 3.699-6.729Zm-24.721-9.46c3.017.543 6.156-2.571 6.859-7 .75-4.411-1.07-8.385-4.063-8.881-2.991-.495-6.012 2.642-6.75 7.019-.689 4.391.947 8.32 3.954 8.862Zm-7.731-3.864c-.661-3.243-3.205-5.428-5.417-4.824-2.204.607-3.542 3.669-2.836 6.914.69 3.238 3.092 5.415 5.368 4.845 2.28-.575 3.573-3.688 2.885-6.935Zm26.788 5.9c2.718-3.524 3.029-8.014.687-10-2.344-1.983-6.446-.732-9.156 2.766-2.656 3.517-3.113 7.911-.829 9.908 2.288 1.995 6.482.823 9.298-2.674Z"/>
</svg>
