<svg xmlns="http://www.w3.org/2000/svg" width="267" height="568" fill="none" viewBox="0 0 267 568">
  <path fill="#E4E8ED" d="M235.015 521.035c2.998 1.917 6.774 7.584 7.378 13.987.601 6.406-1.836 11.784-5.199 11.963-3.364.182-7.086-5.842-10.631-6.49-3.55-.642-8.987 1.119-12.566-1.705-3.577-2.825 3.075-12.701 7.602-16.059 4.529-3.366 8.669-4.732 13.416-1.696Zm-19.719-11.795c2.21-.864 4.83 1.044 5.863 4.241 1.034 3.198.089 6.473-2.121 7.337-2.21.868-4.847-1.007-5.88-4.205-1.035-3.198-.073-6.506 2.138-7.373Zm24.141 10.794c-2.514-1.75-2.533-6.171.098-9.8 2.585-3.649 6.677-5.172 9.141-3.406 2.462 1.765 2.381 6.12-.189 9.736-2.614 3.592-6.544 5.213-9.05 3.47Zm8.189 2.735c2.756-1.825 6.096-1.571 7.232.42 1.128 1.987-.089 5.099-2.879 6.894-2.774 1.801-6.008 1.642-7.213-.371-1.204-2.019.081-5.134 2.86-6.943Zm-23.087-14.772c.569-4.415 3.52-7.808 6.577-7.556 3.056.255 5.069 4.041 4.513 8.43-.607 4.365-3.387 7.795-6.411 7.591-3.024-.207-5.159-4.002-4.679-8.465Zm-.186-154.671c2.997 1.917 6.774 7.584 7.378 13.987.601 6.406-1.837 11.784-5.2 11.963-3.363.182-7.085-5.842-10.631-6.49-3.549-.642-8.986 1.119-12.566-1.705-3.576-2.825 3.076-12.701 7.603-16.059 4.529-3.366 8.668-4.732 13.416-1.696Zm-19.719-11.795c2.21-.864 4.83 1.044 5.863 4.241 1.033 3.198.089 6.473-2.121 7.338-2.21.867-4.847-1.008-5.881-4.206-1.034-3.197-.072-6.506 2.139-7.373Zm24.14 10.794c-2.513-1.75-2.532-6.171.099-9.8 2.585-3.649 6.677-5.172 9.141-3.406 2.462 1.765 2.38 6.12-.189 9.736-2.614 3.592-6.544 5.213-9.051 3.47Zm8.19 2.735c2.756-1.825 6.096-1.571 7.232.42 1.128 1.987-.089 5.099-2.88 6.894-2.773 1.801-6.007 1.642-7.212-.371-1.204-2.019.081-5.134 2.86-6.943Zm-23.087-14.772c.569-4.415 3.52-7.808 6.576-7.556 3.056.255 5.07 4.041 4.514 8.43-.608 4.365-3.388 7.795-6.411 7.591-3.025-.207-5.16-4.002-4.679-8.465Zm-30.93-150.978c2.997 1.918 6.774 7.585 7.378 13.988.601 6.406-1.837 11.784-5.2 11.963-3.363.181-7.085-5.843-10.631-6.49-3.549-.643-8.986 1.118-12.566-1.705-3.576-2.826 3.076-12.701 7.603-16.059 4.529-3.366 8.668-4.732 13.416-1.697Zm-19.719-11.795c2.21-.864 4.83 1.045 5.863 4.242 1.033 3.198.089 6.473-2.121 7.337-2.21.867-4.848-1.008-5.881-4.205-1.034-3.198-.072-6.507 2.139-7.374Zm24.14 10.795c-2.513-1.75-2.532-6.172.099-9.801 2.585-3.649 6.677-5.171 9.141-3.406 2.462 1.765 2.38 6.12-.189 9.736-2.614 3.593-6.544 5.213-9.051 3.471Zm8.19 2.735c2.756-1.826 6.096-1.572 7.232.42 1.128 1.987-.089 5.099-2.88 6.894-2.773 1.8-6.007 1.641-7.212-.371-1.204-2.019.081-5.134 2.86-6.943Zm-23.087-14.773c.568-4.414 3.52-7.808 6.576-7.556 3.056.255 5.07 4.041 4.514 8.431-.608 4.365-3.388 7.795-6.411 7.591-3.025-.207-5.16-4.002-4.679-8.466Zm-4.465-146.265c2.997 1.917 6.774 7.584 7.377 13.987.601 6.406-1.836 11.784-5.199 11.963-3.363.181-7.085-5.842-10.631-6.49-3.55-.642-8.987 1.118-12.566-1.705-3.577-2.825 3.076-12.701 7.602-16.059 4.529-3.366 8.669-4.732 13.417-1.696Zm-19.72-11.795c2.21-.864 4.83 1.044 5.863 4.241 1.034 3.198.09 6.473-2.121 7.337-2.209.867-4.847-1.008-5.88-4.205-1.034-3.198-.072-6.506 2.138-7.373Zm24.141 10.794c-2.514-1.75-2.533-6.171.098-9.8 2.586-3.65 6.677-5.172 9.141-3.406 2.463 1.765 2.381 6.12-.188 9.735-2.614 3.593-6.544 5.214-9.051 3.471Zm8.189 2.734c2.757-1.824 6.096-1.57 7.232.421 1.128 1.987-.089 5.1-2.879 6.894-2.774 1.8-6.007 1.642-7.212-.371-1.205-2.019.08-5.134 2.859-6.943Zm-23.087-14.771c.569-4.415 3.52-7.808 6.577-7.556 3.056.255 5.07 4.04 4.513 8.43-.607 4.365-3.387 7.795-6.411 7.591-3.024-.207-5.159-4.002-4.679-8.465Zm-55.383 443.716c3.473-.766 10.144.568 15.094 4.669 4.948 4.105 7.023 9.635 4.772 12.142-2.25 2.51-9.135.884-12.099 2.937-2.963 2.059-5.563 7.153-10.087 7.691-4.524.534-6.796-11.161-5.967-16.741.824-5.587 2.786-9.484 8.287-10.698Zm-22.271 5.619c.952-2.176 4.152-2.681 7.14-1.151 2.99 1.53 4.635 4.515 3.682 6.691-.95 2.177-4.138 2.719-7.127 1.189-2.989-1.53-4.646-4.551-3.695-6.729Zm24.69-9.457c-3.013.542-6.149-2.572-6.852-7.001-.749-4.412 1.068-8.385 4.057-8.881 2.987-.495 6.005 2.643 6.742 7.019.69 4.392-.944 8.32-3.947 8.863Zm7.72-3.864c.66-3.242 3.201-5.427 5.41-4.823 2.2.607 3.538 3.669 2.833 6.914-.689 3.238-3.087 5.415-5.361 4.844-2.277-.575-3.568-3.688-2.882-6.935Zm-26.753 5.898c-2.715-3.525-3.026-8.015-.687-10 2.34-1.984 6.438-.732 9.145 2.766 2.653 3.518 3.11 7.912.828 9.908-2.284 1.995-6.474.823-9.286-2.674ZM61.947 310.617c3.473-.766 10.145.568 15.094 4.67 4.949 4.105 7.024 9.634 4.773 12.141-2.25 2.51-9.135.885-12.1 2.937-2.962 2.059-5.563 7.154-10.087 7.691-4.524.534-6.796-11.161-5.967-16.74.825-5.588 2.787-9.484 8.287-10.699Zm-22.271 5.619c.953-2.176 4.152-2.681 7.141-1.151s4.634 4.515 3.682 6.691c-.95 2.178-4.139 2.719-7.127 1.189-2.99-1.529-4.646-4.551-3.696-6.729Zm24.69-9.457c-3.013.542-6.149-2.572-6.852-7.001-.749-4.411 1.068-8.385 4.057-8.881 2.988-.495 6.005 2.643 6.742 7.02.69 4.391-.944 8.32-3.947 8.862Zm7.721-3.864c.66-3.242 3.2-5.427 5.409-4.823 2.2.607 3.538 3.67 2.833 6.915-.689 3.237-3.087 5.414-5.36 4.843-2.277-.575-3.57-3.688-2.882-6.935Zm-26.754 5.898c-2.715-3.525-3.026-8.015-.687-10 2.34-1.984 6.438-.732 9.145 2.767 2.653 3.517 3.11 7.911.829 9.908-2.285 1.995-6.474.822-9.287-2.675Zm-4.901-175.932c3.473-.766 10.145.568 15.094 4.669 4.948 4.105 7.023 9.635 4.772 12.142-2.25 2.51-9.135.885-12.099 2.937-2.963 2.059-5.563 7.153-10.087 7.691-4.524.534-6.796-11.161-5.967-16.741.824-5.587 2.786-9.484 8.287-10.698ZM18.161 138.5c.952-2.176 4.152-2.681 7.14-1.151 2.99 1.53 4.635 4.515 3.683 6.691-.95 2.177-4.139 2.719-7.127 1.189-2.99-1.53-4.646-4.551-3.696-6.729Zm24.689-9.457c-3.013.542-6.148-2.572-6.851-7.001-.75-4.412 1.068-8.385 4.057-8.881 2.987-.495 6.005 2.643 6.742 7.019.69 4.392-.944 8.321-3.947 8.863Zm7.721-3.864c.66-3.242 3.2-5.427 5.41-4.823 2.2.607 3.538 3.669 2.833 6.914-.69 3.238-3.087 5.414-5.36 4.844-2.278-.575-3.57-3.688-2.883-6.935Zm-26.753 5.898c-2.716-3.525-3.026-8.015-.687-10.001 2.34-1.983 6.438-.731 9.144 2.767 2.654 3.518 3.11 7.912.83 9.908-2.285 1.995-6.475.823-9.287-2.674Z"/>
</svg>
