<svg xmlns="http://www.w3.org/2000/svg" width="23" height="21" fill="none" viewBox="0 0 23 21">
  <path fill="#3D5A80" d="M10.175 3.173c.642 1.927-.014 3.873-1.465 4.349-1.45.476-3.149-.701-3.791-2.628-.642-1.927.013-3.873 1.464-4.349s3.15.701 3.792 2.628ZM4.51 7.921c.85 1.456.643 3.15-.458 3.778-1.1.63-2.682-.04-3.526-1.495-.845-1.456-.647-3.15.453-3.778 1.1-.63 2.682.04 3.527 1.495h.004Zm-1.4 9.102c2.354-6.348 6.536-7.96 8.391-7.96 1.855 0 6.038 1.612 8.391 7.96.162.435.234.903.234 1.37v.072a2.097 2.097 0 0 1-2.098 2.098 6.237 6.237 0 0 1-1.527-.19l-3.953-.988a4.343 4.343 0 0 0-2.094 0l-3.953.989a6.238 6.238 0 0 1-1.527.189 2.097 2.097 0 0 1-2.098-2.098v-.072c0-.467.072-.935.234-1.37Zm15.839-5.324c-1.1-.629-1.307-2.322-.458-3.778.849-1.455 2.426-2.124 3.526-1.495 1.1.628 1.307 2.322.458 3.777-.849 1.456-2.425 2.125-3.526 1.496ZM13.93 7.522c-1.45-.476-2.107-2.422-1.464-4.349.642-1.927 2.34-3.104 3.791-2.628s2.107 2.422 1.465 4.349c-.643 1.927-2.34 3.104-3.792 2.628Z"/>
</svg>
